<?xml version="1.0" encoding="utf-8"?>
<!-- Generator: Adobe Illustrator 22.1.0, SVG Export Plug-In . SVG Version: 6.00 Build 0)  -->
<svg version="1.1" id="Layer_1_2_" xmlns="http://www.w3.org/2000/svg" xmlns:xlink="http://www.w3.org/1999/xlink" x="0px" y="0px"
	 viewBox="0 0 758 766" style="enable-background:new 0 0 758 766;" xml:space="preserve">
<style type="text/css">
	.st0{fill:#5091CD;}
	.st1{fill:#FFFFFF;}
	.st2{opacity:0.5;}
	.st3{fill:#007FA4;}
	.st4{fill:#008656;}
	.st5{fill:#D9C826;}
	.st6{opacity:0.5;fill:#FFFFFF;enable-background:new    ;}
	.st7{fill:#D85820;}
	.st8{fill:#938FC3;}
	.st9{fill:#482476;}
	.st10{fill:url(#SVGID_1_);}
	.st11{fill:#514689;}
</style>
<g id="Layer_1_1_">
	<g id="Layer_1">
		<g>
			<title>prev-med-ring-7-circles</title>
			<g id="Icons">
				<g id="Behavioral_Medicine">
					<path class="st0" d="M442,175.5c37.3-32,41.5-88.2,9.5-125.5S363.3,8.4,326,40.5s-41.5,88.2-9.5,125.5c2.9,3.4,6.1,6.6,9.5,9.5
						c-24.5,6.5-47.6,17-68.6,31.1c32.2,28.9,77,46.9,126.6,46.9s94.5-17.9,126.6-46.9C489.7,192.4,466.5,181.9,442,175.5z"/>
					<g id="Behavioral_Medicine_Text">
						<path class="st1" d="M350,144.1c-1,0.7-2.2,1-3.4,0.9h-5.1v-12.8h5.1c1-0.1,2.1,0.2,3,0.7c0.9,0.6,1.5,1.7,1.5,2.8
							c0.1,1.1-0.6,2.2-1.6,2.7c1.1,0.5,1.9,1.6,1.8,2.9C351.4,142.4,350.9,143.4,350,144.1z M346.7,134.2h-2.9v3.2h2.9
							c1,0,1.9-0.4,1.9-1.6S347.7,134.2,346.7,134.2L346.7,134.2z M346.8,139.3h-2.9v3.6h2.9c1.1,0,2.2-0.4,2.2-1.7
							S347.9,139.3,346.8,139.3L346.8,139.3z"/>
						<path class="st1" d="M361.2,141H355c0,0.7,0.2,1.3,0.7,1.8c0.4,0.4,0.9,0.6,1.4,0.6c0.8,0.1,1.6-0.4,1.8-1.2h2.1
							c-0.1,0.6-0.4,1.2-0.8,1.7c-0.8,0.9-2,1.4-3.1,1.3c-1.1,0-2.2-0.4-3-1.2c-1-1-1.5-2.3-1.4-3.7c-0.1-1.4,0.4-2.7,1.4-3.8
							c0.8-0.8,1.9-1.2,3-1.2c1.4-0.1,2.7,0.6,3.4,1.7c0.6,1,0.9,2.1,0.8,3.3C361.2,140.4,361.2,140.8,361.2,141z M358.4,137.7
							c-0.4-0.4-0.9-0.6-1.4-0.5c-0.6,0-1.2,0.2-1.6,0.7c-0.3,0.4-0.5,0.9-0.5,1.4h4C359,138.8,358.8,138.2,358.4,137.7L358.4,137.7
							z"/>
						<path class="st1" d="M369,145v-5.8c0-1.1-0.4-1.7-1.5-1.7c-1.4,0-1.9,1.4-1.9,2.6v4.9h-2.2v-13h2.2v4.6
							c0.6-0.8,1.6-1.2,2.5-1.2c1.7-0.1,3.1,1.3,3.2,3c0,0.1,0,0.3,0,0.4v6.2H369z"/>
						<path class="st1" d="M380.9,145.1c-0.8,0.1-1.5-0.5-1.6-1.3c-0.6,0.9-1.7,1.5-2.8,1.4c-2.2,0-3.4-1.4-3.4-2.9
							c0-1.8,1.4-2.8,3.2-2.9l2.8-0.2v-0.6c0-0.9-0.3-1.5-1.6-1.5c-1,0-1.7,0.5-1.7,1.3h-2.2c0.1-2.1,1.8-3,3.9-3
							c1.6,0,3,0.5,3.5,1.9c0.2,0.6,0.3,1.2,0.3,1.9v3.5c0,0.4,0.1,0.6,0.5,0.6c0.1,0,0.2,0,0.3,0v1.6
							C381.6,145.1,381.2,145.1,380.9,145.1z M379,140.8l-2.4,0.2c-0.7,0-1.3,0.5-1.4,1.2c0,0.7,0.6,1.2,1.3,1.2c0,0,0,0,0,0
							c1.2,0.1,2.2-0.7,2.4-1.8c0-0.1,0-0.2,0-0.3V140.8z"/>
						<path class="st1" d="M388,145h-2.4l-3.5-9.4h2.4l2.3,6.6l2.2-6.6h2.3L388,145z"/>
						<path class="st1" d="M392.8,134.3V132h2.4v2.3L392.8,134.3z M392.9,145v-9.4h2.3v9.4L392.9,145z"/>
						<path class="st1" d="M404.8,143.7c-1.6,1.8-4.4,2-6.2,0.3c-0.1-0.1-0.2-0.2-0.3-0.3c-1.5-2.1-1.5-4.8,0-6.9
							c1.6-1.8,4.4-1.9,6.2-0.3c0.1,0.1,0.2,0.2,0.3,0.3C406.3,138.9,406.3,141.7,404.8,143.7z M403,137.9c-0.4-0.4-0.9-0.6-1.4-0.6
							c-0.5,0-1,0.2-1.4,0.6c-0.9,1.4-0.9,3.3,0,4.7c0.4,0.4,0.9,0.6,1.4,0.6c0.5,0,1.1-0.2,1.4-0.6
							C403.9,141.2,403.9,139.4,403,137.9z"/>
						<path class="st1" d="M412.6,137.6c-1.3,0-2.4,1-2.4,2.3c0,0.1,0,0.2,0,0.3v4.8h-2.3v-9.4h1.9l0.2,1.4c0.5-1,1.5-1.6,2.6-1.5
							c0.2,0,0.5,0,0.7,0.1v2.2C413.1,137.6,412.9,137.6,412.6,137.6z"/>
						<path class="st1" d="M422.1,145.1c-0.8,0.1-1.5-0.5-1.6-1.3c-0.6,0.9-1.7,1.5-2.9,1.4c-2.2,0-3.4-1.4-3.4-2.9
							c0-1.8,1.4-2.8,3.2-2.9l2.8-0.2v-0.6c0-0.9-0.3-1.5-1.6-1.5c-1,0-1.7,0.5-1.7,1.3h-2.2c0.1-2.1,1.8-3,3.9-3
							c1.6,0,3,0.5,3.5,1.9c0.2,0.6,0.3,1.2,0.3,1.9v3.5c0,0.4,0.1,0.6,0.5,0.6c0.1,0,0.2,0,0.3,0v1.6
							C422.9,145.1,422.5,145.1,422.1,145.1z M420.2,140.8l-2.4,0.2c-0.7,0-1.3,0.5-1.4,1.2c0,0.7,0.6,1.2,1.3,1.2c0,0,0,0,0.1,0
							c1.2,0.1,2.2-0.7,2.4-1.8c0-0.1,0-0.2,0-0.3L420.2,140.8z"/>
						<path class="st1" d="M427.5,145.1c-1.2,0.2-2.4-0.7-2.6-1.9c0-0.2,0-0.4,0-0.6v-10.6h2.3v10.2c0,0.5,0.1,0.9,0.9,0.9
							c0.2,0,0.2,0,0.4,0v1.9C428.2,145,427.8,145.1,427.5,145.1z"/>
						<path class="st1" d="M358.5,164v-9.1l-3.3,8.9h-1.7l-3.3-9v9.2H348v-12.8h3.1l3.4,9.1l3.4-9.1h3V164H358.5z"/>
						<path class="st1" d="M371.4,160h-6.3c0,0.7,0.2,1.3,0.7,1.8c0.4,0.4,0.9,0.6,1.4,0.6c0.8,0.1,1.6-0.4,1.8-1.2h2.2
							c-0.1,0.6-0.4,1.2-0.8,1.7c-0.8,0.9-2,1.4-3.1,1.3c-1.1,0-2.2-0.4-3-1.2c-1-1-1.5-2.3-1.4-3.7c-0.1-1.4,0.4-2.7,1.4-3.8
							c0.8-0.8,1.9-1.2,3-1.2c1.4-0.1,2.7,0.6,3.4,1.7c0.6,1,0.9,2.1,0.8,3.3C371.4,159.4,371.4,159.8,371.4,160z M368.6,156.7
							c-0.4-0.4-0.9-0.6-1.4-0.5c-0.6,0-1.2,0.2-1.6,0.7c-0.3,0.4-0.5,0.9-0.5,1.4h4C369.2,157.8,369,157.2,368.6,156.7L368.6,156.7
							z"/>
						<path class="st1" d="M379.6,164l-0.1-1c-0.6,0.8-1.6,1.3-2.6,1.2c-0.8,0-1.6-0.3-2.3-0.8c-1.1-1-1.8-2.5-1.6-4.1
							c-0.1-1.6,0.5-3.1,1.7-4.2c0.7-0.5,1.5-0.8,2.3-0.8c0.9-0.1,1.8,0.2,2.5,0.9V151h2.2v13H379.6z M377.3,156.3
							c-0.6,0-1.2,0.3-1.5,0.7c-0.4,0.7-0.6,1.5-0.6,2.3c0,0.8,0.2,1.6,0.6,2.3c0.4,0.5,0.9,0.7,1.5,0.7c1.8,0,2.1-1.7,2.1-3
							S379,156.3,377.3,156.3L377.3,156.3z"/>
						<path class="st1" d="M384,153.3V151h2.4v2.3L384,153.3z M384.1,164v-9.4h2.3v9.4L384.1,164z"/>
						<path class="st1" d="M395.9,162.7c-0.8,1-2,1.5-3.2,1.5c-1.3,0-2.4-0.5-3.3-1.5c-1.4-2.1-1.4-4.8,0-6.8c0.8-0.9,2-1.5,3.3-1.5
							c1.2,0,2.4,0.5,3.2,1.5c0.4,0.6,0.7,1.3,0.7,2h-2.2c0-0.3-0.1-0.6-0.3-0.9c-0.3-0.5-0.9-0.7-1.4-0.7c-0.5,0-1,0.2-1.4,0.6
							c-0.8,1.5-0.8,3.3,0,4.7c0.4,0.4,0.9,0.6,1.4,0.6c0.6,0,1.1-0.2,1.4-0.7c0.2-0.3,0.3-0.6,0.3-0.9h2.2
							C396.6,161.4,396.3,162.1,395.9,162.7z"/>
						<path class="st1" d="M398.5,153.3V151h2.4v2.3L398.5,153.3z M398.5,164v-9.4h2.3v9.4L398.5,164z"/>
						<path class="st1" d="M409.1,164v-5.7c0-1.1-0.4-1.8-1.5-1.8c-0.7,0-1.4,0.5-1.6,1.2c-0.3,0.8-0.4,1.7-0.3,2.5v3.8h-2.2v-9.4
							h1.9l0.2,1.2c1-1.5,3-1.9,4.5-0.9c0.9,0.6,1.5,1.7,1.4,2.8v6.3H409.1z"/>
						<path class="st1" d="M421.8,160h-6.3c0,0.7,0.2,1.3,0.7,1.8c0.4,0.4,0.9,0.6,1.4,0.6c0.5,0.1,1-0.1,1.4-0.4
							c0.2-0.2,0.4-0.5,0.5-0.8h2.2c-0.1,0.6-0.4,1.2-0.8,1.7c-0.8,0.9-2,1.4-3.1,1.3c-1.1,0-2.2-0.4-3-1.2c-1-1-1.5-2.3-1.4-3.7
							c-0.1-1.4,0.4-2.7,1.4-3.8c0.8-0.8,1.9-1.2,3-1.2c1.4-0.1,2.7,0.6,3.4,1.7c0.6,1,0.9,2.1,0.8,3.3
							C421.8,159.4,421.8,159.8,421.8,160z M419,156.7c-0.9-0.8-2.2-0.7-3,0.1c0,0,0,0,0,0c-0.3,0.4-0.5,0.9-0.5,1.4h4
							C419.6,157.8,419.4,157.2,419,156.7L419,156.7z"/>
					</g>
					<g id="Behavioral_Medicine_Icon" class="st2">
						<path class="st1" d="M410.6,72.5c-0.7-2.6-2.4-3.8-5.1-3.4c-1.5,0.2-3,0.5-4.5,0.8c-6.7,1.2-13.3,2.8-20.2,1.4
							c-5.1-1-10.4-1.1-15.6-1.6c-7.2-0.7-12.5,2.6-12.9,9c-0.5,8.6-0.1,17.3-0.1,26h22.8c0.4-6.9,0.9-13.7,1.3-20.6
							c4.1,0,7.9,0.1,11.7,0c2,0,3.9-0.3,5.8-0.9c4.7-1.7,9.4-3.7,14-5.6C410.4,76.5,411.3,75,410.6,72.5z"/>
						<path class="st1" d="M414.5,72.4c0.6,5.3-1.6,7.9-6.1,9.1c-2.8,0.9-5.5,2-8.1,3.2c-6,2.4-6,2.4-6,8.8v11.2h22.4
							c0.4-7.9,0.9-15.6,1.3-23.3C418.2,78.2,417.2,75.4,414.5,72.4z"/>
						<path class="st1" d="M366.7,65.5c6.4,0,11.6-5,11.7-11.4c0.1-6.4-5-11.7-11.4-11.9c-6.4-0.1-11.7,5-11.9,11.4
							C355,60.1,360.2,65.4,366.7,65.5C366.7,65.5,366.7,65.5,366.7,65.5z"/>
						<path class="st1" d="M395.9,67.5c5.9,0,10.7-4.9,10.7-10.8s-4.9-10.7-10.8-10.7c-5.9,0-10.6,4.8-10.7,10.7
							C385.1,62.7,389.9,67.5,395.9,67.5z"/>
					</g>
				</g>
				<g id="Biostatistics">
					<path class="st3" d="M678,160.5c-30.7-38.4-86.6-44.7-125.1-14.1c-20.3,16.2-32.5,40.4-33.4,66.4c-20.3-15.1-43-26.7-67.1-34.3
						c-2.5,43.2,11.4,89.4,42.3,128.2s72.9,62.6,115.6,69.8c-2-25.2-8.3-49.9-18.5-73.1c48.3,9.2,94.9-22.5,104.1-70.8
						C700.7,207.1,694.2,180.8,678,160.5z"/>
					<g id="Biostatistics_Text">
						<path class="st1" d="M566,265.1c-1,0.7-2.2,1-3.4,0.9h-5.1v-12.8h5.1c1-0.1,2.1,0.2,3,0.7c0.9,0.6,1.5,1.7,1.5,2.8
							c0.1,1.1-0.6,2.2-1.6,2.7c1.1,0.5,1.8,1.6,1.8,2.9C567.4,263.4,566.9,264.4,566,265.1z M562.7,255.2h-2.9v3.2h2.9
							c1,0,1.9-0.4,1.9-1.6S563.8,255.2,562.7,255.2L562.7,255.2z M562.8,260.3h-2.9v3.5h2.9c1.1,0,2.2-0.4,2.2-1.7
							S564,260.3,562.8,260.3L562.8,260.3z"/>
						<path class="st1" d="M569.2,255.3V253h2.4v2.3L569.2,255.3z M569.3,266v-9.4h2.3v9.4L569.3,266z"/>
						<path class="st1" d="M581.2,264.7c-1.6,1.8-4.4,2-6.2,0.3c-0.1-0.1-0.2-0.2-0.3-0.3c-1.5-2.1-1.5-4.8,0-6.9
							c1.6-1.8,4.4-1.9,6.2-0.3c0.1,0.1,0.2,0.2,0.3,0.3C582.7,259.9,582.7,262.7,581.2,264.7z M579.4,258.9c-0.8-0.8-2-0.8-2.8,0
							c0,0,0,0,0,0c-0.9,1.5-0.9,3.3,0,4.7c0.8,0.8,2,0.8,2.8,0c0,0,0,0,0,0C580.3,262.2,580.3,260.4,579.4,258.9z"/>
						<path class="st1" d="M590.9,265.1c-0.9,0.8-2,1.1-3.2,1.1c-1.1,0-2.2-0.4-3-1.1c-0.6-0.6-1-1.3-1-2.2h2.1
							c0,0.4,0.2,0.8,0.5,1.1c0.4,0.3,0.9,0.4,1.4,0.4c0.8,0,1.9-0.2,1.9-1.2c0-0.5-0.4-1-0.9-1c-0.8-0.1-1.8-0.2-2.6-0.4
							c-1.2-0.2-2.1-1.3-2.1-2.5c0-0.8,0.4-1.6,1-2.1c0.8-0.6,1.8-1,2.8-0.9c1.1-0.1,2.1,0.3,2.9,1.1c0.5,0.5,0.8,1.2,0.8,1.9h-2.1
							c0-0.3-0.1-0.6-0.4-0.9c-0.3-0.3-0.8-0.4-1.2-0.4c-0.3,0-0.7,0-1,0.1c-0.4,0.2-0.7,0.6-0.7,1c0,0.7,0.6,0.9,1.1,0.9
							c0.8,0.1,1.1,0.1,2,0.3c1.4,0.1,2.5,1.2,2.6,2.6C591.8,263.8,591.5,264.6,590.9,265.1z"/>
						<path class="st1" d="M597.3,266.1c-1.4,0.2-2.7-0.9-2.8-2.3c0-0.2,0-0.4,0-0.6v-4.8h-1.7v-1.8h1.7v-2.4l2.2-0.6v2.9h2.4v1.9
							h-2.4v4.5c0,0.7,0.3,1,1,1c0.5,0,1,0,1.5-0.1v1.9C598.6,266,597.9,266.1,597.3,266.1z"/>
						<path class="st1" d="M608.3,266.1c-0.8,0.1-1.5-0.5-1.6-1.3c-0.6,0.9-1.7,1.5-2.8,1.4c-2.2,0-3.4-1.4-3.4-2.9
							c0-1.8,1.4-2.8,3.2-2.9l2.8-0.2v-0.6c0-0.9-0.3-1.5-1.6-1.5c-1,0-1.7,0.5-1.7,1.3H601c0.1-2.1,1.8-3,3.9-3
							c1.6,0,3,0.5,3.5,1.9c0.2,0.6,0.3,1.2,0.3,1.9v3.5c0,0.4,0.2,0.6,0.5,0.6c0.1,0,0.2,0,0.3,0v1.6
							C609.1,266.1,608.7,266.2,608.3,266.1z M606.4,261.8l-2.4,0.2c-0.7,0-1.3,0.5-1.3,1.2c0,0.7,0.6,1.2,1.3,1.2c0,0,0,0,0,0
							c1.2,0.2,2.2-0.7,2.4-1.8c0-0.1,0-0.2,0-0.3L606.4,261.8z"/>
						<path class="st1" d="M614.6,266.1c-1.4,0.2-2.7-0.9-2.8-2.3c0-0.2,0-0.4,0-0.6v-4.8h-1.7v-1.8h1.7v-2.4l2.2-0.6v2.9h2.4v1.9
							h-2.4v4.5c0,0.7,0.3,1,1,1c0.5,0,1,0,1.5-0.1v1.9C615.9,266,615.3,266.1,614.6,266.1z"/>
						<path class="st1" d="M618.3,255.3V253h2.4v2.3L618.3,255.3z M618.4,266v-9.4h2.3v9.4L618.4,266z"/>
						<path class="st1" d="M629.8,265.1c-0.9,0.8-2,1.2-3.2,1.1c-1.1,0-2.2-0.4-3-1.1c-0.6-0.6-1-1.3-1-2.2h2.1
							c0,0.4,0.2,0.8,0.5,1.1c0.4,0.3,0.9,0.4,1.4,0.4c0.8,0,1.9-0.2,1.9-1.2c0-0.5-0.4-1-0.9-1c-0.8-0.1-1.8-0.2-2.6-0.4
							c-1.2-0.2-2.1-1.3-2.1-2.5c0-0.8,0.4-1.6,1-2.1c0.8-0.6,1.8-1,2.8-0.9c1.1-0.1,2.1,0.3,2.9,1.1c0.5,0.5,0.8,1.2,0.8,1.9h-2.1
							c0-0.3-0.1-0.6-0.4-0.9c-0.3-0.3-0.8-0.4-1.2-0.4c-0.3,0-0.7,0-1,0.1c-0.4,0.1-0.7,0.5-0.7,1c0,0.7,0.6,0.9,1.1,0.9
							c0.8,0.1,1.1,0.1,2,0.3c1.4,0.1,2.5,1.2,2.5,2.6C630.6,263.8,630.3,264.6,629.8,265.1z"/>
						<path class="st1" d="M636.2,266.1c-1.4,0.2-2.7-0.9-2.8-2.3c0-0.2,0-0.4,0-0.6v-4.8h-1.7v-1.8h1.7v-2.4l2.2-0.6v2.9h2.4v1.9
							h-2.4v4.5c0,0.7,0.3,1,1,1c0.5,0,1,0,1.5-0.1v1.9C637.4,266,636.8,266.1,636.2,266.1z"/>
						<path class="st1" d="M639.8,255.3V253h2.4v2.3L639.8,255.3z M639.9,266v-9.4h2.3v9.4H639.9z"/>
						<path class="st1" d="M651.7,264.7c-0.8,1-2,1.5-3.2,1.5c-1.3,0-2.4-0.5-3.3-1.5c-1.4-2.1-1.4-4.8,0-6.8c0.8-0.9,2-1.5,3.3-1.5
							c1.2,0,2.4,0.5,3.2,1.5c0.4,0.6,0.7,1.3,0.7,2h-2.2c0-0.3-0.1-0.6-0.3-0.9c-0.3-0.5-0.9-0.7-1.4-0.7c-0.5,0-1,0.2-1.4,0.6
							c-0.8,1.5-0.8,3.3,0,4.7c0.4,0.4,0.9,0.6,1.4,0.6c0.6,0,1.1-0.2,1.4-0.7c0.2-0.3,0.3-0.6,0.3-0.9h2.2
							C652.4,263.4,652.1,264.1,651.7,264.7z"/>
						<path class="st1" d="M661,265.1c-0.9,0.8-2,1.2-3.2,1.1c-1.1,0-2.2-0.3-3-1.1c-0.6-0.6-1-1.3-1-2.2h2.1c0,0.4,0.2,0.8,0.5,1.1
							c0.4,0.3,0.9,0.4,1.4,0.4c0.8,0,1.9-0.2,1.9-1.2c0-0.5-0.4-1-0.9-1c-0.8-0.1-1.8-0.2-2.6-0.4c-1.2-0.2-2.1-1.3-2.1-2.5
							c0-0.8,0.4-1.6,1-2.1c0.8-0.6,1.8-1,2.8-0.9c1.1,0,2.1,0.3,2.9,1.1c0.5,0.5,0.8,1.2,0.8,1.9h-2.1c0-0.3-0.1-0.6-0.4-0.9
							c-0.3-0.3-0.8-0.4-1.2-0.4c-0.3,0-0.7,0-1,0.1c-0.4,0.2-0.7,0.5-0.7,1c0,0.7,0.6,0.9,1.1,0.9c0.8,0.1,1.1,0.1,2,0.3
							c1.4,0.1,2.5,1.2,2.6,2.6C661.9,263.8,661.5,264.6,661,265.1z"/>
					</g>
					<g id="Biostatistics_Icon" class="st2">
						<path class="st1" d="M642.5,227.6c-2.3,0.1-4.6,0-7.1,0v-6.2c0-6.1,0-12.2,0-18.3c0-2.3-1.4-3.7-3.5-3.5
							c-1.8,0.1-2.9,1.5-2.9,3.6c0,7.5,0,15,0,22.5v1.8H616v-2.1c0-9.7,0-19.3,0-29c0-0.7,0-1.3-0.1-2c-0.2-1.5-1.5-2.6-3-2.5
							c-1.9,0-3.1,1.4-3.1,3.5c0,10,0,20,0,30v2h-13.3c0-5.2,0-10.3,0-15.4c0-2.1-1.3-3.5-3.2-3.5s-3.2,1.4-3.2,3.5
							c0,3.9,0,7.9,0,11.8v3.6h-12v-61.9c0-0.6,0-1.1,0-1.7c-0.1-1.4-1.1-2.5-2.5-2.8c-1.3-0.3-2.6,0.3-3.3,1.4
							c-0.2,0.3-0.3,0.5-0.5,0.8V234h75v-4C646,228.1,644.5,227.5,642.5,227.6z"/>
						<path class="st1" d="M595.4,203.9c5.3-1.2,8.6-6.5,7.4-11.8c-0.3-1.2-0.8-2.3-1.5-3.4c2.7-3.4,5.5-6.8,8.2-10.2
							c0.2-0.3,0.8-0.3,1.3-0.3c1.5-0.1,3-0.1,4.5-0.1c0.7,0,1.4,0.2,2,0.6c1.7,1.5,3.3,3.1,5,4.6c0.7,0.5,0.9,1.4,0.6,2.2
							c-1,4,0.7,8.2,4.2,10.4c4.5,2.9,10.5,1.5,13.4-3c2.9-4.5,1.5-10.5-3-13.4c-2.8-1.7-6.2-2-9.2-0.6c-0.5,0.2-1.3,0.3-1.6,0
							c-1.7-1.9-3.4-3.8-5.2-5.9c1.9-4.3,1.1-8.4-2.4-11.6c-1.7-1.4-3.8-2.2-6-2.5h-0.7c-0.1,0.1-0.3,0.2-0.5,0.2
							c-6.4,0.2-11.2,7.7-7.6,14.3c0.2,0.5,0.1,1.1-0.2,1.5c-2.1,2.8-4.4,5.4-6.5,8.2c-1,1.3-2,2.1-3.7,1.6c-0.7-0.1-1.4,0-2.1,0.1
							c-5.2,0.8-8.8,5.7-8,11c0,0,0,0,0,0.1c0.9,5.3,6,8.9,11.3,8C595.2,203.9,595.3,203.9,595.4,203.9z M632.3,184.4
							c1.9,0.1,3.4,1.7,3.4,3.6c0,1.9-1.6,3.5-3.5,3.5s-3.5-1.6-3.5-3.5C628.7,186,630.3,184.4,632.3,184.4
							C632.3,184.4,632.3,184.4,632.3,184.4z M612.7,165.3c2,0,3.6,1.6,3.7,3.5c-0.1,1.9-1.6,3.4-3.5,3.5c-1.9,0-3.5-1.5-3.5-3.4
							C609.3,167,610.7,165.4,612.7,165.3C612.7,165.3,612.7,165.3,612.7,165.3z M593.2,190.9c1.9,0,3.5,1.5,3.5,3.4
							c0,0,0,0.1,0,0.1c0,1.9-1.6,3.5-3.5,3.5s-3.5-1.6-3.5-3.5c0-1.9,1.5-3.4,3.4-3.5C593.2,190.9,593.2,190.9,593.2,190.9
							L593.2,190.9z"/>
					</g>
				</g>
				<g id="Epidemiology">
					<path class="st4" d="M683.7,372c-25.3-5.8-51.9-0.2-72.8,15.3c-0.8-25.3-5.9-50.3-15.1-73.9c-35.3,24.9-62.8,64.7-73.8,113
						s-3.5,96.1,17.5,133.9c18.5-17.3,33.9-37.7,45.6-60.1c22.9,43.5,76.7,60.3,120.2,37.4s60.3-76.7,37.4-120.2
						C730.7,394.4,709.1,377.8,683.7,372z"/>
					<g id="Epidemiology_Text">
						<path class="st1" d="M611,507.4v-12.8h9.1v2.1h-6.8v3h6v2.1h-6v3.5h6.8v2.1L611,507.4z"/>
						<path class="st1" d="M629,506.9c-0.6,0.5-1.5,0.8-2.3,0.8c-0.9,0.1-1.8-0.3-2.5-0.9v4.3h-2.2v-13h2l0.1,1
							c0.6-0.8,1.6-1.3,2.6-1.2c0.8,0,1.6,0.3,2.3,0.8c1.2,1,1.8,2.5,1.7,4.1C630.9,504.2,630.2,505.8,629,506.9z M627.8,500.4
							c-0.4-0.5-0.9-0.7-1.5-0.7c-1.8,0-2.1,1.7-2.1,3s0.4,3,2.1,3c0.6,0,1.2-0.3,1.5-0.7c0.4-0.7,0.6-1.5,0.6-2.3
							C628.5,501.9,628.3,501.1,627.8,500.4L627.8,500.4z"/>
						<path class="st1" d="M632.7,496.7v-2.3h2.4v2.3H632.7z M632.8,507.4V498h2.2v9.4L632.8,507.4z"/>
						<path class="st1" d="M643.8,507.4l-0.2-1c-0.6,0.8-1.6,1.3-2.6,1.2c-0.8,0-1.6-0.3-2.3-0.8c-1.2-1-1.8-2.5-1.7-4.1
							c-0.1-1.6,0.5-3.1,1.7-4.2c0.6-0.5,1.5-0.8,2.3-0.8c0.9-0.1,1.8,0.3,2.5,0.9v-4.3h2.2v13L643.8,507.4z M641.5,499.7
							c-0.6,0-1.2,0.3-1.5,0.7c-0.4,0.7-0.6,1.5-0.6,2.3c-0.1,0.8,0.2,1.6,0.6,2.3c0.4,0.5,0.9,0.7,1.5,0.7c1.8,0,2.1-1.7,2.1-3
							S643.2,499.7,641.5,499.7z"/>
						<path class="st1" d="M656.3,503.4H650c0,0.7,0.2,1.3,0.7,1.8c0.4,0.4,0.9,0.6,1.4,0.6c0.5,0.1,1-0.1,1.4-0.5
							c0.2-0.2,0.4-0.5,0.5-0.8h2.2c-0.1,0.6-0.4,1.2-0.8,1.7c-1.7,1.7-4.4,1.8-6.1,0.2c-1-1-1.5-2.3-1.4-3.7
							c-0.1-1.4,0.4-2.7,1.3-3.8c0.8-0.8,1.9-1.2,3-1.2c1.4,0,2.6,0.6,3.4,1.7c0.6,1,0.9,2.1,0.8,3.3
							C656.3,502.8,656.3,503.2,656.3,503.4z M653.5,500.1c-0.4-0.4-0.9-0.6-1.4-0.5c-0.6,0-1.2,0.2-1.6,0.7
							c-0.3,0.4-0.5,0.9-0.5,1.5h4C654,501.2,653.8,500.6,653.5,500.1L653.5,500.1z"/>
						<path class="st1" d="M669.3,507.4v-5.8c0-1.1-0.3-1.8-1.4-1.8s-1.8,1.4-1.8,2.5v5.1h-2.2v-5.8c0-1.1-0.3-1.8-1.4-1.8
							s-1.9,1.4-1.9,2.5v5.1h-2.2V498h1.9l0.2,1.2c0.6-0.9,1.6-1.5,2.7-1.5c1.1-0.1,2.2,0.5,2.7,1.5c0.6-1,1.7-1.6,2.8-1.5
							c2,0,3,1.3,3,3.3v6.3L669.3,507.4z"/>
						<path class="st1" d="M674,496.7v-2.3h2.4v2.3H674z M674.1,507.4V498h2.3v9.4L674.1,507.4z"/>
						<path class="st1" d="M686,506.2c-1.6,1.8-4.4,2-6.2,0.3c-0.1-0.1-0.2-0.2-0.3-0.3c-1.5-2.1-1.5-4.8,0-6.9
							c1.6-1.8,4.4-2,6.2-0.3c0.1,0.1,0.2,0.2,0.3,0.3C687.5,501.3,687.5,504.1,686,506.2z M684.2,500.3c-0.8-0.8-2-0.8-2.8,0
							c0,0,0,0,0,0c-0.9,1.5-0.9,3.3,0,4.7c0.8,0.8,2,0.8,2.8,0c0,0,0,0,0,0C685,503.6,685,501.8,684.2,500.3z"/>
						<path class="st1" d="M691.6,507.5c-1.2,0.2-2.4-0.7-2.6-1.9c0-0.2,0-0.4,0-0.6v-10.6h2.3v10.2c0,0.5,0.1,0.9,0.9,0.9
							c0.2,0,0.2,0,0.4,0v1.9C692.3,507.5,692,507.5,691.6,507.5z"/>
						<path class="st1" d="M701.4,506.2c-1.6,1.8-4.4,2-6.2,0.3c-0.1-0.1-0.2-0.2-0.3-0.3c-1.5-2.1-1.5-4.8,0-6.9
							c1.6-1.8,4.4-2,6.2-0.3c0.1,0.1,0.2,0.2,0.3,0.3C702.8,501.3,702.8,504.1,701.4,506.2z M699.5,500.3c-0.8-0.8-2-0.8-2.8,0
							c0,0,0,0,0,0c-0.9,1.4-0.9,3.3,0,4.7c0.8,0.8,2,0.8,2.8,0c0,0,0,0,0,0C700.4,503.6,700.4,501.8,699.5,500.3z"/>
						<path class="st1" d="M708.2,511.8c-1.2,0.1-2.3-0.2-3.3-0.8c-0.7-0.4-1.1-1.2-1.1-2c0-0.8,0.4-1.5,1.1-1.9
							c-0.6-0.3-0.9-0.9-0.9-1.6c0-0.8,0.4-1.5,1.1-1.9c-0.6-0.6-0.9-1.4-0.9-2.3c0-2.2,1.7-3.4,3.8-3.4c0.7,0,1.5,0.2,2.1,0.6
							c0.3-0.7,1.1-1.2,1.9-1.2c0.2,0,0.4,0,0.6,0v1.8h-0.2c-0.5,0-1,0.1-1.1,0.6c0.3,0.5,0.5,1.1,0.5,1.7c0,2.1-1.8,3.4-3.8,3.4
							c-0.5,0-1-0.1-1.5-0.2c-0.3,0.1-0.4,0.4-0.5,0.7c0,0.6,0.6,0.7,1,0.7h1.5c1-0.1,2.1,0.1,3,0.6c0.7,0.5,1.2,1.4,1.1,2.2
							C712.7,511.1,710.3,511.8,708.2,511.8z M708.4,507.5h-1.8c-0.5,0.1-0.9,0.6-0.8,1.1c0,1.2,1.5,1.3,2.3,1.3s2.5,0,2.5-1.3
							S709.2,507.5,708.4,507.5L708.4,507.5z M708,499.5c-1,0-1.8,0.7-1.8,1.7s0.7,1.8,1.7,1.8s1.8-0.7,1.8-1.7c0,0,0-0.1,0-0.1
							c0.1-0.9-0.5-1.7-1.4-1.8C708.2,499.5,708.1,499.5,708,499.5L708,499.5z"/>
						<path class="st1" d="M719,509c-0.5,1.2-1.2,2.3-2.9,2.3c-0.6,0-1.2-0.1-1.7-0.2v-1.9c0.4,0.1,0.8,0.2,1.3,0.2
							c0.5,0,0.9-0.3,1.1-0.7l0.5-1.3l-3.7-9.4h2.5l2.5,6.8l2.3-6.8h2.3L719,509z"/>
					</g>
					<g id="Epidemiology_Icon" class="st2">
						<path class="st1" d="M667.3,479.2c-22.9,0.5-41.9-17.6-42.4-40.5c-0.5-22.9,17.6-41.9,40.5-42.4s41.9,17.6,42.4,40.5
							c0,0.3,0,0.6,0,1C707.8,460.3,689.8,478.7,667.3,479.2z M700.8,437.7c0-19.1-15.5-34.5-34.6-34.5c-19.1,0-34.5,15.5-34.5,34.6
							c0,19.1,15.5,34.5,34.6,34.5c0.1,0,0.2,0,0.2,0C685.6,472.1,700.9,456.6,700.8,437.7z"/>
						<path class="st1" d="M676.7,432.6c-1.1-1.4-1.7-3.1-1.8-4.9c-0.2-2.3,0.6-4.6,2.1-6.3c1.2-1.3,3.1-1.5,4.5-0.5
							c1.5,1,1.9,2.9,1,4.5c-0.8,1.2-0.8,2.7,0.2,3.8c2.1,2.9,1.4,6.9-1.5,9c-0.1,0.1-0.2,0.2-0.3,0.2c-2,1.3-4,1.1-5.2-0.5
							c-1.1-1.6-0.8-3.8,0.8-5C676.5,432.8,676.6,432.7,676.7,432.6z"/>
						<path class="st1" d="M665.7,447.8c-4.2,0-7.9-2.9-8.8-7c-0.5-1.7,0.4-3.5,2.1-4.1c1.7-0.6,3.6,0.1,4.3,1.7
							c0.1,0.2,0.2,0.4,0.3,0.6c0.7,1.8,1.6,2.1,3.4,1.6c0.8-0.2,1.6-0.3,2.4-0.2c1.5,0.3,2.5,1.5,2.6,3c0.2,1.4-0.5,2.8-1.8,3.4
							c-1.5,0.5-3,0.9-4.5,1.3L665.7,447.8z"/>
						<path class="st1" d="M648.2,457.8c0-1.7,0.4-3.3,1.2-4.7c0.8-1.7,2.9-2.4,4.6-1.6c1.7,0.7,2.5,2.7,1.7,4.4c0,0,0,0,0,0
							c-0.9,2-0.8,3,1.6,4.2c1.7,0.8,2.4,2.8,1.6,4.5c-0.7,1.7-2.6,2.5-4.3,1.9C651.2,465.2,648.1,462,648.2,457.8z"/>
						<path class="st1" d="M668.7,418.8c0.1,1.9-0.4,3.8-1.3,5.5c-0.9,1.7-3,2.3-4.7,1.4c-1.4-0.8-2.1-2.4-1.7-3.9
							c0.1-0.3,0.2-0.7,0.4-1c0.6-1.5,0.3-2.4-1-3.2c-0.2-0.1-0.5-0.3-0.8-0.4c-1.7-0.8-2.4-2.9-1.6-4.6c0.8-1.5,2.5-2.3,4.2-1.8
							C665.1,411.7,668.7,414.8,668.7,418.8z"/>
						<path class="st1" d="M642.9,429.8c0-1.9,1.5-3.5,3.4-3.5s3.5,1.5,3.5,3.4c0,1.9-1.5,3.5-3.4,3.5c0,0,0,0,0,0
							C644.5,433.2,642.9,431.7,642.9,429.8C642.9,429.8,642.9,429.8,642.9,429.8z"/>
						<path class="st1" d="M676.8,454.5c1.8,0,3.4,1.5,3.4,3.3c0,0.1,0,0.1,0,0.2c-0.1,1.9-1.8,3.3-3.7,3.2
							c-1.8-0.1-3.2-1.6-3.2-3.3c0-1.8,1.5-3.4,3.3-3.4C676.7,454.4,676.7,454.4,676.8,454.5z"/>
					</g>
				</g>
				<g id="Cancer_Epidemiology_and_Prevention">
					<path class="st5" d="M589.1,614.9c-11.3-23.4-32.3-40.7-57.5-47.3c19.2-16.4,35.6-36,48.3-57.8c-41.5-12.1-89.7-8.8-134.4,12.8
						s-77.3,57.2-93.7,97.2c25.1,3.6,50.7,3,75.7-1.9c-19.7,45,0.7,97.5,45.8,117.3c45,19.7,97.5-0.7,117.3-45.8
						C600.9,665.5,600.4,638.3,589.1,614.9L589.1,614.9z"/>
					<g id="Cancer_Epidemiology_and_Prevention_Text">
						<path class="st1" d="M489.5,681.1c-1,1-2.3,1.5-3.6,1.5c-1.4,0-2.7-0.5-3.6-1.4c-1.4-1.4-1.6-3.1-1.6-5.2s0.2-3.8,1.6-5.2
							c2-1.9,5.2-1.9,7.3,0c0.7,0.8,1.1,1.7,1.2,2.8h-2.4c0-0.5-0.2-1-0.6-1.3c-0.5-0.5-1.2-0.8-1.9-0.8c-0.8,0-1.5,0.3-2,0.8
							c-0.9,0.9-0.9,2.5-0.9,3.7s0,2.8,0.9,3.7c0.5,0.5,1.2,0.9,2,0.8c0.7,0,1.4-0.3,1.9-0.8c0.3-0.4,0.5-0.9,0.6-1.4h2.4
							C490.7,679.3,490.3,680.3,489.5,681.1z"/>
						<path class="st1" d="M499.8,682.5c-0.8,0.1-1.5-0.5-1.6-1.3c-0.6,0.9-1.7,1.5-2.8,1.4c-2.2,0-3.4-1.4-3.4-2.9
							c0-1.8,1.4-2.8,3.2-2.9l2.8-0.2V676c0-0.9-0.3-1.5-1.6-1.5c-1,0-1.6,0.5-1.7,1.3h-2.2c0.1-2.1,1.8-3,3.9-3
							c1.6,0,3,0.5,3.5,1.9c0.2,0.6,0.3,1.2,0.3,1.9v3.5c0,0.4,0.1,0.6,0.5,0.6c0.1,0,0.2,0,0.3,0v1.7
							C500.6,682.5,500.2,682.6,499.8,682.5z M497.9,678.2l-2.4,0.2c-0.7,0-1.3,0.5-1.4,1.2c0,0.7,0.6,1.2,1.3,1.2c0,0,0,0,0,0
							c1.2,0.2,2.2-0.7,2.4-1.8c0-0.1,0-0.2,0-0.3L497.9,678.2z"/>
						<path class="st1" d="M508.5,682.4v-5.7c0-1.1-0.4-1.8-1.5-1.8c-0.7,0-1.4,0.5-1.6,1.2c-0.3,0.8-0.4,1.7-0.3,2.5v3.8h-2.2V673
							h1.9l0.2,1.2c0.6-0.9,1.6-1.5,2.8-1.4c1.7-0.1,3.1,1.3,3.2,3c0,0.1,0,0.3,0,0.4v6.2L508.5,682.4z"/>
						<path class="st1" d="M520.2,681.1c-0.8,1-2,1.5-3.2,1.5c-1.3,0-2.4-0.5-3.3-1.5c-1.4-2.1-1.4-4.8,0-6.8c0.8-0.9,2-1.5,3.3-1.5
							c1.2,0,2.4,0.5,3.2,1.5c0.4,0.6,0.7,1.3,0.7,2h-2.2c0-0.3-0.1-0.6-0.3-0.9c-0.3-0.5-0.9-0.7-1.4-0.7c-0.5,0-1,0.2-1.4,0.6
							c-0.5,0.7-0.7,1.5-0.6,2.4c-0.1,0.8,0.1,1.7,0.6,2.4c0.3,0.4,0.8,0.6,1.4,0.6c0.6,0,1.1-0.2,1.4-0.7c0.2-0.3,0.3-0.6,0.3-0.9
							h2.2C520.9,679.8,520.6,680.5,520.2,681.1z"/>
						<path class="st1" d="M530.8,678.4h-6.3c0,0.7,0.2,1.3,0.7,1.8c0.4,0.4,0.9,0.6,1.4,0.6c0.5,0.1,1-0.1,1.4-0.5
							c0.2-0.2,0.4-0.5,0.5-0.8h2.2c-0.1,0.6-0.4,1.2-0.8,1.7c-1.7,1.7-4.4,1.8-6.1,0.2c-1-1-1.5-2.3-1.4-3.7
							c-0.1-1.4,0.4-2.7,1.3-3.8c0.8-0.8,1.9-1.2,3-1.2c1.4,0,2.6,0.6,3.4,1.7c0.6,1,0.9,2.1,0.8,3.3
							C530.8,677.8,530.8,678.2,530.8,678.4z M528,675.1c-0.9-0.8-2.2-0.7-3,0.1c0,0,0,0,0,0c-0.3,0.4-0.5,0.9-0.5,1.5h4
							C528.6,676.2,528.4,675.6,528,675.1z"/>
						<path class="st1" d="M537.5,675c-1.3,0-2.4,1-2.4,2.3c0,0.1,0,0.2,0,0.3v4.7h-2.3V673h1.9l0.2,1.4c0.5-1,1.5-1.6,2.6-1.5
							c0.2,0,0.5,0,0.7,0.1v2.2C538,675,537.8,675,537.5,675z"/>
						<path class="st1" d="M445.4,701.4v-12.8h9.1v2.1h-6.8v3h6v2.1h-6v3.5h6.8v2.1L445.4,701.4z"/>
						<path class="st1" d="M463.4,700.9c-0.7,0.5-1.5,0.8-2.3,0.8c-0.9,0.1-1.8-0.3-2.5-0.9v4.3h-2.2v-13h1.9l0.1,1
							c0.6-0.8,1.6-1.3,2.6-1.2c0.8,0,1.6,0.3,2.3,0.8c1.2,1,1.8,2.5,1.7,4.1C465.2,698.2,464.6,699.8,463.4,700.9z M462.2,694.4
							c-0.4-0.5-0.9-0.7-1.5-0.7c-1.8,0-2.1,1.7-2.1,3s0.4,3,2.1,3c0.6,0,1.2-0.3,1.5-0.7c0.4-0.7,0.6-1.5,0.6-2.3
							C462.9,695.9,462.7,695.1,462.2,694.4z"/>
						<path class="st1" d="M467,690.7v-2.3h2.4v2.3L467,690.7z M467.1,701.4V692h2.3v9.4L467.1,701.4z"/>
						<path class="st1" d="M478.1,701.4l-0.1-1c-0.6,0.8-1.6,1.3-2.6,1.2c-0.8,0-1.6-0.3-2.3-0.8c-1.2-1-1.8-2.5-1.7-4.1
							c-0.1-1.6,0.5-3.1,1.7-4.2c0.7-0.5,1.5-0.8,2.3-0.8c0.9-0.1,1.8,0.3,2.5,0.9v-4.3h2.2v13L478.1,701.4z M475.8,693.7
							c-0.6,0-1.2,0.3-1.5,0.7c-0.4,0.7-0.6,1.5-0.6,2.3c0,0.8,0.2,1.6,0.6,2.3c0.4,0.5,0.9,0.7,1.5,0.7c1.8,0,2.1-1.7,2.1-3
							S477.6,693.7,475.8,693.7z"/>
						<path class="st1" d="M490.7,697.4h-6.3c0,0.7,0.2,1.3,0.7,1.8c0.4,0.4,0.9,0.6,1.4,0.6c0.5,0.1,1-0.1,1.4-0.5
							c0.2-0.2,0.4-0.5,0.5-0.8h2.2c-0.1,0.6-0.4,1.2-0.8,1.7c-0.8,0.9-2,1.4-3.1,1.3c-1.1,0-2.2-0.4-3-1.2c-1-1-1.5-2.3-1.4-3.7
							c-0.1-1.4,0.4-2.7,1.4-3.8c0.8-0.8,1.9-1.2,3-1.2c1.4,0,2.6,0.6,3.4,1.7c0.6,1,0.9,2.1,0.8,3.3
							C490.6,696.8,490.7,697.2,490.7,697.4z M487.9,694.1c-0.9-0.8-2.2-0.7-3,0.1c0,0,0,0,0,0c-0.3,0.4-0.5,0.9-0.5,1.5h4
							C488.4,695.2,488.2,694.6,487.9,694.1z"/>
						<path class="st1" d="M503.7,701.4v-5.8c0-1.2-0.3-1.8-1.4-1.8s-1.8,1.3-1.8,2.5v5.1h-2.2v-5.8c0-1.2-0.3-1.8-1.4-1.8
							s-1.9,1.3-1.9,2.5v5.1h-2.2V692h1.9l0.2,1.2c0.6-0.9,1.6-1.5,2.7-1.5c1.1-0.1,2.2,0.5,2.7,1.5c0.6-1,1.7-1.6,2.8-1.5
							c2,0,3,1.3,3,3.3v6.3L503.7,701.4z"/>
						<path class="st1" d="M508.4,690.7v-2.3h2.4v2.3L508.4,690.7z M508.4,701.4V692h2.3v9.4L508.4,701.4z"/>
						<path class="st1" d="M520.4,700.2c-1.6,1.8-4.4,2-6.2,0.3c-0.1-0.1-0.2-0.2-0.3-0.3c-1.5-2.1-1.5-4.8,0-6.9
							c1.6-1.8,4.4-2,6.2-0.3c0.1,0.1,0.2,0.2,0.3,0.3C521.8,695.3,521.8,698.1,520.4,700.2z M518.5,694.3c-0.8-0.8-2-0.8-2.8,0
							c0,0,0,0,0,0c-0.9,1.4-0.9,3.3,0,4.7c0.8,0.8,2,0.8,2.8,0c0,0,0,0,0,0C519.4,697.6,519.4,695.8,518.5,694.3z"/>
						<path class="st1" d="M526,701.5c-1.2,0.2-2.4-0.7-2.5-2c0-0.2,0-0.4,0-0.6v-10.6h2.3v10.2c0,0.5,0.1,0.9,0.9,0.9
							c0.2,0,0.2,0,0.4,0v1.9C526.7,701.5,526.3,701.5,526,701.5z"/>
						<path class="st1" d="M535.7,700.2c-1.6,1.8-4.4,2-6.2,0.3c-0.1-0.1-0.2-0.2-0.3-0.3c-1.5-2.1-1.5-4.8,0-6.9
							c1.6-1.8,4.4-2,6.2-0.3c0.1,0.1,0.2,0.2,0.3,0.3C537.2,695.3,537.2,698.1,535.7,700.2z M533.9,694.3c-0.8-0.8-2-0.8-2.8,0
							c0,0,0,0,0,0c-0.9,1.5-0.9,3.3,0,4.7c0.8,0.8,2,0.8,2.8,0c0,0,0,0,0,0C534.8,697.6,534.8,695.8,533.9,694.3z"/>
						<path class="st1" d="M542.6,705.8c-1.2,0.1-2.3-0.2-3.3-0.8c-0.7-0.4-1.1-1.2-1.1-2c0-0.8,0.4-1.5,1.1-1.9
							c-0.6-0.3-0.9-0.9-0.9-1.6c0-0.8,0.4-1.5,1.1-1.9c-0.6-0.6-1-1.4-0.9-2.3c0-2.2,1.7-3.4,3.8-3.4c0.7,0,1.5,0.2,2.1,0.6
							c0.3-0.7,1.1-1.2,1.9-1.2c0.2,0,0.4,0,0.6,0v1.8h-0.2c-0.5,0-1,0.2-1.1,0.6c0.3,0.5,0.5,1.1,0.5,1.7c0,2.1-1.8,3.4-3.8,3.4
							c-0.5,0-1-0.1-1.5-0.2c-0.3,0.1-0.4,0.4-0.5,0.7c0,0.6,0.6,0.7,1,0.7h1.5c1-0.1,2.1,0.1,3,0.6c0.7,0.5,1.2,1.4,1.1,2.2
							C547.1,705.1,544.7,705.8,542.6,705.8z M542.8,701.5H541c-0.5,0.1-0.9,0.6-0.8,1.2c0,1.2,1.5,1.3,2.4,1.3s2.5,0,2.5-1.3
							S543.6,701.5,542.8,701.5L542.8,701.5z M542.3,693.5c-1,0-1.8,0.7-1.8,1.6c0,1,0.7,1.8,1.6,1.8c1,0,1.8-0.7,1.8-1.6
							c0,0,0-0.1,0-0.1c0.1-0.9-0.5-1.7-1.4-1.8C542.5,693.5,542.4,693.5,542.3,693.5L542.3,693.5z"/>
						<path class="st1" d="M553.3,703c-0.5,1.2-1.2,2.3-2.9,2.3c-0.6,0-1.2-0.1-1.7-0.2v-1.9c0.4,0.1,0.8,0.2,1.3,0.2
							c0.5,0,0.9-0.3,1.1-0.7l0.5-1.3l-3.7-9.4h2.5l2.5,6.8l2.3-6.8h2.3L553.3,703z"/>
						<path class="st1" d="M571.2,701.4l-0.9-1c-1,0.9-2.3,1.3-3.6,1.3c-2.2,0.2-4.1-1.5-4.2-3.6c0-0.1,0-0.2,0-0.2
							c0.1-1.5,0.9-2.8,2.3-3.5c-0.8-0.7-1.3-1.7-1.4-2.8c0.2-1.9,2-3.3,3.9-3.1c1.6,0.2,2.8,1.4,3.1,3c0,1.7-1,2.6-2.4,3.4l2.2,2.4
							c0.2-0.5,0.3-1,0.3-1.6c0-0.6,0-1.2,0-1.6h3.3v1.8h-1.5c0,1-0.3,2-0.8,2.9c0.8,0.9,1.6,1.7,2.3,2.6L571.2,701.4z M566,695.8
							c-0.8,0.5-1.5,0.9-1.5,2c0,1.1,1,2,2.1,2c0.1,0,0.1,0,0.2,0c0.8,0,1.6-0.2,2.1-0.8C567.9,697.9,567,696.8,566,695.8z
							 M566.8,690.2c-0.7-0.1-1.4,0.5-1.4,1.2c0,0,0,0.1,0,0.1c0,0.8,0.7,1.4,1.2,2c0.8-0.4,1.6-0.8,1.6-1.9
							c0.1-0.7-0.5-1.4-1.2-1.4C567,690.2,566.9,690.2,566.8,690.2L566.8,690.2z"/>
						<path class="st1" d="M470.5,715.8h-2.7v4.6h-2.3v-12.8h5c2.9,0,4.5,1.6,4.5,4.1S473.5,715.8,470.5,715.8z M470.5,709.7h-2.6
							v4.1h2.6c1.5,0,2.2-0.8,2.2-2c0.1-1.1-0.8-2.1-1.9-2.1C470.7,709.6,470.6,709.6,470.5,709.7z"/>
						<path class="st1" d="M481.3,713c-1.3,0-2.4,1-2.4,2.3c0,0.1,0,0.2,0,0.3v4.7h-2.3V711h1.9l0.2,1.4c0.5-1,1.5-1.6,2.6-1.5
							c0.2,0,0.5,0,0.7,0.1v2.2C481.8,713,481.5,713,481.3,713z"/>
						<path class="st1" d="M491.6,716.4h-6.3c0,0.7,0.2,1.3,0.7,1.8c0.4,0.4,0.9,0.6,1.4,0.6c0.8,0.1,1.6-0.4,1.8-1.2h2.2
							c-0.1,0.6-0.4,1.2-0.8,1.7c-0.8,0.9-2,1.4-3.1,1.3c-1.1,0-2.2-0.4-3-1.2c-1-1-1.5-2.3-1.4-3.7c0-1.4,0.5-2.7,1.4-3.7
							c0.8-0.8,1.9-1.2,3-1.2c1.4,0,2.6,0.6,3.4,1.7c0.6,1,0.9,2.1,0.8,3.3C491.6,715.8,491.6,716.2,491.6,716.4z M488.8,713.1
							c-0.4-0.4-0.9-0.6-1.4-0.5c-0.6,0-1.2,0.2-1.6,0.7c-0.3,0.4-0.5,0.9-0.5,1.5h4C489.4,714.2,489.2,713.6,488.8,713.1z"/>
						<path class="st1" d="M498,720.4h-2.4l-3.5-9.4h2.4l2.3,6.6l2.2-6.6h2.3L498,720.4z"/>
						<path class="st1" d="M510.5,716.4h-6.3c0,0.7,0.2,1.3,0.7,1.8c0.4,0.4,0.9,0.6,1.4,0.6c0.5,0.1,1-0.1,1.4-0.5
							c0.2-0.2,0.4-0.5,0.5-0.8h2.2c-0.1,0.6-0.4,1.2-0.8,1.7c-0.8,0.9-2,1.4-3.1,1.3c-1.1,0-2.2-0.4-3-1.2c-1-1-1.5-2.3-1.4-3.7
							c-0.1-1.4,0.4-2.7,1.4-3.8c0.8-0.8,1.9-1.2,3-1.2c1.4,0,2.6,0.6,3.4,1.7c0.6,1,0.9,2.1,0.8,3.3
							C510.5,715.8,510.5,716.2,510.5,716.4z M507.7,713.1c-0.4-0.4-0.9-0.6-1.4-0.5c-0.6,0-1.2,0.2-1.6,0.7
							c-0.3,0.4-0.5,0.9-0.5,1.5h4C508.3,714.2,508.1,713.6,507.7,713.1z"/>
						<path class="st1" d="M518.2,720.4v-5.7c0-1.1-0.4-1.8-1.5-1.8c-0.7,0-1.4,0.5-1.6,1.2c-0.3,0.8-0.4,1.7-0.3,2.5v3.8h-2.2V711
							h1.9l0.2,1.2c1-1.5,3-1.9,4.5-0.9c0.9,0.6,1.5,1.7,1.4,2.8v6.2L518.2,720.4z"/>
						<path class="st1" d="M526.4,720.5c-1.4,0.2-2.7-0.9-2.8-2.3c0-0.2,0-0.4,0-0.6v-4.8h-1.7V711h1.7v-2.4l2.2-0.6v2.9h2.4v1.8
							h-2.4v4.6c0,0.7,0.3,1,1,1c0.5,0,1,0,1.5-0.1v1.9C527.7,720.4,527.1,720.5,526.4,720.5z"/>
						<path class="st1" d="M530.1,709.7v-2.3h2.4v2.3L530.1,709.7z M530.2,720.4V711h2.3v9.4L530.2,720.4z"/>
						<path class="st1" d="M542.1,719.2c-1.6,1.8-4.4,2-6.2,0.3c-0.1-0.1-0.2-0.2-0.3-0.3c-1.5-2.1-1.5-4.8,0-6.9
							c1.6-1.8,4.4-2,6.2-0.3c0.1,0.1,0.2,0.2,0.3,0.3C543.5,714.3,543.5,717.1,542.1,719.2z M540.2,713.3c-0.8-0.8-2-0.8-2.8,0
							c0,0,0,0,0,0c-0.9,1.5-0.9,3.3,0,4.7c0.8,0.8,2,0.8,2.8,0c0,0,0,0,0,0C541.1,716.6,541.1,714.8,540.2,713.3z"/>
						<path class="st1" d="M550.9,720.4v-5.7c0-1.1-0.4-1.8-1.5-1.8c-0.7,0-1.4,0.5-1.6,1.2c-0.3,0.8-0.4,1.7-0.3,2.5v3.8h-2.2V711
							h1.9l0.2,1.2c1-1.5,3-1.9,4.5-0.9c0.9,0.6,1.5,1.7,1.4,2.8v6.2L550.9,720.4z"/>
					</g>
					<path id="Cancer_Epidemiology_and_Prevention_Icon" class="st6" d="M509.2,579.6c-22.9,0.1-41.4,18.6-41.3,41.5
						c0.1,22.9,18.6,41.4,41.5,41.3c22.8-0.1,41.3-18.6,41.3-41.4C550.7,598.1,532.1,579.6,509.2,579.6z M546.4,621
						c0,7.7-2.4,15.2-6.9,21.5c0-0.2,0-0.4,0-0.7c-0.1-2.9-5.5-4.6-10.8-4.4c0.3-3-1.2-6.4-3.6-9.1c4.5-0.6,10.5-9.1,8.7-13.2
						c-1.6-3.7-6.4-7.7-10.3-7.9c1.5-1.7,2.2-3.4,1.2-4.7c-2.8-3.9-11.9-8-15.6-5.4s-0.3,15.9,2.5,16.6c-1.6,0.2-3.3,0.6-4.9,1.1
						l0.5-0.2c4-2.2-0.6-15.2-7-17.7c-1.1-0.3-2.2-0.1-3.1,0.6c0-4.6-1.4-9.8-3.1-10c-0.3,0-0.6,0-0.9,0c18.5-8.8,40.7-1,49.6,17.5
						C545.2,610,546.4,615.5,546.4,621z M527.8,644.7c-0.1-1.7,4.1-4.8,5.8-3.9c1.6,0.7,2.4,2.6,1.7,4.3
						C534.4,646.5,527.9,647.1,527.8,644.7z M504.8,615.6c-2.9,1.2-5.3,2.9-5.8,4.7c-0.3-1.5-0.8-3-1.6-4.5
						C499.8,616.3,502.3,616.2,504.8,615.6L504.8,615.6z M499.5,605.3c1.4-0.9,6.1,1.5,6.1,3.4c0.1,1.8-1.2,3.3-3,3.4
						C500.8,612.1,497.4,606.5,499.5,605.3L499.5,605.3z M499.4,623.1c1.2,2.2,4.3,4.3,7.3,5.4c-2.7,0.4-5.4,1.4-7.7,2.7
						C499.6,628.5,499.8,625.8,499.4,623.1L499.4,623.1z M500.3,635.2c0.4-1.6,6.6-3.8,7.3-1.5c0.5,1.6-2.8,5.6-4.7,5.2
						C501.2,638.7,500,637,500.3,635.2C500.3,635.3,500.3,635.2,500.3,635.2L500.3,635.2z M506.3,622c-0.7-1.5,2.2-5.9,4-5.7
						c1.8,0.1,3.1,1.6,3,3.4C513.2,621.4,507.3,624.2,506.3,622z M511.6,608.3c-0.7-1.5,2.2-5.9,4-5.7c1.8,0.1,3.1,1.6,3,3.4
						C518.5,607.7,512.5,610.5,511.6,608.3L511.6,608.3z M513.3,628.6c0.5-0.3,1-0.7,1.5-1.1c-1.9,2.3-3.3,5.1-4.1,8
						c-0.3-2.8-1-5.3-2-6.4C510.3,629.5,511.9,629.3,513.3,628.6L513.3,628.6z M513.1,613.6c2.2-0.6,4.3-1.6,6.2-2.9
						c-0.3,1.5-0.5,3-0.5,4.5c0-0.1-0.1-0.1-0.1-0.2C518.1,613.8,515.8,613.4,513.1,613.6L513.1,613.6z M519.3,619.9
						c0.3,1.7,0.7,3.3,1.4,4.9l-0.2-0.1c-1.3-0.6-2.8,0.1-4.4,1.5C517.7,624.3,518.8,622.1,519.3,619.9L519.3,619.9z M516.9,629.6
						c1.4-1.1,3.4-1,4.5,0.4c1,1.3-1.4,7.4-3.6,6.5C516.3,635.8,515.4,630.7,516.9,629.6L516.9,629.6z M521.3,616.1
						c0.4-1.7,2.1-2.8,3.8-2.5c1.6,0.4,3.5,6.7,1.2,7.3C524.7,621.4,520.8,617.9,521.3,616.1L521.3,616.1z M486.6,594.4
						c0.4-1.6,6.6-3.8,7.3-1.5c0.5,1.6-2.8,5.6-4.7,5.2C487.5,597.8,486.3,596.1,486.6,594.4C486.6,594.4,486.6,594.4,486.6,594.4
						L486.6,594.4z M492.2,620.4c1.6-0.4,5.5,3.1,5,4.9c-0.4,1.7-2.1,2.8-3.8,2.5C491.7,627.2,489.9,621,492.2,620.4L492.2,620.4z
						 M472.1,621.1c0-8.5,2.9-16.7,8.3-23.3c2.7,3.6,6.7,6.2,11.1,7.1c-1,2.3-1.5,4.6-1,6.1c0.3,0.9,0.9,1.8,1.6,2.4
						c-4.3,1.7-9.1,9.1-7.5,12.8s6.5,7.7,10.5,7.8c-1.3,1.4-1.9,2.8-1.2,4c2.4,4.2,10.9,9.3,14.9,7.1c1.1-0.6,1.8-2.2,2.1-4.2
						c0.9,2.2,5.1,2.9,9.1,2.5c0.5,3.5,3.4,8.3,6.4,10.5c-18.3,9.4-40.7,2.2-50.1-16.1c-2.7-5.2-4.1-11-4.1-16.9L472.1,621.1z"/>
				</g>
				<g id="Nutrition">
					<path class="st7" d="M416.5,619.7c-16.5-40-49.1-75.6-93.8-97.1s-92.9-24.8-134.4-12.6c12.9,21.9,29.4,41.6,48.8,58
						c-47.5,12.7-75.7,61.4-63.1,108.9c12.7,47.5,61.4,75.7,108.9,63.1c47.5-12.7,75.7-61.4,63.1-108.9c-1.2-4.5-2.7-8.9-4.6-13.1
						C366.1,622.8,391.5,623.3,416.5,619.7z"/>
					<g id="Nutrition_Text">
						<path class="st1" d="M231.6,705l-5.5-8.8v8.8h-2.3v-12.8h2.5l5.5,8.6v-8.6h2.3V705H231.6z"/>
						<path class="st1" d="M242.6,705l-0.2-1.2c-0.5,1-1.6,1.5-2.7,1.5c-1.7,0.1-3.2-1.2-3.2-2.9c0-0.1,0-0.3,0-0.4v-6.3h2.2v5.7
							c0,1.1,0.4,1.8,1.6,1.8c0.4,0,0.9-0.2,1.2-0.5c0.5-0.6,0.7-1.3,0.7-2.1v-5h2.2v9.4H242.6z"/>
						<path class="st1" d="M250.6,705.1c-1.4,0.2-2.7-0.9-2.8-2.3c0-0.2,0-0.4,0-0.6v-4.8H246v-1.9h1.7v-2.4l2.2-0.6v2.9h2.4v1.8
							H250v4.6c0,0.7,0.3,1,1,1c0.5,0,1,0,1.4-0.1v1.9C251.8,705,251.2,705.1,250.6,705.1z"/>
						<path class="st1" d="M259,697.6c-1.3,0-2.4,1-2.4,2.3c0,0.1,0,0.2,0,0.3v4.8h-2.3v-9.4h1.9l0.2,1.4c0.5-1,1.5-1.6,2.6-1.5
							c0.2,0,0.5,0,0.7,0.1v2.2C259.5,697.6,259.3,697.6,259,697.6z"/>
						<path class="st1" d="M261.2,694.3V692h2.4v2.3L261.2,694.3z M261.3,705v-9.4h2.3v9.4L261.3,705z"/>
						<path class="st1" d="M269.7,705.1c-1.4,0.2-2.7-0.9-2.8-2.3c0-0.2,0-0.4,0-0.6v-4.8h-1.7v-1.9h1.7v-2.4l2.2-0.6v2.9h2.4v1.8
							h-2.4v4.6c0,0.7,0.3,1,1,1c0.5,0,1,0,1.5-0.1v1.9C271,705,270.3,705.1,269.7,705.1z"/>
						<path class="st1" d="M273.3,694.3V692h2.4v2.3L273.3,694.3z M273.4,705v-9.4h2.3v9.4L273.4,705z"/>
						<path class="st1" d="M285.3,703.7c-1.6,1.8-4.4,2-6.2,0.3c-0.1-0.1-0.2-0.2-0.3-0.3c-1.5-2.1-1.5-4.8,0-6.9
							c1.6-1.8,4.4-1.9,6.2-0.3c0.1,0.1,0.2,0.2,0.3,0.3C286.8,698.9,286.8,701.7,285.3,703.7z M283.5,697.9c-0.8-0.8-2-0.8-2.8,0
							c0,0,0,0,0,0c-0.9,1.5-0.9,3.3,0,4.7c0.8,0.8,2,0.8,2.8,0c0,0,0,0,0,0C284.3,701.2,284.3,699.4,283.5,697.9z"/>
						<path class="st1" d="M294.2,705v-5.7c0-1.1-0.4-1.8-1.5-1.8c-0.7,0-1.4,0.5-1.6,1.2c-0.3,0.8-0.4,1.7-0.3,2.5v3.8h-2.2v-9.4
							h1.9l0.2,1.2c1-1.5,3-1.9,4.5-0.9c0.9,0.6,1.5,1.7,1.4,2.8v6.3H294.2z"/>
					</g>
					<path id="Nutrition_Icon" class="st6" d="M279.2,601.2c-8.4,0-16,5.1-19.2,12.9c-4.4-10.6-16.5-15.7-27.1-11.3
						C225.1,606,220,613.6,220,622c-0.1,4.9,1.6,9.6,4.9,13.3c8.4,9.3,35.1,35.8,35.1,35.8s2.9-2.9,7.1-7l-10.6-10.6
						c-1.7,1.3-4.1,1.2-5.7-0.3l-14.6-15.6c-0.4-0.4-0.4-1.1,0-1.5l0.3-0.3c0.2-0.2,0.5-0.3,0.8-0.3c0.3,0,0.5,0.1,0.7,0.3
						l11.1,11.1c0.4,0.4,1.1,0.4,1.5,0c0,0,0,0,0,0c0.4-0.4,0.4-1.1,0-1.5c0,0,0,0,0,0L239.9,634c-0.2-0.2-0.3-0.5-0.3-0.7
						c0-0.3,0.1-0.5,0.3-0.7l0.4-0.4c0.2-0.2,0.5-0.3,0.7-0.3c0.3,0,0.5,0.1,0.7,0.3l11.5,10.8c0.4,0.4,1.1,0.3,1.5-0.1
						c0.4-0.4,0.4-1,0-1.4l-11.1-11.1c-0.4-0.4-0.4-1-0.1-1.4c0,0,0,0,0.1-0.1l0.4-0.3c0.2-0.2,0.4-0.3,0.7-0.3
						c0.3,0,0.5,0.1,0.7,0.3L261,643c1.5,1.5,1.7,4,0.3,5.7l10.6,10.6c2.5-2.5,5.2-5.3,7.9-8l-5.5-5.5l-0.4,0.4
						c-0.8,0.8-2.2,0.8-3,0c0,0,0,0,0,0l-16.8-16.8c-3.1-3.1-3.1-8.1,0-11.1l0.1-0.1c0.6-0.6,1.6-0.6,2.2,0c0,0,0,0,0,0l22.7,22.8
						l5.4,5.4c4.3-4.4,8.1-8.4,10.5-11c3.2-3.7,5-8.5,4.8-13.4C300,610.5,290.7,601.2,279.2,601.2z"/>
				</g>
				<g id="Health_and_Biomedical_Informatics">
					<path class="st8" d="M246,426.6c-11.1-48.4-38.6-88.1-73.9-113c-9.2,23.8-14.2,48.9-15,74.4c-39.6-29.2-95.3-20.8-124.5,18.8
						s-20.8,95.3,18.8,124.5c39.6,29.2,95.3,20.8,124.5-18.8c2.7-3.7,5.2-7.6,7.3-11.6c11.7,22.3,27.1,42.5,45.5,59.7
						C249.6,522.7,257.1,475,246,426.6z"/>
					<g id="Health_and_Biomedical_Informatics_Text">
						<path class="st1" d="M78,483.4v-5.6h-5.2v5.6h-2.3v-12.8h2.3v5H78v-5h2.3v12.8H78z"/>
						<path class="st1" d="M91,479.4h-6.3c0,0.7,0.2,1.3,0.7,1.8c0.4,0.4,0.9,0.6,1.4,0.6c0.5,0.1,1-0.1,1.4-0.5
							c0.2-0.2,0.4-0.5,0.4-0.8h2.2c-0.1,0.6-0.3,1.2-0.7,1.7c-0.8,0.9-2,1.4-3.2,1.3c-1.1,0-2.2-0.4-3-1.2c-1-1-1.5-2.3-1.4-3.7
							c-0.1-1.4,0.4-2.7,1.4-3.7c0.8-0.8,1.9-1.2,3-1.2c1.4,0,2.6,0.6,3.4,1.7c0.6,1,0.9,2.1,0.8,3.3C91,478.8,91,479.2,91,479.4z
							 M88.2,476.1c-0.4-0.4-0.9-0.6-1.4-0.5c-0.6,0-1.2,0.2-1.6,0.7c-0.3,0.4-0.5,0.9-0.5,1.5h4C88.7,477.2,88.5,476.6,88.2,476.1
							L88.2,476.1z"/>
						<path class="st1" d="M100.1,483.5c-0.8,0.1-1.5-0.5-1.6-1.3c-0.6,0.9-1.7,1.5-2.8,1.4c-2.2,0-3.4-1.4-3.4-2.9
							c0-1.8,1.4-2.8,3.2-2.9l2.8-0.2V477c0-0.9-0.3-1.5-1.6-1.5c-1,0-1.7,0.5-1.7,1.3h-2.2c0.1-2.1,1.8-3,3.9-3
							c1.6,0,3,0.5,3.5,1.9c0.2,0.6,0.3,1.2,0.3,1.9v3.5c0,0.4,0.2,0.6,0.5,0.6c0.1,0,0.2,0,0.3,0v1.6
							C100.9,483.5,100.5,483.6,100.1,483.5z M98.2,479.2l-2.4,0.2c-0.7,0-1.3,0.5-1.3,1.2c0,0.7,0.6,1.2,1.3,1.2c0,0,0,0,0,0
							c1.2,0.2,2.2-0.7,2.4-1.8c0-0.1,0-0.2,0-0.3L98.2,479.2z"/>
						<path class="st1" d="M105.5,483.5c-1.2,0.2-2.4-0.7-2.5-2c0-0.2,0-0.4,0-0.6v-10.6h2.3v10.2c0,0.5,0.1,0.9,0.9,0.9
							c0.2,0,0.2,0,0.4,0v1.9C106.1,483.5,105.8,483.5,105.5,483.5z"/>
						<path class="st1" d="M111.4,483.5c-1.4,0.2-2.7-0.9-2.8-2.3c0-0.2,0-0.4,0-0.6v-4.8h-1.7V474h1.7v-2.4l2.2-0.6v2.9h2.4v1.9
							h-2.4v4.6c0,0.7,0.3,1,1,1c0.5,0,1,0,1.5-0.1v1.9C112.7,483.4,112.1,483.5,111.4,483.5z"/>
						<path class="st1" d="M120.9,483.4v-5.8c0-1.1-0.4-1.8-1.6-1.8c-1.3,0-1.9,1.4-1.9,2.6v4.9h-2.3v-13h2.3v4.6
							c0.6-0.8,1.6-1.2,2.6-1.2c1.7-0.1,3.1,1.3,3.2,3c0,0.1,0,0.2,0,0.4v6.2L120.9,483.4z"/>
						<path class="st1" d="M138.1,483.4l-0.9-1c-1,0.9-2.3,1.3-3.6,1.3c-2.2,0.2-4.1-1.5-4.2-3.6c0-0.1,0-0.2,0-0.2
							c0.1-1.5,0.9-2.8,2.3-3.5c-0.8-0.7-1.3-1.7-1.4-2.8c0.2-1.9,2-3.3,3.9-3.1c1.6,0.2,2.8,1.4,3.1,3c0,1.6-1,2.6-2.4,3.4l2.2,2.4
							c0.2-0.5,0.3-1,0.3-1.6c0-0.6,0-1.2,0-1.6h3.3v1.8h-1.5c0,1-0.3,2-0.8,2.9c0.8,0.9,1.6,1.7,2.4,2.6L138.1,483.4z M132.9,477.8
							c-0.9,0.5-1.5,0.9-1.5,2c0,1.1,1,2,2.1,2c0.1,0,0.1,0,0.2,0c0.8,0,1.6-0.2,2.1-0.8C134.9,479.9,133.9,478.8,132.9,477.8z
							 M133.8,472.2c-0.7-0.1-1.4,0.5-1.4,1.2c0,0,0,0.1,0,0.1c0,0.8,0.7,1.4,1.2,2c0.8-0.4,1.6-0.8,1.6-1.9
							c0.1-0.7-0.5-1.4-1.2-1.4C133.9,472.2,133.8,472.2,133.8,472.2z"/>
						<path class="st1" d="M68.6,501.5c-1,0.7-2.2,1-3.4,0.9h-5.1v-12.8h5.1c1-0.1,2.1,0.2,2.9,0.7c0.9,0.6,1.5,1.7,1.5,2.8
							c0,1.1-0.6,2.2-1.6,2.7c1.1,0.5,1.9,1.6,1.8,2.9C69.9,499.8,69.4,500.8,68.6,501.5z M65.2,491.6h-2.9v3.2h2.9
							c1,0,1.9-0.4,1.9-1.6S66.3,491.6,65.2,491.6L65.2,491.6z M65.3,496.8h-2.9v3.5h2.9c1.1,0,2.2-0.4,2.2-1.7
							S66.5,496.8,65.3,496.8z"/>
						<path class="st1" d="M71.8,491.7v-2.3h2.4v2.3H71.8z M71.8,502.4V493h2.3v9.4L71.8,502.4z"/>
						<path class="st1" d="M83.8,501.2c-1.6,1.8-4.4,2-6.2,0.3c-0.1-0.1-0.2-0.2-0.3-0.3c-1.5-2.1-1.5-4.8,0-6.9
							c1.6-1.8,4.4-2,6.2-0.3c0.1,0.1,0.2,0.2,0.3,0.3C85.2,496.3,85.2,499.1,83.8,501.2z M81.9,495.3c-0.8-0.8-2-0.8-2.8,0
							c0,0,0,0,0,0c-0.9,1.4-0.9,3.3,0,4.7c0.8,0.8,2,0.8,2.8,0c0,0,0,0,0,0C82.8,498.6,82.8,496.8,81.9,495.3z"/>
						<path class="st1" d="M98,502.4v-5.8c0-1.1-0.3-1.8-1.4-1.8s-1.8,1.4-1.8,2.5v5.1h-2.3v-5.8c0-1.1-0.3-1.8-1.4-1.8
							s-1.8,1.4-1.8,2.5v5.1h-2.2V493h1.9l0.2,1.2c0.6-0.9,1.6-1.5,2.7-1.5c1.1-0.1,2.2,0.5,2.7,1.5c0.6-1,1.7-1.6,2.8-1.5
							c2,0,3.1,1.3,3.1,3.3v6.3L98,502.4z"/>
						<path class="st1" d="M110.7,498.4h-6.3c0,0.7,0.2,1.3,0.7,1.8c0.4,0.4,0.9,0.6,1.4,0.6c0.5,0.1,1-0.1,1.4-0.5
							c0.2-0.2,0.4-0.5,0.4-0.8h2.2c-0.1,0.6-0.4,1.2-0.8,1.7c-1.7,1.7-4.4,1.8-6.1,0.2c-1-1-1.5-2.3-1.4-3.7
							c-0.1-1.4,0.4-2.7,1.3-3.8c0.8-0.8,1.9-1.2,3-1.2c1.4,0,2.6,0.6,3.4,1.7c0.6,1,0.9,2.1,0.8,3.3
							C110.7,497.8,110.7,498.2,110.7,498.4z M107.8,495.1c-0.9-0.8-2.2-0.7-3,0.1c0,0,0,0,0,0c-0.3,0.4-0.5,0.9-0.5,1.5h4
							C108.4,496.2,108.2,495.6,107.8,495.1z"/>
						<path class="st1" d="M118.8,502.4l-0.1-1c-0.6,0.8-1.6,1.3-2.6,1.2c-0.8,0-1.6-0.3-2.3-0.8c-1.2-1-1.8-2.5-1.7-4.1
							c-0.1-1.6,0.5-3.1,1.7-4.2c0.6-0.5,1.5-0.8,2.3-0.8c0.9-0.1,1.8,0.3,2.4,0.9v-4.3h2.2v13L118.8,502.4z M116.5,494.7
							c-0.6,0-1.2,0.3-1.5,0.7c-0.4,0.7-0.6,1.5-0.6,2.3c-0.1,0.8,0.1,1.6,0.6,2.3c0.4,0.5,0.9,0.7,1.5,0.7c1.8,0,2.1-1.7,2.1-3
							S118.3,494.7,116.5,494.7z"/>
						<path class="st1" d="M123.3,491.7v-2.3h2.4v2.3H123.3z M123.4,502.4V493h2.3v9.4L123.4,502.4z"/>
						<path class="st1" d="M135.1,501.1c-0.8,1-2,1.5-3.2,1.5c-1.3,0-2.4-0.5-3.3-1.5c-1.4-2.1-1.4-4.8,0-6.8c0.8-0.9,2-1.5,3.3-1.5
							c1.2,0,2.4,0.5,3.2,1.5c0.4,0.6,0.7,1.3,0.7,2h-2.2c0-0.3-0.1-0.6-0.3-0.9c-0.3-0.5-0.9-0.7-1.4-0.7c-0.5,0-1,0.2-1.4,0.6
							c-0.5,0.7-0.7,1.5-0.6,2.4c-0.1,0.8,0.1,1.7,0.6,2.4c0.4,0.4,0.9,0.6,1.4,0.6c0.6,0,1.1-0.2,1.4-0.7c0.2-0.3,0.3-0.6,0.3-0.9
							h2.2C135.8,499.8,135.6,500.5,135.1,501.1z"/>
						<path class="st1" d="M145,502.5c-0.8,0.1-1.5-0.5-1.6-1.3c-0.6,0.9-1.7,1.5-2.9,1.4c-2.2,0-3.4-1.4-3.4-2.9
							c0-1.8,1.4-2.8,3.2-2.9l2.8-0.2V496c0-0.9-0.3-1.5-1.6-1.5c-1,0-1.7,0.5-1.7,1.3h-2.2c0.1-2.1,1.8-3,3.9-3
							c1.6,0,3,0.5,3.5,1.9c0.2,0.6,0.3,1.2,0.3,1.9v3.5c0,0.4,0.1,0.6,0.5,0.6c0.1,0,0.2,0,0.3,0v1.6
							C145.8,502.5,145.4,502.6,145,502.5z M143.1,498.2l-2.4,0.2c-0.7,0-1.3,0.5-1.4,1.2c0,0.7,0.6,1.2,1.3,1.2c0,0,0,0,0,0
							c1.2,0.2,2.2-0.7,2.4-1.8c0-0.1,0-0.2,0-0.3L143.1,498.2z"/>
						<path class="st1" d="M150.4,502.5c-1.2,0.2-2.4-0.7-2.5-2c0-0.2,0-0.4,0-0.6v-10.6h2.3v10.2c0,0.5,0.1,0.9,0.9,0.9
							c0.2,0,0.2,0,0.4,0v1.9C151.1,502.5,150.7,502.5,150.4,502.5z"/>
						<path class="st1" d="M58.5,521.4v-12.8h2.4v12.8H58.5z"/>
						<path class="st1" d="M69.2,521.4v-5.7c0-1.1-0.4-1.8-1.6-1.8c-0.7,0-1.4,0.5-1.6,1.2c-0.3,0.8-0.4,1.7-0.3,2.5v3.8h-2.2V512
							h1.9l0.2,1.2c1-1.5,3-1.9,4.5-0.9c0.9,0.6,1.5,1.7,1.4,2.8v6.2L69.2,521.4z"/>
						<path class="st1" d="M77.9,510c-0.6-0.1-1.1,0.3-1.2,0.9c0,0.1,0,0.1,0,0.2v0.9h2.5v1.8h-2.5v7.5h-2.2v-7.5h-1.6V512h1.6v-0.9
							c-0.1-1.6,1.2-2.9,2.8-3c0.1,0,0.3,0,0.4,0c0.6,0,1.2,0.1,1.8,0.2v1.8C78.9,510,78.4,510,77.9,510z"/>
						<path class="st1" d="M87.8,520.2c-1.6,1.8-4.4,2-6.2,0.3c-0.1-0.1-0.2-0.2-0.3-0.3c-1.5-2.1-1.5-4.8,0-6.9
							c1.6-1.8,4.4-2,6.2-0.3c0.1,0.1,0.2,0.2,0.3,0.3C89.3,515.3,89.3,518.1,87.8,520.2z M86,514.3c-0.4-0.4-0.9-0.6-1.4-0.6
							c-0.5,0-1,0.2-1.4,0.6c-0.9,1.5-0.9,3.3,0,4.7c0.4,0.4,0.9,0.6,1.4,0.6c0.5,0,1-0.2,1.4-0.6C86.9,517.6,86.9,515.8,86,514.3z"
							/>
						<path class="st1" d="M95.6,514c-1.3,0-2.4,1-2.4,2.3c0,0.1,0,0.2,0,0.3v4.7H91V512h1.9l0.2,1.4c0.5-1,1.5-1.6,2.7-1.5
							c0.2,0,0.5,0,0.7,0.1v2.2C96.2,514,95.9,514,95.6,514z"/>
						<path class="st1" d="M109,521.4v-5.8c0-1.2-0.3-1.8-1.4-1.8s-1.8,1.3-1.8,2.5v5.1h-2.2v-5.8c0-1.2-0.3-1.8-1.4-1.8
							s-1.8,1.3-1.8,2.5v5.1H98V512h1.9l0.2,1.2c0.6-0.9,1.6-1.5,2.7-1.5c1.1-0.1,2.2,0.5,2.7,1.5c0.6-1,1.7-1.6,2.8-1.5
							c2,0,3,1.3,3,3.3v6.3L109,521.4z"/>
						<path class="st1" d="M120.9,521.5c-0.8,0.1-1.5-0.5-1.6-1.3c-0.6,0.9-1.7,1.5-2.8,1.4c-2.2,0-3.4-1.4-3.4-2.9
							c0-1.8,1.4-2.8,3.2-2.9l2.8-0.2V515c0-0.9-0.3-1.5-1.6-1.5c-1,0-1.7,0.5-1.7,1.3h-2.2c0.1-2.1,1.8-3,3.9-3
							c1.6,0,3,0.5,3.5,1.9c0.2,0.6,0.3,1.2,0.3,1.9v3.5c0,0.4,0.2,0.6,0.5,0.6c0.1,0,0.2,0,0.3,0v1.7
							C121.7,521.5,121.3,521.6,120.9,521.5z M119,517.2l-2.4,0.2c-0.7,0-1.3,0.5-1.3,1.2c0,0.7,0.6,1.2,1.3,1.2c0,0,0,0,0,0
							c1.2,0.2,2.2-0.7,2.4-1.8c0-0.1,0-0.2,0-0.3L119,517.2z"/>
						<path class="st1" d="M127.2,521.5c-1.4,0.2-2.7-0.9-2.8-2.3c0-0.2,0-0.4,0-0.6v-4.8h-1.7V512h1.7v-2.4l2.2-0.6v2.9h2.4v1.8
							h-2.4v4.6c0,0.7,0.3,1,1,1c0.5,0,1,0,1.5-0.1v1.9C128.5,521.4,127.8,521.5,127.2,521.5z"/>
						<path class="st1" d="M130.9,510.7v-2.3h2.4v2.3H130.9z M130.9,521.4V512h2.3v9.4L130.9,521.4z"/>
						<path class="st1" d="M142.7,520.1c-0.8,1-2,1.5-3.2,1.5c-1.3,0-2.4-0.5-3.3-1.5c-1.4-2.1-1.4-4.8,0-6.8c0.8-0.9,2-1.5,3.3-1.5
							c1.2,0,2.4,0.5,3.2,1.5c0.4,0.6,0.7,1.3,0.7,2h-2.2c0-0.3-0.1-0.6-0.3-0.9c-0.3-0.5-0.9-0.7-1.4-0.7c-0.5,0-1,0.2-1.4,0.6
							c-0.5,0.7-0.7,1.5-0.6,2.4c-0.1,0.8,0.1,1.7,0.6,2.4c0.3,0.4,0.8,0.6,1.4,0.6c0.6,0,1.1-0.2,1.4-0.7c0.2-0.3,0.3-0.6,0.3-0.9
							h2.2C143.4,518.8,143.1,519.5,142.7,520.1z"/>
						<path class="st1" d="M152,520.5c-0.9,0.8-2,1.1-3.2,1.1c-1.1,0-2.2-0.4-3-1.1c-0.6-0.6-1-1.3-1-2.2h2.1c0,0.4,0.2,0.8,0.5,1.1
							c0.4,0.3,0.9,0.5,1.4,0.4c0.8,0,1.9-0.2,1.9-1.2c0-0.5-0.4-1-0.9-1c-0.8-0.1-1.8-0.2-2.6-0.4c-1.2-0.2-2.1-1.3-2.1-2.5
							c0-0.8,0.3-1.6,0.9-2.1c0.8-0.6,1.8-1,2.9-0.9c1.1,0,2.1,0.4,2.9,1.1c0.5,0.5,0.8,1.2,0.8,1.9h-2.1c0-0.3-0.1-0.6-0.4-0.9
							c-0.3-0.3-0.8-0.4-1.2-0.4c-0.3,0-0.7,0-1,0.2c-0.4,0.1-0.7,0.5-0.7,1c0,0.7,0.6,0.9,1.1,0.9c0.9,0.1,1.1,0.1,2,0.3
							c1.4,0.1,2.5,1.2,2.6,2.7C152.8,519.2,152.5,520,152,520.5z"/>
					</g>
					<g id="Health_and_Biomedical_Informatics_Icon" class="st2">
						<path class="st1" d="M69.6,400.4L69.6,400.4L69.6,400.4c0.3,0.3,0.6,0.5,1,0.5c0.5,0.1,0.9,0,1.3-0.3c0.3-0.2,0.5-0.5,0.7-0.7
							c0.2-0.2,0.4-0.4,0.6-0.6l0.1,6l-0.1,6.1c0,0.5,0.2,1,0.6,1.2c0.3,0.2,0.6,0.3,1,0.3c0.4,0,0.8-0.1,1.1-0.3
							c0.4-0.2,0.7-0.7,0.7-1.2L76.4,395c-0.1-0.3-0.2-0.7-0.4-0.9c-0.2-0.2-0.5-0.5-0.7-0.6c-0.3-0.2-0.7-0.3-1.1-0.3
							c-0.5,0-1,0.3-1.1,0.8l0,0c-0.2,0.4-0.4,0.7-0.6,1s-0.4,0.7-0.7,1c-0.3,0.4-0.5,0.7-0.8,1l-0.3,0.4l-0.7,0.7
							c-0.4,0.3-0.6,0.8-0.6,1.3C69.2,399.7,69.3,400.1,69.6,400.4L69.6,400.4z"/>
						<path class="st1" d="M94.7,399.4c-0.3-0.8-0.6-1.5-1-2.1c-0.4-0.7-0.9-1.3-1.5-1.9c-0.6-0.6-1.4-1-2.1-1.3
							c-1.8-0.7-3.8-0.7-5.6,0c-0.8,0.3-1.5,0.8-2.1,1.4c-0.6,0.6-1.1,1.2-1.5,1.9c-0.4,0.7-0.7,1.4-1,2.2c-0.2,0.7-0.4,1.5-0.5,2.2
							c-0.1,0.7-0.2,1.3-0.2,2c0,1,0.2,2.1,0.4,3.1c0.3,1.1,0.8,2.1,1.4,3c0.6,0.9,1.5,1.7,2.5,2.2c1.1,0.6,2.4,0.9,3.7,0.9
							c1.3,0,2.5-0.3,3.7-0.8c1-0.5,1.9-1.2,2.6-2.1c0.7-0.9,1.2-1.9,1.5-2.9c0.3-1,0.5-2.1,0.5-3.2c0-0.7-0.1-1.4-0.2-2.1
							C95.2,400.9,95,400.1,94.7,399.4z M91.8,406.1c-0.2,0.7-0.5,1.3-0.9,1.8c-0.4,0.5-0.9,0.9-1.5,1.2c-1.4,0.6-3,0.6-4.4,0
							c-0.6-0.3-1-0.7-1.4-1.2c-0.4-0.5-0.7-1.1-0.8-1.8c-0.2-0.8-0.3-1.6-0.3-2.4c0-0.9,0.1-1.8,0.3-2.6c0.2-0.8,0.4-1.5,0.8-2.2
							c0.4-0.6,0.9-1.1,1.5-1.5c0.7-0.4,1.4-0.6,2.2-0.5c0.7,0,1.5,0.2,2.1,0.5c0.6,0.4,1.1,0.9,1.5,1.5c0.4,0.7,0.7,1.4,0.9,2.2
							c0.2,0.9,0.3,1.8,0.3,2.7C92.1,404.6,92,405.4,91.8,406.1z"/>
						<path class="st1" d="M97.5,409.8c0.6,0.9,1.5,1.7,2.5,2.2c1.1,0.6,2.4,0.9,3.7,0.9c2.4,0.1,4.8-1,6.3-3
							c0.7-0.9,1.2-1.9,1.5-2.9c0.3-1,0.5-2.1,0.5-3.2c0-0.7-0.1-1.4-0.2-2.1c-0.1-0.8-0.3-1.5-0.6-2.3c-0.3-0.7-0.6-1.5-1-2.1
							c-0.4-0.7-0.9-1.3-1.5-1.9c-0.6-0.6-1.4-1-2.2-1.3c-1.8-0.7-3.8-0.7-5.6,0c-0.8,0.3-1.5,0.8-2.1,1.4c-0.6,0.6-1.1,1.2-1.5,1.9
							c-0.4,0.7-0.7,1.4-1,2.2c-0.2,0.7-0.4,1.5-0.5,2.2c-0.1,0.7-0.1,1.3-0.2,2c0,1,0.1,2.1,0.4,3.1
							C96.4,407.9,96.9,408.9,97.5,409.8z M99.4,401.2c0.2-0.8,0.4-1.5,0.8-2.2c0.4-0.6,0.9-1.1,1.5-1.5c0.7-0.4,1.4-0.6,2.2-0.5
							c0.7,0,1.5,0.2,2.1,0.5c0.6,0.4,1.1,0.9,1.5,1.5c0.4,0.7,0.7,1.4,0.9,2.2c0.2,0.9,0.3,1.8,0.3,2.7c0,0.8-0.1,1.6-0.3,2.4
							c-0.2,0.7-0.5,1.3-0.9,1.8c-0.4,0.5-0.9,0.9-1.5,1.2c-1.4,0.6-3,0.6-4.4,0c-0.6-0.3-1-0.7-1.4-1.2c-0.4-0.5-0.7-1.1-0.8-1.8
							c-0.2-0.8-0.3-1.6-0.3-2.4C99.1,402.9,99.2,402,99.4,401.2z"/>
						<path class="st1" d="M81.3,432.2c0.7-0.9,1.2-1.9,1.5-2.9c0.3-1,0.5-2.1,0.5-3.2c0-0.7-0.1-1.4-0.2-2.1
							c-0.1-0.8-0.3-1.5-0.6-2.3c-0.3-0.7-0.6-1.5-1-2.1c-0.4-0.7-0.9-1.3-1.5-1.9c-0.6-0.6-1.4-1-2.2-1.3c-1.8-0.7-3.8-0.7-5.6,0
							c-0.8,0.3-1.5,0.8-2.1,1.4c-0.6,0.6-1.1,1.2-1.5,1.9c-0.4,0.7-0.7,1.4-1,2.2c-0.2,0.7-0.4,1.5-0.5,2.2c-0.1,0.7-0.2,1.3-0.2,2
							c0,1,0.2,2.1,0.4,3.1c0.3,1,0.7,2,1.4,2.9c1.4,2,3.7,3.2,6.2,3.1c1.3,0,2.5-0.3,3.7-0.8C79.6,433.8,80.5,433.1,81.3,432.2z
							 M79.6,428.4c-0.2,0.7-0.5,1.3-0.9,1.8c-0.4,0.5-0.9,0.9-1.5,1.2c-1.4,0.6-3,0.6-4.4,0c-0.6-0.3-1-0.7-1.4-1.2
							c-0.4-0.5-0.7-1.1-0.8-1.8c-0.2-0.8-0.3-1.6-0.3-2.4c0-0.9,0.1-1.8,0.3-2.6c0.2-0.8,0.4-1.5,0.8-2.2c0.4-0.6,0.9-1.1,1.5-1.5
							c1.3-0.7,3-0.7,4.3,0c0.6,0.4,1.1,0.9,1.5,1.5c0.4,0.7,0.7,1.4,0.9,2.2c0.2,0.9,0.3,1.8,0.3,2.7
							C79.9,426.9,79.8,427.7,79.6,428.4z"/>
						<path class="st1" d="M88.3,418.3c-0.2,0.3-0.5,0.7-0.8,1l-0.3,0.3l-0.8,0.7c-0.4,0.3-0.6,0.8-0.6,1.3c0,0.4,0.1,0.8,0.4,1l0,0
							l0,0c0.6,0.6,1.6,0.7,2.3,0.2c0.3-0.2,0.5-0.5,0.7-0.7c0.2-0.2,0.4-0.4,0.6-0.6l0.1,6l-0.1,6.1c0,0.5,0.2,0.9,0.6,1.2
							c0.3,0.2,0.6,0.3,1,0.3c0.4,0,0.8-0.1,1.1-0.3c0.4-0.2,0.7-0.7,0.7-1.2L93,417.3c-0.1-0.3-0.2-0.7-0.4-0.9
							c-0.2-0.2-0.5-0.5-0.7-0.6c-0.3-0.2-0.7-0.3-1.1-0.3c-0.5,0-0.9,0.3-1.1,0.8l0,0c-0.2,0.4-0.4,0.7-0.6,1
							S88.6,417.9,88.3,418.3z"/>
						<path class="st1" d="M116.8,400.4L116.8,400.4L116.8,400.4c0.6,0.6,1.6,0.7,2.3,0.2c0.3-0.2,0.5-0.5,0.7-0.7
							c0.2-0.2,0.4-0.4,0.6-0.6l0.1,6l-0.1,6.1c0,0.5,0.2,0.9,0.6,1.2c0.3,0.2,0.6,0.3,1,0.3c0.4,0,0.8-0.1,1.1-0.3
							c0.4-0.2,0.7-0.7,0.7-1.2l-0.1-16.4c-0.1-0.3-0.2-0.7-0.4-0.9c-0.2-0.2-0.5-0.5-0.7-0.6c-0.3-0.2-0.7-0.3-1.1-0.3
							c-0.5,0-0.9,0.3-1.1,0.8l0,0c-0.2,0.4-0.4,0.7-0.6,1s-0.4,0.7-0.7,1c-0.3,0.3-0.5,0.7-0.8,1l-0.3,0.4l-0.7,0.7
							c-0.4,0.3-0.6,0.8-0.6,1.3C116.4,399.7,116.6,400,116.8,400.4L116.8,400.4z"/>
						<path class="st1" d="M128.2,409.8c1.4,2,3.7,3.2,6.2,3.1c2.4,0.1,4.8-1,6.3-3c0.7-0.9,1.2-1.9,1.5-2.9c0.3-1,0.5-2.1,0.5-3.2
							c0-0.7-0.1-1.4-0.2-2.1c-0.1-0.8-0.3-1.5-0.6-2.3c-0.3-0.7-0.6-1.5-1-2.1c-0.4-0.7-0.9-1.3-1.5-1.9c-0.6-0.6-1.4-1-2.1-1.3
							c-1.8-0.7-3.8-0.7-5.6,0c-0.8,0.3-1.5,0.8-2.1,1.4c-0.6,0.6-1.1,1.2-1.5,1.9c-0.4,0.7-0.7,1.4-1,2.2c-0.2,0.7-0.4,1.5-0.5,2.2
							c-0.1,0.7-0.2,1.3-0.2,2c0,1,0.2,2.1,0.4,3.1C127.1,407.9,127.6,408.9,128.2,409.8z M130.1,401.2c0.1-0.8,0.4-1.5,0.9-2.2
							c0.4-0.6,0.9-1.1,1.5-1.5c0.7-0.4,1.4-0.6,2.2-0.5c0.8,0,1.5,0.2,2.1,0.5c0.6,0.4,1.1,0.9,1.5,1.5c0.4,0.7,0.7,1.4,0.9,2.2
							c0.2,0.9,0.3,1.8,0.3,2.7c0,0.8-0.1,1.6-0.3,2.4c-0.2,0.7-0.5,1.3-0.9,1.8c-0.4,0.5-0.9,0.9-1.5,1.2c-1.4,0.6-3,0.6-4.4,0
							c-0.5-0.3-1-0.7-1.4-1.2c-0.4-0.5-0.7-1.2-0.8-1.8c-0.2-0.8-0.3-1.6-0.3-2.3C129.8,402.9,129.9,402,130.1,401.2L130.1,401.2z"
							/>
						<path class="st1" d="M76,439.9c-0.2-0.2-0.5-0.5-0.7-0.6c-0.3-0.2-0.7-0.3-1.1-0.3c-0.5,0-0.9,0.3-1.1,0.8l0,0
							c-0.2,0.4-0.4,0.7-0.6,1s-0.4,0.7-0.7,1c-0.3,0.4-0.5,0.7-0.8,1l-0.3,0.3l-0.8,0.7c-0.4,0.3-0.6,0.8-0.6,1.3
							c0,0.4,0.1,0.8,0.4,1.1l0,0l0,0c0.6,0.6,1.6,0.7,2.3,0.2c0.3-0.2,0.5-0.5,0.7-0.7c0.2-0.2,0.4-0.4,0.6-0.6l0.1,6l-0.1,6.1
							c0,0.5,0.2,1,0.6,1.2c0.3,0.2,0.6,0.3,1,0.3c0.4,0,0.8-0.1,1.1-0.3c0.5-0.2,0.7-0.7,0.7-1.2l-0.2-16.4
							C76.3,440.4,76.2,440.1,76,439.9z"/>
						<path class="st1" d="M94.7,445.2c-0.3-0.7-0.6-1.5-1-2.1c-0.4-0.7-0.9-1.3-1.5-1.9c-0.6-0.6-1.4-1-2.1-1.3
							c-1.8-0.7-3.8-0.7-5.6,0c-0.8,0.3-1.5,0.8-2.1,1.4c-0.6,0.6-1.1,1.2-1.5,1.9c-0.4,0.7-0.7,1.4-1,2.2c-0.2,0.7-0.4,1.5-0.5,2.2
							c-0.1,0.7-0.2,1.3-0.2,2c0,1,0.2,2.1,0.4,3.1c0.3,1.1,0.8,2.1,1.4,3c1.4,2,3.7,3.2,6.2,3.1c2.4,0.1,4.8-1,6.3-3
							c0.7-0.9,1.2-1.9,1.5-2.9c0.3-1,0.5-2.1,0.5-3.2c0-0.7-0.1-1.4-0.2-2.1C95.2,446.7,95,445.9,94.7,445.2z M91.8,451.9
							c-0.2,0.7-0.5,1.3-0.9,1.8c-0.4,0.5-0.9,0.9-1.5,1.2c-1.4,0.6-3,0.6-4.4,0c-0.6-0.3-1-0.7-1.4-1.2c-0.4-0.5-0.7-1.2-0.8-1.8
							c-0.2-0.8-0.3-1.6-0.3-2.4c0-0.9,0.1-1.7,0.3-2.6c0.2-0.8,0.4-1.5,0.8-2.2c0.4-0.6,0.9-1.1,1.5-1.5c0.7-0.4,1.4-0.6,2.2-0.5
							c0.7,0,1.5,0.2,2.1,0.5c0.6,0.4,1.1,0.9,1.5,1.5c0.4,0.7,0.7,1.4,0.9,2.2c0.2,0.9,0.3,1.8,0.3,2.7
							C92.1,450.4,92,451.2,91.8,451.9z"/>
						<path class="st1" d="M137.6,434.9c0.3,0.2,0.6,0.3,1,0.3c0.4,0,0.8-0.1,1.1-0.3c0.4-0.2,0.7-0.7,0.7-1.2l-0.2-16.4
							c0-0.3-0.2-0.7-0.4-0.9c-0.2-0.2-0.5-0.5-0.7-0.6c-0.3-0.2-0.7-0.3-1.1-0.3c-0.5,0-0.9,0.3-1.1,0.8l0,0
							c-0.2,0.4-0.4,0.7-0.6,1s-0.4,0.7-0.7,1c-0.3,0.3-0.5,0.7-0.8,1c-0.1,0.1-0.2,0.2-0.3,0.3l-0.8,0.8c-0.4,0.3-0.6,0.8-0.6,1.3
							c0,0.4,0.1,0.8,0.4,1l0,0l0,0c0.3,0.3,0.6,0.5,1,0.5c0.5,0.1,0.9,0,1.3-0.3c0.3-0.2,0.5-0.5,0.7-0.7c0.2-0.2,0.4-0.4,0.6-0.6
							l0.1,6l-0.1,6.1C136.9,434.2,137.2,434.7,137.6,434.9z"/>
						<path class="st1" d="M113.4,439.4c-3.1,0-5.6-2.5-5.6-5.6c0-1.1-0.9-2-2-2s-2,0.9-2,2c0,5.3,4.3,9.7,9.7,9.7c1.1,0,2-0.9,2-2
							S114.5,439.5,113.4,439.4L113.4,439.4z"/>
						<path class="st1" d="M131.8,444.4l-1,1l-1.8-1.8c6-8.1,4.2-19.5-3.9-25.5s-19.5-4.2-25.5,3.9c-4.2,5.8-4.7,13.5-1.2,19.7
							c-0.4,0.4-0.8,0.9-1.1,1.4c-0.4,0.7-0.7,1.4-1,2.2c-0.2,0.7-0.4,1.5-0.5,2.2c-0.1,0.7-0.1,1.3-0.2,2c0,1,0.1,2.1,0.4,3.1
							c0.3,1,0.7,2,1.4,2.9c1.4,2,3.7,3.2,6.2,3.1c2.4,0.1,4.8-1,6.3-3c0.7-0.9,1.2-1.9,1.5-2.9c0.2-0.6,0.3-1.3,0.4-1.9
							c0.8,0.1,1.6,0.2,2.4,0.2c3.9,0,7.6-1.2,10.8-3.5l1.8,1.8l-1,1l11.8,11.8l1-1l3.9-3.9l1-1L131.8,444.4z M108.4,451.9
							c-0.2,0.7-0.5,1.3-0.9,1.8c-0.4,0.5-0.9,0.9-1.5,1.2c-1.4,0.6-3,0.6-4.4,0c-0.6-0.3-1-0.7-1.4-1.2c-0.4-0.5-0.7-1.2-0.8-1.8
							c-0.2-0.8-0.3-1.6-0.3-2.4c0-0.9,0.1-1.7,0.3-2.6c0.2-0.8,0.4-1.5,0.8-2.2c0.1-0.1,0.1-0.1,0.2-0.2c2.2,2.6,5,4.5,8.2,5.6
							C108.6,450.7,108.5,451.3,108.4,451.9L108.4,451.9z M114.4,446.4c-1,0-1.9-0.1-2.8-0.3c-1.5-0.3-3-0.9-4.3-1.8
							c-0.7-0.4-1.3-0.9-1.8-1.4c-0.5-0.5-1.1-1-1.5-1.6l-0.1-0.1c-0.5-0.6-0.9-1.2-1.2-1.8c-1.2-2-1.8-4.3-1.8-6.6
							c0-7.5,6.1-13.6,13.6-13.6s13.6,6.1,13.6,13.6C128,440.3,121.9,446.4,114.4,446.4C114.4,446.4,114.4,446.4,114.4,446.4z"/>
					</g>
				</g>
				<g id="Public_Health">
					<path class="st9" d="M315.5,178.6c-24.3,7.7-47.1,19.4-67.5,34.6c-1.9-49.1-43.3-87.4-92.4-85.5S68.2,171,70.1,220.2
						c1.9,49.1,43.3,87.4,92.4,85.5c4.5-0.2,9-0.7,13.5-1.6c-10.1,23-16.2,47.6-18.2,72.6c42.7-7.2,84.6-31.1,115.5-69.9
						S318,221.7,315.5,178.6z"/>
					<g id="Publc_Health_Text">
						<path class="st1" d="M110.2,250.4h-2.7v4.6h-2.3v-12.8h5c2.9,0,4.5,1.6,4.5,4.1S113.1,250.4,110.2,250.4z M110.1,244.2h-2.6
							v4.1h2.6c1.6,0,2.2-0.8,2.2-2c0.1-1.1-0.8-2.1-1.9-2.1C110.3,244.2,110.2,244.2,110.1,244.2z"/>
						<path class="st1" d="M122.2,255l-0.2-1.2c-0.5,1-1.6,1.5-2.7,1.5c-1.7,0.1-3.2-1.2-3.2-2.9c0-0.1,0-0.3,0-0.4v-6.3h2.2v5.7
							c0,1.1,0.4,1.8,1.6,1.8c0.4,0,0.8-0.2,1.2-0.5c0.5-0.6,0.8-1.3,0.7-2.1v-5h2.2v9.4H122.2z"/>
						<path class="st1" d="M133.6,254.4c-0.6,0.5-1.4,0.8-2.3,0.8c-1,0.1-2-0.4-2.6-1.2l-0.1,1h-2V242h2.3v4.3
							c0.6-0.6,1.5-1,2.4-0.9c0.8,0,1.6,0.2,2.3,0.8c1.2,1.1,1.8,2.6,1.7,4.2C135.4,251.9,134.8,253.4,133.6,254.4z M132.4,248
							c-0.4-0.5-0.9-0.7-1.5-0.7c-1.8,0-2.1,1.6-2.1,3c-0.1,0.9,0.2,1.8,0.8,2.6c0.4,0.3,0.8,0.5,1.3,0.5c0.6,0,1.2-0.3,1.5-0.7
							c0.4-0.7,0.6-1.5,0.6-2.3C133.1,249.5,132.8,248.7,132.4,248L132.4,248z"/>
						<path class="st1" d="M139.9,255.1c-1.2,0.2-2.4-0.7-2.6-1.9c0-0.2,0-0.4,0-0.6v-10.6h2.3v10.2c0,0.5,0.1,0.9,0.9,0.9
							c0.2,0,0.2,0,0.4,0v1.9C140.5,255,140.2,255.1,139.9,255.1z"/>
						<path class="st1" d="M142.5,244.3V242h2.4v2.3L142.5,244.3z M142.6,255v-9.4h2.3v9.4L142.6,255z"/>
						<path class="st1" d="M154.4,253.7c-0.8,1-2,1.5-3.2,1.5c-1.3,0-2.4-0.5-3.3-1.5c-1.4-2.1-1.4-4.8,0-6.8c0.8-0.9,2-1.5,3.3-1.5
							c1.2,0,2.4,0.5,3.2,1.5c0.4,0.6,0.7,1.3,0.7,2h-2.2c0-0.3-0.1-0.6-0.3-0.9c-0.3-0.5-0.9-0.7-1.4-0.7c-0.5,0-1,0.2-1.4,0.6
							c-0.8,1.5-0.8,3.3,0,4.7c0.4,0.4,0.9,0.6,1.4,0.6c0.6,0,1.1-0.2,1.4-0.7c0.2-0.3,0.3-0.6,0.3-0.9h2.2
							C155,252.4,154.8,253.1,154.4,253.7z"/>
						<path class="st1" d="M168.5,255v-5.6h-5.2v5.6h-2.3v-12.8h2.3v5h5.2v-5h2.3V255H168.5z"/>
						<path class="st1" d="M181.4,251h-6.3c0,0.7,0.2,1.3,0.7,1.8c0.4,0.4,0.9,0.6,1.4,0.6c0.8,0.1,1.6-0.4,1.8-1.2h2.2
							c-0.1,0.6-0.4,1.2-0.8,1.7c-1.7,1.7-4.4,1.8-6.1,0.2c-1-1-1.5-2.3-1.4-3.7c-0.1-1.4,0.4-2.7,1.4-3.8c0.8-0.8,1.9-1.2,3-1.2
							c1.4-0.1,2.7,0.6,3.4,1.7c0.6,1,0.9,2.1,0.8,3.3C181.4,250.4,181.4,250.8,181.4,251z M178.6,247.7c-0.4-0.4-0.9-0.6-1.4-0.5
							c-0.6,0-1.2,0.2-1.6,0.7c-0.3,0.4-0.5,0.9-0.5,1.4h4C179.2,248.8,179,248.2,178.6,247.7L178.6,247.7z"/>
						<path class="st1" d="M190.5,255.1c-0.8,0.1-1.5-0.5-1.6-1.3c-0.6,0.9-1.7,1.5-2.9,1.4c-2.2,0-3.4-1.4-3.4-2.9
							c0-1.8,1.4-2.8,3.2-2.9l2.8-0.2v-0.6c0-0.9-0.3-1.5-1.6-1.5c-1.1,0-1.7,0.5-1.7,1.3h-2.2c0.1-2.1,1.8-3,3.9-3
							c1.6,0,3,0.5,3.5,1.9c0.2,0.6,0.3,1.2,0.3,1.9v3.5c0,0.4,0.1,0.6,0.5,0.6c0.1,0,0.2,0,0.3,0v1.6
							C191.3,255.1,190.9,255.1,190.5,255.1z M188.6,250.8l-2.4,0.2c-0.7,0-1.3,0.5-1.4,1.2c0,0.7,0.6,1.2,1.3,1.2c0,0,0,0,0.1,0
							c1.2,0.1,2.2-0.7,2.4-1.8c0-0.1,0-0.2,0-0.3L188.6,250.8z"/>
						<path class="st1" d="M195.9,255.1c-1.2,0.2-2.4-0.7-2.6-1.9c0-0.2,0-0.4,0-0.6v-10.6h2.3v10.2c0,0.5,0.1,0.9,0.9,0.9
							c0.2,0,0.2,0,0.4,0v1.9C196.6,255,196.2,255.1,195.9,255.1z"/>
						<path class="st1" d="M201.9,255.1c-1.4,0.2-2.7-0.9-2.8-2.3c0-0.2,0-0.4,0-0.6v-4.8h-1.7v-1.8h1.7v-2.4l2.3-0.6v2.9h2.4v1.9
							h-2.4v4.5c0,0.7,0.3,1,1,1c0.5,0,1,0,1.5-0.1v1.9C203.2,255,202.5,255.1,201.9,255.1z"/>
						<path class="st1" d="M211.3,255v-5.8c0-1.1-0.4-1.7-1.6-1.7c-1.4,0-1.9,1.4-1.9,2.6v4.9h-2.2v-13h2.2v4.6
							c0.6-0.8,1.6-1.2,2.6-1.2c1.7-0.1,3.1,1.3,3.2,3c0,0.1,0,0.3,0,0.4v6.2H211.3z"/>
						<path class="st1" d="M131,269.4h-2.7v4.6H126v-12.8h5c2.9,0,4.5,1.6,4.5,4.1S133.9,269.4,131,269.4z M130.9,263.2h-2.6v4.1
							h2.6c1.6,0,2.2-0.8,2.2-2c0.1-1.1-0.8-2-1.9-2.1C131.1,263.2,131,263.2,130.9,263.2L130.9,263.2z"/>
						<path class="st1" d="M141.7,266.6c-1.3,0-2.4,1-2.4,2.3c0,0.1,0,0.2,0,0.3v4.8H137v-9.4h1.9l0.2,1.4c0.5-1,1.5-1.6,2.6-1.5
							c0.2,0,0.5,0,0.7,0.1v2.2C142.2,266.6,141.9,266.6,141.7,266.6z"/>
						<path class="st1" d="M151.2,274.1c-0.8,0.1-1.5-0.5-1.6-1.3c-0.6,0.9-1.7,1.5-2.8,1.4c-2.2,0-3.4-1.4-3.4-2.9
							c0-1.8,1.4-2.8,3.2-2.9l2.8-0.2v-0.6c0-0.9-0.3-1.5-1.6-1.5c-1.1,0-1.7,0.5-1.7,1.3h-2.2c0.1-2.1,1.8-3,3.9-3
							c1.6,0,3,0.5,3.5,1.9c0.2,0.6,0.3,1.2,0.3,1.9v3.5c0,0.4,0.1,0.6,0.5,0.6c0.1,0,0.2,0,0.3,0v1.6
							C151.9,274.1,151.5,274.1,151.2,274.1z M149.3,269.8l-2.4,0.2c-0.7,0-1.3,0.5-1.4,1.2c0,0.7,0.6,1.2,1.3,1.2c0,0,0,0,0,0
							c1.2,0.1,2.2-0.7,2.4-1.8c0-0.1,0-0.2,0-0.3V269.8z"/>
						<path class="st1" d="M160.9,272.7c-0.8,1-2,1.5-3.2,1.5c-1.3,0-2.4-0.5-3.3-1.5c-1.4-2.1-1.4-4.8,0-6.8c0.8-0.9,2-1.5,3.3-1.5
							c1.2,0,2.4,0.5,3.2,1.5c0.4,0.6,0.7,1.3,0.7,2h-2.2c0-0.3-0.1-0.6-0.3-0.9c-0.3-0.5-0.9-0.7-1.4-0.7c-0.5,0-1,0.2-1.4,0.6
							c-0.8,1.5-0.8,3.3,0,4.7c0.4,0.4,0.9,0.6,1.4,0.6c0.6,0,1.1-0.2,1.4-0.7c0.2-0.3,0.3-0.6,0.3-0.9h2.2
							C161.6,271.4,161.4,272.1,160.9,272.7z"/>
						<path class="st1" d="M167.2,274.1c-1.4,0.2-2.7-0.9-2.8-2.3c0-0.2,0-0.4,0-0.6v-4.8h-1.7v-1.8h1.7v-2.4l2.2-0.6v2.9h2.4v1.9
							h-2.4v4.5c0,0.7,0.3,1,1.1,1c0.5,0,1,0,1.5-0.1v1.9C168.5,274,167.9,274.1,167.2,274.1z"/>
						<path class="st1" d="M170.9,263.3V261h2.4v2.3L170.9,263.3z M170.9,274v-9.4h2.3v9.4L170.9,274z"/>
						<path class="st1" d="M182.7,272.7c-0.8,1-2,1.5-3.2,1.5c-1.2,0-2.4-0.5-3.2-1.5c-1.4-2.1-1.4-4.8,0-6.8c0.8-0.9,2-1.5,3.2-1.5
							c1.2,0,2.4,0.5,3.2,1.5c0.4,0.6,0.7,1.3,0.7,2h-2.2c0-0.3-0.1-0.6-0.2-0.8c-0.3-0.5-0.9-0.7-1.4-0.7c-0.5,0-1,0.2-1.4,0.6
							c-0.8,1.5-0.8,3.3,0,4.7c0.3,0.4,0.8,0.6,1.4,0.6c0.6,0,1.1-0.2,1.4-0.7c0.2-0.3,0.3-0.6,0.3-0.9h2.2
							C183.4,271.4,183.2,272.1,182.7,272.7z"/>
						<path class="st1" d="M193.3,270h-6.3c0,0.7,0.2,1.3,0.7,1.8c0.4,0.4,0.9,0.6,1.4,0.6c0.5,0.1,1-0.1,1.4-0.5
							c0.2-0.2,0.4-0.5,0.4-0.8h2.2c-0.1,0.6-0.4,1.2-0.8,1.7c-0.8,0.9-2,1.4-3.1,1.3c-1.1,0-2.2-0.4-2.9-1.2c-1-1-1.5-2.3-1.4-3.7
							c-0.1-1.4,0.4-2.7,1.4-3.8c0.8-0.8,1.9-1.2,3-1.2c1.4,0,2.6,0.6,3.4,1.7c0.6,1,0.9,2.1,0.8,3.3
							C193.4,269.4,193.3,269.8,193.3,270z M190.5,266.7c-0.4-0.4-0.9-0.6-1.4-0.5c-0.6,0-1.2,0.2-1.6,0.7c-0.3,0.4-0.5,0.9-0.5,1.5
							h4C191.1,267.8,190.9,267.2,190.5,266.7L190.5,266.7z"/>
					</g>
					<g id="Public_Health_Icon" class="st2">
						<path class="st1" d="M159.2,146.3c-23,0-41.7,18.7-41.7,41.8c0,23,18.7,41.7,41.8,41.7c23,0,41.7-18.7,41.7-41.7
							C201,165,182.3,146.3,159.2,146.3C159.3,146.3,159.3,146.3,159.2,146.3z M159.2,224.7c-20.3,0-36.8-16.5-36.8-36.8
							s16.5-36.8,36.8-36.8S196,167.7,196,188c0,0,0,0,0,0C196,208.3,179.5,224.7,159.2,224.7L159.2,224.7z"/>
						<circle class="st1" cx="173" cy="167.7" r="8.5"/>
						<path class="st1" d="M145.8,183.3c4.7,0,8.5-3.8,8.5-8.5s-3.8-8.5-8.5-8.5c-4.7,0-8.5,3.8-8.5,8.5
							C137.3,179.5,141.1,183.3,145.8,183.3L145.8,183.3z"/>
						<path class="st1" d="M189.9,184c-1.8-3.5-5.4-5.7-9.4-5.7h-15c-3.9,0-7.6,2.2-9.4,5.7l-1.3,2.8c-1.3-0.7-2.8-1-4.2-1h-9.5
							c-3.6,0-6.9,2-8.5,5.2l-3.8,12.2c1.2,2.3,2.6,4.5,4.3,6.4l3.4-10c0-0.1,0.2-0.2,0.3-0.1c0.1,0,0.2,0.2,0.1,0.3l-3,10.9
							c3.4,3.7,7.5,6.6,12.1,8.6l3.9-8.5c1.2-2.2,3.5-3.6,6-3.6h6.9c2.5,0,4.8,1.4,6,3.6l3.9,8.5c4.8-2.1,9.2-5.2,12.6-9.2
							l-0.1-17.8c0-0.1,0-0.3,0.2-0.3c0.1,0,0.3,0,0.3,0.2l4,11.6c1.7-3.1,2.8-6.5,3.5-10L189.9,184z M159.3,205.3c-3.3,0-6-2.7-6-6
							s2.7-6,6-6s6,2.7,6,6S162.6,205.3,159.3,205.3z"/>
						<path class="st1" d="M166.2,221.3L166.2,221.3l-1,0.2C165.5,221.4,165.9,221.3,166.2,221.3z"/>
						<path class="st1" d="M168.7,220.7l0.4-0.1C169,220.6,168.8,220.6,168.7,220.7L168.7,220.7z"/>
						<path class="st1" d="M166.2,221v0.2c0.9-0.2,1.7-0.4,2.6-0.6l-2.2-3.9C166.4,216.5,166.1,216.6,166.2,221z"/>
						<path class="st1" d="M153,216.7l-2.2,3.9c0.8,0.2,1.7,0.4,2.5,0.6V221C153.4,216.6,153.1,216.5,153,216.7z"/>
						<path class="st1" d="M150.8,220.7L150.8,220.7l-0.8-0.2L150.8,220.7z"/>
					</g>
				</g>
				
					<radialGradient id="SVGID_1_" cx="384" cy="373" r="228" gradientTransform="matrix(1 0 0 -1 0 768)" gradientUnits="userSpaceOnUse">
					<stop  offset="0.41" style="stop-color:#FFFFFF"/>
					<stop  offset="0.48" style="stop-color:#FCFDFF;stop-opacity:0.98"/>
					<stop  offset="0.55" style="stop-color:#F1F9FE;stop-opacity:0.93"/>
					<stop  offset="0.63" style="stop-color:#E0F1FD;stop-opacity:0.84"/>
					<stop  offset="0.71" style="stop-color:#C9E7FC;stop-opacity:0.72"/>
					<stop  offset="0.79" style="stop-color:#AAD9FB;stop-opacity:0.56"/>
					<stop  offset="0.87" style="stop-color:#85C8F9;stop-opacity:0.36"/>
					<stop  offset="0.95" style="stop-color:#5AB5F6;stop-opacity:0.14"/>
					<stop  offset="1" style="stop-color:#3FA9F5;stop-opacity:0"/>
				</radialGradient>
				<circle class="st10" cx="384" cy="395" r="228"/>
			</g>
			<g id="Center_Text">
				<path class="st11" d="M302.4,370.6h-8.5v12.8h-2.3v-31.2h10.8c6,0,10.4,2.9,10.4,9.2S308.4,370.6,302.4,370.6z M302.4,354.4
					h-8.5v14h8.5c4.6,0,8-2.1,8-7S307,354.4,302.4,354.4z"/>
				<path class="st11" d="M326.3,363.3c-5.5,0-7,4.9-7,9.5v10.6h-2.2v-22h1.9l0.3,4.4c1.1-2.9,3.9-4.8,7-4.7c0.7,0,1.4,0,2.2,0.1
					v2.2C327.7,363.4,327,363.3,326.3,363.3z"/>
				<path class="st11" d="M349.2,372.9h-16.8c0,2.4,0.8,4.7,2.3,6.6c1.3,1.6,3.3,2.4,5.3,2.3c1.8,0,3.5-0.7,4.8-1.9
					c0.9-0.9,1.4-1.9,1.7-3.1h2.3c-0.3,1.8-1.2,3.4-2.5,4.6c-1.7,1.7-3.9,2.6-6.3,2.6c-2.7,0.1-5.2-1.1-7-3.1
					c-3.5-4.8-3.8-11.2-0.7-16.2c1.7-2.4,4.5-3.9,7.5-3.8c5.9,0,9.4,5.1,9.4,10.6C349.3,372,349.2,372.4,349.2,372.9z M339.8,362.9
					c-4.5,0-7.4,3.6-7.4,8H347C346.9,366.7,344.3,362.9,339.8,362.9L339.8,362.9z"/>
				<path class="st11" d="M361.5,383.4h-2.2l-8.7-22h2.5l7.4,18.9l7.1-18.9h2.3L361.5,383.4z"/>
				<path class="st11" d="M390.4,372.9h-16.8c0,2.4,0.8,4.7,2.3,6.6c1.3,1.6,3.3,2.4,5.3,2.3c1.8,0,3.5-0.7,4.8-1.9
					c0.9-0.9,1.4-1.9,1.7-3.1h2.3c-0.3,1.8-1.2,3.4-2.5,4.6c-1.7,1.7-4,2.6-6.3,2.6c-2.7,0.1-5.3-1.1-7-3.1
					c-3.5-4.8-3.8-11.2-0.7-16.2c1.7-2.4,4.5-3.9,7.5-3.8c5.9,0,9.4,5.1,9.4,10.6C390.4,372,390.4,372.4,390.4,372.9z M381,362.9
					c-4.5,0-7.4,3.6-7.4,8h14.6C388.1,366.7,385.5,362.9,381,362.9L381,362.9z"/>
				<path class="st11" d="M410.9,383.4V369c0-3.8-1.7-6-5.7-6c-5.4,0-7.3,4.7-7.3,9.4v11h-2.2v-22h1.9l0.3,4
					c1.4-2.8,4.3-4.6,7.4-4.6c5.1,0,7.8,3.1,7.8,8.1v14.5L410.9,383.4z"/>
				<path class="st11" d="M426.8,383.7c-4.1,0-5.7-2.6-5.7-6.4v-13.9h-4.4v-2h4.4v-6.1l2.2-0.5v6.6h6.8v2h-6.8v13.8
					c0,2.6,0.7,4.5,3.6,4.5c1.2,0,2.3-0.2,3.5-0.4v1.9C429.2,383.5,428,383.7,426.8,383.7z"/>
				<path class="st11" d="M434.8,355.3v-3.1h3.1v3.1H434.8z M435.2,383.4v-22h2.3v22H435.2z"/>
				<path class="st11" d="M452.3,383.4h-2.2l-8.7-22h2.5l7.4,18.9l7.1-18.9h2.3L452.3,383.4z"/>
				<path class="st11" d="M481.2,372.9h-16.8c0,2.4,0.8,4.7,2.3,6.6c1.3,1.6,3.3,2.4,5.3,2.3c1.8,0,3.5-0.7,4.8-1.9
					c0.9-0.9,1.4-1.9,1.7-3.1h2.3c-0.3,1.8-1.2,3.4-2.5,4.6c-1.7,1.7-3.9,2.6-6.3,2.6c-2.7,0.1-5.2-1.1-7-3.1
					c-3.5-4.8-3.8-11.2-0.7-16.2c1.7-2.4,4.5-3.9,7.5-3.8c5.9,0,9.4,5.1,9.4,10.6C481.3,372,481.2,372.4,481.2,372.9z M471.8,362.9
					c-4.5,0-7.4,3.6-7.4,8H479C478.9,366.7,476.3,362.9,471.8,362.9L471.8,362.9z"/>
				<path class="st11" d="M330.1,427.4v-27.9L318.7,427h-2l-11.4-27.2v27.7H303v-31.2h3.2l11.5,27.7l11.3-27.7h3.2v31.2L330.1,427.4
					z"/>
				<path class="st11" d="M357.2,416.9h-16.8c0,2.4,0.8,4.7,2.3,6.6c1.3,1.6,3.3,2.4,5.3,2.3c1.8,0,3.5-0.7,4.8-1.9
					c0.9-0.9,1.4-1.9,1.7-3.1h2.3c-0.3,1.8-1.2,3.4-2.5,4.6c-1.7,1.7-3.9,2.6-6.3,2.5c-2.7,0.1-5.3-1.1-7-3.1
					c-3.5-4.8-3.8-11.2-0.7-16.2c1.7-2.4,4.5-3.9,7.5-3.8c5.9,0,9.4,5.1,9.4,10.6C357.3,416,357.2,416.4,357.2,416.9z M347.9,406.9
					c-4.5,0-7.4,3.6-7.4,8H355C355,410.7,352.4,406.9,347.9,406.9L347.9,406.9z"/>
				<path class="st11" d="M377.6,427.4l-0.3-3.9c-1.4,2.8-4.2,4.5-7.3,4.5c-2.1,0.1-4.2-0.7-5.9-2.1c-2.5-2.1-3.6-5.7-3.6-9.5
					c0-3.6,1.1-7.1,3.4-9.3c3.5-3.2,9-3,12.2,0.5c0.4,0.5,0.8,0.9,1.1,1.5v-13.5h2.2v31.8H377.6z M374.6,408.7
					c-1.2-1.2-2.9-1.8-4.6-1.7c-1.8-0.1-3.5,0.6-4.7,1.9c-1.7,2.1-2.6,4.8-2.5,7.5c0,3.1,0.9,6.1,2.9,7.9c1.2,1,2.8,1.6,4.4,1.5
					c1.7,0,3.3-0.6,4.5-1.8c1.9-2.1,3-4.8,2.8-7.6C377.4,413.1,376.6,410.6,374.6,408.7L374.6,408.7z"/>
				<path class="st11" d="M386.7,399.3v-3.1h3.1v3.1H386.7z M387.1,427.4v-22h2.3v22H387.1z"/>
				<path class="st11" d="M404.7,428c-2.4,0-4.8-0.9-6.5-2.6c-2.3-2.3-3.1-5.2-3.1-9s0.8-6.7,3.1-9c1.7-1.7,4.1-2.6,6.5-2.6
					c4.4-0.2,8.1,3.1,8.5,7.4h-2.3c-0.4-3.1-3.1-5.4-6.2-5.3c-1.8-0.1-3.6,0.6-4.9,1.9c-2,2.1-2.4,4.7-2.4,7.5s0.4,5.5,2.4,7.6
					c1.3,1.3,3.1,1.9,4.9,1.9c3.1,0,5.8-2.3,6.2-5.4h2.3C412.8,424.8,409.1,428.1,404.7,428z"/>
				<path class="st11" d="M418,399.3v-3.1h3.1v3.1H418z M418.4,427.4v-22h2.3v22H418.4z"/>
				<path class="st11" d="M443.5,427.4V413c0-3.8-1.7-6-5.7-6c-5.4,0-7.3,4.7-7.3,9.4v11h-2.2v-22h1.9l0.3,4
					c1.4-2.8,4.3-4.6,7.4-4.6c5.1,0,7.8,3.1,7.8,8.1v14.5L443.5,427.4z"/>
				<path class="st11" d="M469.8,416.9H453c0,2.4,0.8,4.7,2.3,6.6c1.3,1.6,3.3,2.4,5.3,2.3c1.8,0,3.5-0.7,4.8-1.9
					c0.9-0.9,1.4-1.9,1.7-3.1h2.3c-0.3,1.8-1.2,3.4-2.5,4.6c-1.7,1.7-3.9,2.6-6.3,2.6c-2.7,0.1-5.2-1.1-7-3.1
					c-3.5-4.8-3.8-11.2-0.7-16.2c1.7-2.4,4.5-3.9,7.5-3.8c5.9,0,9.4,5.1,9.4,10.6C469.8,416,469.8,416.4,469.8,416.9z M460.4,406.9
					c-4.5,0-7.4,3.6-7.4,8h14.6C467.5,410.7,464.9,406.9,460.4,406.9L460.4,406.9z"/>
			</g>
		</g>
	</g>
	<g id="Layer_2">
	</g>
</g>
</svg>
