<?xml version="1.0" encoding="utf-8"?>
<!-- Generator: Adobe Illustrator 22.1.0, SVG Export Plug-In . SVG Version: 6.00 Build 0)  -->
<svg version="1.1" id="Layer_1" xmlns="http://www.w3.org/2000/svg" xmlns:xlink="http://www.w3.org/1999/xlink" x="0px" y="0px"
	 viewBox="0 0 800 800" style="enable-background:new 0 0 800 800;" xml:space="preserve">
<style type="text/css">
	.st0{fill:#CA7C1B;}
	.st1{fill:#FFFFFF;}
	.st2{opacity:0.5;fill:#FFFFFF;enable-background:new    ;}
	.st3{fill:#5091CD;}
	.st4{opacity:0.5;}
	.st5{fill:#008656;}
	.st6{fill:#765DA0;}
	.st7{fill:#007FA4;}
	.st8{fill:#58B947;}
	.st9{fill:#D85820;}
	.st10{fill:#482476;}
	.st11{fill:url(#SVGID_1_);}
	.st12{fill:#514689;}
</style>
<g id="Layer_1_1_">
	<title>prev-med-ring-jewel</title>
	<g>
		<g id="Icons">
			<g id="Nutrition">
				<path class="st0" d="M359.4,625.2c-43.8,22.9-60.8,77-37.9,120.8s77,60.8,120.8,37.9c43.8-22.9,60.8-77,37.9-120.8
					c-8.5-16.2-21.7-29.4-37.9-37.9c31.8-5.8,62-18.3,88.7-36.6c-28.4-59.7-76-98.9-130.1-98.9s-101.7,39.2-130.1,98.9
					C297.4,606.9,327.6,619.4,359.4,625.2z"/>
				<g id="Nutrition_Text">
					<path class="st1" d="M371,763l-5.5-8.8v8.8h-2.3v-12.8h2.5l5.5,8.6v-8.6h2.3V763H371z"/>
					<path class="st1" d="M382.3,763l-0.2-1.2c-0.5,1-1.6,1.5-2.7,1.5c-1.7,0.1-3.2-1.2-3.2-2.9c0-0.1,0-0.3,0-0.4v-6.3h2.2v5.7
						c0,1.1,0.4,1.8,1.6,1.8c0.4,0,0.8-0.2,1.1-0.5c0.5-0.6,0.7-1.3,0.7-2.1v-5h2.2v9.4H382.3z"/>
					<path class="st1" d="M390.3,763.1c-1.4,0.2-2.7-0.9-2.8-2.3c0-0.2,0-0.4,0-0.6v-4.8h-1.7v-1.9h1.7v-2.4l2.2-0.6v2.9h2.4v1.8
						h-2.4v4.6c0,0.7,0.3,1,1,1c0.5,0,1,0,1.5-0.1v1.9C391.6,763,391,763.1,390.3,763.1z"/>
					<path class="st1" d="M398.8,755.6c-1.3,0-2.4,1-2.4,2.3c0,0.1,0,0.2,0,0.3v4.8h-2.3v-9.4h1.9l0.2,1.4c0.5-1,1.5-1.6,2.6-1.5
						c0.2,0,0.5,0,0.7,0.1v2.2C399.4,755.6,399.1,755.6,398.8,755.6z"/>
					<path class="st1" d="M401.2,752.3V750h2.4v2.3H401.2z M401.3,763v-9.4h2.3v9.4H401.3z"/>
					<path class="st1" d="M409.8,763.1c-1.4,0.2-2.7-0.9-2.8-2.3c0-0.2,0-0.4,0-0.6v-4.8h-1.7v-1.9h1.8v-2.4l2.2-0.6v2.9h2.4v1.8
						h-2.4v4.6c0,0.7,0.3,1,1,1c0.5,0,1,0,1.5-0.1v1.9C411.1,763,410.4,763.1,409.8,763.1z"/>
					<path class="st1" d="M413.6,752.3V750h2.4v2.3H413.6z M413.6,763v-9.4h2.3v9.4H413.6z"/>
					<path class="st1" d="M425.8,761.7c-1.6,1.8-4.4,2-6.2,0.3c-0.1-0.1-0.2-0.2-0.3-0.3c-1.5-2.1-1.5-4.8,0-6.9
						c1.6-1.8,4.4-1.9,6.3-0.3c0.1,0.1,0.2,0.2,0.3,0.3C427.2,756.9,427.2,759.7,425.8,761.7z M423.9,755.9c-0.8-0.8-2-0.8-2.8,0
						l0,0c-0.9,1.4-0.9,3.3,0,4.7c0.8,0.8,2,0.8,2.8,0l0,0C424.8,759.2,424.8,757.4,423.9,755.9z"/>
					<path class="st1" d="M434.8,763v-5.7c0-1.1-0.4-1.8-1.5-1.8c-0.7,0-1.4,0.5-1.6,1.2c-0.3,0.8-0.4,1.7-0.3,2.5v3.8H429v-9.4h1.9
						l0.2,1.2c1-1.5,3-1.9,4.5-0.9c0.9,0.6,1.5,1.7,1.4,2.8v6.3L434.8,763L434.8,763z"/>
				</g>
				<path id="Nutrition_Icon" class="st2" d="M419.2,659.2c-8.4,0-16,5.1-19.2,12.9c-4.4-10.6-16.5-15.7-27.1-11.3
					C365.1,664,360,671.6,360,680c-0.1,4.9,1.6,9.6,4.9,13.3c8.4,9.3,35.1,35.8,35.1,35.8s2.9-2.9,7.1-7l-10.6-10.6
					c-1.7,1.3-4.1,1.2-5.7-0.3l-14.6-15.6c-0.4-0.4-0.4-1.1,0-1.5l0.3-0.3c0.2-0.2,0.5-0.3,0.8-0.3s0.5,0.1,0.7,0.3l11.1,11.1
					c0.4,0.4,1.1,0.4,1.5,0l0,0c0.4-0.4,0.4-1.1,0-1.5l0,0L379.9,692c-0.2-0.2-0.3-0.5-0.3-0.7c0-0.3,0.1-0.5,0.3-0.7l0.4-0.4
					c0.2-0.2,0.5-0.3,0.7-0.3c0.3,0,0.5,0.1,0.7,0.3l11.5,10.8c0.4,0.4,1.1,0.5,1.5,0.1s0.5-1.1,0.1-1.5l-0.1-0.1l-11.1-11.1
					c-0.4-0.4-0.4-1-0.1-1.4c0,0,0,0,0.1-0.1l0.4-0.3c0.2-0.2,0.4-0.3,0.7-0.3c0.3,0,0.5,0.1,0.7,0.3L401,701c1.5,1.5,1.7,4,0.3,5.7
					l10.6,10.6c2.5-2.5,5.2-5.3,7.9-8l-5.5-5.5l-0.4,0.4c-0.8,0.8-2.2,0.8-3,0l0,0l-16.8-16.8c-3.1-3.1-3.1-8.1,0-11.1l0.1-0.1
					c0.6-0.6,1.6-0.6,2.2,0l0,0l22.7,22.8l5.4,5.4c4.3-4.4,8.1-8.4,10.5-11c3.2-3.7,5-8.5,4.8-13.4
					C440,668.5,430.7,659.2,419.2,659.2z"/>
			</g>
			<g id="Behavioral_Medicine">
				<path class="st3" d="M442.3,172.8c43.8-22.9,60.8-77,37.9-120.8s-77-60.8-120.8-37.9s-60.8,77-37.9,120.8
					c8.5,16.2,21.7,29.4,37.9,37.9c-31.8,5.8-62,18.3-88.7,36.6c28.4,59.7,76.1,98.9,130.1,98.9s101.7-39.2,130.1-98.9
					C504.4,191.1,474.1,178.6,442.3,172.8z"/>
				<g id="Behavioral_Medicine_Text">
					<path class="st1" d="M365.1,121.1c-1,0.7-2.2,1-3.4,0.9h-5.1v-12.8h5.1c1-0.1,2.1,0.2,3,0.7c0.9,0.6,1.5,1.7,1.5,2.8
						c0,1.1-0.6,2.2-1.6,2.7c1.1,0.5,1.9,1.6,1.8,2.9C366.5,119.4,366,120.4,365.1,121.1z M361.8,111.2h-2.9v3.2h2.9
						c1,0,1.9-0.4,1.9-1.6S362.8,111.2,361.8,111.2z M361.9,116.3H359v3.6h2.9c1.1,0,2.2-0.4,2.2-1.7S363.1,116.3,361.9,116.3
						L361.9,116.3z"/>
					<path class="st1" d="M376.4,118h-6.3c0,0.7,0.2,1.3,0.7,1.8c0.4,0.4,0.9,0.6,1.4,0.6c0.5,0.1,1-0.1,1.4-0.4
						c0.2-0.2,0.4-0.5,0.5-0.8h2.2c-0.1,0.6-0.4,1.2-0.8,1.7c-1.7,1.7-4.4,1.8-6.1,0.2c-1-1-1.5-2.3-1.5-3.7
						c-0.1-1.4,0.4-2.7,1.4-3.8c0.8-0.8,1.9-1.2,3-1.2c1.4,0,2.7,0.6,3.4,1.7c0.6,1,0.9,2.1,0.8,3.3
						C376.4,117.4,376.4,117.8,376.4,118z M373.6,114.7c-0.4-0.4-0.9-0.6-1.4-0.5c-0.6,0-1.2,0.2-1.6,0.7c-0.3,0.4-0.5,0.9-0.5,1.4
						h4C374.1,115.8,374,115.2,373.6,114.7L373.6,114.7z"/>
					<path class="st1" d="M384.2,122v-5.8c0-1.1-0.4-1.7-1.5-1.7c-1.4,0-1.9,1.4-1.9,2.6v4.9h-2.2v-13h2.2v4.6
						c0.6-0.8,1.6-1.2,2.6-1.2c1.7-0.1,3.1,1.3,3.2,3c0,0.1,0,0.2,0,0.4v6.3h-2.4V122z"/>
					<path class="st1" d="M396.2,122.1c-0.8,0.1-1.5-0.5-1.6-1.3c-0.6,0.9-1.7,1.5-2.8,1.4c-2.2,0-3.4-1.4-3.4-2.9
						c0-1.8,1.4-2.8,3.2-2.9l2.8-0.2v-0.6c0-0.9-0.3-1.5-1.6-1.5c-1,0-1.7,0.5-1.7,1.3h-2.2c0.1-2.1,1.8-3,3.9-3
						c1.6,0,3,0.5,3.5,1.9c0.2,0.6,0.3,1.2,0.3,1.9v3.5c0,0.4,0.1,0.6,0.5,0.6c0.1,0,0.2,0,0.3,0v1.7
						C397,122.1,396.6,122.1,396.2,122.1z M394.3,117.8l-2.4,0.2c-0.7,0-1.3,0.5-1.4,1.2c0,0.7,0.6,1.2,1.3,1.2l0,0
						c1.2,0.1,2.2-0.7,2.4-1.8c0-0.1,0-0.2,0-0.3v-0.5H394.3z"/>
					<path class="st1" d="M403.6,122h-2.4l-3.5-9.4h2.4l2.3,6.6l2.2-6.6h2.3L403.6,122z"/>
					<path class="st1" d="M408.4,111.3V109h2.4v2.3H408.4z M408.4,122v-9.4h2.3v9.4H408.4z"/>
					<path class="st1" d="M420.5,120.7c-1.6,1.8-4.4,2-6.2,0.3c-0.1-0.1-0.2-0.2-0.3-0.3c-1.5-2.1-1.5-4.8,0-6.9
						c1.6-1.8,4.4-1.9,6.2-0.3c0.1,0.1,0.2,0.2,0.3,0.3C422,115.9,422,118.7,420.5,120.7z M418.7,114.9c-0.8-0.8-2-0.8-2.8,0l0,0
						c-0.9,1.4-0.9,3.3,0,4.7c0.8,0.8,2,0.8,2.8,0l0,0C419.6,118.2,419.6,116.4,418.7,114.9z"/>
					<path class="st1" d="M428.5,114.6c-1.3,0-2.4,1-2.4,2.3c0,0.1,0,0.2,0,0.4v4.8h-2.3v-9.4h1.9l0.2,1.4c0.5-1,1.5-1.6,2.6-1.5
						c0.2,0,0.5,0,0.7,0.1v2.2C429,114.6,428.7,114.6,428.5,114.6z"/>
					<path class="st1" d="M437.8,122.1c-0.8,0.1-1.5-0.5-1.6-1.3c-0.6,0.9-1.7,1.5-2.8,1.4c-2.2,0-3.4-1.4-3.4-2.9
						c0-1.8,1.4-2.8,3.2-2.9l2.8-0.2v-0.6c0-0.9-0.3-1.5-1.6-1.5c-1,0-1.7,0.5-1.7,1.3h-2.2c0.1-2.1,1.8-3,3.9-3
						c1.6,0,3,0.5,3.5,1.9c0.2,0.6,0.3,1.2,0.3,1.9v3.5c0,0.4,0.1,0.6,0.5,0.6c0.1,0,0.2,0,0.3,0v1.7
						C438.5,122.1,438.2,122.1,437.8,122.1z M435.9,117.8l-2.4,0.2c-0.7,0-1.3,0.5-1.4,1.2c0,0.7,0.6,1.2,1.3,1.2l0,0
						c1.2,0.1,2.2-0.7,2.4-1.8c0-0.1,0-0.2,0-0.3L435.9,117.8z"/>
					<path class="st1" d="M443.3,122.1c-1.2,0.2-2.4-0.7-2.5-2c0-0.2,0-0.4,0-0.6v-10.6h2.3v10.2c0,0.5,0.1,0.9,0.9,0.9
						c0.2,0,0.2,0,0.4,0v1.9C444,122,443.7,122.1,443.3,122.1z"/>
					<path class="st1" d="M373.5,141v-9.1l-3.3,8.9h-1.7l-3.3-9v9.2H363v-12.8h3.1l3.4,9.1l3.4-9.1h3V141H373.5z"/>
					<path class="st1" d="M386.5,137h-6.3c0,0.7,0.2,1.3,0.7,1.8c0.4,0.4,0.9,0.6,1.4,0.6c0.5,0.1,1-0.1,1.4-0.4
						c0.2-0.2,0.4-0.5,0.5-0.8h2.2c-0.1,0.6-0.4,1.2-0.8,1.7c-0.8,0.9-2,1.4-3.1,1.3c-1.1,0-2.2-0.4-3-1.2c-1-1-1.5-2.4-1.4-3.8
						c-0.1-1.4,0.4-2.7,1.4-3.8c0.8-0.8,1.9-1.2,3-1.2c1.4,0,2.6,0.6,3.4,1.7c0.6,1,0.9,2.1,0.8,3.3
						C386.6,136.4,386.5,136.8,386.5,137z M383.7,133.7c-0.4-0.4-0.9-0.6-1.4-0.5c-0.6,0-1.2,0.2-1.6,0.7c-0.3,0.4-0.5,0.9-0.5,1.4
						h4C384.3,134.8,384.1,134.2,383.7,133.7L383.7,133.7z"/>
					<path class="st1" d="M394.7,141l-0.1-1c-0.6,0.8-1.6,1.3-2.6,1.2c-0.8,0-1.6-0.3-2.3-0.8c-1.2-1-1.8-2.6-1.7-4.2
						c-0.1-1.6,0.5-3.1,1.7-4.2c0.6-0.5,1.5-0.8,2.3-0.8c0.9-0.1,1.8,0.2,2.5,0.9V128h2.2v13H394.7z M392.4,133.3
						c-0.6,0-1.2,0.3-1.5,0.7c-0.4,0.7-0.6,1.5-0.6,2.3s0.2,1.6,0.6,2.3c0.4,0.5,0.9,0.7,1.5,0.7c1.8,0,2.1-1.7,2.1-3
						S394.2,133.3,392.4,133.3L392.4,133.3z"/>
					<path class="st1" d="M399.4,130.3V128h2.4v2.3H399.4z M399.5,141v-9.4h2.3v9.4H399.5z"/>
					<path class="st1" d="M411.5,139.7c-0.8,1-2,1.5-3.2,1.5c-1.3,0-2.4-0.5-3.3-1.5c-1.4-2.1-1.4-4.8,0-6.8c0.8-0.9,2-1.5,3.3-1.5
						c1.2,0,2.4,0.5,3.2,1.5c0.4,0.6,0.7,1.3,0.7,2H410c0-0.3-0.1-0.6-0.3-0.9c-0.3-0.5-0.9-0.7-1.5-0.7c-0.5,0-1,0.2-1.4,0.6
						c-0.8,1.5-0.8,3.3,0,4.7c0.4,0.4,0.8,0.6,1.4,0.6s1.1-0.2,1.5-0.7c0.2-0.3,0.2-0.6,0.3-0.9h2.2
						C412.2,138.4,411.9,139.1,411.5,139.7z"/>
					<path class="st1" d="M414.1,130.3V128h2.4v2.3H414.1z M414.2,141v-9.4h2.3v9.4H414.2z"/>
					<path class="st1" d="M425,141v-5.7c0-1.1-0.4-1.8-1.5-1.8c-0.7,0-1.4,0.5-1.6,1.2c-0.3,0.8-0.4,1.7-0.3,2.5v3.8h-2.2v-9.4h1.9
						l0.2,1.2c1-1.5,3-1.9,4.5-0.9c0.9,0.6,1.5,1.7,1.4,2.8v6.3L425,141L425,141z"/>
					<path class="st1" d="M437.9,137h-6.3c0,0.7,0.2,1.3,0.7,1.8c0.4,0.4,0.9,0.6,1.4,0.6c0.8,0.1,1.6-0.4,1.8-1.2h2.2
						c-0.1,0.6-0.4,1.2-0.8,1.7c-0.8,0.9-2,1.4-3.1,1.3c-1.1,0-2.2-0.4-3-1.2c-1-1-1.5-2.3-1.4-3.7c-0.1-1.4,0.4-2.7,1.4-3.8
						c0.8-0.8,1.9-1.2,3-1.2c1.4-0.1,2.7,0.6,3.4,1.7c0.6,1,0.9,2.1,0.8,3.3C437.9,136.4,437.9,136.8,437.9,137z M435,133.7
						c-0.4-0.4-0.9-0.6-1.4-0.5c-0.6,0-1.2,0.2-1.6,0.7c-0.3,0.4-0.5,0.9-0.5,1.4h4C435.7,134.8,435.4,134.2,435,133.7L435,133.7z"
						/>
				</g>
				<g id="Behavioral_Medicine_Icon" class="st4">
					<path class="st1" d="M425.6,57.5c-0.7-2.6-2.4-3.8-5.1-3.4c-1.5,0.2-3,0.5-4.5,0.8c-6.7,1.2-13.3,2.8-20.2,1.5
						c-5.1-1-10.4-1.1-15.6-1.6c-7.2-0.7-12.5,2.6-12.9,9c-0.5,8.6-0.1,17.3-0.1,26H390c0.4-6.9,0.9-13.7,1.3-20.6
						c4.1,0,7.9,0.1,11.7,0c2,0,3.9-0.3,5.8-0.9c4.7-1.7,9.4-3.7,14-5.6C425.4,61.5,426.3,60,425.6,57.5z"/>
					<path class="st1" d="M429.5,57.4c0.6,5.3-1.6,7.9-6.1,9.1c-2.8,0.9-5.5,2-8.1,3.2c-6,2.4-6,2.4-6,8.8v11.2h22.4
						c0.4-7.9,0.9-15.6,1.3-23.3C433.2,63.2,432.2,60.4,429.5,57.4z"/>
					<path class="st1" d="M381.7,50.5c6.4,0,11.6-5,11.7-11.4s-5-11.7-11.4-11.9c-6.4-0.1-11.7,5-11.9,11.4
						C370,45.1,375.2,50.4,381.7,50.5L381.7,50.5z"/>
					<path class="st1" d="M410.9,52.5c5.9,0,10.7-4.9,10.7-10.8S416.7,31,410.8,31s-10.6,4.8-10.7,10.7
						C400.1,47.7,404.9,52.5,410.9,52.5z"/>
				</g>
			</g>
			<g id="Epidemiology_1_">
				<path class="st5" d="M627.2,440.4c22.9,43.8,77,60.8,120.8,37.9s60.8-77,37.9-120.8c-22.9-43.8-77-60.8-120.8-37.9
					c-16.2,8.5-29.4,21.7-37.9,37.9c-5.8-31.8-18.3-62-36.6-88.7c-59.7,28.4-98.9,76.1-98.9,130.1s39.2,101.7,98.9,130.1
					C608.9,502.5,621.4,472.2,627.2,440.4z"/>
				<g id="Epidemiology_Text">
					<path class="st1" d="M655.4,450.4v-12.8h9.1v2.1h-6.8v3h6v2.1h-6v3.5h6.8v2.1L655.4,450.4z"/>
					<path class="st1" d="M673.6,449.9c-0.7,0.5-1.5,0.8-2.3,0.8c-0.9,0.1-1.8-0.3-2.5-0.9v4.3h-2.2v-13h1.9l0.2,1
						c0.6-0.8,1.6-1.3,2.6-1.2c0.8,0,1.6,0.3,2.3,0.8c1.2,1,1.8,2.5,1.7,4.1C675.4,447.2,674.8,448.8,673.6,449.9z M672.4,443.4
						c-0.4-0.5-0.9-0.7-1.5-0.7c-1.8,0-2.1,1.7-2.1,3s0.4,3,2.1,3c0.6,0,1.2-0.3,1.5-0.7c0.4-0.7,0.6-1.5,0.6-2.3
						S672.8,444.1,672.4,443.4z"/>
					<path class="st1" d="M677.4,439.7v-2.3h2.4v2.3H677.4z M677.5,450.4V441h2.3v9.4H677.5z"/>
					<path class="st1" d="M688.7,450.4l-0.1-1c-0.6,0.8-1.6,1.3-2.6,1.2c-0.8,0-1.6-0.3-2.3-0.8c-1.2-1-1.8-2.5-1.7-4.1
						c-0.1-1.6,0.5-3.1,1.7-4.2c0.6-0.5,1.5-0.8,2.3-0.8c0.9-0.1,1.8,0.3,2.5,0.9v-4.3h2.2v13L688.7,450.4z M686.3,442.7
						c-0.6,0-1.2,0.3-1.5,0.7c-0.4,0.7-0.6,1.5-0.6,2.3s0.2,1.6,0.6,2.3c0.4,0.5,0.9,0.7,1.5,0.7c1.8,0,2.1-1.7,2.1-3
						S688.1,442.7,686.3,442.7L686.3,442.7z"/>
					<path class="st1" d="M701.3,446.4H695c0,0.7,0.2,1.3,0.7,1.8c0.4,0.4,0.9,0.6,1.4,0.6c0.5,0.1,1-0.1,1.4-0.5
						c0.2-0.2,0.4-0.5,0.5-0.8h2.2c-0.1,0.6-0.4,1.2-0.8,1.7c-1.7,1.7-4.4,1.8-6.1,0.2c-1-1-1.5-2.3-1.5-3.7
						c-0.1-1.4,0.4-2.7,1.4-3.8c0.8-0.8,1.9-1.2,3-1.2c1.4,0,2.7,0.6,3.4,1.7c0.6,1,0.9,2.1,0.8,3.3
						C701.4,445.8,701.3,446.2,701.3,446.4z M698.5,443.1c-0.9-0.8-2.2-0.7-3,0.1l0,0c-0.3,0.4-0.5,0.9-0.5,1.5h4
						C699.1,444.2,698.9,443.6,698.5,443.1z"/>
					<path class="st1" d="M714.5,450.4v-5.8c0-1.1-0.3-1.8-1.4-1.8s-1.8,1.4-1.8,2.5v5.1H709v-5.8c0-1.1-0.3-1.8-1.4-1.8
						s-1.9,1.4-1.9,2.5v5.1h-2.2V441h1.9l0.2,1.2c0.6-0.9,1.6-1.5,2.7-1.5c1.1-0.1,2.2,0.5,2.7,1.5c0.6-1,1.7-1.6,2.8-1.5
						c2,0,3,1.3,3,3.3v6.3L714.5,450.4z"/>
					<path class="st1" d="M719.3,439.7v-2.3h2.4v2.3H719.3z M719.4,450.4V441h2.3v9.4H719.4z"/>
					<path class="st1" d="M731.5,449.2c-1.6,1.8-4.4,2-6.2,0.3c-0.1-0.1-0.2-0.2-0.3-0.3c-1.5-2.1-1.5-4.8,0-6.9
						c1.6-1.8,4.4-2,6.2-0.3c0.1,0.1,0.2,0.2,0.3,0.3C733,444.3,733,447.1,731.5,449.2z M729.7,443.3c-0.4-0.4-0.9-0.6-1.4-0.6
						s-1,0.2-1.4,0.6c-0.9,1.4-0.9,3.3,0,4.7c0.4,0.4,0.9,0.6,1.4,0.6s1-0.2,1.4-0.6C730.6,446.6,730.6,444.8,729.7,443.3z"/>
					<path class="st1" d="M737.3,450.5c-1.2,0.2-2.4-0.7-2.6-1.9c0-0.2,0-0.4,0-0.6v-10.6h2.3v10.2c0,0.5,0.1,0.9,0.9,0.9
						c0.2,0,0.2,0,0.4,0v1.9C738,450.5,737.6,450.5,737.3,450.5z"/>
					<path class="st1" d="M747.1,449.2c-1.6,1.8-4.4,2-6.2,0.3c-0.1-0.1-0.2-0.2-0.3-0.3c-1.5-2.1-1.5-4.8,0-6.9
						c1.6-1.8,4.4-2,6.2-0.3c0.1,0.1,0.2,0.2,0.3,0.3C748.6,444.3,748.6,447.1,747.1,449.2z M745.3,443.3c-0.8-0.8-2-0.8-2.8,0l0,0
						c-0.9,1.4-0.9,3.3,0,4.7c0.8,0.8,2,0.8,2.8,0l0,0C746.2,446.6,746.2,444.8,745.3,443.3z"/>
					<path class="st1" d="M754.1,454.8c-1.2,0.1-2.3-0.2-3.3-0.8c-0.7-0.4-1.1-1.2-1.1-2s0.4-1.5,1.1-1.9c-0.6-0.3-0.9-0.9-0.9-1.6
						c0-0.8,0.4-1.5,1.1-1.9c-0.6-0.6-1-1.4-0.9-2.3c0-2.2,1.7-3.4,3.8-3.4c0.7,0,1.5,0.2,2.1,0.6c0.3-0.7,1.1-1.2,1.9-1.2
						c0.2,0,0.4,0,0.6,0v1.8h-0.2c-0.5,0-1,0.1-1.1,0.6c0.3,0.5,0.5,1.1,0.5,1.7c0,2.1-1.8,3.4-3.8,3.4c-0.5,0-1-0.1-1.5-0.2
						c-0.3,0.1-0.4,0.4-0.5,0.7c0,0.6,0.5,0.7,1,0.7h1.5c1-0.1,2.1,0.1,3,0.6c0.7,0.5,1.2,1.4,1.1,2.2
						C758.6,454.1,756.2,454.8,754.1,454.8z M754.3,450.5h-1.8c-0.5,0.1-0.9,0.6-0.8,1.1c0,1.2,1.5,1.3,2.4,1.3s2.5,0,2.5-1.3
						S755.1,450.5,754.3,450.5L754.3,450.5z M753.9,442.5c-1,0-1.8,0.7-1.8,1.6s0.7,1.8,1.6,1.8c1,0,1.8-0.7,1.8-1.6v-0.1
						c0.1-0.9-0.5-1.7-1.4-1.8C754,442.5,753.9,442.5,753.9,442.5L753.9,442.5z"/>
					<path class="st1" d="M764.6,452c-0.3,1.4-1.5,2.3-2.9,2.3c-0.6,0-1.2-0.1-1.7-0.2v-1.9c0.4,0.1,0.8,0.2,1.3,0.2
						s0.9-0.3,1.1-0.7l0.5-1.3l-3.7-9.3h2.5l2.5,6.8l2.3-6.8h2.3L764.6,452z"/>
				</g>
				<g id="Epidemiology_Icon" class="st4">
					<path class="st1" d="M712.3,422.2c-22.9,0.5-41.9-17.6-42.4-40.5s17.6-41.9,40.5-42.4s41.9,17.6,42.4,40.5c0,0.3,0,0.6,0,1
						C752.8,403.3,734.8,421.7,712.3,422.2z M745.8,380.7c0-19.1-15.5-34.5-34.6-34.5s-34.5,15.5-34.5,34.6s15.5,34.5,34.6,34.5
						c0.1,0,0.1,0,0.2,0C730.6,415.1,745.9,399.6,745.8,380.7z"/>
					<path class="st1" d="M721.7,375.6c-1.1-1.4-1.7-3.1-1.8-4.9c-0.2-2.3,0.6-4.6,2.1-6.3c1.1-1.3,3.1-1.5,4.5-0.5
						c1.5,1,1.9,2.9,1,4.5c-0.8,1.2-0.8,2.7,0.2,3.8c2.1,2.9,1.4,6.9-1.5,9c-0.1,0.1-0.2,0.2-0.3,0.2c-2,1.3-4,1.1-5.2-0.5
						c-1.1-1.6-0.8-3.9,0.9-5C721.5,375.8,721.6,375.7,721.7,375.6z"/>
					<path class="st1" d="M710.7,390.8c-4.2,0-7.9-2.9-8.8-7c-0.5-1.8,0.7-3.7,2.5-4.2c1.6-0.4,3.2,0.3,3.9,1.8
						c0.1,0.2,0.2,0.4,0.3,0.6c0.7,1.8,1.6,2.1,3.4,1.6c0.8-0.2,1.6-0.3,2.4-0.2c1.5,0.3,2.5,1.5,2.6,3c0.2,1.4-0.5,2.8-1.8,3.4
						c-1.5,0.5-3,0.9-4.5,1.3L710.7,390.8z"/>
					<path class="st1" d="M693.2,400.8c0-1.7,0.4-3.3,1.2-4.7c0.8-1.7,2.9-2.4,4.6-1.6c1.7,0.8,2.5,2.7,1.7,4.4
						c-0.9,2-0.8,3,1.6,4.2c1.7,0.8,2.4,2.8,1.6,4.5c-0.7,1.7-2.6,2.5-4.3,1.9C696.2,408.2,693.1,405,693.2,400.8z"/>
					<path class="st1" d="M713.7,361.8c0.1,1.9-0.4,3.8-1.3,5.5c-0.9,1.7-3,2.3-4.7,1.4c-1.4-0.8-2.1-2.4-1.7-3.9
						c0.1-0.3,0.2-0.7,0.4-1c0.6-1.5,0.3-2.4-1-3.2c-0.2-0.1-0.5-0.3-0.8-0.4c-1.7-0.8-2.4-2.9-1.6-4.6c0.8-1.5,2.5-2.3,4.2-1.8
						C710.1,354.7,713.7,357.8,713.7,361.8z"/>
					<path class="st1" d="M687.9,372.8c0-1.9,1.5-3.5,3.4-3.5s3.5,1.5,3.5,3.4s-1.5,3.5-3.4,3.5l0,0
						C689.5,376.2,687.9,374.7,687.9,372.8L687.9,372.8z"/>
					<path class="st1" d="M721.8,397.5c1.8,0,3.4,1.5,3.4,3.3c0,0.1,0,0.1,0,0.2c-0.1,1.9-1.8,3.3-3.7,3.2c-1.8-0.1-3.2-1.6-3.2-3.3
						c0-1.8,1.5-3.4,3.3-3.4C721.7,397.4,721.7,397.4,721.8,397.5z"/>
				</g>
			</g>
			<g id="Behavioral_Intervention_Technology">
				<path class="st6" d="M174.8,357.6c-22.9-43.8-77-60.8-120.8-37.9s-60.8,77-37.9,120.8s77,60.8,120.8,37.9
					c16.2-8.5,29.4-21.7,37.9-37.9c5.8,31.8,18.3,62,36.6,88.7c59.7-28.4,98.9-76,98.9-130.1S271.1,297.4,211.4,269
					C193.1,295.5,180.6,325.8,174.8,357.6z"/>
				<g id="Behavioral_Intervention_Technology_Text">
					<path class="st1" d="M59.1,427.8c-1,0.7-2.2,1-3.4,0.9h-5.1v-12.8h5.1c1-0.1,2.1,0.2,3,0.7c0.9,0.6,1.5,1.7,1.5,2.8
						c0,1.1-0.6,2.2-1.6,2.7c1.1,0.5,1.9,1.7,1.8,2.9C60.4,426.1,60,427.2,59.1,427.8z M55.8,417.9h-2.9v3.2h2.9
						c1,0,1.9-0.4,1.9-1.6S56.8,417.9,55.8,417.9L55.8,417.9z M55.9,423.1H53v3.5h2.9c1.1,0,2.2-0.4,2.2-1.7S57.1,423.1,55.9,423.1
						L55.9,423.1z"/>
					<path class="st1" d="M70.4,424.7h-6.3c0,0.7,0.2,1.3,0.7,1.8c0.4,0.4,0.9,0.6,1.4,0.6c0.5,0.1,1-0.1,1.4-0.5
						c0.2-0.2,0.4-0.5,0.4-0.8h2.2c-0.1,0.6-0.4,1.2-0.8,1.7c-0.8,0.9-2,1.4-3.2,1.3c-1.1,0-2.2-0.4-3-1.1c-1-1-1.5-2.4-1.4-3.8
						c-0.1-1.4,0.4-2.7,1.3-3.8c0.8-0.8,1.9-1.2,3-1.2c1.4,0,2.6,0.6,3.4,1.7c0.6,1,0.9,2.1,0.8,3.3
						C70.4,424.1,70.4,424.5,70.4,424.7z M67.6,421.4c-0.9-0.8-2.2-0.7-3,0.1l0,0c-0.3,0.4-0.5,0.9-0.5,1.5h4
						C68.1,422.5,67.9,421.9,67.6,421.4z"/>
					<path class="st1" d="M78.2,428.7v-5.8c0-1.1-0.3-1.8-1.5-1.8c-1.3,0-1.9,1.4-1.9,2.6v4.9h-2.2v-13h2.2v4.6
						c0.6-0.8,1.6-1.2,2.6-1.2c1.7-0.1,3.1,1.3,3.2,3c0,0.1,0,0.2,0,0.4v6.2L78.2,428.7L78.2,428.7z"/>
					<path class="st1" d="M90.2,428.8c-0.8,0.1-1.5-0.5-1.6-1.3c-0.6,0.9-1.7,1.5-2.8,1.4c-2.2,0-3.4-1.4-3.4-2.9
						c0-1.8,1.4-2.8,3.2-2.9l2.8-0.2v-0.6c0-0.9-0.3-1.5-1.6-1.5c-1,0-1.7,0.5-1.7,1.3h-2.2c0.1-2.1,1.8-3,3.9-3
						c1.6,0,3,0.5,3.5,1.9c0.2,0.6,0.3,1.2,0.3,1.9v3.5c0,0.4,0.2,0.6,0.5,0.6c0.1,0,0.2,0,0.3,0v1.6
						C91,428.8,90.6,428.9,90.2,428.8z M88.3,424.5l-2.4,0.2c-0.7,0-1.3,0.5-1.3,1.2s0.6,1.2,1.3,1.2l0,0c1.2,0.2,2.2-0.7,2.4-1.8
						c0-0.1,0-0.2,0-0.3V424.5z"/>
					<path class="st1" d="M97.6,428.7h-2.4l-3.5-9.4h2.4l2.3,6.6l2.2-6.6h2.3L97.6,428.7z"/>
					<path class="st1" d="M102.3,418v-2.3h2.4v2.3H102.3z M102.4,428.7v-9.4h2.3v9.4H102.4z"/>
					<path class="st1" d="M114.5,427.5c-1.6,1.8-4.4,1.9-6.2,0.3c-0.1-0.1-0.2-0.2-0.3-0.3c-1.5-2.1-1.5-4.8,0-6.9
						c1.6-1.8,4.4-2,6.2-0.3c0.1,0.1,0.2,0.2,0.3,0.3C116,422.6,116,425.4,114.5,427.5z M112.7,421.6c-0.8-0.8-2-0.8-2.8,0l0,0
						c-0.9,1.5-0.9,3.3,0,4.7c0.8,0.8,2,0.8,2.8,0l0,0C113.6,424.9,113.6,423.1,112.7,421.6z"/>
					<path class="st1" d="M122.5,421.3c-1.3,0-2.4,1-2.4,2.3c0,0.1,0,0.2,0,0.4v4.7h-2.3v-9.4h1.9l0.2,1.4c0.5-1,1.5-1.6,2.7-1.5
						c0.2,0,0.5,0,0.7,0.1v2.2C123,421.4,122.7,421.3,122.5,421.3z"/>
					<path class="st1" d="M131.8,428.8c-0.8,0.1-1.5-0.5-1.6-1.3c-0.6,0.9-1.7,1.5-2.8,1.4c-2.2,0-3.4-1.4-3.4-2.9
						c0-1.8,1.4-2.8,3.2-2.9l2.8-0.2v-0.6c0-0.9-0.3-1.5-1.6-1.5c-1,0-1.7,0.5-1.7,1.3h-2.2c0.1-2.1,1.8-3,3.9-3
						c1.6,0,3,0.5,3.5,1.9c0.2,0.6,0.3,1.2,0.3,1.9v3.5c0,0.4,0.1,0.6,0.5,0.6c0.1,0,0.2,0,0.3,0v1.6
						C132.5,428.8,132.2,428.9,131.8,428.8z M129.9,424.5l-2.4,0.2c-0.7,0-1.3,0.5-1.3,1.2s0.6,1.2,1.3,1.2l0,0
						c1.2,0.1,2.2-0.7,2.4-1.8c0-0.1,0-0.2,0-0.3V424.5z"/>
					<path class="st1" d="M137.4,428.8c-1.2,0.2-2.4-0.7-2.6-1.9c0-0.2,0-0.4,0-0.6v-10.6h2.3v10.2c0,0.5,0.1,0.9,0.9,0.9
						c0.2,0,0.2,0,0.4,0v1.9C138,428.8,137.7,428.8,137.4,428.8z"/>
					<path class="st1" d="M43.9,447.7v-12.8h2.4v12.8H43.9z"/>
					<path class="st1" d="M54.9,447.7V442c0-1.1-0.4-1.8-1.5-1.8c-0.7,0-1.4,0.5-1.6,1.2c-0.3,0.8-0.4,1.7-0.3,2.5v3.8h-2.3v-9.4H51
						l0.2,1.2c1-1.5,3-1.9,4.5-0.9c0.9,0.6,1.5,1.7,1.4,2.8v6.2L54.9,447.7z"/>
					<path class="st1" d="M63.2,447.8c-1.4,0.2-2.7-0.9-2.8-2.3c0-0.2,0-0.4,0-0.6v-4.8h-1.7v-1.9h1.7V436l2.2-0.6v2.9H65v1.9h-2.4
						v4.6c0,0.7,0.3,1,1,1c0.5,0,1,0,1.5-0.1v1.9C64.4,447.7,63.8,447.8,63.2,447.8z"/>
					<path class="st1" d="M74.7,443.7h-6.3c0,0.7,0.2,1.3,0.7,1.8c0.4,0.4,0.9,0.6,1.4,0.6c0.5,0.1,1-0.1,1.4-0.5
						c0.2-0.2,0.4-0.5,0.4-0.8h2.2c-0.1,0.6-0.4,1.2-0.8,1.7c-0.8,0.9-2,1.4-3.2,1.3c-1.1,0-2.2-0.4-3-1.1c-1-1-1.5-2.4-1.4-3.8
						c-0.1-1.4,0.4-2.7,1.4-3.8c0.8-0.8,1.9-1.2,3-1.2c1.4,0,2.7,0.6,3.4,1.7c0.6,1,0.9,2.1,0.8,3.3
						C74.8,443.1,74.7,443.5,74.7,443.7z M71.9,440.4c-0.9-0.8-2.2-0.7-3,0.1l0,0c-0.3,0.4-0.5,0.9-0.5,1.5h4
						C72.4,441.5,72.3,440.9,71.9,440.4z"/>
					<path class="st1" d="M81.5,440.3c-1.3,0-2.4,1-2.4,2.3c0,0.1,0,0.3,0,0.4v4.7h-2.3v-9.4h1.9l0.2,1.4c0.5-1,1.5-1.6,2.6-1.5
						c0.2,0,0.5,0,0.7,0.1v2.2C82,440.4,81.8,440.3,81.5,440.3z"/>
					<path class="st1" d="M88.4,447.7H86l-3.5-9.4h2.4l2.3,6.6l2.2-6.6h2.3L88.4,447.7z"/>
					<path class="st1" d="M101,443.7h-6.3c0,0.7,0.2,1.3,0.7,1.8c0.4,0.4,0.9,0.6,1.4,0.6c0.5,0.1,1-0.1,1.4-0.5
						c0.2-0.2,0.4-0.5,0.4-0.8h2.2c-0.1,0.6-0.4,1.2-0.8,1.7c-0.8,0.9-2,1.4-3.2,1.3c-1.1,0-2.2-0.4-3-1.1c-1-1-1.5-2.4-1.4-3.8
						c-0.1-1.4,0.4-2.7,1.3-3.8c0.8-0.8,1.9-1.2,3-1.2c1.4,0,2.6,0.6,3.4,1.7c0.6,1,0.9,2.1,0.8,3.3C101,443.1,101,443.5,101,443.7z
						 M98.2,440.4c-0.9-0.8-2.2-0.7-3,0.1l0,0c-0.3,0.4-0.5,0.9-0.5,1.5h4C98.7,441.5,98.6,440.9,98.2,440.4z"/>
					<path class="st1" d="M108.8,447.7V442c0-1.1-0.4-1.8-1.6-1.8c-0.7,0-1.4,0.5-1.6,1.2c-0.3,0.8-0.4,1.7-0.3,2.5v3.8H103v-9.4
						h1.9l0.2,1.2c1-1.5,3-1.9,4.5-0.9c0.9,0.6,1.5,1.7,1.4,2.8v6.2L108.8,447.7z"/>
					<path class="st1" d="M117.1,447.8c-1.4,0.2-2.7-0.9-2.8-2.3c0-0.2,0-0.4,0-0.6v-4.8h-1.7v-1.9h1.7V436l2.2-0.6v2.9h2.4v1.9
						h-2.4v4.6c0,0.7,0.3,1,1,1c0.5,0,1,0,1.5-0.1v1.9C118.4,447.7,117.8,447.8,117.1,447.8z"/>
					<path class="st1" d="M120.9,437v-2.3h2.4v2.3H120.9z M121,447.7v-9.4h2.3v9.4H121z"/>
					<path class="st1" d="M133.1,446.5c-1.6,1.8-4.4,1.9-6.3,0.3c-0.1-0.1-0.2-0.2-0.3-0.3c-1.5-2.1-1.5-4.8,0-6.9
						c1.6-1.8,4.4-2,6.2-0.3c0.1,0.1,0.2,0.2,0.3,0.3C134.6,441.6,134.6,444.4,133.1,446.5z M131.3,440.6c-0.8-0.8-2-0.8-2.8,0l0,0
						c-0.9,1.4-0.9,3.3,0,4.7c0.8,0.8,2,0.8,2.8,0l0,0C132.2,443.9,132.2,442.1,131.3,440.6z"/>
					<path class="st1" d="M142.1,447.7V442c0-1.1-0.4-1.8-1.6-1.8c-0.7,0-1.4,0.5-1.6,1.2c-0.3,0.8-0.4,1.7-0.3,2.5v3.8h-2.2v-9.4
						h1.9l0.2,1.2c0.6-0.9,1.6-1.5,2.8-1.4c1.7-0.1,3.1,1.3,3.2,3c0,0.1,0,0.3,0,0.4v6.2L142.1,447.7z"/>
					<path class="st1" d="M52.8,456.1v10.6h-2.3v-10.6h-3.8v-2.2h9.9v2.2H52.8z"/>
					<path class="st1" d="M64.4,462.7h-6.3c0,0.7,0.2,1.4,0.7,1.8c0.4,0.4,0.9,0.6,1.4,0.6c0.5,0.1,1-0.1,1.4-0.5
						c0.2-0.2,0.4-0.5,0.5-0.8h2.2c-0.1,0.6-0.4,1.2-0.8,1.7c-0.8,0.9-2,1.4-3.2,1.3c-1.1,0-2.2-0.4-3-1.1c-1-1-1.5-2.4-1.4-3.8
						c-0.1-1.4,0.4-2.7,1.3-3.8c0.8-0.8,1.9-1.2,3-1.2c1.4,0,2.6,0.6,3.4,1.7c0.6,1,0.9,2.1,0.8,3.3
						C64.4,462.1,64.4,462.5,64.4,462.7z M61.6,459.4c-0.9-0.8-2.2-0.7-3,0.1l0,0c-0.3,0.4-0.5,0.9-0.5,1.5h4
						C62.1,460.5,61.9,459.9,61.6,459.4z"/>
					<path class="st1" d="M73.3,465.4c-0.8,1-2,1.5-3.2,1.5s-2.4-0.5-3.2-1.5c-1.4-2.1-1.4-4.8,0-6.8c0.8-0.9,2-1.5,3.2-1.5
						s2.4,0.5,3.2,1.5c0.4,0.6,0.7,1.3,0.7,2h-2.2c0-0.9-0.7-1.6-1.6-1.6h-0.1c-0.5,0-1,0.2-1.4,0.6c-0.5,0.7-0.7,1.5-0.6,2.4
						c-0.1,0.8,0.1,1.7,0.6,2.4c0.3,0.4,0.8,0.6,1.4,0.6s1.1-0.2,1.4-0.7c0.2-0.3,0.3-0.6,0.3-0.9H74
						C74,464.1,73.8,464.8,73.3,465.4z"/>
					<path class="st1" d="M81.7,466.7v-5.8c0-1.1-0.4-1.8-1.6-1.8c-1.3,0-1.9,1.4-1.9,2.6v4.9H76v-13h2.2v4.6
						c0.6-0.8,1.6-1.2,2.6-1.2c1.7-0.1,3.1,1.3,3.2,3c0,0.1,0,0.2,0,0.4v6.2L81.7,466.7L81.7,466.7z"/>
					<path class="st1" d="M92.3,466.7V461c0-1.1-0.4-1.8-1.6-1.8c-0.7,0-1.4,0.5-1.6,1.2c-0.3,0.8-0.4,1.7-0.3,2.5v3.8h-2.2v-9.4
						h1.9l0.2,1.2c0.6-0.9,1.6-1.5,2.8-1.4c1.7-0.1,3.1,1.3,3.2,3c0,0.1,0,0.3,0,0.4v6.2L92.3,466.7z"/>
					<path class="st1" d="M104.2,465.5c-1.6,1.8-4.4,1.9-6.2,0.3c-0.1-0.1-0.2-0.2-0.3-0.3c-1.5-2.1-1.5-4.8,0-6.9
						c1.6-1.8,4.4-2,6.2-0.3c0.1,0.1,0.2,0.2,0.3,0.3C105.7,460.6,105.7,463.4,104.2,465.5z M102.4,459.6c-0.8-0.8-2-0.8-2.8,0l0,0
						c-0.9,1.4-0.9,3.3,0,4.7c0.8,0.8,2,0.8,2.8,0l0,0C103.3,462.9,103.3,461.1,102.4,459.6z"/>
					<path class="st1" d="M110,466.8c-1.2,0.2-2.4-0.7-2.5-2c0-0.2,0-0.4,0-0.6v-10.6h2.3v10.2c0,0.5,0.1,0.9,0.9,0.9
						c0.2,0,0.2,0,0.4,0v1.9C110.7,466.8,110.3,466.8,110,466.8z"/>
					<path class="st1" d="M119.8,465.5c-1.6,1.8-4.4,1.9-6.2,0.3c-0.1-0.1-0.2-0.2-0.3-0.3c-1.5-2.1-1.5-4.8,0-6.9
						c1.6-1.8,4.4-2,6.2-0.3c0.1,0.1,0.2,0.2,0.3,0.3C121.3,460.6,121.3,463.4,119.8,465.5z M118,459.6c-0.4-0.4-0.9-0.6-1.4-0.6
						s-1,0.2-1.4,0.6c-0.9,1.4-0.9,3.3,0,4.7c0.4,0.4,0.9,0.6,1.4,0.6s1-0.2,1.4-0.6C118.9,462.9,118.9,461.1,118,459.6z"/>
					<path class="st1" d="M126.8,471.1c-1.2,0.1-2.3-0.2-3.3-0.8c-0.7-0.4-1.1-1.2-1.1-2s0.4-1.5,1.1-1.9c-0.6-0.3-0.9-0.9-0.9-1.6
						c0-0.8,0.4-1.5,1.1-1.9c-0.6-0.6-1-1.4-0.9-2.3c0-2.2,1.7-3.4,3.8-3.4c0.7,0,1.5,0.2,2.1,0.6c0.3-0.7,1.1-1.2,1.9-1.2
						c0.2,0,0.4,0,0.6,0v1.7H131c-0.5,0-1,0.1-1.1,0.6c0.3,0.5,0.5,1.1,0.5,1.7c0,2.1-1.8,3.4-3.8,3.4c-0.5,0-1-0.1-1.5-0.2
						c-0.3,0.1-0.4,0.4-0.5,0.7c0,0.6,0.6,0.7,1,0.7h1.5c1.1-0.1,2.1,0.1,3,0.6c0.7,0.5,1.2,1.4,1.1,2.2
						C131.3,470.4,128.9,471.1,126.8,471.1z M127,466.8h-1.8c-0.5,0.1-0.9,0.6-0.8,1.2c0,1.2,1.5,1.3,2.4,1.3s2.5,0,2.5-1.3
						S127.8,466.8,127,466.8L127,466.8z M126.6,458.8c-1,0-1.8,0.7-1.8,1.7s0.7,1.8,1.7,1.8s1.8-0.7,1.8-1.7v-0.1
						c0.1-0.9-0.5-1.7-1.4-1.8C126.7,458.8,126.6,458.8,126.6,458.8L126.6,458.8z"/>
					<path class="st1" d="M137.3,468.3c-0.5,1.2-1.2,2.3-2.9,2.3c-0.6,0-1.2-0.1-1.7-0.2v-1.9c0.4,0.1,0.8,0.2,1.3,0.2
						s0.9-0.3,1.1-0.7l0.5-1.3l-3.7-9.3h2.5l2.4,6.8l2.3-6.8h2.3L137.3,468.3z"/>
				</g>
				<g id="Behavioral_Intervention_Technology_Icon" class="st4">
					<path class="st1" d="M57,371.2v-4c0.1-0.2,0.1-0.5,0.1-0.7c0.2-2.5,0.8-4.9,1.7-7.3c1.1-2.9,3.2-5.4,5.9-7
						c4.7-2.7,9.4-5.3,14-7.9c0.3-0.2,0.6-0.5,0.5-0.9c0-4.1,0-8.3,0-12.5c0-0.9,0.2-1.8,0.6-2.6c0.7-1.5,2.1-2.5,3.7-2.7h33.8
						c0.7,0.3,1.5,0.6,2.2,1c1.4,1,2.2,2.7,2,4.4c0,5.8,0,11.6,0,17.4v0.9c0.7,0,1.2,0,1.8,0c2.1,0.1,3.7,1.7,3.7,3.8
						c0.1,2.3-1.2,4.2-3.4,4.3c-3.1,0.1-6.1,0.1-9.2,0c-0.7-0.1-1.3-0.3-1.8-0.7c-1.4-1.1-2-3-1.3-4.7c0.5-1.6,2-2.6,3.7-2.6
						c1,0,2,0,3,0v-15.8H82.7v8.6l0.7-0.4c2.2-1.2,4.4-2.5,6.6-3.6c0.8-0.4,1.7-0.8,2.6-1c1.8-0.6,3.7,0.4,4.2,2.2
						c0,0.1,0.1,0.2,0.1,0.3c0.4,1.3,0.1,2.6-0.7,3.6c-0.5,0.7-1.2,1.4-1.8,2c-3.5,3-7.2,5.8-11.1,8.4c-0.4,0.2-0.6,0.6-0.6,1.1
						c0,11.2,0,22.5,0,33.7v0.7H118v-2.6c-1.2,0-2.3,0.1-3.4,0c-2.2-0.3-3.7-2.4-3.4-4.6c0.3-1.8,1.8-3.2,3.6-3.4
						c2.8-0.1,5.7-0.1,8.6,0c2.2,0.2,3.9,2.1,3.7,4.4c-0.2,1.9-1.7,3.5-3.6,3.7c-0.6,0-1.3,0-2,0v0.9c0,1.8,0.1,3.7,0,5.5
						c0,0.9-0.2,1.8-0.6,2.7c-0.7,1.4-2.1,2.4-3.6,2.7H83.5c-0.1,0-0.2-0.1-0.3-0.1c-2.4-0.5-4.1-2.6-4-5.1c0-1.5,0-3,0-4.5
						c0-0.2,0-0.5,0-0.8c-1.6,0-3,0-4.5,0c-2,0.1-4-0.2-5.9-0.8c-5.6-1.5-9.8-6-11.1-11.6C57.4,374,57.2,372.6,57,371.2z
						 M97.9,393.4c0,1.3,1.1,2.4,2.5,2.4c1.3,0,2.4-1.1,2.4-2.5c0-1.3-1.1-2.4-2.4-2.4C99,390.9,97.9,392,97.9,393.4z M100.3,330.4
						h4.9c0.4,0,0.9,0,0.9-0.6s-0.5-0.6-0.9-0.6h-9.6c-0.4,0-0.9,0-1,0.6s0.5,0.6,1,0.6H100.3z"/>
					<path class="st1" d="M119,367.2h-3.9c-2.2,0.1-4-1.6-4.1-3.7c0-0.1,0-0.2,0-0.3c-0.1-2.1,1.4-4,3.6-4.1c0.1,0,0.2,0,0.3,0
						c2.7-0.1,5.4-0.1,8.1,0c2.1,0,3.9,1.7,3.9,3.8c0,0.1,0,0.3,0,0.4c0,2.2-1.8,3.9-4,3.9h-0.1L119,367.2z"/>
					<path class="st1" d="M119,376.9c-1.4,0-2.8,0-4.2,0c-1.9,0-3.5-1.5-3.7-3.4c-0.3-2.3,0.8-4.1,2.8-4.6c0.4-0.1,0.8-0.2,1.3-0.2
						c2.6,0,5.2,0,7.8,0c1.7-0.1,3.3,1,3.8,2.6c0.6,1.7,0.1,3.6-1.3,4.7c-0.6,0.4-1.4,0.7-2.1,0.8C121.9,377,120.4,376.9,119,376.9
						L119,376.9z"/>
				</g>
			</g>
			<g id="Biostatistics">
				<path class="st7" d="M590.2,268.4c47.2,14.8,97.4-11.4,112.2-58.6S691,112.4,643.8,97.6s-97.4,11.4-112.2,58.6
					c-5.5,17.4-5.5,36.1,0,53.6C505,191.4,474.8,178.9,443,173c-22.1,62.3-16.1,123.7,22.1,161.9S564.8,379.1,627,357
					C621.2,325.2,608.6,295,590.2,268.4z"/>
				<g id="Biostatistics_Text">
					<path class="st1" d="M577.8,221.1c-1,0.7-2.2,1-3.4,0.9h-5.1v-12.8h5.1c1-0.1,2.1,0.2,3,0.7c0.9,0.6,1.5,1.7,1.5,2.8
						s-0.6,2.2-1.6,2.7c1.1,0.5,1.8,1.6,1.8,2.9C579.2,219.4,578.7,220.4,577.8,221.1z M574.5,211.2h-2.9v3.2h2.9
						c1,0,1.9-0.4,1.9-1.6S575.6,211.2,574.5,211.2z M574.6,216.3h-2.9v3.6h2.9c1.1,0,2.2-0.4,2.2-1.7S575.8,216.3,574.6,216.3z"/>
					<path class="st1" d="M581.2,211.3V209h2.4v2.3H581.2z M581.2,222v-9.4h2.3v9.4H581.2z"/>
					<path class="st1" d="M593.4,220.7c-1.6,1.8-4.4,2-6.2,0.3c-0.1-0.1-0.2-0.2-0.3-0.3c-1.5-2.1-1.5-4.8,0-6.9
						c1.6-1.8,4.4-1.9,6.2-0.3c0.1,0.1,0.2,0.2,0.3,0.3C594.8,215.9,594.8,218.7,593.4,220.7z M591.5,214.9c-0.8-0.8-2-0.8-2.8,0
						l0,0c-0.9,1.5-0.9,3.3,0,4.7c0.8,0.8,2,0.8,2.8,0l0,0C592.4,218.2,592.4,216.4,591.5,214.9z"/>
					<path class="st1" d="M603.1,221.1c-0.9,0.8-2,1.2-3.2,1.1c-1.1,0-2.2-0.4-3-1.1c-0.6-0.6-1-1.3-1-2.2h2.1
						c0,0.4,0.2,0.8,0.5,1.1c0.4,0.3,0.9,0.4,1.4,0.4c0.8,0,1.9-0.2,1.9-1.2c0-0.5-0.4-1-0.9-1c-0.8-0.1-1.8-0.2-2.6-0.4
						c-1.2-0.2-2.1-1.3-2.1-2.5c0-0.8,0.4-1.6,1-2.1c0.8-0.6,1.8-1,2.8-0.9c1.1,0,2.1,0.3,2.9,1.1c0.5,0.5,0.8,1.2,0.8,1.9h-2.1
						c0-0.3-0.1-0.6-0.4-0.9c-0.3-0.3-0.8-0.4-1.2-0.4c-0.3,0-0.7,0-1,0.1c-0.4,0.1-0.7,0.5-0.7,1c0,0.7,0.6,0.9,1.1,0.9
						c0.8,0.1,1.1,0.1,2,0.3c1.4,0.1,2.5,1.2,2.5,2.6C603.9,219.8,603.6,220.6,603.1,221.1z"/>
					<path class="st1" d="M609.3,222.1c-1.4,0.2-2.7-0.9-2.8-2.3c0-0.2,0-0.4,0-0.6v-4.8h-1.7v-1.8h1.7v-2.4l2.2-0.6v2.9h2.3v1.9
						h-2.3v4.5c0,0.7,0.3,1,1,1c0.5,0,1,0,1.5-0.1v1.9C610.5,222,609.9,222.1,609.3,222.1z"/>
					<path class="st1" d="M620.2,222.1c-0.8,0.1-1.5-0.5-1.6-1.3c-0.6,0.9-1.7,1.5-2.8,1.4c-2.2,0-3.4-1.4-3.4-2.9
						c0-1.8,1.4-2.8,3.2-2.9l2.8-0.2v-0.6c0-0.9-0.3-1.5-1.6-1.5c-1,0-1.7,0.5-1.7,1.3h-2.2c0.1-2.1,1.8-3,3.9-3
						c1.6,0,3,0.5,3.5,1.9c0.2,0.6,0.3,1.2,0.3,1.9v3.5c0,0.4,0.2,0.6,0.5,0.6c0.1,0,0.2,0,0.3,0v1.6
						C620.9,222.1,620.5,222.1,620.2,222.1z M618.3,217.8l-2.4,0.2c-0.7,0-1.3,0.5-1.3,1.2s0.6,1.2,1.3,1.2l0,0
						c1.2,0.2,2.2-0.7,2.4-1.8c0-0.1,0-0.2,0-0.3V217.8z"/>
					<path class="st1" d="M626.5,222.1c-1.4,0.2-2.7-0.9-2.8-2.3c0-0.2,0-0.4,0-0.6v-4.8H622v-1.8h1.7v-2.4l2.2-0.6v2.9h2.4v1.9H626
						v4.5c0,0.7,0.3,1,1,1c0.5,0,1,0,1.5-0.1v1.9C627.8,222,627.2,222.1,626.5,222.1z"/>
					<path class="st1" d="M630.3,211.3V209h2.4v2.3H630.3z M630.4,222v-9.4h2.3v9.4H630.4z"/>
					<path class="st1" d="M641.9,221.1c-0.9,0.8-2,1.2-3.2,1.1c-1.1,0-2.2-0.4-3-1.1c-0.6-0.6-1-1.3-1-2.2h2.1
						c0,0.4,0.2,0.8,0.5,1.1c0.4,0.3,0.9,0.4,1.4,0.4c0.8,0,1.9-0.2,1.9-1.2c0-0.5-0.4-1-0.9-1c-0.8-0.1-1.8-0.2-2.6-0.4
						c-1.2-0.2-2.1-1.3-2.2-2.5c0-0.8,0.4-1.6,1-2.1c0.8-0.6,1.8-1,2.8-0.9c1.1,0,2.1,0.3,2.9,1.1c0.5,0.5,0.8,1.2,0.8,1.9h-2.2
						c0-0.3-0.1-0.6-0.4-0.9c-0.3-0.3-0.8-0.4-1.2-0.4c-0.3,0-0.7,0-1,0.1c-0.4,0.1-0.7,0.5-0.7,1c0,0.7,0.6,0.9,1.1,0.9
						c0.8,0.1,1.1,0.1,2,0.3c1.4,0.1,2.5,1.2,2.5,2.6C642.8,219.8,642.5,220.6,641.9,221.1z"/>
					<path class="st1" d="M648.1,222.1c-1.4,0.2-2.7-0.9-2.8-2.3c0-0.2,0-0.4,0-0.6v-4.8h-1.7v-1.8h1.7v-2.4l2.2-0.6v2.9h2.4v1.9
						h-2.4v4.5c0,0.7,0.3,1,1,1c0.5,0,1,0,1.5-0.1v1.9C649.4,222,648.8,222.1,648.1,222.1z"/>
					<path class="st1" d="M651.9,211.3V209h2.4v2.3H651.9z M652,222v-9.4h2.3v9.4H652z"/>
					<path class="st1" d="M664,220.7c-0.8,1-2,1.5-3.2,1.5c-1.3,0-2.4-0.5-3.3-1.5c-1.4-2.1-1.4-4.8,0-6.8c0.8-0.9,2-1.5,3.3-1.5
						c1.2,0,2.4,0.5,3.2,1.5c0.4,0.6,0.7,1.3,0.7,2h-2.2c0-0.3-0.1-0.6-0.3-0.9c-0.3-0.5-0.9-0.7-1.4-0.7s-1,0.2-1.4,0.6
						c-0.8,1.5-0.8,3.3,0,4.7c0.4,0.4,0.8,0.6,1.4,0.6c0.6,0,1.1-0.2,1.4-0.7c0.2-0.3,0.3-0.6,0.3-0.9h2.2
						C664.7,219.4,664.4,220.1,664,220.7z"/>
					<path class="st1" d="M673.1,221.1c-0.9,0.8-2,1.2-3.2,1.1c-1.1,0-2.2-0.3-3-1.1c-0.6-0.6-1-1.3-1-2.2h2.1
						c0,0.4,0.2,0.8,0.5,1.1c0.4,0.3,0.9,0.4,1.4,0.4c0.8,0,1.9-0.2,1.9-1.2c0-0.5-0.4-1-0.9-1c-0.8-0.1-1.8-0.2-2.6-0.4
						c-1.2-0.2-2.1-1.3-2.1-2.5c0-0.8,0.3-1.6,1-2.1c0.8-0.6,1.8-1,2.8-0.9c1.1,0,2.1,0.4,2.9,1.1c0.5,0.5,0.8,1.2,0.8,1.9h-2.1
						c0-0.3-0.1-0.6-0.4-0.9c-0.3-0.3-0.8-0.4-1.2-0.4c-0.3,0-0.7,0-1,0.1c-0.4,0.2-0.7,0.5-0.7,1c0,0.7,0.6,0.9,1.1,0.9
						c0.8,0.1,1.1,0.1,2,0.3c1.4,0.1,2.5,1.2,2.6,2.6C673.9,219.8,673.7,220.6,673.1,221.1z"/>
				</g>
				<g id="Biostatistics_Icon" class="st4">
					<path class="st1" d="M654.5,187.6c-2.3,0.1-4.6,0-7.1,0v-6.2c0-6.1,0-12.2,0-18.3c0-2.3-1.4-3.7-3.5-3.5
						c-1.8,0.1-2.9,1.5-2.9,3.6c0,7.5,0,15,0,22.5v1.8h-13v-2.1c0-9.7,0-19.3,0-29c0-0.7,0-1.3-0.1-2c-0.2-1.5-1.5-2.6-3-2.5
						c-1.9,0-3.1,1.4-3.1,3.5c0,10,0,20,0,30v2h-13.3c0-5.2,0-10.3,0-15.4c0-2.1-1.3-3.5-3.2-3.5s-3.2,1.4-3.2,3.5
						c0,3.9,0,7.9,0,11.8v3.6h-12v-61.9c0-0.6,0-1.1,0-1.7c-0.1-1.4-1.1-2.5-2.5-2.8c-1.3-0.3-2.6,0.3-3.3,1.4
						c-0.2,0.3-0.3,0.5-0.5,0.8V194h75v-4C658,188.1,656.5,187.5,654.5,187.6z"/>
					<path class="st1" d="M607.4,163.9c5.3-1.2,8.6-6.5,7.4-11.8c-0.3-1.2-0.8-2.3-1.5-3.4c2.7-3.4,5.5-6.8,8.2-10.2
						c0.2-0.3,0.8-0.3,1.3-0.3c1.5-0.1,3-0.1,4.5-0.1c0.7,0,1.4,0.2,2,0.6c1.7,1.5,3.3,3.1,5,4.6c0.7,0.5,0.9,1.4,0.6,2.2
						c-1,4,0.7,8.2,4.2,10.4c4.5,2.9,10.5,1.5,13.4-3s1.5-10.5-3-13.4c-2.8-1.7-6.2-2-9.2-0.6c-0.5,0.2-1.3,0.3-1.6,0
						c-1.7-1.9-3.4-3.8-5.2-5.9c1.9-4.3,1.1-8.4-2.4-11.6c-1.7-1.4-3.8-2.2-6-2.5h-0.7c-0.1,0.1-0.3,0.2-0.5,0.2
						c-6.4,0.2-11.2,7.7-7.6,14.3c0.2,0.5,0.1,1.1-0.2,1.5c-2.1,2.8-4.4,5.4-6.5,8.2c-1,1.3-2,2.1-3.7,1.6c-0.7-0.1-1.4,0-2.1,0.1
						c-5.2,0.8-8.8,5.7-8,11c0,0,0,0,0,0.1c0.9,5.3,6,8.9,11.3,8C607.2,163.9,607.3,163.9,607.4,163.9z M644.3,144.4
						c1.9,0.1,3.4,1.7,3.4,3.6c0,1.9-1.6,3.5-3.5,3.5s-3.5-1.6-3.5-3.5C640.7,146,642.3,144.4,644.3,144.4L644.3,144.4z
						 M624.7,125.3c2,0,3.6,1.6,3.7,3.5c-0.1,1.9-1.6,3.4-3.5,3.5c-1.9,0-3.5-1.5-3.5-3.4C621.3,127,622.7,125.4,624.7,125.3
						L624.7,125.3z M605.2,150.9c1.9,0,3.5,1.5,3.5,3.4v0.1c0,1.9-1.6,3.5-3.5,3.5s-3.5-1.6-3.5-3.5S603.2,151,605.2,150.9
						C605.2,150.9,605.2,150.9,605.2,150.9L605.2,150.9z"/>
				</g>
			</g>
			<g id="Cancer_Epidemiology_and_Prevention">
				<path class="st8" d="M531.6,588.2c-14.8,47.2,11.4,97.4,58.6,112.2c47.2,14.8,97.4-11.4,112.2-58.6
					c14.8-47.2-11.4-97.4-58.6-112.2c-17.4-5.5-36.1-5.5-53.6,0c18.4-26.6,30.9-56.8,36.8-88.6c-62.3-22.1-123.7-16.1-161.9,22.1
					S420.9,562.7,443,625C474.9,619.2,505,606.6,531.6,588.2z"/>
				<g id="Cancer_Epidemiology_and_Prevention_Text">
					<path class="st1" d="M601.5,637.1c-1,1-2.3,1.5-3.7,1.5s-2.7-0.5-3.6-1.4c-1.4-1.4-1.6-3.1-1.6-5.2s0.2-3.8,1.6-5.2
						c2-1.9,5.2-1.9,7.3,0c0.7,0.8,1.1,1.7,1.2,2.8h-2.4c0-0.5-0.2-1-0.6-1.3c-0.5-0.5-1.2-0.8-1.9-0.8c-0.8,0-1.5,0.3-2,0.8
						c-0.9,0.9-0.9,2.5-0.9,3.7s0,2.8,0.9,3.7c0.5,0.5,1.2,0.9,2,0.8c0.7,0,1.4-0.3,1.9-0.8c0.3-0.4,0.5-0.9,0.6-1.4h2.4
						C602.6,635.3,602.2,636.3,601.5,637.1z"/>
					<path class="st1" d="M611.6,638.5c-0.8,0.1-1.5-0.5-1.6-1.3c-0.6,0.9-1.7,1.5-2.8,1.4c-2.2,0-3.4-1.4-3.4-2.9
						c0-1.8,1.4-2.8,3.2-2.9l2.8-0.2V632c0-0.9-0.3-1.5-1.6-1.5c-1,0-1.7,0.5-1.7,1.3h-2.2c0.1-2.1,1.8-3,3.9-3c1.6,0,3,0.5,3.5,1.9
						c0.2,0.6,0.3,1.2,0.3,1.9v3.5c0,0.4,0.1,0.6,0.5,0.6c0.1,0,0.2,0,0.3,0v1.7C612.4,638.5,612,638.6,611.6,638.5z M609.7,634.2
						l-2.4,0.2c-0.7,0-1.3,0.5-1.4,1.2c0,0.7,0.6,1.2,1.3,1.2c0,0,0,0,0.1,0c1.2,0.1,2.2-0.7,2.4-1.8c0-0.1,0-0.2,0-0.3L609.7,634.2
						z"/>
					<path class="st1" d="M620.4,638.4v-5.7c0-1.1-0.4-1.8-1.5-1.8c-0.7,0-1.4,0.5-1.6,1.2c-0.3,0.8-0.4,1.7-0.3,2.5v3.8h-2.2V629
						h1.9l0.2,1.2c0.6-0.9,1.6-1.5,2.8-1.4c1.7-0.1,3.1,1.3,3.2,2.9c0,0.1,0,0.3,0,0.4v6.2L620.4,638.4z"/>
					<path class="st1" d="M632.2,637.1c-0.8,1-2,1.5-3.2,1.5c-1.3,0-2.4-0.5-3.3-1.5c-1.4-2.1-1.4-4.8,0-6.8c0.8-0.9,2-1.5,3.3-1.5
						c1.2,0,2.4,0.5,3.2,1.5c0.4,0.6,0.7,1.3,0.7,2h-2.2c0-0.3-0.1-0.6-0.3-0.9c-0.3-0.5-0.9-0.7-1.4-0.7s-1,0.2-1.4,0.6
						c-0.5,0.7-0.7,1.5-0.6,2.4c-0.1,0.8,0.1,1.7,0.6,2.4c0.4,0.4,0.9,0.6,1.4,0.6c0.6,0,1.1-0.2,1.4-0.7c0.2-0.3,0.3-0.6,0.3-0.9
						h2.2C632.9,635.8,632.6,636.5,632.2,637.1z"/>
					<path class="st1" d="M642.8,634.4h-6.3c0,0.7,0.2,1.3,0.7,1.8c0.4,0.4,0.9,0.6,1.4,0.6c0.5,0.1,1-0.1,1.4-0.5
						c0.2-0.2,0.4-0.5,0.5-0.8h2.2c-0.1,0.6-0.4,1.2-0.8,1.7c-1.7,1.7-4.4,1.8-6.1,0.2c-1-1-1.5-2.3-1.5-3.7s0.4-2.7,1.4-3.7
						c0.8-0.8,1.9-1.2,3-1.2c1.4,0,2.7,0.6,3.4,1.7c0.6,1,0.9,2.1,0.8,3.3C642.8,633.8,642.8,634.2,642.8,634.4z M640,631.1
						c-0.9-0.8-2.2-0.7-3,0.1l0,0c-0.3,0.4-0.5,0.9-0.5,1.5h4C640.5,632.2,640.4,631.6,640,631.1z"/>
					<path class="st1" d="M649.6,631c-1.3,0-2.4,1-2.4,2.3c0,0.1,0,0.2,0,0.3v4.7h-2.3V629h1.9l0.2,1.4c0.5-1,1.5-1.6,2.6-1.5
						c0.2,0,0.5,0,0.7,0.1v2.2C650.1,631,649.9,631,649.6,631z"/>
					<path class="st1" d="M556.8,657.4v-12.8h9.1v2.1h-6.8v3h6v2.1h-6v3.5h6.8v2.1L556.8,657.4z"/>
					<path class="st1" d="M575,656.9c-0.6,0.5-1.5,0.8-2.3,0.8c-0.9,0.1-1.8-0.3-2.5-0.9v4.3H568v-13h2l0.2,1
						c0.6-0.8,1.6-1.3,2.6-1.2c0.8,0,1.6,0.3,2.3,0.8c1.2,1,1.8,2.5,1.7,4.1C576.8,654.2,576.2,655.8,575,656.9z M573.8,650.4
						c-0.4-0.5-0.9-0.7-1.5-0.7c-1.8,0-2.1,1.7-2.1,3s0.4,3,2.1,3c0.6,0,1.2-0.3,1.5-0.7c0.4-0.7,0.6-1.5,0.6-2.3
						C574.4,651.9,574.2,651.1,573.8,650.4L573.8,650.4z"/>
					<path class="st1" d="M578.8,646.7v-2.3h2.4v2.3H578.8z M578.9,657.4V648h2.3v9.4H578.9z"/>
					<path class="st1" d="M590,657.4l-0.1-1c-0.6,0.8-1.6,1.3-2.6,1.2c-0.8,0-1.6-0.3-2.3-0.8c-1.2-1-1.8-2.5-1.7-4.1
						c-0.1-1.6,0.5-3.1,1.7-4.2c0.6-0.5,1.5-0.8,2.3-0.8c0.9-0.1,1.8,0.3,2.4,0.9v-4.3h2.3v13L590,657.4z M587.7,649.7
						c-0.6,0-1.2,0.3-1.5,0.7c-0.4,0.7-0.6,1.5-0.6,2.3s0.2,1.6,0.6,2.3c0.4,0.5,0.9,0.7,1.5,0.7c1.8,0,2.1-1.7,2.1-3
						S589.5,649.7,587.7,649.7L587.7,649.7z"/>
					<path class="st1" d="M602.7,653.4h-6.3c0,0.7,0.2,1.3,0.7,1.8c0.4,0.4,0.9,0.6,1.4,0.6c0.5,0.1,1-0.1,1.4-0.5
						c0.2-0.2,0.4-0.5,0.5-0.8h2.2c-0.1,0.6-0.4,1.2-0.8,1.7c-0.8,0.9-2,1.4-3.2,1.3c-1.1,0-2.2-0.4-3-1.2c-1-1-1.5-2.3-1.4-3.7
						c-0.1-1.4,0.4-2.7,1.3-3.8c0.8-0.8,1.9-1.2,3-1.2c1.4,0,2.6,0.6,3.4,1.7c0.6,1,0.9,2.1,0.8,3.3
						C602.7,652.8,602.7,653.2,602.7,653.4z M599.9,650.1c-0.9-0.8-2.2-0.7-3,0.1l0,0c-0.3,0.4-0.5,0.9-0.5,1.5h4
						C600.5,651.2,600.3,650.6,599.9,650.1z"/>
					<path class="st1" d="M615.8,657.4v-5.8c0-1.2-0.3-1.8-1.4-1.8s-1.8,1.3-1.8,2.5v5.1h-2.2v-5.8c0-1.2-0.3-1.8-1.4-1.8
						s-1.8,1.3-1.8,2.5v5.1H605V648h1.9l0.2,1.2c0.6-0.9,1.6-1.5,2.7-1.5c1.1-0.1,2.2,0.5,2.7,1.5c0.6-1,1.7-1.6,2.8-1.5
						c2,0,3,1.3,3,3.3v6.3L615.8,657.4z"/>
					<path class="st1" d="M620.7,646.7v-2.3h2.4v2.3H620.7z M620.8,657.4V648h2.3v9.4H620.8z"/>
					<path class="st1" d="M632.9,656.2c-1.6,1.8-4.4,2-6.2,0.3c-0.1-0.1-0.2-0.2-0.3-0.3c-1.5-2.1-1.5-4.8,0-6.9
						c1.6-1.8,4.4-2,6.2-0.3c0.1,0.1,0.2,0.2,0.3,0.3C634.4,651.3,634.4,654.1,632.9,656.2z M631,650.3c-0.8-0.8-2-0.8-2.8,0l0,0
						c-0.9,1.4-0.9,3.3,0,4.7c0.8,0.8,2,0.8,2.8,0l0,0C631.9,653.6,631.9,651.8,631,650.3z"/>
					<path class="st1" d="M638.7,657.5c-1.2,0.2-2.4-0.7-2.6-1.9c0-0.2,0-0.4,0-0.5v-10.6h2.3v10.2c0,0.5,0.1,0.9,0.9,0.9
						c0.2,0,0.2,0,0.4,0v1.9C639.3,657.5,639,657.5,638.7,657.5z"/>
					<path class="st1" d="M648.5,656.2c-1.6,1.8-4.4,2-6.2,0.3c-0.1-0.1-0.2-0.2-0.3-0.3c-1.5-2.1-1.5-4.8,0-6.9
						c1.6-1.8,4.4-2,6.2-0.3c0.1,0.1,0.2,0.2,0.3,0.3C650,651.3,650,654.1,648.5,656.2z M646.7,650.3c-0.8-0.8-2-0.8-2.8,0l0,0
						c-0.9,1.5-0.9,3.3,0,4.7c0.8,0.8,2,0.8,2.8,0l0,0C647.5,653.6,647.5,651.8,646.7,650.3z"/>
					<path class="st1" d="M655.5,661.8c-1.2,0.1-2.3-0.2-3.3-0.8c-0.7-0.4-1.1-1.2-1.1-2s0.4-1.5,1.1-1.9c-0.6-0.3-0.9-0.9-0.9-1.6
						c0-0.8,0.4-1.5,1.1-1.9c-0.6-0.6-0.9-1.4-0.9-2.3c0-2.2,1.7-3.4,3.8-3.4c0.7,0,1.5,0.2,2.1,0.6c0.3-0.7,1.1-1.2,1.9-1.2
						c0.2,0,0.4,0,0.6,0v1.8h-0.2c-0.5,0-1,0.2-1.1,0.6c0.3,0.5,0.5,1.1,0.5,1.7c0,2.1-1.8,3.4-3.8,3.4c-0.5,0-1-0.1-1.5-0.2
						c-0.3,0.1-0.4,0.4-0.5,0.7c0,0.6,0.6,0.7,1,0.7h1.5c1-0.1,2.1,0.1,3,0.6c0.7,0.5,1.2,1.4,1.1,2.2
						C660,661.1,657.6,661.8,655.5,661.8z M655.6,657.5h-1.8c-0.5,0.1-0.9,0.6-0.8,1.2c0,1.2,1.5,1.3,2.4,1.3s2.5,0,2.5-1.3
						S656.5,657.5,655.6,657.5L655.6,657.5z M655.2,649.5c-1,0-1.8,0.7-1.8,1.7s0.7,1.8,1.7,1.8s1.8-0.7,1.8-1.7v-0.1
						c0.1-0.9-0.5-1.7-1.4-1.8C655.4,649.5,655.3,649.5,655.2,649.5L655.2,649.5z"/>
					<path class="st1" d="M666,659c-0.5,1.2-1.2,2.3-2.9,2.3c-0.6,0-1.2-0.1-1.7-0.2v-1.9c0.4,0.1,0.8,0.2,1.3,0.2s0.9-0.3,1.1-0.7
						l0.5-1.3l-3.7-9.4h2.5l2.5,6.8l2.3-6.8h2.3L666,659z"/>
					<path class="st1" d="M683.8,657.4l-0.9-1c-1,0.9-2.3,1.3-3.6,1.3c-2.2,0.2-4.1-1.5-4.2-3.6c0-0.1,0-0.2,0-0.2
						c0.1-1.5,0.9-2.8,2.3-3.5c-0.8-0.7-1.3-1.7-1.4-2.8c0.2-1.9,2-3.3,3.9-3.1c1.6,0.2,2.8,1.4,3.1,3c0,1.7-1,2.6-2.4,3.4l2.2,2.4
						c0.2-0.5,0.3-1,0.3-1.6s0-1.2,0-1.6h3.3v1.8h-1.5c0,1-0.3,2-0.8,2.9l2.4,2.6L683.8,657.4z M678.6,651.8c-0.8,0.5-1.5,0.9-1.5,2
						s1,2,2.1,2c0.1,0,0.1,0,0.2,0c0.8,0,1.6-0.2,2.1-0.8C680.5,653.9,679.6,652.8,678.6,651.8L678.6,651.8z M679.4,646.2
						c-0.7-0.1-1.4,0.5-1.4,1.2v0.1c0,0.8,0.7,1.4,1.2,2c0.8-0.4,1.6-0.8,1.6-1.9c0.1-0.7-0.5-1.4-1.2-1.4
						C679.6,646.2,679.5,646.2,679.4,646.2L679.4,646.2z"/>
					<path class="st1" d="M582.2,671.8h-2.7v4.6h-2.3v-12.8h5c2.9,0,4.5,1.6,4.5,4.1S585.1,671.8,582.2,671.8z M582.1,665.7h-2.6
						v4.1h2.6c1.5,0,2.2-0.8,2.2-2c0.1-1.1-0.8-2.1-1.9-2.1C582.3,665.6,582.2,665.6,582.1,665.7L582.1,665.7z"/>
					<path class="st1" d="M593,669c-1.3,0-2.4,1-2.4,2.3c0,0.1,0,0.2,0,0.3v4.7h-2.3V667h1.9l0.2,1.4c0.5-1,1.5-1.6,2.6-1.5
						c0.2,0,0.5,0,0.7,0.1v2.2C593.5,669,593.3,669,593,669z"/>
					<path class="st1" d="M603.1,672.4h-6.3c0,0.7,0.2,1.3,0.7,1.8c0.4,0.4,0.9,0.6,1.4,0.6c0.5,0.1,1-0.1,1.4-0.5
						c0.2-0.2,0.4-0.5,0.5-0.8h2.2c-0.1,0.6-0.4,1.2-0.8,1.7c-0.8,0.9-2,1.4-3.2,1.3c-1.1,0-2.2-0.4-3-1.2c-1-1-1.5-2.3-1.4-3.7
						c-0.1-1.4,0.4-2.7,1.3-3.8c0.8-0.8,1.9-1.2,3-1.2c1.4,0,2.6,0.6,3.4,1.7c0.6,1,0.9,2.1,0.8,3.3
						C603.1,671.8,603.1,672.2,603.1,672.4z M600.3,669.1c-0.9-0.8-2.2-0.7-3,0.1l0,0c-0.3,0.4-0.5,0.9-0.5,1.5h4
						C600.9,670.2,600.7,669.6,600.3,669.1z"/>
					<path class="st1" d="M609.6,676.4h-2.4l-3.5-9.4h2.4l2.3,6.6l2.2-6.6h2.3L609.6,676.4z"/>
					<path class="st1" d="M622.2,672.4H616c0,0.7,0.2,1.3,0.7,1.8c0.4,0.4,0.9,0.6,1.4,0.6c0.8,0.1,1.6-0.4,1.8-1.2h2.1
						c-0.1,0.6-0.4,1.2-0.8,1.7c-0.8,0.9-2,1.4-3.2,1.3c-1.1,0-2.2-0.4-3-1.2c-1-1-1.5-2.3-1.4-3.7c0-1.4,0.5-2.7,1.4-3.7
						c0.8-0.8,1.9-1.2,3-1.2c1.4,0,2.6,0.6,3.4,1.7c0.6,1,0.9,2.1,0.8,3.3C622.2,671.8,622.2,672.2,622.2,672.4z M619.4,669.1
						c-0.4-0.4-0.9-0.6-1.4-0.5c-0.6,0-1.2,0.2-1.6,0.7c-0.3,0.4-0.5,0.9-0.5,1.5h4C620,670.2,619.8,669.6,619.4,669.1z"/>
					<path class="st1" d="M630.1,676.4v-5.7c0-1.1-0.4-1.8-1.5-1.8c-0.7,0-1.4,0.5-1.6,1.2c-0.3,0.8-0.4,1.7-0.3,2.5v3.8h-2.3V667
						h1.9l0.2,1.2c1-1.5,3-1.9,4.5-0.9c0.9,0.6,1.5,1.7,1.4,2.8v6.2L630.1,676.4z"/>
					<path class="st1" d="M638.4,676.5c-1.4,0.2-2.7-0.9-2.8-2.3c0-0.2,0-0.4,0-0.6v-4.8h-1.7V667h1.7v-2.4l2.2-0.6v2.9h2.4v1.8
						h-2.4v4.6c0,0.7,0.3,1,1,1c0.5,0,1,0,1.5-0.1v1.9C639.7,676.4,639,676.5,638.4,676.5z"/>
					<path class="st1" d="M642.2,665.7v-2.3h2.4v2.3H642.2z M642.2,676.4V667h2.3v9.4H642.2z"/>
					<path class="st1" d="M654.3,675.2c-1.6,1.8-4.4,2-6.2,0.3c-0.1-0.1-0.2-0.2-0.3-0.3c-1.5-2.1-1.5-4.8,0-6.9
						c1.6-1.8,4.4-2,6.2-0.3c0.1,0.1,0.2,0.2,0.3,0.3C655.8,670.3,655.8,673.1,654.3,675.2z M652.5,669.3c-0.4-0.4-0.9-0.6-1.4-0.6
						s-1.1,0.2-1.4,0.6c-0.9,1.5-0.9,3.3,0,4.7c0.4,0.4,0.9,0.6,1.4,0.6s1-0.2,1.4-0.6C653.4,672.6,653.4,670.8,652.5,669.3z"/>
					<path class="st1" d="M663.3,676.4v-5.7c0-1.1-0.4-1.8-1.5-1.8c-0.7,0-1.4,0.5-1.6,1.2c-0.3,0.8-0.4,1.7-0.3,2.5v3.8h-2.3V667
						h1.9l0.2,1.2c0.6-0.9,1.6-1.5,2.8-1.4c1.7-0.1,3.1,1.3,3.2,3c0,0.1,0,0.3,0,0.4v6.2H663.3z"/>
				</g>
				<path id="Cancer_Epidemiology_and_Prevention_Icon" class="st2" d="M621.2,535.6c-22.9,0.1-41.4,18.6-41.3,41.5
					s18.6,41.4,41.5,41.3c22.8-0.1,41.3-18.6,41.3-41.4C662.7,554.1,644.1,535.6,621.2,535.6z M658.4,577c0,7.7-2.4,15.2-6.9,21.5
					c0-0.2,0-0.4,0-0.7c-0.1-2.9-5.5-4.6-10.8-4.4c0.3-3-1.2-6.4-3.6-9.1c4.5-0.6,10.5-9.1,8.7-13.2c-1.6-3.7-6.4-7.7-10.3-7.9
					c1.5-1.7,2.2-3.4,1.2-4.7c-2.8-3.9-11.9-8-15.6-5.4s-0.3,15.9,2.5,16.6c-1.6,0.2-3.3,0.6-4.9,1.1l0.5-0.2c4-2.2-0.6-15.2-7-17.7
					c-1.1-0.3-2.2-0.1-3.1,0.6c0-4.6-1.4-9.8-3.1-10c-0.3,0-0.6,0-0.9,0c18.5-8.8,40.7-1,49.6,17.5C657.2,566,658.4,571.5,658.4,577
					z M639.8,600.7c-0.1-1.7,4.1-4.8,5.8-3.9c1.6,0.7,2.4,2.6,1.7,4.3C646.4,602.5,639.9,603.1,639.8,600.7z M616.8,571.6
					c-2.9,1.2-5.3,2.9-5.8,4.7c-0.3-1.5-0.8-3-1.6-4.5C611.8,572.3,614.3,572.2,616.8,571.6L616.8,571.6z M611.5,561.3
					c1.4-0.9,6.1,1.5,6.1,3.4c0.1,1.8-1.2,3.3-3,3.4C612.8,568.1,609.4,562.5,611.5,561.3L611.5,561.3z M611.4,579.1
					c1.2,2.2,4.3,4.3,7.3,5.4c-2.7,0.4-5.4,1.4-7.7,2.7C611.6,584.5,611.8,581.8,611.4,579.1L611.4,579.1z M612.3,591.2
					c0.4-1.6,6.6-3.8,7.3-1.5c0.5,1.6-2.8,5.6-4.7,5.2C613.2,594.7,612,593,612.3,591.2C612.3,591.3,612.3,591.2,612.3,591.2
					L612.3,591.2z M618.3,578c-0.7-1.5,2.2-5.9,4-5.7c1.8,0.1,3.1,1.6,3,3.4C625.2,577.4,619.3,580.2,618.3,578z M623.6,564.3
					c-0.7-1.5,2.2-5.9,4-5.7c1.8,0.1,3.1,1.6,3,3.4C630.5,563.7,624.5,566.5,623.6,564.3L623.6,564.3z M625.3,584.6
					c0.5-0.3,1-0.7,1.5-1.1c-1.9,2.3-3.3,5.1-4.1,8c-0.3-2.8-1-5.3-2-6.4C622.3,585.5,623.9,585.3,625.3,584.6L625.3,584.6z
					 M625.1,569.6c2.2-0.6,4.3-1.6,6.2-2.9c-0.3,1.5-0.5,3-0.5,4.5c0-0.1-0.1-0.1-0.1-0.2C630.1,569.8,627.8,569.4,625.1,569.6
					L625.1,569.6z M631.3,575.9c0.3,1.7,0.7,3.3,1.4,4.9l-0.2-0.1c-1.3-0.6-2.8,0.1-4.4,1.5C629.7,580.3,630.8,578.1,631.3,575.9
					L631.3,575.9z M628.9,585.6c1.4-1.1,3.4-1,4.5,0.4c1,1.3-1.4,7.4-3.6,6.5C628.3,591.8,627.4,586.7,628.9,585.6L628.9,585.6z
					 M633.3,572.1c0.4-1.7,2.1-2.8,3.8-2.5c1.6,0.4,3.5,6.7,1.2,7.3C636.7,577.4,632.8,573.9,633.3,572.1L633.3,572.1z M598.6,550.4
					c0.4-1.6,6.6-3.8,7.3-1.5c0.5,1.6-2.8,5.6-4.7,5.2C599.5,553.8,598.3,552.2,598.6,550.4L598.6,550.4L598.6,550.4z M604.2,576.4
					c1.6-0.4,5.5,3.1,5,4.9c-0.4,1.7-2.1,2.8-3.8,2.5C603.7,583.2,601.9,577,604.2,576.4L604.2,576.4z M584.1,577.1
					c0-8.5,2.9-16.7,8.3-23.3c2.7,3.6,6.7,6.2,11.1,7.1c-1,2.3-1.5,4.6-1,6.1c0.3,0.9,0.9,1.8,1.6,2.4c-4.3,1.7-9.1,9.1-7.5,12.8
					s6.5,7.7,10.5,7.8c-1.3,1.4-1.9,2.8-1.2,4c2.4,4.2,10.9,9.3,14.9,7.1c1.1-0.6,1.8-2.2,2.1-4.2c0.9,2.2,5.1,2.9,9.1,2.5
					c0.5,3.5,3.4,8.3,6.4,10.5c-18.3,9.4-40.7,2.2-50.1-16.1c-2.7-5.2-4.1-11-4.1-16.9L584.1,577.1z"/>
			</g>
			<g id="Health_and_Biomedical_Informatics">
				<path class="st9" d="M211.8,529.6c-47.2-14.8-97.4,11.4-112.2,58.6c-14.8,47.2,11.4,97.4,58.6,112.2s97.4-11.4,112.2-58.6
					c5.5-17.4,5.5-36.1,0-53.6c26.6,18.4,56.8,30.9,88.6,36.8c22.1-62.3,16.1-123.7-22.1-161.9S237.3,418.9,175,441
					C180.9,472.8,193.4,503,211.8,529.6z"/>
				<g id="Health_and_Biomedical_Informatics_Text">
					<path class="st1" d="M160.6,642.4v-5.6h-5.2v5.6H153v-12.8h2.3v5h5.2v-5h2.3v12.8H160.6z"/>
					<path class="st1" d="M173.7,638.4h-6.3c0,0.7,0.2,1.3,0.7,1.8c0.4,0.4,0.9,0.6,1.4,0.6c0.5,0.1,1-0.1,1.4-0.5
						c0.2-0.2,0.4-0.5,0.4-0.8h2.2c-0.1,0.6-0.4,1.2-0.8,1.7c-1.7,1.7-4.4,1.8-6.1,0.2c-1-1-1.5-2.3-1.4-3.7
						c-0.1-1.4,0.4-2.7,1.4-3.8c0.8-0.8,1.9-1.2,3-1.2c1.4,0,2.6,0.6,3.4,1.7c0.6,1,0.9,2.1,0.8,3.3
						C173.8,637.8,173.7,638.2,173.7,638.4z M170.9,635.1c-0.9-0.8-2.2-0.7-3,0.1l0,0c-0.3,0.4-0.5,0.9-0.5,1.5h4.1
						C171.5,636.2,171.3,635.6,170.9,635.1z"/>
					<path class="st1" d="M182.9,642.5c-0.8,0.1-1.5-0.5-1.6-1.3c-0.6,0.9-1.7,1.5-2.8,1.4c-2.2,0-3.4-1.4-3.4-2.9
						c0-1.8,1.4-2.8,3.2-2.9l2.8-0.2V636c0-0.9-0.3-1.5-1.6-1.5c-1,0-1.6,0.5-1.7,1.3h-2.2c0.1-2.1,1.8-3,3.9-3c1.6,0,3,0.5,3.5,1.9
						c0.2,0.6,0.3,1.2,0.3,1.9v3.5c0,0.4,0.1,0.6,0.5,0.6c0.1,0,0.2,0,0.3,0v1.7C183.7,642.5,183.3,642.6,182.9,642.5z M181,638.2
						l-2.4,0.2c-0.7,0-1.3,0.5-1.4,1.2c0,0.7,0.6,1.2,1.3,1.2l0,0c1.2,0.2,2.2-0.7,2.4-1.8c0-0.1,0-0.2,0-0.3L181,638.2z"/>
					<path class="st1" d="M188.5,642.5c-1.2,0.2-2.4-0.7-2.6-1.9c0-0.2,0-0.4,0-0.6v-10.6h2.3v10.2c0,0.5,0.1,0.9,0.9,0.9
						c0.2,0,0.2,0,0.4,0v1.9C189.1,642.5,188.8,642.5,188.5,642.5z"/>
					<path class="st1" d="M194.8,642.5c-1.4,0.2-2.7-0.9-2.8-2.3c0-0.2,0-0.4,0-0.6v-4.8h-1.7V633h1.7v-2.4l2.2-0.6v2.9h2.4v1.8
						h-2.4v4.6c0,0.7,0.3,1,1.1,1c0.5,0,1,0,1.5-0.1v1.9C196.1,642.4,195.4,642.5,194.8,642.5z"/>
					<path class="st1" d="M204.3,642.4v-5.8c0-1.1-0.4-1.8-1.6-1.8c-1.4,0-1.9,1.4-1.9,2.6v4.9h-2.2v-13h2.2v4.6
						c0.6-0.8,1.6-1.2,2.6-1.2c1.7-0.1,3.1,1.3,3.2,3c0,0.1,0,0.2,0,0.4v6.2L204.3,642.4z"/>
					<path class="st1" d="M221.5,642.4l-0.9-1c-1,0.9-2.3,1.3-3.6,1.3c-2.2,0.2-4.1-1.5-4.2-3.6c0-0.1,0-0.2,0-0.2
						c0-1.5,0.9-2.8,2.3-3.5c-0.8-0.7-1.3-1.7-1.4-2.8c0-1.8,1.4-3.2,3.2-3.2c0.1,0,0.2,0,0.3,0c1.8-0.1,3.4,1.2,3.5,3
						c0,0.1,0,0.1,0,0.2c0,1.7-1,2.6-2.4,3.4l2.2,2.4c0.2-0.5,0.3-1,0.3-1.6s0-1.2,0-1.6h3.3v1.8h-1.5c0,1-0.3,2-0.8,2.9l2.4,2.6
						L221.5,642.4z M216.4,636.8c-0.9,0.5-1.5,0.9-1.5,2s1,2,2.1,2c0.1,0,0.1,0,0.2,0c0.8,0,1.6-0.2,2.1-0.8
						C218.3,638.9,217.4,637.8,216.4,636.8z M217.2,631.2c-0.7-0.1-1.4,0.5-1.4,1.2v0.1c0,0.8,0.7,1.4,1.2,2
						c0.8-0.4,1.6-0.8,1.6-1.9c0.1-0.7-0.5-1.4-1.2-1.4C217.3,631.2,217.3,631.2,217.2,631.2z"/>
					<path class="st1" d="M151,660.5c-1,0.7-2.2,1-3.4,0.9h-5.1v-12.8h5.1c1-0.1,2.1,0.2,3,0.7c0.9,0.6,1.5,1.7,1.5,2.8
						s-0.6,2.2-1.6,2.7c1.1,0.5,1.9,1.6,1.8,2.9C152.4,658.8,151.9,659.9,151,660.5z M147.7,650.6h-2.9v3.2h2.9c1,0,1.9-0.4,1.9-1.6
						S148.8,650.6,147.7,650.6L147.7,650.6z M147.8,655.8h-2.9v3.5h2.9c1.1,0,2.2-0.4,2.2-1.7S149,655.8,147.8,655.8L147.8,655.8z"
						/>
					<path class="st1" d="M154.4,650.7v-2.3h2.4v2.3H154.4z M154.5,661.4V652h2.3v9.4H154.5z"/>
					<path class="st1" d="M166.6,660.2c-1.6,1.8-4.4,2-6.2,0.3c-0.1-0.1-0.2-0.2-0.3-0.3c-1.5-2.1-1.5-4.8,0-6.9
						c1.6-1.8,4.4-2,6.2-0.3c0.1,0.1,0.2,0.2,0.3,0.3C168,655.3,168,658.1,166.6,660.2z M164.7,654.3c-0.8-0.8-2-0.8-2.8,0l0,0
						c-0.9,1.5-0.9,3.3,0,4.7c0.8,0.8,2,0.8,2.8,0l0,0C165.6,657.6,165.6,655.8,164.7,654.3z"/>
					<path class="st1" d="M180.9,661.4v-5.8c0-1.2-0.3-1.8-1.4-1.8s-1.8,1.3-1.8,2.5v5.1h-2.2v-5.8c0-1.2-0.3-1.8-1.4-1.8
						c-1.3,0-1.9,1.3-1.9,2.5v5.1H170V652h1.9l0.2,1.2c0.6-0.9,1.6-1.5,2.7-1.5c1.1-0.1,2.2,0.5,2.7,1.5c0.6-1,1.7-1.6,2.8-1.5
						c2,0,3,1.3,3,3.3v6.3L180.9,661.4z"/>
					<path class="st1" d="M193.6,657.4h-6.3c0,0.7,0.2,1.3,0.7,1.8c0.4,0.4,0.9,0.6,1.4,0.6c0.8,0.1,1.6-0.4,1.8-1.2h2.2
						c-0.1,0.6-0.4,1.2-0.8,1.7c-0.8,0.9-2,1.4-3.1,1.3c-1.1,0-2.2-0.4-3-1.2c-1-1-1.5-2.3-1.4-3.7c-0.1-1.4,0.4-2.7,1.4-3.8
						c0.8-0.8,1.9-1.2,3-1.2c1.4,0,2.6,0.6,3.4,1.7c0.6,1,0.9,2.1,0.8,3.3C193.6,656.8,193.6,657.2,193.6,657.4z M190.8,654.1
						c-0.4-0.4-0.9-0.6-1.4-0.5c-0.6,0-1.2,0.2-1.6,0.7c-0.3,0.4-0.5,0.9-0.5,1.5h4C191.4,655.2,191.2,654.6,190.8,654.1z"/>
					<path class="st1" d="M201.8,661.4l-0.1-1c-0.6,0.8-1.6,1.3-2.6,1.2c-0.8,0-1.6-0.3-2.3-0.8c-1.2-1-1.8-2.5-1.7-4.1
						c-0.1-1.6,0.5-3.1,1.7-4.2c0.6-0.5,1.5-0.8,2.3-0.8c0.9-0.1,1.8,0.3,2.4,0.9v-4.3h2.2v13L201.8,661.4z M199.5,653.7
						c-0.6,0-1.2,0.3-1.5,0.7c-0.4,0.7-0.6,1.5-0.6,2.3c-0.1,0.8,0.1,1.6,0.6,2.3c0.4,0.5,0.9,0.7,1.5,0.7c1.8,0,2.1-1.7,2.1-3
						S201.3,653.7,199.5,653.7L199.5,653.7z"/>
					<path class="st1" d="M206.6,650.7v-2.3h2.4v2.3H206.6z M206.6,661.4V652h2.3v9.4H206.6z"/>
					<path class="st1" d="M218.6,660.1c-0.8,1-2,1.5-3.2,1.5c-1.3,0-2.4-0.5-3.3-1.5c-1.4-2.1-1.4-4.8,0-6.8c0.8-0.9,2-1.5,3.3-1.5
						c1.2,0,2.4,0.5,3.2,1.5c0.4,0.6,0.7,1.3,0.7,2h-2.2c0-0.3-0.1-0.6-0.3-0.9c-0.3-0.5-0.9-0.7-1.4-0.7s-1,0.2-1.4,0.6
						c-0.5,0.7-0.7,1.5-0.6,2.4c-0.1,0.8,0.1,1.7,0.6,2.4c0.4,0.4,0.9,0.6,1.4,0.6c0.6,0,1.1-0.2,1.4-0.7c0.2-0.3,0.3-0.6,0.3-0.9
						h2.2C219.3,658.8,219,659.5,218.6,660.1z"/>
					<path class="st1" d="M228.3,661.5c-0.8,0.1-1.5-0.5-1.6-1.3c-0.6,0.9-1.7,1.5-2.8,1.4c-2.2,0-3.4-1.4-3.4-2.9
						c0-1.8,1.4-2.8,3.2-2.9l2.8-0.2V655c0-0.9-0.3-1.5-1.6-1.5c-1,0-1.6,0.5-1.7,1.3H221c0.1-2.1,1.8-3,3.9-3c1.6,0,3,0.5,3.5,1.9
						c0.2,0.6,0.3,1.2,0.3,1.9v3.5c0,0.4,0.1,0.6,0.5,0.6c0.1,0,0.2,0,0.3,0v1.7C229.1,661.5,228.7,661.6,228.3,661.5z M226.4,657.2
						l-2.4,0.2c-0.7,0-1.3,0.5-1.4,1.2c0,0.7,0.6,1.2,1.3,1.2l0,0c1.2,0.2,2.2-0.7,2.4-1.8c0-0.1,0-0.2,0-0.3L226.4,657.2z"/>
					<path class="st1" d="M233.9,661.5c-1.2,0.2-2.4-0.7-2.6-1.9c0-0.2,0-0.4,0-0.6v-10.6h2.3v10.2c0,0.5,0.1,0.9,0.9,0.9
						c0.2,0,0.2,0,0.4,0v1.9C234.6,661.5,234.3,661.5,233.9,661.5z"/>
					<path class="st1" d="M141.1,680.4v-12.8h2.4v12.8H141.1z"/>
					<path class="st1" d="M152.1,680.4v-5.7c0-1.1-0.4-1.8-1.6-1.8c-0.7,0-1.4,0.5-1.6,1.2c-0.3,0.8-0.4,1.7-0.3,2.5v3.8h-2.2V671
						h1.9l0.2,1.2c1-1.5,3-1.9,4.5-0.9c0.9,0.6,1.5,1.7,1.4,2.8v6.2L152.1,680.4z"/>
					<path class="st1" d="M161,669c-0.6-0.1-1.1,0.3-1.2,0.9c0,0.1,0,0.1,0,0.2v0.9h2.5v1.8h-2.5v7.5h-2.2v-7.5H156V671h1.6v-0.9
						c-0.1-1.6,1.1-2.9,2.7-3c0.2,0,0.3,0,0.5,0c0.6,0,1.2,0.1,1.8,0.2v1.8C162,669,161.5,669,161,669z"/>
					<path class="st1" d="M170.6,679.2c-1.6,1.8-4.4,2-6.2,0.3c-0.1-0.1-0.2-0.2-0.3-0.3c-1.5-2.1-1.5-4.8,0-6.9
						c1.6-1.8,4.4-2,6.2-0.3c0.1,0.1,0.2,0.2,0.3,0.3C172,674.3,172,677.1,170.6,679.2z M168.7,673.3c-0.8-0.8-2-0.8-2.8,0l0,0
						c-0.9,1.4-0.9,3.3,0,4.7c0.8,0.8,2,0.8,2.8,0l0,0C169.6,676.6,169.6,674.8,168.7,673.3z"/>
					<path class="st1" d="M178.5,673c-1.3,0-2.4,1-2.4,2.3c0,0.1,0,0.2,0,0.4v4.7h-2.3V671h1.9l0.2,1.4c0.5-1,1.5-1.6,2.6-1.5
						c0.2,0,0.5,0,0.7,0.1v2.2C179,673,178.8,673,178.5,673z"/>
					<path class="st1" d="M192.1,680.4v-5.8c0-1.2-0.3-1.8-1.4-1.8c-1.3,0-1.8,1.3-1.8,2.5v5.1h-2.2v-5.8c0-1.2-0.3-1.8-1.4-1.8
						c-1.3,0-1.9,1.3-1.9,2.5v5.1H181V671h1.9l0.2,1.2c0.6-0.9,1.6-1.5,2.7-1.5c1.1-0.1,2.2,0.5,2.7,1.5c0.6-1,1.7-1.6,2.8-1.5
						c2,0,3,1.3,3,3.3v6.3L192.1,680.4z"/>
					<path class="st1" d="M204,680.5c-0.8,0.1-1.5-0.5-1.6-1.3c-0.6,0.9-1.7,1.5-2.9,1.4c-2.2,0-3.4-1.4-3.4-2.9
						c0-1.8,1.4-2.8,3.2-2.9l2.8-0.2V674c0-0.9-0.3-1.5-1.6-1.5c-1.1,0-1.7,0.5-1.7,1.3h-2.2c0.1-2.1,1.8-3,3.9-3
						c1.6,0,3,0.5,3.5,1.9c0.2,0.6,0.3,1.2,0.3,1.9v3.5c0,0.4,0.1,0.6,0.5,0.6c0.1,0,0.2,0,0.3,0v1.7
						C204.8,680.5,204.4,680.6,204,680.5z M202.1,676.2l-2.4,0.2c-0.7,0-1.3,0.5-1.4,1.2c0,0.7,0.6,1.2,1.3,1.2l0,0
						c1.2,0.1,2.2-0.7,2.4-1.8c0-0.1,0-0.2,0-0.3L202.1,676.2L202.1,676.2z"/>
					<path class="st1" d="M210.4,680.5c-1.4,0.2-2.7-0.9-2.8-2.3c0-0.2,0-0.4,0-0.6v-4.8h-1.7V671h1.7v-2.4l2.2-0.6v2.9h2.4v1.8
						h-2.4v4.6c0,0.7,0.3,1,1,1c0.5,0,1,0,1.5-0.1v1.9C211.6,680.4,211,680.5,210.4,680.5z"/>
					<path class="st1" d="M214.1,669.7v-2.3h2.4v2.3H214.1z M214.2,680.4V671h2.3v9.4H214.2z"/>
					<path class="st1" d="M226.2,679.1c-0.8,1-2,1.5-3.2,1.5c-1.3,0-2.4-0.5-3.3-1.5c-1.4-2.1-1.4-4.8,0-6.8c0.8-0.9,2-1.5,3.3-1.5
						c1.2,0,2.4,0.5,3.2,1.5c0.4,0.6,0.7,1.3,0.7,2h-2.2c0-0.3-0.1-0.6-0.3-0.9c-0.3-0.5-0.9-0.7-1.4-0.7s-1,0.2-1.4,0.6
						c-0.5,0.7-0.7,1.5-0.6,2.4c-0.1,0.8,0.1,1.7,0.6,2.4c0.3,0.4,0.8,0.6,1.4,0.6c0.6,0,1.1-0.2,1.4-0.7c0.2-0.3,0.3-0.6,0.3-0.9
						h2.2C226.9,677.8,226.6,678.5,226.2,679.1z"/>
					<path class="st1" d="M235.4,679.5c-0.9,0.8-2,1.2-3.2,1.1c-1.1,0-2.2-0.3-3-1.1c-0.6-0.6-1-1.3-1-2.2h2.1
						c0,0.4,0.2,0.8,0.5,1.1c0.4,0.3,0.9,0.5,1.4,0.4c0.8,0,1.9-0.2,1.9-1.2c0-0.5-0.4-1-0.9-1c-0.8-0.1-1.8-0.2-2.6-0.4
						c-1.2-0.2-2.1-1.3-2.1-2.5c0-0.8,0.4-1.6,1-2.1c0.8-0.6,1.8-1,2.9-0.9c1.1,0,2.1,0.4,2.9,1.1c0.5,0.5,0.8,1.2,0.8,1.9H234
						c0-0.3-0.1-0.6-0.4-0.9c-0.3-0.3-0.8-0.5-1.2-0.4c-0.3,0-0.7,0-1,0.2c-0.4,0.2-0.7,0.5-0.7,1c0,0.7,0.6,0.9,1.1,0.9
						c0.9,0.1,1.1,0.1,2,0.3c1.4,0.1,2.5,1.2,2.6,2.7C236.2,678.3,235.9,679,235.4,679.5z"/>
				</g>
				<g id="Health_and_Biomedical_Informatics_Icon" class="st4">
					<path class="st1" d="M152.6,559.4L152.6,559.4L152.6,559.4c0.3,0.3,0.6,0.5,1,0.5c0.5,0.1,0.9,0,1.3-0.3
						c0.3-0.2,0.5-0.5,0.7-0.7s0.4-0.4,0.6-0.6l0.1,6l-0.1,6.1c0,0.5,0.2,1,0.6,1.2c0.3,0.2,0.6,0.3,1,0.3s0.8-0.1,1.1-0.3
						c0.4-0.2,0.7-0.7,0.7-1.2l-0.2-16.4c-0.1-0.3-0.2-0.7-0.4-0.9s-0.5-0.5-0.7-0.6c-0.3-0.2-0.7-0.3-1.1-0.3
						c-0.5,0-0.9,0.4-1.1,0.8l0,0c-0.2,0.4-0.4,0.7-0.6,1s-0.4,0.7-0.7,1c-0.3,0.4-0.5,0.7-0.8,1l-0.4,0.4l-0.7,0.7
						c-0.4,0.3-0.6,0.8-0.6,1.3C152.2,558.7,152.3,559,152.6,559.4L152.6,559.4z"/>
					<path class="st1" d="M177.7,558.4c-0.3-0.8-0.6-1.5-1-2.2s-0.9-1.3-1.5-1.9c-0.6-0.6-1.4-1-2.1-1.3c-1.8-0.7-3.8-0.7-5.6,0
						c-0.8,0.3-1.5,0.8-2.1,1.4c-0.6,0.6-1.1,1.2-1.5,1.9s-0.7,1.4-1,2.2c-0.2,0.7-0.4,1.5-0.5,2.2s-0.2,1.3-0.2,2
						c0,1,0.2,2.1,0.4,3.1c0.3,1,0.8,2,1.4,2.9c0.7,0.9,1.5,1.7,2.5,2.2c1.1,0.6,2.4,0.9,3.7,0.9s2.5-0.3,3.7-0.8
						c1-0.5,1.9-1.2,2.6-2.1c0.7-0.8,1.2-1.8,1.6-2.9c0.3-1,0.5-2.1,0.5-3.2c0-0.7-0.1-1.4-0.2-2.1
						C178.2,559.9,178,559.1,177.7,558.4z M174.8,565.1c-0.2,0.7-0.5,1.3-0.9,1.8s-0.9,0.9-1.5,1.2c-1.4,0.6-3,0.6-4.4,0
						c-0.6-0.3-1-0.7-1.4-1.2s-0.7-1.1-0.8-1.8c-0.2-0.8-0.3-1.6-0.3-2.3c0-0.9,0.1-1.8,0.3-2.6s0.4-1.5,0.9-2.2
						c0.4-0.6,0.9-1.1,1.5-1.5c0.7-0.4,1.4-0.6,2.2-0.5c0.7,0,1.5,0.2,2.1,0.5c0.6,0.4,1.1,0.9,1.5,1.5c0.4,0.7,0.7,1.4,0.9,2.2
						c0.2,0.9,0.3,1.8,0.3,2.7C175.1,563.6,175,564.4,174.8,565.1z"/>
					<path class="st1" d="M180.5,568.8c0.6,0.9,1.5,1.7,2.5,2.2c1.1,0.6,2.4,0.9,3.7,0.9c2.5,0.1,4.8-1.1,6.3-3
						c0.7-0.9,1.2-1.9,1.5-2.9s0.5-2.1,0.5-3.2c0-0.7-0.1-1.4-0.2-2.1c-0.1-0.8-0.3-1.5-0.6-2.3c-0.3-0.7-0.6-1.5-1-2.2
						s-0.9-1.3-1.5-1.9c-0.6-0.6-1.4-1-2.1-1.3c-1.8-0.7-3.8-0.7-5.6,0c-0.8,0.3-1.5,0.8-2.1,1.4c-0.6,0.6-1.1,1.2-1.5,1.9
						s-0.7,1.4-1,2.2c-0.2,0.7-0.4,1.5-0.5,2.2s-0.1,1.3-0.1,2c0,1,0.1,2.1,0.4,3.1C179.4,566.9,179.9,567.9,180.5,568.8z
						 M182.4,560.2c0.2-0.8,0.4-1.5,0.9-2.2c0.4-0.6,0.9-1.1,1.5-1.5c0.7-0.4,1.4-0.6,2.2-0.5c0.7,0,1.5,0.2,2.1,0.5
						c0.6,0.4,1.1,0.9,1.5,1.5c0.4,0.7,0.7,1.4,0.9,2.2c0.2,0.9,0.3,1.8,0.3,2.7c0,0.8-0.1,1.6-0.3,2.3s-0.5,1.3-0.9,1.8
						s-0.9,0.9-1.5,1.2c-1.4,0.6-3,0.6-4.4,0c-0.6-0.3-1-0.7-1.4-1.2s-0.7-1.1-0.8-1.8c-0.2-0.8-0.3-1.6-0.3-2.3
						C182.1,561.9,182.2,561,182.4,560.2L182.4,560.2z"/>
					<path class="st1" d="M164.3,591.2c0.7-0.9,1.2-1.9,1.5-2.9s0.5-2.1,0.5-3.2c0-0.7-0.1-1.4-0.2-2.1c-0.1-0.8-0.3-1.5-0.6-2.3
						c-0.3-0.7-0.6-1.5-1-2.2s-0.9-1.3-1.5-1.9c-0.6-0.6-1.4-1-2.1-1.3c-1.8-0.7-3.8-0.7-5.6,0c-0.8,0.3-1.5,0.8-2.1,1.4
						c-0.6,0.6-1.1,1.2-1.5,1.9s-0.7,1.4-1,2.2c-0.2,0.7-0.4,1.5-0.5,2.2s-0.2,1.3-0.2,2c0,1,0.2,2.1,0.4,3.1c0.3,1,0.7,2,1.4,2.9
						c1.4,2,3.7,3.2,6.2,3.1c1.3,0,2.5-0.3,3.7-0.8C162.7,592.8,163.5,592.1,164.3,591.2z M162.6,587.4c-0.2,0.7-0.5,1.3-0.9,1.8
						s-0.9,0.9-1.5,1.2c-1.4,0.6-3,0.6-4.4,0c-0.6-0.3-1-0.7-1.4-1.2s-0.7-1.1-0.8-1.8c-0.2-0.8-0.3-1.6-0.3-2.3
						c0-0.9,0.1-1.8,0.3-2.6s0.4-1.5,0.9-2.2c0.4-0.6,0.9-1.1,1.5-1.5c1.3-0.7,3-0.7,4.3,0c0.6,0.4,1.1,0.9,1.5,1.5
						c0.4,0.7,0.7,1.4,0.9,2.2c0.2,0.9,0.3,1.8,0.3,2.7C162.9,585.9,162.8,586.7,162.6,587.4L162.6,587.4z"/>
					<path class="st1" d="M171.3,577.3c-0.2,0.3-0.5,0.7-0.8,1l-0.3,0.3l-0.8,0.7c-0.4,0.3-0.6,0.8-0.6,1.3c0,0.4,0.1,0.7,0.4,1l0,0
						l0,0c0.6,0.6,1.6,0.7,2.3,0.2c0.3-0.2,0.5-0.5,0.7-0.7s0.4-0.4,0.6-0.6l0.1,6l-0.1,6.1c0,0.5,0.2,0.9,0.6,1.2
						c0.3,0.2,0.6,0.3,1,0.3s0.8-0.1,1.1-0.3c0.4-0.2,0.7-0.7,0.7-1.2l-0.1-16.3c-0.1-0.3-0.2-0.7-0.4-0.9s-0.5-0.5-0.7-0.6
						c-0.3-0.2-0.7-0.3-1.1-0.3c-0.5,0-0.9,0.3-1.1,0.8l0,0c-0.2,0.3-0.4,0.7-0.6,1S171.6,576.9,171.3,577.3z"/>
					<path class="st1" d="M199.8,559.4L199.8,559.4L199.8,559.4c0.6,0.6,1.6,0.7,2.3,0.2c0.3-0.2,0.5-0.5,0.7-0.7s0.4-0.4,0.6-0.6
						l0.1,6l-0.1,6.1c0,0.5,0.2,0.9,0.6,1.2c0.3,0.2,0.6,0.3,1,0.3s0.8-0.1,1.1-0.3c0.4-0.2,0.7-0.7,0.7-1.2l-0.1-16.4
						c-0.1-0.3-0.2-0.7-0.4-0.9s-0.5-0.5-0.7-0.6c-0.3-0.2-0.7-0.3-1.1-0.3c-0.5,0-0.9,0.3-1.1,0.8l0,0c-0.2,0.4-0.4,0.7-0.6,1
						s-0.4,0.7-0.7,1s-0.5,0.7-0.8,1l-0.4,0.4l-0.7,0.7c-0.4,0.3-0.6,0.8-0.6,1.3c0,0.4,0.1,0.7,0.4,1H199.8z"/>
					<path class="st1" d="M211.2,568.8c1.4,2,3.7,3.2,6.2,3.1c2.5,0.1,4.8-1.1,6.3-3c0.7-0.9,1.2-1.9,1.5-2.9s0.5-2.1,0.5-3.2
						c0-0.7-0.1-1.4-0.2-2.1c-0.1-0.8-0.3-1.5-0.6-2.3c-0.3-0.7-0.6-1.5-1-2.2s-0.9-1.3-1.5-1.9c-0.6-0.6-1.4-1-2.1-1.3
						c-1.8-0.7-3.8-0.7-5.6,0c-0.8,0.3-1.5,0.8-2.1,1.4c-0.6,0.6-1.1,1.2-1.5,1.9s-0.7,1.4-1,2.2c-0.2,0.7-0.4,1.5-0.5,2.2
						s-0.2,1.3-0.2,2c0,1,0.2,2.1,0.4,3.1C210.1,566.8,210.6,567.9,211.2,568.8z M213.1,560.2c0.1-0.8,0.4-1.5,0.9-2.2
						c0.4-0.6,0.9-1.1,1.5-1.5c0.7-0.4,1.4-0.6,2.2-0.5c0.8,0,1.5,0.2,2.1,0.5c0.6,0.4,1.1,0.9,1.5,1.5c0.4,0.7,0.7,1.4,0.9,2.2
						c0.2,0.9,0.3,1.8,0.3,2.7c0,0.8-0.1,1.6-0.3,2.3s-0.5,1.3-0.9,1.8s-0.9,0.9-1.5,1.2c-1.4,0.6-3,0.6-4.4,0
						c-0.5-0.3-1-0.7-1.4-1.2s-0.7-1.2-0.8-1.8c-0.2-0.8-0.3-1.6-0.3-2.3C212.8,561.9,212.9,561,213.1,560.2L213.1,560.2z"/>
					<path class="st1" d="M159,598.9c-0.2-0.2-0.5-0.5-0.7-0.6c-0.3-0.2-0.7-0.3-1.1-0.3c-0.5,0-0.9,0.3-1.1,0.8l0,0
						c-0.2,0.4-0.4,0.7-0.6,1s-0.4,0.7-0.7,1c-0.3,0.4-0.5,0.7-0.8,1l-0.3,0.3l-0.8,0.7c-0.4,0.3-0.6,0.8-0.6,1.3
						c0,0.4,0.1,0.8,0.4,1.1l0,0l0,0c0.6,0.6,1.6,0.7,2.3,0.2c0.3-0.2,0.5-0.5,0.7-0.7s0.4-0.4,0.6-0.6l0.1,6l-0.1,6.1
						c0,0.5,0.2,1,0.6,1.2c0.3,0.2,0.6,0.3,1,0.3s0.8-0.1,1.1-0.3c0.5-0.2,0.7-0.7,0.7-1.2l-0.2-16.4
						C159.3,599.4,159.2,599.1,159,598.9z"/>
					<path class="st1" d="M177.7,604.2c-0.3-0.7-0.6-1.5-1-2.2s-0.9-1.3-1.5-1.9c-0.6-0.6-1.4-1-2.1-1.3c-1.8-0.7-3.8-0.7-5.6,0
						c-0.8,0.3-1.5,0.8-2.1,1.4c-0.6,0.6-1.1,1.2-1.5,1.9s-0.7,1.4-1,2.2c-0.2,0.7-0.4,1.5-0.5,2.2s-0.2,1.3-0.2,2
						c0,1,0.2,2.1,0.4,3.1c0.3,1,0.8,2,1.4,2.9c1.4,2,3.7,3.2,6.2,3.1c2.4,0.1,4.8-1,6.3-3c0.7-0.9,1.2-1.9,1.5-2.9s0.5-2.1,0.5-3.2
						c0-0.7-0.1-1.4-0.2-2.1C178.1,605.6,178,604.9,177.7,604.2z M174.8,610.9c-0.2,0.7-0.5,1.3-0.9,1.8s-0.9,0.9-1.5,1.2
						c-1.4,0.6-3,0.6-4.4,0c-0.6-0.3-1-0.7-1.4-1.2s-0.7-1.2-0.8-1.8c-0.2-0.8-0.3-1.6-0.3-2.3c0-0.9,0.1-1.7,0.3-2.6
						c0.2-0.8,0.4-1.5,0.9-2.2c0.4-0.6,0.9-1.1,1.5-1.5c0.7-0.4,1.4-0.6,2.2-0.5c0.7,0,1.5,0.2,2.1,0.5c0.6,0.4,1.1,0.9,1.5,1.5
						c0.4,0.7,0.7,1.4,0.9,2.2c0.2,0.9,0.3,1.8,0.3,2.7C175.1,609.4,175,610.2,174.8,610.9z"/>
					<path class="st1" d="M220.6,593.9c0.3,0.2,0.6,0.3,1,0.3s0.8-0.1,1.1-0.3c0.4-0.2,0.7-0.7,0.7-1.2l-0.2-16.4
						c0-0.3-0.2-0.7-0.4-0.9s-0.5-0.5-0.7-0.6c-0.3-0.2-0.7-0.3-1.1-0.3c-0.5,0-0.9,0.3-1.1,0.8l0,0c-0.2,0.3-0.4,0.7-0.6,1
						s-0.4,0.7-0.7,1s-0.5,0.7-0.8,1c-0.1,0.1-0.2,0.2-0.3,0.3l-0.8,0.8c-0.4,0.3-0.6,0.8-0.6,1.3c0,0.4,0.1,0.7,0.4,1l0,0l0,0
						c0.3,0.3,0.6,0.5,1,0.5c0.5,0.1,0.9,0,1.3-0.3c0.3-0.2,0.5-0.5,0.7-0.7s0.4-0.4,0.6-0.6l0.1,6l-0.1,6.1
						C219.9,593.1,220.1,593.7,220.6,593.9z"/>
					<path class="st1" d="M196.4,598.4c-3.1,0-5.6-2.5-5.6-5.7c0-1.1-0.9-2-2-2s-2,0.9-2,2c0,5.3,4.3,9.7,9.7,9.7c1.1,0,2-0.9,2-2
						S197.5,598.4,196.4,598.4L196.4,598.4z"/>
					<path class="st1" d="M214.8,603.4l-1,1l-1.8-1.8c6-8.1,4.2-19.5-3.9-25.5c-8.1-6-19.5-4.2-25.5,3.9c-4.2,5.8-4.7,13.5-1.2,19.7
						c-0.4,0.4-0.8,0.9-1.1,1.4c-0.4,0.7-0.7,1.4-1,2.2c-0.2,0.7-0.4,1.5-0.5,2.2s-0.1,1.3-0.1,2c0,1,0.1,2.1,0.4,3.1
						c0.3,1,0.7,2,1.4,2.9c1.4,2,3.7,3.2,6.2,3.1c2.4,0.1,4.8-1,6.3-3c0.7-0.9,1.2-1.9,1.5-2.9c0.2-0.6,0.3-1.3,0.4-1.9
						c0.8,0.1,1.6,0.2,2.4,0.2c3.9,0,7.6-1.2,10.8-3.5l1.8,1.8l-1,1l11.8,11.8l1-1l3.9-3.9l1-1L214.8,603.4z M191.4,610.9
						c-0.2,0.7-0.5,1.3-0.9,1.8s-0.9,0.9-1.5,1.2c-1.4,0.6-3,0.6-4.4,0c-0.6-0.3-1-0.7-1.4-1.2s-0.7-1.2-0.8-1.8
						c-0.2-0.8-0.3-1.6-0.3-2.3c0-0.9,0.1-1.7,0.3-2.6c0.2-0.8,0.4-1.5,0.9-2.2c0-0.1,0.1-0.1,0.2-0.2c2.2,2.6,5,4.5,8.2,5.6
						C191.6,609.7,191.5,610.3,191.4,610.9z M197.4,605.4c-1,0-1.9-0.1-2.8-0.3c-1.5-0.3-3-0.9-4.3-1.8c-0.7-0.4-1.3-0.9-1.9-1.4
						c-0.5-0.5-1.1-1-1.5-1.6l-0.1-0.1c-0.5-0.6-0.9-1.2-1.2-1.8c-1.2-2-1.8-4.3-1.8-6.6c0-7.5,6.1-13.6,13.6-13.6
						s13.6,6.1,13.6,13.6C211,599.3,204.9,605.4,197.4,605.4L197.4,605.4L197.4,605.4z"/>
				</g>
			</g>
			<g id="Public_Health">
				<path class="st10" d="M270.4,209.8c14.8-47.2-11.4-97.4-58.6-112.2S114.4,109,99.6,156.2s11.4,97.4,58.6,112.2
					c17.4,5.5,36.1,5.5,53.6,0C193.4,295,180.9,325.2,175,357c62.3,22.1,123.7,16.1,161.9-22.1s44.2-99.6,22-161.9
					C327.2,178.9,297,191.4,270.4,209.8z"/>
				<g id="Public_Health_Text">
					<path class="st1" d="M168.4,220.4h-2.7v4.6h-2.3v-12.8h5c2.9,0,4.5,1.6,4.5,4.1S171.4,220.4,168.4,220.4z M168.3,214.2h-2.6
						v4.1h2.6c1.6,0,2.2-0.8,2.2-2c0.1-1.1-0.8-2.1-1.9-2.1C168.6,214.2,168.5,214.2,168.3,214.2z"/>
					<path class="st1" d="M180.3,225l-0.2-1.2c-0.5,1-1.6,1.5-2.7,1.5c-1.7,0.1-3.2-1.2-3.2-2.9c0-0.1,0-0.3,0-0.4v-6.3h2.2v5.7
						c0,1.1,0.4,1.8,1.6,1.8c0.4,0,0.8-0.2,1.1-0.5c0.5-0.6,0.7-1.3,0.7-2.1v-5h2.3v9.4H180.3z"/>
					<path class="st1" d="M192,224.4c-0.6,0.5-1.4,0.8-2.3,0.8c-1,0.1-2-0.4-2.6-1.2l-0.1,1h-2v-13h2.2v4.3c0.7-0.6,1.5-1,2.4-0.9
						c0.8,0,1.6,0.2,2.3,0.8c1.2,1.1,1.8,2.6,1.7,4.2C193.7,221.9,193.1,223.4,192,224.4z M190.8,218c-0.4-0.5-0.9-0.7-1.5-0.7
						c-1.8,0-2.1,1.6-2.1,3c-0.1,0.9,0.2,1.8,0.8,2.6c0.8,0.7,2.1,0.6,2.8-0.3l0,0c0.4-0.7,0.6-1.5,0.6-2.3
						C191.4,219.5,191.2,218.7,190.8,218L190.8,218z"/>
					<path class="st1" d="M198.3,225.1c-1.2,0.2-2.4-0.7-2.5-2c0-0.2,0-0.4,0-0.6v-10.6h2.2v10.2c0,0.5,0.1,0.9,0.9,0.9
						c0.2,0,0.3,0,0.4,0v1.9C199,225,198.7,225.1,198.3,225.1z"/>
					<path class="st1" d="M201.2,214.3V212h2.4v2.3H201.2z M201.3,225v-9.4h2.3v9.4H201.3z"/>
					<path class="st1" d="M213.2,223.7c-0.8,1-2,1.5-3.2,1.5c-1.3,0-2.4-0.5-3.3-1.5c-1.4-2.1-1.4-4.8,0-6.8c0.8-0.9,2-1.5,3.3-1.5
						c1.2,0,2.4,0.5,3.2,1.5c0.4,0.6,0.7,1.3,0.7,2h-2.2c0-0.3-0.1-0.6-0.3-0.9c-0.3-0.5-0.9-0.7-1.4-0.7s-1,0.2-1.4,0.6
						c-0.8,1.5-0.8,3.3,0,4.7c0.4,0.4,0.8,0.6,1.4,0.6c0.6,0,1.1-0.2,1.4-0.7c0.2-0.3,0.3-0.6,0.3-0.9h2.2
						C214,222.4,213.7,223.1,213.2,223.7z"/>
					<path class="st1" d="M169.2,244v-5.6H164v5.6h-2.3v-12.8h2.3v5h5.2v-5h2.3V244H169.2z"/>
					<path class="st1" d="M182.3,240H176c0,0.7,0.2,1.4,0.7,1.8c0.4,0.4,0.9,0.6,1.4,0.6c0.5,0.1,1-0.1,1.4-0.4
						c0.2-0.2,0.4-0.5,0.4-0.8h2.2c-0.1,0.6-0.4,1.2-0.8,1.7c-0.8,0.9-2,1.4-3.1,1.3c-1.1,0-2.2-0.4-3-1.2c-1-1-1.5-2.3-1.4-3.7
						c-0.1-1.4,0.4-2.7,1.4-3.8c0.8-0.8,1.9-1.2,3-1.2c1.4-0.1,2.7,0.6,3.4,1.7c0.6,1,0.9,2.1,0.8,3.3
						C182.3,239.4,182.3,239.8,182.3,240z M179.5,236.7c-0.9-0.8-2.2-0.7-3,0.1l0,0c-0.3,0.4-0.5,0.9-0.5,1.4h4.1
						C180.1,237.8,179.9,237.2,179.5,236.7L179.5,236.7z"/>
					<path class="st1" d="M191.4,244.1c-0.8,0.1-1.5-0.5-1.6-1.3c-0.6,0.9-1.7,1.5-2.9,1.4c-2.2,0-3.4-1.4-3.4-2.9
						c0-1.8,1.4-2.8,3.2-2.9l2.8-0.2v-0.6c0-0.9-0.3-1.5-1.6-1.5c-1,0-1.6,0.5-1.7,1.3H184c0.1-2.1,1.8-3,3.9-3c1.6,0,3,0.5,3.5,1.9
						c0.2,0.6,0.3,1.2,0.3,1.9v3.5c0,0.4,0.1,0.6,0.5,0.6c0.1,0,0.2,0,0.3,0v1.6C192.2,244.1,191.8,244.1,191.4,244.1z M189.6,239.8
						l-2.4,0.2c-0.7,0-1.3,0.5-1.4,1.2c0,0.7,0.6,1.2,1.3,1.2l0,0c1.2,0.2,2.2-0.7,2.4-1.8c0-0.1,0-0.2,0-0.3L189.6,239.8z"/>
					<path class="st1" d="M197,244.1c-1.2,0.2-2.4-0.7-2.6-1.9c0-0.2,0-0.4,0-0.6V231h2.3v10.2c0,0.5,0.1,0.9,0.9,0.9
						c0.2,0,0.2,0,0.4,0v1.9C197.7,244,197.3,244.1,197,244.1z"/>
					<path class="st1" d="M203.3,244.1c-1.4,0.2-2.7-0.9-2.8-2.3c0-0.2,0-0.4,0-0.6v-4.8h-1.7v-1.8h1.7v-2.4l2.2-0.6v2.9h2.4v1.9
						h-2.4v4.5c0,0.7,0.3,1,1,1c0.5,0,1,0,1.5-0.1v1.9C204.6,244,204,244.1,203.3,244.1z"/>
					<path class="st1" d="M212.9,244v-5.8c0-1.1-0.4-1.7-1.5-1.7c-1.4,0-1.9,1.4-1.9,2.6v4.9h-2.2v-13h2.2v4.6
						c0.6-0.8,1.6-1.2,2.6-1.2c1.7-0.1,3.1,1.3,3.2,3c0,0.1,0,0.3,0,0.4v6.2H212.9z"/>
				</g>
				<g id="Public_Health_Icon" class="st4">
					<path class="st1" d="M188.2,116.3c-23,0-41.7,18.7-41.7,41.8c0,23,18.7,41.7,41.8,41.7c23,0,41.7-18.7,41.7-41.7
						C230,135,211.3,116.3,188.2,116.3C188.3,116.3,188.3,116.3,188.2,116.3z M188.2,194.7c-20.3,0-36.8-16.5-36.8-36.8
						s16.5-36.8,36.8-36.8S225,137.7,225,158l0,0C225,178.3,208.5,194.7,188.2,194.7z"/>
					<circle class="st1" cx="202" cy="137.7" r="8.5"/>
					<path class="st1" d="M174.8,153.3c4.7,0,8.5-3.8,8.5-8.5s-3.8-8.5-8.5-8.5s-8.5,3.8-8.5,8.5S170.1,153.3,174.8,153.3
						L174.8,153.3z"/>
					<path class="st1" d="M218.9,154c-1.8-3.5-5.4-5.7-9.4-5.7h-15c-3.9,0-7.6,2.2-9.4,5.7l-1.3,2.8c-1.3-0.7-2.8-1-4.2-1h-9.5
						c-3.6,0-6.9,2-8.5,5.2l-3.8,12.2c1.2,2.3,2.6,4.5,4.3,6.4l3.4-10c0-0.1,0.2-0.2,0.3-0.1c0.1,0,0.2,0.2,0.1,0.3l-3,10.9
						c3.4,3.7,7.5,6.6,12.1,8.6l3.9-8.5c1.2-2.2,3.5-3.6,6-3.6h6.9c2.5,0,4.8,1.4,6,3.6l3.9,8.5c4.8-2.1,9.2-5.2,12.6-9.2l-0.1-17.8
						c0-0.1,0-0.3,0.2-0.3c0.1,0,0.3,0,0.3,0.2l0,0l4,11.6c1.7-3.1,2.8-6.5,3.5-10L218.9,154z M188.3,175.3c-3.3,0-6-2.7-6-6
						s2.7-6,6-6s6,2.7,6,6S191.6,175.3,188.3,175.3z"/>
					<path class="st1" d="M195.2,191.3L195.2,191.3l-1,0.2C194.5,191.4,194.9,191.3,195.2,191.3z"/>
					<path class="st1" d="M197.7,190.7l0.4-0.1C198,190.6,197.8,190.6,197.7,190.7L197.7,190.7z"/>
					<path class="st1" d="M195.2,191v0.2c0.9-0.2,1.7-0.4,2.6-0.6l-2.2-3.9C195.4,186.5,195.1,186.6,195.2,191z"/>
					<path class="st1" d="M182,186.7l-2.2,3.9c0.8,0.2,1.7,0.4,2.5,0.6V191C182.4,186.6,182.1,186.5,182,186.7z"/>
					<path class="st1" d="M179.8,190.7L179.8,190.7l-0.8-0.2L179.8,190.7z"/>
				</g>
			</g>
			
				<radialGradient id="SVGID_1_" cx="399" cy="1325" r="228" gradientTransform="matrix(1 0 0 1 0 -926)" gradientUnits="userSpaceOnUse">
				<stop  offset="0.39" style="stop-color:#FFFFFF"/>
				<stop  offset="0.46" style="stop-color:#FAFAFA;stop-opacity:0.98"/>
				<stop  offset="0.53" style="stop-color:#ECECEC;stop-opacity:0.93"/>
				<stop  offset="0.61" style="stop-color:#D6D6D6;stop-opacity:0.84"/>
				<stop  offset="0.7" style="stop-color:#B5B5B5;stop-opacity:0.71"/>
				<stop  offset="0.78" style="stop-color:#8C8C8C;stop-opacity:0.55"/>
				<stop  offset="0.87" style="stop-color:#5A5A5A;stop-opacity:0.35"/>
				<stop  offset="0.96" style="stop-color:#1F1F1F;stop-opacity:0.12"/>
				<stop  offset="1" style="stop-color:#000000;stop-opacity:0"/>
			</radialGradient>
			<circle class="st11" cx="399" cy="399" r="228"/>
		</g>
		<g id="Center_Text">
			<path class="st12" d="M317.9,378.6h-8.5v12.8h-2.3v-31.2h10.8c6,0,10.4,2.9,10.4,9.2S323.9,378.6,317.9,378.6z M317.9,362.4h-8.5
				v14h8.5c4.6,0,8-2.1,8-7S322.5,362.4,317.9,362.4z"/>
			<path class="st12" d="M341.8,371.3c-5.5,0-7,4.9-7,9.5v10.6h-2.2v-22h1.9l0.3,4.4c1.1-2.9,3.9-4.8,7-4.7c0.7,0,1.4,0,2.2,0.1v2.2
				C343.2,371.4,342.5,371.3,341.8,371.3z"/>
			<path class="st12" d="M364.7,380.9h-16.8c0,2.4,0.8,4.7,2.3,6.6c1.3,1.6,3.3,2.4,5.3,2.3c1.8,0,3.5-0.7,4.8-1.9
				c0.9-0.9,1.4-1.9,1.7-3.1h2.3c-0.3,1.8-1.2,3.4-2.5,4.6c-1.7,1.7-3.9,2.6-6.3,2.5c-2.7,0.1-5.2-1.1-7-3.1
				c-3.5-4.8-3.8-11.2-0.7-16.2c1.7-2.4,4.5-3.9,7.5-3.8c5.9,0,9.4,5.1,9.4,10.6C364.8,380,364.7,380.4,364.7,380.9z M355.3,370.9
				c-4.5,0-7.4,3.6-7.4,8h14.6C362.4,374.7,359.8,370.9,355.3,370.9L355.3,370.9z"/>
			<path class="st12" d="M377,391.4h-2.2l-8.7-22h2.5l7.4,18.9l7.1-18.9h2.3L377,391.4z"/>
			<path class="st12" d="M405.9,380.9h-16.8c0,2.4,0.8,4.7,2.3,6.6c1.3,1.6,3.3,2.4,5.3,2.3c1.8,0,3.5-0.7,4.8-1.9
				c0.9-0.9,1.4-1.9,1.7-3.1h2.3c-0.3,1.8-1.2,3.4-2.5,4.6c-1.7,1.7-3.9,2.6-6.3,2.6c-2.7,0.1-5.3-1.1-7-3.1
				c-3.5-4.8-3.8-11.2-0.7-16.2c1.7-2.4,4.5-3.9,7.5-3.8c5.9,0,9.4,5.1,9.4,10.6C405.9,380,405.9,380.4,405.9,380.9z M396.5,370.9
				c-4.5,0-7.4,3.6-7.4,8h14.6C403.6,374.7,401,370.9,396.5,370.9L396.5,370.9z"/>
			<path class="st12" d="M426.4,391.4V377c0-3.8-1.7-6-5.7-6c-5.4,0-7.3,4.7-7.3,9.4v11h-2.2v-22h1.9l0.3,4c1.4-2.8,4.3-4.6,7.4-4.6
				c5.1,0,7.8,3.1,7.8,8.1v14.5H426.4z"/>
			<path class="st12" d="M442.3,391.7c-4.1,0-5.7-2.6-5.7-6.4v-13.9h-4.4v-2h4.4v-6.1l2.2-0.5v6.6h6.8v2h-6.8v13.8
				c0,2.6,0.7,4.5,3.6,4.5c1.2,0,2.3-0.2,3.5-0.4v1.9C444.7,391.5,443.5,391.7,442.3,391.7z"/>
			<path class="st12" d="M450.3,363.3v-3.1h3.1v3.1H450.3z M450.7,391.4v-22h2.3v22H450.7z"/>
			<path class="st12" d="M467.8,391.4h-2.2l-8.7-22h2.5l7.4,18.9l7.1-18.9h2.3L467.8,391.4z"/>
			<path class="st12" d="M496.7,380.9h-16.8c0,2.4,0.8,4.7,2.3,6.6c1.3,1.6,3.3,2.4,5.3,2.3c1.8,0,3.5-0.7,4.8-1.9
				c0.9-0.9,1.4-1.9,1.7-3.1h2.3c-0.3,1.8-1.2,3.4-2.5,4.6c-1.7,1.7-3.9,2.6-6.3,2.5c-2.7,0.1-5.3-1.1-7-3.1
				c-3.5-4.8-3.8-11.2-0.7-16.2c1.7-2.4,4.5-3.9,7.5-3.8c5.9,0,9.4,5.1,9.4,10.6C496.8,380,496.7,380.4,496.7,380.9z M487.3,370.9
				c-4.5,0-7.4,3.6-7.4,8h14.6C494.4,374.7,491.8,370.9,487.3,370.9L487.3,370.9z"/>
			<path class="st12" d="M345.6,435.4v-27.9L334.2,435h-2l-11.4-27.2v27.7h-2.2v-31.2h3.2l11.5,27.7l11.3-27.7h3.2v31.2L345.6,435.4
				z"/>
			<path class="st12" d="M372.8,424.9H356c0,2.4,0.8,4.7,2.3,6.6c1.3,1.6,3.3,2.4,5.3,2.3c1.8,0,3.5-0.7,4.8-1.9
				c0.9-0.9,1.4-1.9,1.7-3.1h2.3c-0.3,1.8-1.2,3.4-2.5,4.6c-1.7,1.7-3.9,2.6-6.3,2.5c-2.7,0.1-5.3-1.1-7-3.1
				c-3.5-4.8-3.8-11.2-0.7-16.2c1.7-2.4,4.5-3.9,7.5-3.8c5.9,0,9.4,5.1,9.4,10.6C372.8,424,372.8,424.4,372.8,424.9z M363.4,414.9
				c-4.5,0-7.4,3.6-7.4,8h14.6C370.5,418.7,367.9,414.9,363.4,414.9L363.4,414.9z"/>
			<path class="st12" d="M393.1,435.4l-0.3-3.9c-1.4,2.8-4.2,4.5-7.3,4.5c-2.1,0.1-4.2-0.7-5.9-2.1c-2.5-2.1-3.6-5.7-3.6-9.5
				c0-3.6,1.1-7.1,3.4-9.3c3.5-3.2,9-3,12.2,0.5c0.4,0.5,0.8,0.9,1.1,1.5v-13.5h2.2v31.8H393.1z M390.1,416.7
				c-1.2-1.2-2.9-1.8-4.6-1.7c-1.8-0.1-3.5,0.7-4.7,1.9c-1.7,2.1-2.6,4.8-2.5,7.5c0,3.1,0.9,6.1,2.9,7.9c1.2,1,2.8,1.6,4.4,1.5
				c1.7,0,3.3-0.6,4.5-1.8c1.9-2.1,3-4.8,2.8-7.6C392.9,421.1,392.1,418.6,390.1,416.7L390.1,416.7z"/>
			<path class="st12" d="M402.2,407.3v-3.1h3.1v3.1H402.2z M402.6,435.4v-22h2.4v22H402.6z"/>
			<path class="st12" d="M420.2,436c-2.4,0-4.8-0.9-6.5-2.6c-2.3-2.3-3.1-5.2-3.1-9s0.8-6.7,3.1-9c1.7-1.7,4.1-2.6,6.5-2.6
				c4.4-0.2,8.1,3.1,8.5,7.4h-2.3c-0.4-3.1-3.1-5.4-6.2-5.3c-1.8-0.1-3.6,0.6-4.9,1.9c-2,2.1-2.4,4.7-2.4,7.5s0.4,5.5,2.4,7.6
				c1.3,1.3,3.1,1.9,4.9,1.9c3.1,0,5.8-2.3,6.2-5.4h2.3C428.3,432.8,424.6,436.1,420.2,436z"/>
			<path class="st12" d="M433.5,407.3v-3.1h3.1v3.1H433.5z M433.9,435.4v-22h2.3v22H433.9z"/>
			<path class="st12" d="M459,435.4V421c0-3.8-1.7-6-5.7-6c-5.4,0-7.3,4.7-7.3,9.4v11h-2.2v-22h1.9l0.3,4c1.4-2.8,4.3-4.6,7.4-4.6
				c5.1,0,7.8,3.1,7.8,8.1v14.5H459z"/>
			<path class="st12" d="M485.3,424.9h-16.8c0,2.4,0.8,4.7,2.3,6.6c1.3,1.6,3.3,2.4,5.3,2.3c1.8,0,3.5-0.7,4.8-1.9
				c0.9-0.9,1.4-1.9,1.7-3.1h2.3c-0.3,1.8-1.2,3.4-2.5,4.6c-1.7,1.7-3.9,2.6-6.3,2.6c-2.7,0.1-5.2-1.1-7-3.1
				c-3.5-4.8-3.8-11.2-0.7-16.2c1.7-2.4,4.5-3.9,7.5-3.8c5.9,0,9.4,5.1,9.4,10.6C485.3,424,485.3,424.4,485.3,424.9z M475.9,414.9
				c-4.5,0-7.4,3.6-7.4,8h14.6C483,418.7,480.4,414.9,475.9,414.9L475.9,414.9z"/>
		</g>
	</g>
</g>
<g id="Layer_2_1_">
</g>
</svg>
