<svg xmlns="http://www.w3.org/2000/svg" xmlns:xlink="http://www.w3.org/1999/xlink" viewBox="0 0 800 800"><defs><style>.cls-1{isolation:isolate;}.cls-2{fill:#ca7c1b;mix-blend-mode:multiply;}.cls-3{fill:#5091cd;}.cls-4{fill:#008656;}.cls-5{fill:#765da0;}.cls-6{fill:#007fa4;}.cls-6,.cls-7,.cls-8,.cls-9{mix-blend-mode:soft-light;}.cls-7{fill:#58b947;}.cls-8{fill:#d85820;}.cls-9{fill:#482476;}.cls-10{mix-blend-mode:screen;fill:url(#radial-gradient);}.cls-11,.cls-14{fill:#fff;}.cls-12{fill:#514689;}.cls-13,.cls-14{opacity:0.5;mix-blend-mode:lighten;}</style><radialGradient id="radial-gradient" cx="399" cy="399" r="228" gradientUnits="userSpaceOnUse"><stop offset="0.39" stop-color="#fff"/><stop offset="0.46" stop-color="#fafafa" stop-opacity="0.98"/><stop offset="0.53" stop-color="#ececec" stop-opacity="0.93"/><stop offset="0.61" stop-color="#d6d6d6" stop-opacity="0.84"/><stop offset="0.7" stop-color="#b5b5b5" stop-opacity="0.71"/><stop offset="0.78" stop-color="#8c8c8c" stop-opacity="0.55"/><stop offset="0.87" stop-color="#5a5a5a" stop-opacity="0.35"/><stop offset="0.96" stop-color="#1f1f1f" stop-opacity="0.12"/><stop offset="1" stop-opacity="0"/></radialGradient></defs><title>prev-med-ring-jewel</title><g class="cls-1"><g id="Layer_1" data-name="Layer 1"><path class="cls-2" d="M359.44,625.18a89.51,89.51,0,1,0,82.87,0A228.73,228.73,0,0,0,531,588.58c-28.37-59.7-76.05-98.89-130.1-98.89s-101.72,39.19-130.09,98.89A228.73,228.73,0,0,0,359.44,625.18Z"/><path class="cls-3" d="M442.31,172.82a89.51,89.51,0,1,0-82.87,0,228.73,228.73,0,0,0-88.66,36.6c28.37,59.7,76.05,98.89,130.1,98.89S502.6,269.12,531,209.42A228.73,228.73,0,0,0,442.31,172.82Z"/><path class="cls-4" d="M627.18,440.44a89.5,89.5,0,1,0,0-82.88,228.8,228.8,0,0,0-36.6-88.66C530.88,297.27,491.69,345,491.69,399s39.19,101.73,98.89,130.1A228.8,228.8,0,0,0,627.18,440.44Z"/><path class="cls-5" d="M174.82,357.56a89.5,89.5,0,1,0,0,82.88,228.8,228.8,0,0,0,36.6,88.66c59.7-28.37,98.89-76.05,98.89-130.1s-39.19-101.73-98.89-130.1A228.8,228.8,0,0,0,174.82,357.56Z"/><path class="cls-6" d="M590.24,268.37a89.51,89.51,0,1,0-58.61-58.61A228.68,228.68,0,0,0,443.06,173c-22.15,62.28-16.14,123.7,22.07,161.92s99.64,44.22,161.92,22.07A228.68,228.68,0,0,0,590.24,268.37Z"/><path class="cls-7" d="M531.63,588.24a89.51,89.51,0,1,0,58.61-58.61,228.68,228.68,0,0,0,36.81-88.57c-62.28-22.15-123.7-16.14-161.92,22.07s-44.22,99.64-22.07,161.92A228.68,228.68,0,0,0,531.63,588.24Z"/><path class="cls-8" d="M211.76,529.63a89.51,89.51,0,1,0,58.61,58.61,228.68,228.68,0,0,0,88.57,36.81c22.15-62.28,16.14-123.7-22.07-161.92S237.23,418.91,175,441.06A228.68,228.68,0,0,0,211.76,529.63Z"/><path class="cls-9" d="M270.37,209.76a89.51,89.51,0,1,0-58.61,58.61A228.68,228.68,0,0,0,175,356.94c62.28,22.15,123.7,16.14,161.92-22.07S381.09,235.23,358.94,173A228.68,228.68,0,0,0,270.37,209.76Z"/><circle class="cls-10" cx="399" cy="399" r="228"/></g><g id="text"><path class="cls-11" d="M365.1,121.12a5.38,5.38,0,0,1-3.4.86h-5.08V109.2h5.08a5.38,5.38,0,0,1,2.95.7,3.3,3.3,0,0,1,1.48,2.77,2.89,2.89,0,0,1-1.57,2.7,3.12,3.12,0,0,1,1.84,2.88A3.45,3.45,0,0,1,365.1,121.12Zm-3.31-9.93h-2.86v3.21h2.91c1.05,0,1.93-.38,1.93-1.58S362.83,111.19,361.79,111.19Zm.07,5.15h-2.93v3.55h2.86c1.08,0,2.25-.39,2.25-1.69S363.08,116.34,361.86,116.34Z"/><path class="cls-11" d="M376.39,118h-6.27a2.47,2.47,0,0,0,.69,1.84,1.94,1.94,0,0,0,1.38.58,1.76,1.76,0,0,0,1.37-.45,1.68,1.68,0,0,0,.45-.8h2.16a3.65,3.65,0,0,1-.79,1.73,4.38,4.38,0,0,1-6.1.16,5.05,5.05,0,0,1-1.45-3.74,5.27,5.27,0,0,1,1.36-3.75,4,4,0,0,1,3-1.18,4,4,0,0,1,3.43,1.72,5.34,5.34,0,0,1,.81,3.26S376.39,117.78,376.39,118Zm-2.81-3.27a1.87,1.87,0,0,0-1.42-.54,1.89,1.89,0,0,0-1.57.72,2.3,2.3,0,0,0-.49,1.45h4A2.37,2.37,0,0,0,373.58,114.71Z"/><path class="cls-11" d="M384.23,122v-5.78c0-1.08-.35-1.74-1.54-1.74-1.35,0-1.93,1.44-1.93,2.59V122h-2.25V109h2.25v4.63a3.14,3.14,0,0,1,2.56-1.22,3.07,3.07,0,0,1,3.16,3.34V122Z"/><path class="cls-11" d="M396.19,122.11a1.47,1.47,0,0,1-1.59-1.32,3.27,3.27,0,0,1-2.84,1.41c-2.24,0-3.39-1.41-3.39-2.94,0-1.78,1.39-2.81,3.17-2.93l2.75-.2v-.58c0-.88-.3-1.47-1.58-1.47-1,0-1.66.46-1.71,1.33h-2.18c.13-2.11,1.8-3,3.89-3,1.6,0,3,.5,3.51,1.9a5.07,5.07,0,0,1,.27,1.89v3.48c0,.43.15.59.52.59a1.57,1.57,0,0,0,.29,0v1.65A2.17,2.17,0,0,1,396.19,122.11Zm-1.9-4.31-2.37.18a1.32,1.32,0,0,0-1.35,1.23,1.23,1.23,0,0,0,1.33,1.17,2.12,2.12,0,0,0,2.39-2.15Z"/><path class="cls-11" d="M403.6,122h-2.39l-3.48-9.36h2.38l2.34,6.59,2.21-6.59H407Z"/><path class="cls-11" d="M408.35,111.3V109h2.42v2.32Zm.07,10.66V112.6h2.29V122Z"/><path class="cls-11" d="M420.54,120.74a4.4,4.4,0,0,1-6.55,0,6,6,0,0,1,0-6.92,4.42,4.42,0,0,1,6.55,0,6,6,0,0,1,0,6.92Zm-1.85-5.82a2,2,0,0,0-2.85,0,4.49,4.49,0,0,0,0,4.72,2,2,0,0,0,2.85,0,4.55,4.55,0,0,0,0-4.72Z"/><path class="cls-11" d="M428.48,114.6a2.36,2.36,0,0,0-2.42,2.64V122h-2.27V112.6h1.92l.19,1.4a2.69,2.69,0,0,1,2.65-1.53,4.14,4.14,0,0,1,.7.06v2.16A3.37,3.37,0,0,0,428.48,114.6Z"/><path class="cls-11" d="M437.77,122.11a1.47,1.47,0,0,1-1.59-1.32,3.27,3.27,0,0,1-2.84,1.41c-2.24,0-3.39-1.41-3.39-2.94,0-1.78,1.39-2.81,3.17-2.93l2.76-.2v-.58c0-.88-.31-1.47-1.59-1.47-1,0-1.66.46-1.71,1.33H430.4c.13-2.11,1.8-3,3.89-3,1.6,0,3,.5,3.51,1.9a5.07,5.07,0,0,1,.27,1.89v3.48c0,.43.14.59.52.59a1.57,1.57,0,0,0,.29,0v1.65A2.2,2.2,0,0,1,437.77,122.11Zm-1.89-4.31-2.38.18a1.32,1.32,0,0,0-1.35,1.23,1.23,1.23,0,0,0,1.33,1.17,2.13,2.13,0,0,0,2.4-2.15Z"/><path class="cls-11" d="M443.34,122.07a2.27,2.27,0,0,1-2.55-2.52V108.94h2.27v10.23c0,.54.12.9.9.9.19,0,.25,0,.37,0v1.89A3.74,3.74,0,0,1,443.34,122.07Z"/><path class="cls-11" d="M373.48,141v-9.11l-3.31,8.93h-1.71l-3.3-9V141h-2.25V128.2H366l3.35,9.09,3.37-9.09h3V141Z"/><path class="cls-11" d="M386.53,137h-6.27a2.51,2.51,0,0,0,.69,1.84,1.94,1.94,0,0,0,1.38.58,1.76,1.76,0,0,0,1.37-.45,1.68,1.68,0,0,0,.45-.8h2.16a3.65,3.65,0,0,1-.79,1.73,4,4,0,0,1-3.15,1.32,4.05,4.05,0,0,1-2.95-1.16A5,5,0,0,1,378,136.3a5.26,5.26,0,0,1,1.35-3.75,4.05,4.05,0,0,1,3-1.18,4,4,0,0,1,3.42,1.72,5.34,5.34,0,0,1,.81,3.26S386.53,136.78,386.53,137Zm-2.81-3.27a1.84,1.84,0,0,0-1.42-.54,1.92,1.92,0,0,0-1.57.72,2.24,2.24,0,0,0-.48,1.45h4.05A2.42,2.42,0,0,0,383.72,133.71Z"/><path class="cls-11" d="M394.72,141l-.15-1a3,3,0,0,1-2.62,1.24,3.63,3.63,0,0,1-2.29-.79A5,5,0,0,1,388,136.3a5.13,5.13,0,0,1,1.68-4.18,3.49,3.49,0,0,1,2.28-.75,3.14,3.14,0,0,1,2.45.88V128h2.25v13Zm-2.32-7.7a1.87,1.87,0,0,0-1.52.73,3.81,3.81,0,0,0-.59,2.27,3.85,3.85,0,0,0,.59,2.29,1.87,1.87,0,0,0,1.52.74c1.76,0,2.12-1.68,2.12-3S394.16,133.26,392.4,133.26Z"/><path class="cls-11" d="M399.43,130.3V128h2.42v2.32Zm.08,10.66V131.6h2.28V141Z"/><path class="cls-11" d="M411.46,139.68a4.1,4.1,0,0,1-3.21,1.48,4.26,4.26,0,0,1-3.26-1.48,6.24,6.24,0,0,1,0-6.84,4.28,4.28,0,0,1,3.26-1.47,4.09,4.09,0,0,1,3.21,1.47,3.73,3.73,0,0,1,.72,2H410a1.79,1.79,0,0,0-.26-.87,1.67,1.67,0,0,0-1.45-.7,1.82,1.82,0,0,0-1.37.58,4.82,4.82,0,0,0,0,4.73,1.84,1.84,0,0,0,1.37.6,1.65,1.65,0,0,0,1.45-.71,1.75,1.75,0,0,0,.26-.86h2.22A3.67,3.67,0,0,1,411.46,139.68Z"/><path class="cls-11" d="M414.14,130.3V128h2.41v2.32Zm.07,10.66V131.6h2.29V141Z"/><path class="cls-11" d="M425.05,141v-5.74c0-1.1-.36-1.77-1.55-1.77a1.77,1.77,0,0,0-1.62,1.19,6.4,6.4,0,0,0-.31,2.5V141h-2.25V131.6h1.89l.17,1.21a3.23,3.23,0,0,1,5.92,1.9V141Z"/><path class="cls-11" d="M437.86,137H431.6a2.47,2.47,0,0,0,.68,1.84,2,2,0,0,0,1.39.58,1.64,1.64,0,0,0,1.82-1.25h2.16a3.85,3.85,0,0,1-.79,1.73,4,4,0,0,1-3.15,1.32,4.08,4.08,0,0,1-3-1.16,5.09,5.09,0,0,1-1.44-3.74,5.26,5.26,0,0,1,1.35-3.75,4.05,4.05,0,0,1,3-1.18,3.94,3.94,0,0,1,3.42,1.72,5.21,5.21,0,0,1,.81,3.26S437.86,136.78,437.86,137Zm-2.81-3.27a1.84,1.84,0,0,0-1.42-.54,1.88,1.88,0,0,0-1.56.72,2.25,2.25,0,0,0-.49,1.45h4.05A2.37,2.37,0,0,0,435.05,133.71Z"/><path class="cls-11" d="M168.43,220.39h-2.7V225h-2.3V212.2h5c2.94,0,4.51,1.63,4.51,4.08S171.37,220.39,168.43,220.39Zm-.09-6.16h-2.61v4.12h2.61c1.55,0,2.25-.82,2.25-2A2,2,0,0,0,168.34,214.23Z"/><path class="cls-11" d="M180.33,225l-.16-1.22a2.88,2.88,0,0,1-2.68,1.46,3.09,3.09,0,0,1-3.24-3.35V215.6h2.25v5.74c0,1.1.43,1.79,1.62,1.79a1.55,1.55,0,0,0,1.15-.47,2.88,2.88,0,0,0,.68-2.11v-5h2.26V225Z"/><path class="cls-11" d="M192,224.39a3.58,3.58,0,0,1-2.27.79,3.06,3.06,0,0,1-2.63-1.24l-.14,1h-2V212h2.25v4.32a3.21,3.21,0,0,1,2.45-.91,3.52,3.52,0,0,1,2.29.75,5.16,5.16,0,0,1,1.67,4.18A5.07,5.07,0,0,1,192,224.39Zm-1.21-6.4a1.85,1.85,0,0,0-1.51-.73c-1.77,0-2.13,1.65-2.13,3a3.52,3.52,0,0,0,.81,2.56,2,2,0,0,0,2.83-.27,3.78,3.78,0,0,0,.59-2.29A3.74,3.74,0,0,0,190.79,218Z"/><path class="cls-11" d="M198.33,225.07a2.27,2.27,0,0,1-2.55-2.52V211.94H198v10.23c0,.54.13.9.9.9.2,0,.26,0,.38,0v1.89A3.74,3.74,0,0,1,198.33,225.07Z"/><path class="cls-11" d="M201.23,214.3V212h2.41v2.32ZM201.3,225V215.6h2.29V225Z"/><path class="cls-11" d="M213.25,223.68a4.08,4.08,0,0,1-3.2,1.48,4.26,4.26,0,0,1-3.26-1.48,6.19,6.19,0,0,1,0-6.84,4.28,4.28,0,0,1,3.26-1.47,4.07,4.07,0,0,1,3.2,1.47,3.58,3.58,0,0,1,.72,2h-2.21a1.9,1.9,0,0,0-.27-.87,1.65,1.65,0,0,0-1.44-.7,1.82,1.82,0,0,0-1.37.58,4.75,4.75,0,0,0,0,4.73,1.84,1.84,0,0,0,1.37.6,1.63,1.63,0,0,0,1.44-.71,1.86,1.86,0,0,0,.27-.86H214A3.52,3.52,0,0,1,213.25,223.68Z"/><path class="cls-11" d="M169.16,244V238.4h-5.24V244H161.6V231.2h2.32v5h5.24v-5h2.33V244Z"/><path class="cls-11" d="M182.29,240H176a2.44,2.44,0,0,0,.69,1.84,1.94,1.94,0,0,0,1.38.58,1.76,1.76,0,0,0,1.37-.45,1.68,1.68,0,0,0,.45-.8h2.16a3.65,3.65,0,0,1-.79,1.73,4,4,0,0,1-3.15,1.32,4.08,4.08,0,0,1-3-1.16,5.09,5.09,0,0,1-1.44-3.74,5.26,5.26,0,0,1,1.35-3.75,4.07,4.07,0,0,1,3-1.18,3.94,3.94,0,0,1,3.42,1.72,5.21,5.21,0,0,1,.81,3.26S182.29,239.78,182.29,240Zm-2.81-3.27a2.1,2.1,0,0,0-3,.18,2.25,2.25,0,0,0-.49,1.45h4.05A2.37,2.37,0,0,0,179.48,236.71Z"/><path class="cls-11" d="M191.45,244.11a1.48,1.48,0,0,1-1.59-1.32A3.27,3.27,0,0,1,187,244.2c-2.23,0-3.39-1.41-3.39-2.94,0-1.78,1.39-2.81,3.17-2.93l2.76-.2v-.58c0-.88-.31-1.47-1.59-1.47-1,0-1.65.46-1.71,1.33h-2.18c.13-2.11,1.8-3,3.89-3,1.61,0,3,.5,3.51,1.9a5.07,5.07,0,0,1,.27,1.89v3.48c0,.43.15.59.53.59a1.53,1.53,0,0,0,.28,0v1.65A2.14,2.14,0,0,1,191.45,244.11Zm-1.89-4.31-2.38.18a1.32,1.32,0,0,0-1.35,1.23,1.23,1.23,0,0,0,1.33,1.17,2.12,2.12,0,0,0,2.4-2.15Z"/><path class="cls-11" d="M197,244.07a2.27,2.27,0,0,1-2.56-2.52V230.94h2.27v10.23c0,.54.12.9.9.9.2,0,.25,0,.38,0v1.89A3.74,3.74,0,0,1,197,244.07Z"/><path class="cls-11" d="M203.33,244.09a2.57,2.57,0,0,1-2.83-2.88v-4.76h-1.71V234.6h1.71v-2.38l2.25-.56v2.94h2.36v1.85h-2.36V241c0,.72.32,1,1,1a11.59,11.59,0,0,0,1.46-.09v1.89A7.72,7.72,0,0,1,203.33,244.09Z"/><path class="cls-11" d="M212.88,244v-5.78c0-1.08-.36-1.74-1.54-1.74-1.35,0-1.93,1.44-1.93,2.59V244h-2.25V231h2.25v4.63a3.14,3.14,0,0,1,2.56-1.22,3.07,3.07,0,0,1,3.17,3.34V244Z"/><path class="cls-11" d="M371.05,763l-5.53-8.77V763h-2.28V750.2h2.46l5.46,8.64V750.2h2.29V763Z"/><path class="cls-11" d="M382.28,763l-.16-1.22a2.89,2.89,0,0,1-2.68,1.46,3.09,3.09,0,0,1-3.24-3.35V753.6h2.25v5.74c0,1.1.43,1.78,1.62,1.78a1.54,1.54,0,0,0,1.15-.46,2.88,2.88,0,0,0,.68-2.11V753.6h2.25V763Z"/><path class="cls-11" d="M390.33,763.09a2.57,2.57,0,0,1-2.83-2.88v-4.76h-1.71V753.6h1.71v-2.38l2.25-.56v2.94h2.36v1.85h-2.36V760c0,.72.32,1,1,1a11.59,11.59,0,0,0,1.46-.09v1.89A7.72,7.72,0,0,1,390.33,763.09Z"/><path class="cls-11" d="M398.84,755.6a2.36,2.36,0,0,0-2.41,2.64V763h-2.27V753.6h1.91l.2,1.4a2.68,2.68,0,0,1,2.64-1.53,4.25,4.25,0,0,1,.71.06v2.16A3.53,3.53,0,0,0,398.84,755.6Z"/><path class="cls-11" d="M401.23,752.3V750h2.42v2.32ZM401.3,763V753.6h2.29V763Z"/><path class="cls-11" d="M409.78,763.09a2.56,2.56,0,0,1-2.82-2.88v-4.76h-1.71V753.6H407v-2.38l2.25-.56v2.94h2.36v1.85h-2.36V760c0,.72.32,1,1,1a11.59,11.59,0,0,0,1.46-.09v1.89A7.74,7.74,0,0,1,409.78,763.09Z"/><path class="cls-11" d="M413.58,752.3V750H416v2.32Zm.07,10.66V753.6h2.29V763Z"/><path class="cls-11" d="M425.77,761.74a4.41,4.41,0,0,1-6.56,0,6,6,0,0,1,0-6.92,4.43,4.43,0,0,1,6.56,0,6,6,0,0,1,0,6.92Zm-1.86-5.82a2,2,0,0,0-2.84,0,4.49,4.49,0,0,0,0,4.72,2,2,0,0,0,2.84,0,4.49,4.49,0,0,0,0-4.72Z"/><path class="cls-11" d="M434.75,763v-5.74c0-1.1-.36-1.77-1.55-1.77a1.77,1.77,0,0,0-1.62,1.19,6.59,6.59,0,0,0-.3,2.5V763H429V753.6h1.89l.17,1.21a3.23,3.23,0,0,1,5.92,1.9V763Z"/><path class="cls-11" d="M577.83,221.12a5.38,5.38,0,0,1-3.4.86h-5.08V209.2h5.08a5.4,5.4,0,0,1,3,.7,3.32,3.32,0,0,1,1.48,2.77,2.89,2.89,0,0,1-1.57,2.7,3.11,3.11,0,0,1,1.83,2.88A3.44,3.44,0,0,1,577.83,221.12Zm-3.31-9.93h-2.87v3.21h2.92c1,0,1.93-.38,1.93-1.58S575.56,211.19,574.52,211.19Zm.07,5.15h-2.94v3.55h2.87c1.08,0,2.25-.39,2.25-1.69S575.81,216.34,574.59,216.34Z"/><path class="cls-11" d="M581.17,211.3V209h2.42v2.32Zm.08,10.66V212.6h2.28V222Z"/><path class="cls-11" d="M593.36,220.74a4.4,4.4,0,0,1-6.55,0,6,6,0,0,1,0-6.92,4.42,4.42,0,0,1,6.55,0,6,6,0,0,1,0,6.92Zm-1.85-5.82a2,2,0,0,0-2.85,0,4.55,4.55,0,0,0,0,4.72,2,2,0,0,0,2.85,0,4.55,4.55,0,0,0,0-4.72Z"/><path class="cls-11" d="M603.08,221.12a4.49,4.49,0,0,1-3.2,1.08,4.33,4.33,0,0,1-3-1.08,3.12,3.12,0,0,1-1-2.18H598a1.52,1.52,0,0,0,.5,1.1,2.15,2.15,0,0,0,1.42.41c.76,0,1.91-.16,1.91-1.19a1,1,0,0,0-.93-1c-.83-.13-1.77-.18-2.6-.36a2.6,2.6,0,0,1-2.14-2.5,2.67,2.67,0,0,1,1-2.11,4.29,4.29,0,0,1,2.84-.93,4.08,4.08,0,0,1,2.94,1.09,2.94,2.94,0,0,1,.82,1.93h-2.14a1.25,1.25,0,0,0-.38-.88,1.79,1.79,0,0,0-1.22-.43,2.36,2.36,0,0,0-1,.14,1.06,1.06,0,0,0-.72,1c0,.67.57.86,1.08.94.84.1,1.08.12,2,.27a2.7,2.7,0,0,1,2.55,2.64A2.8,2.8,0,0,1,603.08,221.12Z"/><path class="cls-11" d="M609.27,222.09a2.56,2.56,0,0,1-2.82-2.88v-4.76h-1.71V212.6h1.71v-2.38l2.25-.56v2.94h2.35v1.85H608.7V219c0,.72.32,1,1,1a11.59,11.59,0,0,0,1.46-.09v1.89A7.74,7.74,0,0,1,609.27,222.09Z"/><path class="cls-11" d="M620.15,222.11a1.47,1.47,0,0,1-1.59-1.32,3.27,3.27,0,0,1-2.84,1.41c-2.24,0-3.39-1.41-3.39-2.94,0-1.78,1.39-2.81,3.17-2.93l2.76-.2v-.58c0-.88-.31-1.47-1.59-1.47-1,0-1.65.46-1.71,1.33h-2.18c.13-2.11,1.8-3,3.89-3,1.6,0,3,.5,3.51,1.9a5.07,5.07,0,0,1,.27,1.89v3.48c0,.43.15.59.52.59a1.57,1.57,0,0,0,.29,0v1.65A2.17,2.17,0,0,1,620.15,222.11Zm-1.89-4.31-2.38.18a1.32,1.32,0,0,0-1.35,1.23,1.23,1.23,0,0,0,1.33,1.17,2.12,2.12,0,0,0,2.4-2.15Z"/><path class="cls-11" d="M626.5,222.09a2.57,2.57,0,0,1-2.83-2.88v-4.76H622V212.6h1.71v-2.38l2.25-.56v2.94h2.36v1.85h-2.36V219c0,.72.33,1,1.05,1a11.7,11.7,0,0,0,1.46-.09v1.89A7.8,7.8,0,0,1,626.5,222.09Z"/><path class="cls-11" d="M630.3,211.3V209h2.41v2.32Zm.07,10.66V212.6h2.29V222Z"/><path class="cls-11" d="M641.94,221.12a4.47,4.47,0,0,1-3.2,1.08,4.33,4.33,0,0,1-3-1.08,3.12,3.12,0,0,1-1-2.18h2.11a1.56,1.56,0,0,0,.5,1.1,2.18,2.18,0,0,0,1.43.41c.75,0,1.91-.16,1.91-1.19a1,1,0,0,0-.94-1c-.83-.13-1.77-.18-2.59-.36a2.6,2.6,0,0,1-2.15-2.5,2.67,2.67,0,0,1,1-2.11,4.29,4.29,0,0,1,2.84-.93,4.08,4.08,0,0,1,2.94,1.09,3,3,0,0,1,.83,1.93h-2.15a1.29,1.29,0,0,0-.37-.88,1.82,1.82,0,0,0-1.23-.43,2.38,2.38,0,0,0-1,.14,1.06,1.06,0,0,0-.72,1c0,.67.58.86,1.08.94.84.1,1.08.12,2,.27a2.7,2.7,0,0,1,2.55,2.64A2.8,2.8,0,0,1,641.94,221.12Z"/><path class="cls-11" d="M648.13,222.09a2.56,2.56,0,0,1-2.82-2.88v-4.76H643.6V212.6h1.71v-2.38l2.25-.56v2.94h2.36v1.85h-2.36V219c0,.72.32,1,1,1a11.59,11.59,0,0,0,1.46-.09v1.89A7.74,7.74,0,0,1,648.13,222.09Z"/><path class="cls-11" d="M651.93,211.3V209h2.42v2.32ZM652,222V212.6h2.29V222Z"/><path class="cls-11" d="M664,220.68a4.1,4.1,0,0,1-3.21,1.48,4.26,4.26,0,0,1-3.26-1.48,6.24,6.24,0,0,1,0-6.84,4.28,4.28,0,0,1,3.26-1.47,4.09,4.09,0,0,1,3.21,1.47,3.73,3.73,0,0,1,.72,2h-2.22a1.69,1.69,0,0,0-.27-.87,1.64,1.64,0,0,0-1.44-.7,1.82,1.82,0,0,0-1.37.58,4.75,4.75,0,0,0,0,4.73,1.84,1.84,0,0,0,1.37.6,1.62,1.62,0,0,0,1.44-.71,1.65,1.65,0,0,0,.27-.86h2.22A3.67,3.67,0,0,1,664,220.68Z"/><path class="cls-11" d="M673.14,221.12a4.51,4.51,0,0,1-3.21,1.08,4.29,4.29,0,0,1-3-1.08,3.12,3.12,0,0,1-1-2.18H668a1.53,1.53,0,0,0,.51,1.1,2.13,2.13,0,0,0,1.42.41c.76,0,1.91-.16,1.91-1.19a1,1,0,0,0-.94-1c-.83-.13-1.76-.18-2.59-.36a2.59,2.59,0,0,1-2.14-2.5,2.66,2.66,0,0,1,.95-2.11,4.34,4.34,0,0,1,2.85-.93,4.06,4.06,0,0,1,2.93,1.09,2.91,2.91,0,0,1,.83,1.93h-2.14a1.25,1.25,0,0,0-.38-.88,1.82,1.82,0,0,0-1.23-.43,2.41,2.41,0,0,0-1,.14,1.08,1.08,0,0,0-.72,1c0,.67.58.86,1.08.94.85.1,1.08.12,2,.27a2.7,2.7,0,0,1,2.56,2.64A2.84,2.84,0,0,1,673.14,221.12Z"/><path class="cls-11" d="M59.1,427.84a5.32,5.32,0,0,1-3.4.87H50.62V415.92H55.7a5.36,5.36,0,0,1,2.95.71,3.3,3.3,0,0,1,1.48,2.77,2.91,2.91,0,0,1-1.57,2.7A3.12,3.12,0,0,1,60.4,425,3.42,3.42,0,0,1,59.1,427.84Zm-3.31-9.92H52.93v3.21h2.91c1,0,1.93-.38,1.93-1.59S56.83,417.92,55.79,417.92Zm.07,5.15H52.93v3.55h2.86c1.08,0,2.25-.4,2.25-1.69S57.09,423.07,55.86,423.07Z"/><path class="cls-11" d="M70.39,424.71H64.12a2.51,2.51,0,0,0,.69,1.84,2,2,0,0,0,1.38.57,1.72,1.72,0,0,0,1.37-.45,1.65,1.65,0,0,0,.45-.79h2.16a3.65,3.65,0,0,1-.79,1.73,4,4,0,0,1-3.15,1.31,4.07,4.07,0,0,1-3-1.15A5,5,0,0,1,61.84,424a5.26,5.26,0,0,1,1.35-3.75,4.06,4.06,0,0,1,3-1.19,4,4,0,0,1,3.42,1.73,5.34,5.34,0,0,1,.81,3.26S70.39,424.51,70.39,424.71Zm-2.81-3.28a2.1,2.1,0,0,0-3,.18,2.29,2.29,0,0,0-.48,1.46h4A2.47,2.47,0,0,0,67.58,421.43Z"/><path class="cls-11" d="M78.23,428.69v-5.78c0-1.08-.35-1.75-1.54-1.75-1.35,0-1.93,1.44-1.93,2.6v4.93H72.51v-13h2.25v4.63a3.15,3.15,0,0,1,2.56-1.23,3.08,3.08,0,0,1,3.17,3.35v6.25Z"/><path class="cls-11" d="M90.19,428.83a1.47,1.47,0,0,1-1.59-1.31,3.26,3.26,0,0,1-2.84,1.4c-2.23,0-3.39-1.4-3.39-2.93,0-1.78,1.39-2.81,3.17-2.94l2.76-.19v-.58c0-.88-.31-1.48-1.59-1.48-1,0-1.65.47-1.71,1.34H82.82c.13-2.11,1.8-3.05,3.89-3.05,1.6,0,3,.51,3.51,1.91a5.07,5.07,0,0,1,.27,1.89v3.48c0,.43.15.59.53.59a1.53,1.53,0,0,0,.28,0v1.65A2.25,2.25,0,0,1,90.19,428.83Zm-1.89-4.3-2.38.18a1.32,1.32,0,0,0-1.35,1.23,1.23,1.23,0,0,0,1.33,1.17A2.12,2.12,0,0,0,88.3,425Z"/><path class="cls-11" d="M97.6,428.69H95.21l-3.48-9.36h2.38l2.34,6.59,2.21-6.59H101Z"/><path class="cls-11" d="M102.35,418v-2.32h2.42V418Zm.08,10.66v-9.36h2.28v9.36Z"/><path class="cls-11" d="M114.54,427.47a4.42,4.42,0,0,1-6.55,0,6,6,0,0,1,0-6.92,4.4,4.4,0,0,1,6.55,0,6,6,0,0,1,0,6.92Zm-1.85-5.82a2,2,0,0,0-2.85,0,4.55,4.55,0,0,0,0,4.72,2,2,0,0,0,2.85,0,4.55,4.55,0,0,0,0-4.72Z"/><path class="cls-11" d="M122.48,421.33a2.36,2.36,0,0,0-2.42,2.64v4.72H117.8v-9.36h1.91l.19,1.4a2.7,2.7,0,0,1,2.65-1.53,4.14,4.14,0,0,1,.7.06v2.16A3.37,3.37,0,0,0,122.48,421.33Z"/><path class="cls-11" d="M131.77,428.83a1.47,1.47,0,0,1-1.59-1.31,3.26,3.26,0,0,1-2.84,1.4c-2.24,0-3.39-1.4-3.39-2.93,0-1.78,1.39-2.81,3.17-2.94l2.76-.19v-.58c0-.88-.31-1.48-1.59-1.48-1,0-1.66.47-1.71,1.34H124.4c.13-2.11,1.8-3.05,3.89-3.05,1.6,0,3,.51,3.51,1.91a5.07,5.07,0,0,1,.27,1.89v3.48c0,.43.15.59.52.59a1.57,1.57,0,0,0,.29,0v1.65A2.28,2.28,0,0,1,131.77,428.83Zm-1.89-4.3-2.38.18a1.31,1.31,0,0,0-1.35,1.23,1.23,1.23,0,0,0,1.33,1.17,2.13,2.13,0,0,0,2.4-2.15Z"/><path class="cls-11" d="M137.35,428.8a2.27,2.27,0,0,1-2.56-2.52V415.67h2.27V425.9c0,.54.12.9.9.9.2,0,.25,0,.38,0v1.89A3.85,3.85,0,0,1,137.35,428.8Z"/><path class="cls-11" d="M43.89,447.69V434.92h2.36v12.77Z"/><path class="cls-11" d="M54.87,447.69V442c0-1.1-.36-1.77-1.55-1.77a1.77,1.77,0,0,0-1.62,1.19,6.59,6.59,0,0,0-.3,2.5v3.82H49.14v-9.36H51l.16,1.2a3.23,3.23,0,0,1,5.92,1.91v6.25Z"/><path class="cls-11" d="M63.15,447.82a2.57,2.57,0,0,1-2.83-2.88v-4.76H58.61v-1.85h1.71V436l2.25-.56v2.94h2.36v1.85H62.57v4.56c0,.72.33,1,1,1a10,10,0,0,0,1.46-.09v1.89A7.31,7.31,0,0,1,63.15,447.82Z"/><path class="cls-11" d="M74.71,443.71H68.44a2.47,2.47,0,0,0,.69,1.84,2,2,0,0,0,1.38.57,1.72,1.72,0,0,0,1.37-.45,1.65,1.65,0,0,0,.45-.79h2.16a3.65,3.65,0,0,1-.79,1.73,4,4,0,0,1-3.15,1.31,4.07,4.07,0,0,1-3-1.15A5.05,5.05,0,0,1,66.15,443a5.27,5.27,0,0,1,1.36-3.75,4.05,4.05,0,0,1,3-1.19,4,4,0,0,1,3.43,1.73,5.34,5.34,0,0,1,.81,3.26S74.71,443.51,74.71,443.71Zm-2.81-3.28a2.1,2.1,0,0,0-3,.18,2.35,2.35,0,0,0-.49,1.46h4A2.41,2.41,0,0,0,71.9,440.43Z"/><path class="cls-11" d="M81.51,440.33A2.36,2.36,0,0,0,79.1,443v4.72H76.83v-9.36h1.91l.2,1.4a2.68,2.68,0,0,1,2.64-1.53,4.25,4.25,0,0,1,.71.06v2.16A3.53,3.53,0,0,0,81.51,440.33Z"/><path class="cls-11" d="M88.4,447.69H86l-3.48-9.36h2.38l2.34,6.59,2.21-6.59h2.33Z"/><path class="cls-11" d="M101,443.71H94.74a2.47,2.47,0,0,0,.68,1.84,2,2,0,0,0,1.39.57,1.74,1.74,0,0,0,1.37-.45,1.65,1.65,0,0,0,.45-.79h2.16a3.75,3.75,0,0,1-.79,1.73,4,4,0,0,1-3.15,1.31,4.11,4.11,0,0,1-3-1.15A5.09,5.09,0,0,1,92.45,443a5.26,5.26,0,0,1,1.35-3.75,4.06,4.06,0,0,1,3-1.19,4,4,0,0,1,3.42,1.73,5.21,5.21,0,0,1,.81,3.26S101,443.51,101,443.71Zm-2.8-3.28a2.1,2.1,0,0,0-3,.18,2.29,2.29,0,0,0-.49,1.46h4A2.46,2.46,0,0,0,98.2,440.43Z"/><path class="cls-11" d="M108.85,447.69V442c0-1.1-.36-1.77-1.55-1.77a1.77,1.77,0,0,0-1.62,1.19,6.59,6.59,0,0,0-.3,2.5v3.82h-2.26v-9.36H105l.16,1.2a3.23,3.23,0,0,1,5.92,1.91v6.25Z"/><path class="cls-11" d="M117.13,447.82a2.57,2.57,0,0,1-2.83-2.88v-4.76h-1.71v-1.85h1.71V436l2.25-.56v2.94h2.36v1.85h-2.36v4.56c0,.72.33,1,1,1a10,10,0,0,0,1.46-.09v1.89A7.31,7.31,0,0,1,117.13,447.82Z"/><path class="cls-11" d="M120.93,437v-2.32h2.41V437Zm.07,10.66v-9.36h2.29v9.36Z"/><path class="cls-11" d="M133.12,446.47a4.43,4.43,0,0,1-6.56,0,6,6,0,0,1,0-6.92,4.41,4.41,0,0,1,6.56,0,6,6,0,0,1,0,6.92Zm-1.86-5.82a2,2,0,0,0-2.84,0,4.49,4.49,0,0,0,0,4.72,2,2,0,0,0,2.84,0,4.49,4.49,0,0,0,0-4.72Z"/><path class="cls-11" d="M142.1,447.69V442c0-1.1-.36-1.77-1.55-1.77a1.76,1.76,0,0,0-1.62,1.19,6.4,6.4,0,0,0-.31,2.5v3.82h-2.25v-9.36h1.89l.16,1.2a3.1,3.1,0,0,1,2.76-1.44,3.07,3.07,0,0,1,3.17,3.35v6.25Z"/><path class="cls-11" d="M52.79,456.08v10.61H50.47V456.08H46.69v-2.16h9.88v2.16Z"/><path class="cls-11" d="M64.37,462.71H58.1a2.44,2.44,0,0,0,.69,1.84,2,2,0,0,0,1.38.57,1.74,1.74,0,0,0,1.37-.45,1.65,1.65,0,0,0,.45-.79h2.16a3.65,3.65,0,0,1-.79,1.73,4,4,0,0,1-3.15,1.31,4.11,4.11,0,0,1-3-1.15A5.09,5.09,0,0,1,55.81,462a5.26,5.26,0,0,1,1.35-3.75,4.09,4.09,0,0,1,3-1.19,4,4,0,0,1,3.42,1.73,5.21,5.21,0,0,1,.81,3.26S64.37,462.51,64.37,462.71Zm-2.81-3.28a2.1,2.1,0,0,0-3,.18,2.29,2.29,0,0,0-.49,1.46h4.05A2.41,2.41,0,0,0,61.56,459.43Z"/><path class="cls-11" d="M73.33,465.41a4.1,4.1,0,0,1-3.21,1.48,4.25,4.25,0,0,1-3.25-1.48,6.19,6.19,0,0,1,0-6.84,4.25,4.25,0,0,1,3.25-1.48,4.1,4.1,0,0,1,3.21,1.48,3.72,3.72,0,0,1,.72,2H71.83A1.59,1.59,0,0,0,70.12,459a1.81,1.81,0,0,0-1.36.57,3.46,3.46,0,0,0-.64,2.38,3.41,3.41,0,0,0,.64,2.36,1.83,1.83,0,0,0,1.36.59,1.62,1.62,0,0,0,1.44-.7,1.65,1.65,0,0,0,.27-.86h2.22A3.69,3.69,0,0,1,73.33,465.41Z"/><path class="cls-11" d="M81.68,466.69v-5.78c0-1.08-.36-1.75-1.55-1.75-1.35,0-1.92,1.44-1.92,2.6v4.93H76v-13h2.25v4.63a3.14,3.14,0,0,1,2.55-1.23,3.08,3.08,0,0,1,3.17,3.35v6.25Z"/><path class="cls-11" d="M92.32,466.69V461c0-1.1-.36-1.77-1.55-1.77a1.77,1.77,0,0,0-1.62,1.19,6.4,6.4,0,0,0-.31,2.5v3.82H86.59v-9.36h1.89l.16,1.2a3.1,3.1,0,0,1,2.76-1.44,3.07,3.07,0,0,1,3.17,3.35v6.25Z"/><path class="cls-11" d="M104.23,465.47a4.42,4.42,0,0,1-6.55,0,6,6,0,0,1,0-6.92,4.4,4.4,0,0,1,6.55,0,6,6,0,0,1,0,6.92Zm-1.85-5.82a2,2,0,0,0-2.84,0,4.49,4.49,0,0,0,0,4.72,2,2,0,0,0,2.84,0,4.55,4.55,0,0,0,0-4.72Z"/><path class="cls-11" d="M110,466.8a2.27,2.27,0,0,1-2.55-2.52V453.67h2.27V463.9c0,.54.12.9.9.9.19,0,.25,0,.37,0v1.89A3.74,3.74,0,0,1,110,466.8Z"/><path class="cls-11" d="M119.84,465.47a4.42,4.42,0,0,1-6.55,0,6,6,0,0,1,0-6.92,4.4,4.4,0,0,1,6.55,0,6,6,0,0,1,0,6.92ZM118,459.65a2,2,0,0,0-1.42-.59,2,2,0,0,0-1.42.59,4.49,4.49,0,0,0,0,4.72,2,2,0,0,0,1.42.59,2,2,0,0,0,1.42-.59,4.49,4.49,0,0,0,0-4.72Z"/><path class="cls-11" d="M126.82,471.07a5.58,5.58,0,0,1-3.31-.78,2.4,2.4,0,0,1-1.13-2.05,2.08,2.08,0,0,1,1.11-1.91,1.87,1.87,0,0,1-.94-1.6,2.14,2.14,0,0,1,1.12-1.89,3.21,3.21,0,0,1-.94-2.31c0-2.23,1.73-3.44,3.84-3.44a4.27,4.27,0,0,1,2.13.58,2,2,0,0,1,1.9-1.17,3.08,3.08,0,0,1,.61,0v1.74l-.17,0c-.53,0-1,.15-1.14.6a3.15,3.15,0,0,1,.49,1.69c0,2.14-1.8,3.4-3.82,3.4a4.73,4.73,0,0,1-1.51-.25.84.84,0,0,0-.47.67c0,.56.56.68,1,.68h1.54a5.42,5.42,0,0,1,3.05.63,2.57,2.57,0,0,1,1.13,2.25C131.34,470.4,128.91,471.07,126.82,471.07Zm.16-4.24h-1.76a1.17,1.17,0,0,0-.85,1.16c0,1.18,1.48,1.29,2.36,1.29s2.49,0,2.49-1.29S127.83,466.83,127,466.83Zm-.41-8a1.74,1.74,0,1,0,1.66,1.74A1.61,1.61,0,0,0,126.57,458.79Z"/><path class="cls-11" d="M137.3,468.29c-.47,1.23-1.24,2.34-2.88,2.34a6.24,6.24,0,0,1-1.73-.23v-1.87a6.11,6.11,0,0,0,1.26.16A1.09,1.09,0,0,0,135,468l.54-1.32-3.69-9.34h2.47l2.44,6.77,2.34-6.77h2.29Z"/><path class="cls-11" d="M655.41,450.38V437.62h9.1v2.1h-6.77v3h6v2.09h-6v3.49h6.77v2.11Z"/><path class="cls-11" d="M673.62,449.86a3.54,3.54,0,0,1-2.29.76,3.22,3.22,0,0,1-2.45-.92V454h-2.25V441h1.94l.15,1a3.06,3.06,0,0,1,2.63-1.24,3.6,3.6,0,0,1,2.27.79,5.07,5.07,0,0,1,1.67,4.09A5.16,5.16,0,0,1,673.62,449.86Zm-1.21-6.43a1.87,1.87,0,0,0-1.51-.74c-1.77,0-2.13,1.68-2.13,3s.36,3,2.13,3a1.86,1.86,0,0,0,1.51-.73,3.74,3.74,0,0,0,.59-2.27A3.78,3.78,0,0,0,672.41,443.43Z"/><path class="cls-11" d="M677.41,439.72V437.4h2.41v2.32Zm.07,10.66V441h2.29v9.36Z"/><path class="cls-11" d="M688.66,450.38l-.14-1a3,3,0,0,1-2.63,1.25,3.58,3.58,0,0,1-2.29-.8,5,5,0,0,1-1.65-4.08,5.12,5.12,0,0,1,1.67-4.18,3.52,3.52,0,0,1,2.29-.76,3.16,3.16,0,0,1,2.45.89v-4.29h2.25v13Zm-2.32-7.71a1.85,1.85,0,0,0-1.51.74,3.75,3.75,0,0,0-.6,2.27,3.79,3.79,0,0,0,.6,2.29,1.85,1.85,0,0,0,1.51.74c1.76,0,2.12-1.68,2.12-3S688.1,442.67,686.34,442.67Z"/><path class="cls-11" d="M701.32,446.4h-6.27a2.47,2.47,0,0,0,.69,1.84,2,2,0,0,0,1.38.57,1.72,1.72,0,0,0,1.37-.45,1.65,1.65,0,0,0,.45-.79h2.16a3.65,3.65,0,0,1-.79,1.73,4.38,4.38,0,0,1-6.1.16,5.05,5.05,0,0,1-1.45-3.74,5.22,5.22,0,0,1,1.36-3.75,4.05,4.05,0,0,1,3-1.19,4,4,0,0,1,3.43,1.73,5.34,5.34,0,0,1,.81,3.26S701.32,446.2,701.32,446.4Zm-2.81-3.28a2.1,2.1,0,0,0-3,.18,2.35,2.35,0,0,0-.49,1.46h4.05A2.41,2.41,0,0,0,698.51,443.12Z"/><path class="cls-11" d="M714.47,450.38v-5.82c0-1.15-.3-1.81-1.43-1.81s-1.84,1.35-1.84,2.52v5.11H709v-5.82c0-1.15-.3-1.81-1.43-1.81s-1.86,1.35-1.86,2.52v5.11h-2.23V441h1.87l.18,1.24a3,3,0,0,1,2.67-1.48,2.78,2.78,0,0,1,2.68,1.53,3.12,3.12,0,0,1,2.83-1.53c2,0,3,1.34,3,3.28v6.32Z"/><path class="cls-11" d="M719.33,439.72V437.4h2.41v2.32Zm.07,10.66V441h2.29v9.36Z"/><path class="cls-11" d="M731.52,449.16a4.41,4.41,0,0,1-6.56,0,6,6,0,0,1,0-6.92,4.41,4.41,0,0,1,6.56,0,6,6,0,0,1,0,6.92Zm-1.86-5.82a2,2,0,0,0-1.42-.59,2,2,0,0,0-1.42.59,4.49,4.49,0,0,0,0,4.72,2,2,0,0,0,1.42.59,2,2,0,0,0,1.42-.59,4.49,4.49,0,0,0,0-4.72Z"/><path class="cls-11" d="M737.28,450.49a2.27,2.27,0,0,1-2.56-2.52V437.36H737v10.23c0,.54.13.9.9.9.2,0,.25,0,.38,0v1.89A3.74,3.74,0,0,1,737.28,450.49Z"/><path class="cls-11" d="M747.12,449.16a4.4,4.4,0,0,1-6.55,0,6,6,0,0,1,0-6.92,4.4,4.4,0,0,1,6.55,0,6,6,0,0,1,0,6.92Zm-1.85-5.82a2,2,0,0,0-2.84,0,4.49,4.49,0,0,0,0,4.72,2,2,0,0,0,2.84,0,4.49,4.49,0,0,0,0-4.72Z"/><path class="cls-11" d="M754.11,454.76a5.61,5.61,0,0,1-3.32-.78,2.4,2.4,0,0,1-1.13-2.05,2.08,2.08,0,0,1,1.12-1.91,1.85,1.85,0,0,1-.94-1.6,2.12,2.12,0,0,1,1.12-1.89,3.17,3.17,0,0,1-.94-2.31c0-2.23,1.73-3.44,3.84-3.44a4.21,4.21,0,0,1,2.12.58,2,2,0,0,1,1.91-1.17,3.13,3.13,0,0,1,.61,0V442l-.18,0c-.52,0-1,.15-1.13.6a3.23,3.23,0,0,1,.48,1.69c0,2.14-1.8,3.4-3.81,3.4a4.75,4.75,0,0,1-1.52-.25.85.85,0,0,0-.46.67c0,.56.55.68,1,.68h1.55a5.38,5.38,0,0,1,3,.63,2.58,2.58,0,0,1,1.14,2.25C758.63,454.09,756.2,454.76,754.11,454.76Zm.16-4.23h-1.76a1.15,1.15,0,0,0-.85,1.15c0,1.19,1.47,1.29,2.36,1.29s2.48-.05,2.48-1.29S755.12,450.53,754.27,450.53Zm-.41-8a1.74,1.74,0,1,0,1.65,1.74A1.61,1.61,0,0,0,753.86,442.48Z"/><path class="cls-11" d="M764.58,452a3,3,0,0,1-2.88,2.34,6.24,6.24,0,0,1-1.73-.23v-1.87a5.56,5.56,0,0,0,1.26.16,1.08,1.08,0,0,0,1.09-.7l.54-1.32-3.7-9.34h2.47l2.45,6.77,2.34-6.77h2.29Z"/><path class="cls-11" d="M601.45,637.1a5.13,5.13,0,0,1-3.65,1.52,5,5,0,0,1-3.62-1.43c-1.39-1.38-1.59-3.09-1.59-5.18s.2-3.8,1.59-5.19a5.26,5.26,0,0,1,7.27,0,4.62,4.62,0,0,1,1.23,2.77H600.3a2.31,2.31,0,0,0-.58-1.35,2.41,2.41,0,0,0-1.92-.79,2.71,2.71,0,0,0-2,.84c-.88.92-.88,2.51-.88,3.68s0,2.75.88,3.67a2.72,2.72,0,0,0,2,.85,2.42,2.42,0,0,0,1.92-.81,2.48,2.48,0,0,0,.58-1.41h2.38A4.68,4.68,0,0,1,601.45,637.1Z"/><path class="cls-11" d="M611.62,638.53a1.47,1.47,0,0,1-1.58-1.32,3.28,3.28,0,0,1-2.85,1.41c-2.23,0-3.38-1.41-3.38-2.94,0-1.78,1.38-2.81,3.17-2.93l2.75-.2V632c0-.88-.3-1.48-1.58-1.48-1,0-1.66.47-1.71,1.34h-2.18c.12-2.11,1.8-3.05,3.89-3.05,1.6,0,3,.51,3.51,1.91a5.28,5.28,0,0,1,.27,1.89v3.48c0,.43.14.59.52.59a1.72,1.72,0,0,0,.29,0v1.65A2.21,2.21,0,0,1,611.62,638.53Zm-1.89-4.31-2.37.18a1.33,1.33,0,0,0-1.36,1.23,1.23,1.23,0,0,0,1.34,1.17,2.12,2.12,0,0,0,2.39-2.15Z"/><path class="cls-11" d="M620.42,638.38v-5.74c0-1.1-.36-1.77-1.54-1.77a1.78,1.78,0,0,0-1.63,1.19,6.59,6.59,0,0,0-.3,2.5v3.82H614.7V629h1.89l.16,1.2a3.1,3.1,0,0,1,2.76-1.44,3.06,3.06,0,0,1,3.16,3.35v6.25Z"/><path class="cls-11" d="M632.18,637.1a4.11,4.11,0,0,1-3.21,1.48,4.29,4.29,0,0,1-3.26-1.48,6.24,6.24,0,0,1,0-6.84,4.29,4.29,0,0,1,3.26-1.48,4.11,4.11,0,0,1,3.21,1.48,3.72,3.72,0,0,1,.72,2h-2.22a1.68,1.68,0,0,0-.27-.86,1.64,1.64,0,0,0-1.44-.7,1.85,1.85,0,0,0-1.37.57,3.51,3.51,0,0,0-.63,2.38,3.44,3.44,0,0,0,.63,2.36,1.87,1.87,0,0,0,1.37.59,1.62,1.62,0,0,0,1.44-.7,1.65,1.65,0,0,0,.27-.86h2.22A3.69,3.69,0,0,1,632.18,637.1Z"/><path class="cls-11" d="M642.8,634.4h-6.27a2.47,2.47,0,0,0,.69,1.84,2,2,0,0,0,1.38.57,1.72,1.72,0,0,0,1.37-.45,1.65,1.65,0,0,0,.45-.79h2.16a3.65,3.65,0,0,1-.79,1.73,4.38,4.38,0,0,1-6.1.16,5.05,5.05,0,0,1-1.45-3.74A5.27,5.27,0,0,1,635.6,630a4.05,4.05,0,0,1,3-1.19,4,4,0,0,1,3.43,1.73,5.34,5.34,0,0,1,.81,3.26S642.8,634.2,642.8,634.4ZM640,631.12a2.1,2.1,0,0,0-3,.18,2.35,2.35,0,0,0-.49,1.46h4A2.41,2.41,0,0,0,640,631.12Z"/><path class="cls-11" d="M649.6,631a2.36,2.36,0,0,0-2.41,2.64v4.72h-2.27V629h1.91l.2,1.4a2.68,2.68,0,0,1,2.64-1.53,4.25,4.25,0,0,1,.71.06v2.16A3.53,3.53,0,0,0,649.6,631Z"/><path class="cls-11" d="M556.79,657.38V644.62h9.09v2.1h-6.76v3h6v2.09h-6v3.49h6.76v2.11Z"/><path class="cls-11" d="M575,656.86a3.49,3.49,0,0,1-2.28.76,3.22,3.22,0,0,1-2.45-.92V661H568V648H570l.15,1a3,3,0,0,1,2.62-1.24,3.55,3.55,0,0,1,2.27.79,5,5,0,0,1,1.68,4.09A5.13,5.13,0,0,1,575,656.86Zm-1.2-6.43a1.87,1.87,0,0,0-1.52-.74c-1.76,0-2.12,1.68-2.12,3s.36,3,2.12,3a1.87,1.87,0,0,0,1.52-.73,3.81,3.81,0,0,0,.59-2.27A3.85,3.85,0,0,0,573.79,650.43Z"/><path class="cls-11" d="M578.79,646.72V644.4h2.41v2.32Zm.07,10.66V648h2.29v9.36Z"/><path class="cls-11" d="M590,657.38l-.14-1a3.06,3.06,0,0,1-2.63,1.25,3.58,3.58,0,0,1-2.29-.8,5,5,0,0,1-1.66-4.08,5.13,5.13,0,0,1,1.68-4.18,3.5,3.5,0,0,1,2.29-.76,3.14,3.14,0,0,1,2.44.89v-4.29H592v13Zm-2.32-7.71a1.85,1.85,0,0,0-1.51.74,3.75,3.75,0,0,0-.6,2.27,3.79,3.79,0,0,0,.6,2.29,1.85,1.85,0,0,0,1.51.74c1.76,0,2.12-1.68,2.12-3S589.48,649.67,587.72,649.67Z"/><path class="cls-11" d="M602.7,653.4h-6.27a2.47,2.47,0,0,0,.68,1.84,2,2,0,0,0,1.39.57,1.74,1.74,0,0,0,1.37-.45,1.65,1.65,0,0,0,.45-.79h2.16a3.65,3.65,0,0,1-.79,1.73,4,4,0,0,1-3.15,1.32,4.08,4.08,0,0,1-3-1.16,5.09,5.09,0,0,1-1.44-3.74,5.26,5.26,0,0,1,1.35-3.75,4.08,4.08,0,0,1,3-1.19,4,4,0,0,1,3.42,1.73,5.21,5.21,0,0,1,.81,3.26S602.7,653.2,602.7,653.4Zm-2.81-3.28a2.1,2.1,0,0,0-3,.18,2.29,2.29,0,0,0-.49,1.46h4.05A2.41,2.41,0,0,0,599.89,650.12Z"/><path class="cls-11" d="M615.85,657.38v-5.82c0-1.15-.3-1.81-1.44-1.81s-1.83,1.35-1.83,2.52v5.11h-2.24v-5.82c0-1.15-.3-1.81-1.44-1.81s-1.85,1.35-1.85,2.52v5.11h-2.23V648h1.87l.18,1.24a3,3,0,0,1,2.66-1.48,2.79,2.79,0,0,1,2.69,1.53,3.11,3.11,0,0,1,2.82-1.53c2,0,3.05,1.34,3.05,3.28v6.32Z"/><path class="cls-11" d="M620.71,646.72V644.4h2.41v2.32Zm.07,10.66V648h2.29v9.36Z"/><path class="cls-11" d="M632.9,656.16a4.41,4.41,0,0,1-6.56,0,6,6,0,0,1,0-6.92,4.41,4.41,0,0,1,6.56,0,6,6,0,0,1,0,6.92ZM631,650.34a2,2,0,0,0-2.84,0,4.49,4.49,0,0,0,0,4.72,2,2,0,0,0,2.84,0,4.49,4.49,0,0,0,0-4.72Z"/><path class="cls-11" d="M638.66,657.49A2.27,2.27,0,0,1,636.1,655V644.36h2.27v10.23c0,.54.12.9.9.9.2,0,.25,0,.38,0v1.89A3.74,3.74,0,0,1,638.66,657.49Z"/><path class="cls-11" d="M648.5,656.16a4.4,4.4,0,0,1-6.55,0,6,6,0,0,1,0-6.92,4.4,4.4,0,0,1,6.55,0,6,6,0,0,1,0,6.92Zm-1.85-5.82a2,2,0,0,0-2.85,0,4.55,4.55,0,0,0,0,4.72,2,2,0,0,0,2.85,0,4.55,4.55,0,0,0,0-4.72Z"/><path class="cls-11" d="M655.49,661.76a5.59,5.59,0,0,1-3.32-.78,2.4,2.4,0,0,1-1.13-2.05,2.08,2.08,0,0,1,1.11-1.91,1.86,1.86,0,0,1-.93-1.6,2.13,2.13,0,0,1,1.11-1.89,3.2,3.2,0,0,1-.93-2.31c0-2.23,1.73-3.44,3.83-3.44a4.22,4.22,0,0,1,2.13.58,2,2,0,0,1,1.91-1.17,3.18,3.18,0,0,1,.61,0V649l-.18,0c-.52,0-1,.15-1.14.6a3.15,3.15,0,0,1,.49,1.69c0,2.14-1.8,3.4-3.82,3.4a4.73,4.73,0,0,1-1.51-.25.86.86,0,0,0-.47.67c0,.56.56.68,1,.68h1.55a5.4,5.4,0,0,1,3,.63,2.58,2.58,0,0,1,1.14,2.25C660,661.09,657.57,661.76,655.49,661.76Zm.16-4.23h-1.77a1.15,1.15,0,0,0-.84,1.15c0,1.19,1.47,1.29,2.36,1.29s2.48-.05,2.48-1.29S656.49,657.53,655.65,657.53Zm-.42-8a1.74,1.74,0,1,0,1.66,1.74A1.6,1.6,0,0,0,655.23,649.48Z"/><path class="cls-11" d="M666,659c-.47,1.23-1.24,2.34-2.88,2.34a6.24,6.24,0,0,1-1.73-.23v-1.87a5.56,5.56,0,0,0,1.26.16,1.07,1.07,0,0,0,1.08-.7l.54-1.32L660.54,648H663l2.45,6.77L667.8,648h2.29Z"/><path class="cls-11" d="M683.78,657.4l-.9-1a5.41,5.41,0,0,1-3.62,1.33,3.94,3.94,0,0,1-4.23-3.87,4.07,4.07,0,0,1,2.27-3.51,3.85,3.85,0,0,1-1.37-2.77,3.53,3.53,0,0,1,7-.07c0,1.65-1,2.61-2.41,3.42l2.22,2.41a4.16,4.16,0,0,0,.32-1.57c0-.57,0-1.17,0-1.56h3.29V652h-1.47a5.92,5.92,0,0,1-.78,2.86l2.36,2.56Zm-5.16-5.65c-.85.5-1.52.93-1.52,2a2.06,2.06,0,0,0,2.29,2,2.84,2.84,0,0,0,2.14-.79C680.54,653.89,679.61,652.83,678.62,651.75Zm.81-5.55a1.32,1.32,0,0,0-1.43,1.33c0,.83.69,1.42,1.21,2,.79-.43,1.64-.84,1.64-1.9A1.32,1.32,0,0,0,679.43,646.2Z"/><path class="cls-11" d="M582.17,671.81h-2.71v4.57h-2.3V663.62h5c2.93,0,4.5,1.63,4.5,4.08S585.1,671.81,582.17,671.81Zm-.09-6.16h-2.62v4.12h2.62c1.54,0,2.25-.82,2.25-2A2,2,0,0,0,582.08,665.65Z"/><path class="cls-11" d="M593,669a2.36,2.36,0,0,0-2.41,2.64v4.72H588.3V667h1.91l.2,1.4a2.69,2.69,0,0,1,2.64-1.53,4.25,4.25,0,0,1,.71.06v2.16A3.46,3.46,0,0,0,593,669Z"/><path class="cls-11" d="M603.13,672.4h-6.26a2.47,2.47,0,0,0,.68,1.84,2,2,0,0,0,1.39.57,1.74,1.74,0,0,0,1.37-.45,1.65,1.65,0,0,0,.45-.79h2.16a3.65,3.65,0,0,1-.79,1.73,4,4,0,0,1-3.15,1.32,4.08,4.08,0,0,1-3-1.16,5.09,5.09,0,0,1-1.44-3.74,5.26,5.26,0,0,1,1.35-3.75,4.06,4.06,0,0,1,3-1.19,4,4,0,0,1,3.42,1.73,5.21,5.21,0,0,1,.81,3.26S603.13,672.2,603.13,672.4Zm-2.8-3.28a2.1,2.1,0,0,0-3,.18,2.29,2.29,0,0,0-.49,1.46h4A2.46,2.46,0,0,0,600.33,669.12Z"/><path class="cls-11" d="M609.63,676.38h-2.39L603.76,667h2.38l2.34,6.59,2.21-6.59H613Z"/><path class="cls-11" d="M622.23,672.4H616a2.47,2.47,0,0,0,.68,1.84,2,2,0,0,0,1.39.57,1.64,1.64,0,0,0,1.82-1.24H622a3.77,3.77,0,0,1-.8,1.73,4,4,0,0,1-3.15,1.32,4.05,4.05,0,0,1-3-1.16,5.09,5.09,0,0,1-1.44-3.74A5.26,5.26,0,0,1,615,668a4.06,4.06,0,0,1,3-1.19,4,4,0,0,1,3.42,1.73,5.27,5.27,0,0,1,.81,3.26S622.23,672.2,622.23,672.4Zm-2.81-3.28a1.88,1.88,0,0,0-1.42-.54,1.91,1.91,0,0,0-1.56.72,2.29,2.29,0,0,0-.49,1.46h4A2.42,2.42,0,0,0,619.42,669.12Z"/><path class="cls-11" d="M630.08,676.38v-5.74c0-1.1-.36-1.77-1.55-1.77a1.77,1.77,0,0,0-1.62,1.19,6.59,6.59,0,0,0-.3,2.5v3.82h-2.26V667h1.89l.17,1.2a3.23,3.23,0,0,1,5.92,1.91v6.25Z"/><path class="cls-11" d="M638.36,676.51a2.57,2.57,0,0,1-2.83-2.88v-4.76h-1.71V667h1.71v-2.38l2.25-.56V667h2.36v1.85h-2.36v4.56c0,.72.33,1,1.05,1a10.13,10.13,0,0,0,1.46-.09v1.89A7.36,7.36,0,0,1,638.36,676.51Z"/><path class="cls-11" d="M642.16,665.72V663.4h2.41v2.32Zm.07,10.66V667h2.29v9.36Z"/><path class="cls-11" d="M654.34,675.16a4.4,4.4,0,0,1-6.55,0,6,6,0,0,1,0-6.92,4.4,4.4,0,0,1,6.55,0,6,6,0,0,1,0,6.92Zm-1.85-5.82a2,2,0,0,0-1.42-.59,2,2,0,0,0-1.43.59,4.55,4.55,0,0,0,0,4.72,2,2,0,0,0,1.43.59,2,2,0,0,0,1.42-.59,4.55,4.55,0,0,0,0-4.72Z"/><path class="cls-11" d="M663.32,676.38v-5.74c0-1.1-.36-1.77-1.54-1.77a1.75,1.75,0,0,0-1.62,1.19,6.4,6.4,0,0,0-.31,2.5v3.82H657.6V667h1.89l.16,1.2a3.1,3.1,0,0,1,2.76-1.44,3.07,3.07,0,0,1,3.17,3.35v6.25Z"/><path class="cls-11" d="M160.61,642.38v-5.56h-5.24v5.56H153V629.62h2.33v5h5.24v-5h2.32v12.76Z"/><path class="cls-11" d="M173.73,638.4h-6.27a2.51,2.51,0,0,0,.69,1.84,2,2,0,0,0,1.38.57,1.72,1.72,0,0,0,1.37-.45,1.65,1.65,0,0,0,.45-.79h2.16a3.65,3.65,0,0,1-.79,1.73,4.38,4.38,0,0,1-6.1.16,5,5,0,0,1-1.44-3.74,5.22,5.22,0,0,1,1.35-3.75,4.06,4.06,0,0,1,3-1.19,4,4,0,0,1,3.42,1.73,5.34,5.34,0,0,1,.81,3.26S173.73,638.2,173.73,638.4Zm-2.81-3.28a2.1,2.1,0,0,0-3,.18,2.29,2.29,0,0,0-.48,1.46h4.05A2.47,2.47,0,0,0,170.92,635.12Z"/><path class="cls-11" d="M182.89,642.53a1.49,1.49,0,0,1-1.59-1.32,3.27,3.27,0,0,1-2.84,1.41c-2.23,0-3.39-1.41-3.39-2.94,0-1.78,1.39-2.81,3.17-2.93l2.76-.2V636c0-.88-.31-1.48-1.59-1.48-1,0-1.65.47-1.71,1.34h-2.17c.12-2.11,1.8-3.05,3.88-3.05,1.61,0,3,.51,3.52,1.91a5.28,5.28,0,0,1,.27,1.89v3.48c0,.43.14.59.52.59a1.72,1.72,0,0,0,.29,0v1.65A2.21,2.21,0,0,1,182.89,642.53ZM181,638.22l-2.38.18a1.32,1.32,0,0,0-1.35,1.23,1.23,1.23,0,0,0,1.33,1.17,2.12,2.12,0,0,0,2.4-2.15Z"/><path class="cls-11" d="M188.47,642.49a2.27,2.27,0,0,1-2.56-2.52V629.36h2.27v10.23c0,.54.13.9.9.9.2,0,.25,0,.38,0v1.89A3.74,3.74,0,0,1,188.47,642.49Z"/><path class="cls-11" d="M194.77,642.51a2.57,2.57,0,0,1-2.83-2.88v-4.76h-1.71V633h1.71v-2.38l2.25-.56V633h2.36v1.85h-2.36v4.56c0,.72.33,1,1.05,1a10,10,0,0,0,1.46-.09v1.89A7.42,7.42,0,0,1,194.77,642.51Z"/><path class="cls-11" d="M204.33,642.38V636.6c0-1.08-.36-1.75-1.55-1.75-1.35,0-1.93,1.44-1.93,2.6v4.93H198.6v-13h2.25V634a3.16,3.16,0,0,1,2.56-1.23,3.08,3.08,0,0,1,3.17,3.35v6.25Z"/><path class="cls-11" d="M221.54,642.4l-.91-1a5.4,5.4,0,0,1-3.61,1.33,3.94,3.94,0,0,1-4.23-3.87,4.06,4.06,0,0,1,2.26-3.51,3.84,3.84,0,0,1-1.36-2.77,3.22,3.22,0,0,1,3.49-3.23,3.26,3.26,0,0,1,3.53,3.16c0,1.65-1,2.61-2.42,3.42l2.22,2.41a4,4,0,0,0,.32-1.57c0-.57,0-1.17,0-1.56h3.29V637h-1.47a5.92,5.92,0,0,1-.78,2.86l2.36,2.56Zm-5.17-5.65c-.85.5-1.51.93-1.51,2a2.05,2.05,0,0,0,2.28,2,2.85,2.85,0,0,0,2.15-.79C218.29,638.89,217.36,637.83,216.37,636.75Zm.81-5.55a1.31,1.31,0,0,0-1.42,1.33c0,.83.68,1.42,1.2,2,.79-.43,1.64-.84,1.64-1.9A1.32,1.32,0,0,0,217.18,631.2Z"/><path class="cls-11" d="M151,660.54a5.38,5.38,0,0,1-3.4.86h-5.08V648.62h5.08a5.4,5.4,0,0,1,3,.7,3.3,3.3,0,0,1,1.48,2.77,2.91,2.91,0,0,1-1.57,2.7,3.12,3.12,0,0,1,1.84,2.88A3.45,3.45,0,0,1,151,660.54Zm-3.31-9.93h-2.87v3.21h2.92c1,0,1.93-.38,1.93-1.59S148.76,650.61,147.72,650.61Zm.07,5.15h-2.94v3.55h2.87c1.08,0,2.25-.4,2.25-1.69S149,655.76,147.79,655.76Z"/><path class="cls-11" d="M154.38,650.72V648.4h2.41v2.32Zm.07,10.66V652h2.28v9.36Z"/><path class="cls-11" d="M166.56,660.16a4.4,4.4,0,0,1-6.55,0,6,6,0,0,1,0-6.92,4.4,4.4,0,0,1,6.55,0,6,6,0,0,1,0,6.92Zm-1.85-5.82a2,2,0,0,0-2.85,0,4.55,4.55,0,0,0,0,4.72,2,2,0,0,0,2.85,0,4.49,4.49,0,0,0,0-4.72Z"/><path class="cls-11" d="M180.86,661.38v-5.82c0-1.15-.31-1.81-1.44-1.81s-1.84,1.35-1.84,2.52v5.11h-2.23v-5.82c0-1.15-.31-1.81-1.44-1.81-1.28,0-1.86,1.35-1.86,2.52v5.11h-2.23V652h1.87l.18,1.24a3,3,0,0,1,2.67-1.48,2.78,2.78,0,0,1,2.68,1.53,3.13,3.13,0,0,1,2.83-1.53c2,0,3,1.34,3,3.28v6.32Z"/><path class="cls-11" d="M193.65,657.4h-6.26a2.47,2.47,0,0,0,.68,1.84,2,2,0,0,0,1.39.57,1.64,1.64,0,0,0,1.82-1.24h2.16a3.77,3.77,0,0,1-.8,1.73,4,4,0,0,1-3.15,1.32,4.05,4.05,0,0,1-3-1.16,5.09,5.09,0,0,1-1.44-3.74,5.26,5.26,0,0,1,1.35-3.75,4.06,4.06,0,0,1,3-1.19,4,4,0,0,1,3.42,1.73,5.27,5.27,0,0,1,.81,3.26S193.65,657.2,193.65,657.4Zm-2.81-3.28a1.88,1.88,0,0,0-1.42-.54,1.91,1.91,0,0,0-1.56.72,2.29,2.29,0,0,0-.49,1.46h4A2.42,2.42,0,0,0,190.84,654.12Z"/><path class="cls-11" d="M201.84,661.38l-.14-1a3,3,0,0,1-2.63,1.25,3.58,3.58,0,0,1-2.29-.8,5,5,0,0,1-1.66-4.08,5.13,5.13,0,0,1,1.68-4.18,3.52,3.52,0,0,1,2.29-.76,3.16,3.16,0,0,1,2.45.89v-4.29h2.25v13Zm-2.32-7.71a1.85,1.85,0,0,0-1.51.74,3.75,3.75,0,0,0-.6,2.27A3.79,3.79,0,0,0,198,659a1.85,1.85,0,0,0,1.51.74c1.76,0,2.12-1.68,2.12-3S201.28,653.67,199.52,653.67Z"/><path class="cls-11" d="M206.56,650.72V648.4H209v2.32Zm.07,10.66V652h2.29v9.36Z"/><path class="cls-11" d="M218.58,660.1a4.09,4.09,0,0,1-3.2,1.48,4.29,4.29,0,0,1-3.26-1.48,6.19,6.19,0,0,1,0-6.84,4.29,4.29,0,0,1,3.26-1.48,4.09,4.09,0,0,1,3.2,1.48,3.65,3.65,0,0,1,.72,2h-2.21a1.9,1.9,0,0,0-.27-.86,1.65,1.65,0,0,0-1.44-.7,1.84,1.84,0,0,0-1.37.57,3.51,3.51,0,0,0-.63,2.38A3.44,3.44,0,0,0,214,659a1.85,1.85,0,0,0,1.37.59,1.63,1.63,0,0,0,1.44-.7,1.86,1.86,0,0,0,.27-.86h2.21A3.62,3.62,0,0,1,218.58,660.1Z"/><path class="cls-11" d="M228.34,661.53a1.48,1.48,0,0,1-1.59-1.32,3.27,3.27,0,0,1-2.84,1.41c-2.23,0-3.39-1.41-3.39-2.94,0-1.78,1.39-2.81,3.17-2.93l2.76-.2V655c0-.88-.31-1.48-1.59-1.48-1,0-1.65.47-1.71,1.34H221c.13-2.11,1.8-3.05,3.89-3.05,1.6,0,3,.51,3.51,1.91a5.07,5.07,0,0,1,.27,1.89v3.48c0,.43.15.59.53.59a1.53,1.53,0,0,0,.28,0v1.65A2.14,2.14,0,0,1,228.34,661.53Zm-1.89-4.31-2.38.18a1.32,1.32,0,0,0-1.35,1.23,1.23,1.23,0,0,0,1.33,1.17,2.12,2.12,0,0,0,2.4-2.15Z"/><path class="cls-11" d="M233.92,661.49a2.27,2.27,0,0,1-2.56-2.52V648.36h2.27v10.23c0,.54.12.9.9.9.2,0,.25,0,.38,0v1.89A3.74,3.74,0,0,1,233.92,661.49Z"/><path class="cls-11" d="M141.13,680.38V667.62h2.36v12.76Z"/><path class="cls-11" d="M152.11,680.38v-5.74c0-1.1-.36-1.77-1.55-1.77a1.77,1.77,0,0,0-1.62,1.19,6.6,6.6,0,0,0-.31,2.5v3.82h-2.25V671h1.89l.17,1.2a3.23,3.23,0,0,1,5.92,1.91v6.25Z"/><path class="cls-11" d="M161,669a1.08,1.08,0,0,0-1.22,1.13V671h2.5v1.85h-2.5v7.51h-2.25v-7.51H155.9V671h1.59v-.9a2.87,2.87,0,0,1,3.19-3,7.89,7.89,0,0,1,1.76.19v1.8A7.23,7.23,0,0,0,161,669Z"/><path class="cls-11" d="M170.58,679.16a4.41,4.41,0,0,1-6.56,0,6,6,0,0,1,0-6.92,4.41,4.41,0,0,1,6.56,0,6,6,0,0,1,0,6.92Zm-1.86-5.82a2,2,0,0,0-2.84,0,4.49,4.49,0,0,0,0,4.72,2,2,0,0,0,2.84,0,4.49,4.49,0,0,0,0-4.72Z"/><path class="cls-11" d="M178.52,673a2.36,2.36,0,0,0-2.42,2.64v4.72h-2.27V671h1.91l.2,1.4a2.69,2.69,0,0,1,2.65-1.53,4.23,4.23,0,0,1,.7.06v2.16A3.37,3.37,0,0,0,178.52,673Z"/><path class="cls-11" d="M192.07,680.38v-5.82c0-1.15-.31-1.81-1.44-1.81-1.28,0-1.84,1.35-1.84,2.52v5.11h-2.23v-5.82c0-1.15-.31-1.81-1.44-1.81-1.28,0-1.85,1.35-1.85,2.52v5.11H181V671h1.88l.18,1.24a3,3,0,0,1,2.66-1.48,2.78,2.78,0,0,1,2.68,1.53,3.13,3.13,0,0,1,2.83-1.53c2,0,3,1.34,3,3.28v6.32Z"/><path class="cls-11" d="M204,680.53a1.47,1.47,0,0,1-1.58-1.32,3.28,3.28,0,0,1-2.85,1.41c-2.23,0-3.38-1.41-3.38-2.94,0-1.78,1.38-2.81,3.17-2.93l2.75-.2V674c0-.88-.3-1.48-1.58-1.48-1.05,0-1.66.47-1.71,1.34h-2.18c.12-2.11,1.8-3.05,3.89-3.05,1.6,0,3,.51,3.51,1.91a5.28,5.28,0,0,1,.27,1.89v3.48c0,.43.14.59.52.59a1.72,1.72,0,0,0,.29,0v1.65A2.21,2.21,0,0,1,204,680.53Zm-1.89-4.31-2.37.18a1.33,1.33,0,0,0-1.36,1.23,1.24,1.24,0,0,0,1.34,1.17,2.12,2.12,0,0,0,2.39-2.15Z"/><path class="cls-11" d="M210.36,680.51a2.57,2.57,0,0,1-2.83-2.88v-4.76h-1.71V671h1.71v-2.38l2.25-.56V671h2.36v1.85h-2.36v4.56c0,.72.32,1,1,1a10,10,0,0,0,1.46-.09v1.89A7.29,7.29,0,0,1,210.36,680.51Z"/><path class="cls-11" d="M214.15,669.72V667.4h2.42v2.32Zm.07,10.66V671h2.29v9.36Z"/><path class="cls-11" d="M226.18,679.1a4.1,4.1,0,0,1-3.21,1.48,4.29,4.29,0,0,1-3.26-1.48,6.24,6.24,0,0,1,0-6.84,4.29,4.29,0,0,1,3.26-1.48,4.1,4.1,0,0,1,3.21,1.48,3.72,3.72,0,0,1,.72,2h-2.22a1.68,1.68,0,0,0-.27-.86,1.64,1.64,0,0,0-1.44-.7,1.81,1.81,0,0,0-1.36.57,3.46,3.46,0,0,0-.64,2.38,3.39,3.39,0,0,0,.64,2.36,1.83,1.83,0,0,0,1.36.59,1.62,1.62,0,0,0,1.44-.7,1.65,1.65,0,0,0,.27-.86h2.22A3.69,3.69,0,0,1,226.18,679.1Z"/><path class="cls-11" d="M235.36,679.54a4.51,4.51,0,0,1-3.21,1.08,4.29,4.29,0,0,1-3-1.08,3.12,3.12,0,0,1-1-2.18h2.1a1.49,1.49,0,0,0,.51,1.09,2.08,2.08,0,0,0,1.42.42c.76,0,1.91-.16,1.91-1.19a1,1,0,0,0-.94-1c-.83-.13-1.76-.18-2.59-.36a2.59,2.59,0,0,1-2.14-2.5,2.66,2.66,0,0,1,1-2.11,4.34,4.34,0,0,1,2.85-.94,4,4,0,0,1,2.93,1.1,2.89,2.89,0,0,1,.83,1.93h-2.14a1.25,1.25,0,0,0-.38-.88,1.82,1.82,0,0,0-1.23-.44,2.26,2.26,0,0,0-1,.15,1.08,1.08,0,0,0-.72,1c0,.66.58.86,1.08.93.85.11,1.08.13,2,.27a2.72,2.72,0,0,1,2.56,2.65A2.84,2.84,0,0,1,235.36,679.54Z"/><path class="cls-12" d="M317.94,378.6h-8.53v12.81h-2.29v-31.2h10.82c6,0,10.39,2.9,10.39,9.2S323.93,378.6,317.94,378.6Zm0-16.19h-8.53v14h8.53c4.58,0,8-2.11,8-7S322.52,362.41,317.94,362.41Z"/><path class="cls-12" d="M341.79,371.3c-5.5,0-7,4.93-7,9.55v10.56h-2.2v-22h1.94l.26,4.44a7.06,7.06,0,0,1,7-4.66,12.11,12.11,0,0,1,2.16.13v2.2A8.86,8.86,0,0,0,341.79,371.3Z"/><path class="cls-12" d="M364.72,380.94H347.91a10.63,10.63,0,0,0,2.28,6.6,6.63,6.63,0,0,0,5.33,2.33,6.47,6.47,0,0,0,4.79-1.94,6.11,6.11,0,0,0,1.68-3.12h2.29a8.22,8.22,0,0,1-2.47,4.62,8.8,8.8,0,0,1-6.29,2.55,9,9,0,0,1-7-3.12,14.53,14.53,0,0,1-.66-16.2,9,9,0,0,1,7.48-3.83c5.94,0,9.42,5.11,9.42,10.65C364.76,380,364.72,380.41,364.72,380.94Zm-9.38-10c-4.53,0-7.39,3.65-7.39,8h14.57C362.43,374.73,359.83,370.9,355.34,370.9Z"/><path class="cls-12" d="M377,391.41h-2.24l-8.72-22h2.51l7.39,18.87L383,369.41h2.33Z"/><path class="cls-12" d="M405.9,380.94H389.09a10.58,10.58,0,0,0,2.29,6.6,6.61,6.61,0,0,0,5.32,2.33,6.51,6.51,0,0,0,4.8-1.94,6.1,6.1,0,0,0,1.67-3.12h2.29a8.16,8.16,0,0,1-2.47,4.62A8.8,8.8,0,0,1,396.7,392a8.91,8.91,0,0,1-7-3.12,14.51,14.51,0,0,1-.67-16.2,9,9,0,0,1,7.49-3.83c5.94,0,9.41,5.11,9.41,10.65C405.94,380,405.9,380.41,405.9,380.94Zm-9.37-10c-4.54,0-7.4,3.65-7.4,8H403.7C403.61,374.73,401,370.9,396.53,370.9Z"/><path class="cls-12" d="M426.36,391.41V377c0-3.83-1.67-6-5.68-6-5.41,0-7.3,4.66-7.3,9.42v11h-2.2v-22h1.93l.27,4a8.25,8.25,0,0,1,7.43-4.58c5.07,0,7.75,3.13,7.75,8.06v14.52Z"/><path class="cls-12" d="M442.29,391.72c-4.1,0-5.68-2.6-5.68-6.43V371.43h-4.4v-2h4.4v-6.08l2.2-.52v6.6h6.82v2h-6.82V385.2c0,2.6.7,4.45,3.65,4.45a18.75,18.75,0,0,0,3.48-.4v1.94A17.67,17.67,0,0,1,442.29,391.72Z"/><path class="cls-12" d="M450.29,363.29v-3.08h3.08v3.08Zm.4,28.12v-22H453v22Z"/><path class="cls-12" d="M467.8,391.41h-2.24l-8.71-22h2.51l7.39,18.87,7.08-18.87h2.34Z"/><path class="cls-12" d="M496.71,380.94H479.9a10.64,10.64,0,0,0,2.29,6.6,6.62,6.62,0,0,0,5.33,2.33,6.5,6.5,0,0,0,4.79-1.94,6.11,6.11,0,0,0,1.68-3.12h2.28a8.21,8.21,0,0,1-2.46,4.62,8.82,8.82,0,0,1-6.29,2.55,8.94,8.94,0,0,1-7-3.12,14.48,14.48,0,0,1-.66-16.2,9,9,0,0,1,7.48-3.83c5.94,0,9.42,5.11,9.42,10.65C496.76,380,496.71,380.41,496.71,380.94Zm-9.37-10c-4.53,0-7.39,3.65-7.39,8h14.56C494.43,374.73,491.83,370.9,487.34,370.9Z"/><path class="cls-12" d="M345.6,435.41v-27.9L334.2,435h-2l-11.4-27.24v27.68h-2.24v-31.2h3.21l11.53,27.72,11.31-27.72h3.25v31.2Z"/><path class="cls-12" d="M372.75,424.94H355.94a10.57,10.57,0,0,0,2.28,6.6,6.63,6.63,0,0,0,5.33,2.33,6.48,6.48,0,0,0,4.79-1.94,6.11,6.11,0,0,0,1.68-3.12h2.28a8.15,8.15,0,0,1-2.46,4.62,8.8,8.8,0,0,1-6.29,2.55,8.94,8.94,0,0,1-7-3.12,14.48,14.48,0,0,1-.66-16.2,9,9,0,0,1,7.48-3.83c5.94,0,9.42,5.11,9.42,10.65C372.79,424,372.75,424.41,372.75,424.94Zm-9.38-10c-4.53,0-7.39,3.65-7.39,8h14.56C370.46,418.73,367.86,414.9,363.37,414.9Z"/><path class="cls-12" d="M393.07,435.41l-.26-3.87A8.14,8.14,0,0,1,385.5,436a8.5,8.5,0,0,1-5.85-2.07c-2.46-2.15-3.61-5.67-3.61-9.46,0-3.61,1.1-7.13,3.43-9.33a8.67,8.67,0,0,1,13.34,2V403.64H395v31.77Zm-3-18.7a6.38,6.38,0,0,0-4.62-1.72,6.22,6.22,0,0,0-4.71,1.94,11.07,11.07,0,0,0-2.46,7.48c0,3.12.88,6.07,2.9,7.88a6.36,6.36,0,0,0,4.36,1.54,6.24,6.24,0,0,0,4.49-1.77,10.3,10.3,0,0,0,2.81-7.65C392.85,421.15,392.11,418.6,390.08,416.71Z"/><path class="cls-12" d="M402.22,407.29v-3.08h3.08v3.08Zm.4,28.12v-22H405v22Z"/><path class="cls-12" d="M420.18,436a9,9,0,0,1-6.47-2.6c-2.29-2.28-3.08-5.23-3.08-9s.79-6.69,3.08-9a9,9,0,0,1,6.47-2.6,8.2,8.2,0,0,1,8.49,7.44h-2.29a6.08,6.08,0,0,0-6.2-5.28,6.52,6.52,0,0,0-4.89,1.89c-2,2.07-2.42,4.67-2.42,7.53s.44,5.5,2.42,7.57a6.5,6.5,0,0,0,4.89,1.85,6.24,6.24,0,0,0,6.24-5.37h2.34A8.49,8.49,0,0,1,420.18,436Z"/><path class="cls-12" d="M433.55,407.29v-3.08h3.08v3.08Zm.4,28.12v-22h2.33v22Z"/><path class="cls-12" d="M459,435.41V421c0-3.83-1.67-6-5.68-6-5.41,0-7.31,4.66-7.31,9.42v11h-2.19v-22h1.93l.26,4a8.28,8.28,0,0,1,7.44-4.58c5.06,0,7.75,3.13,7.75,8.06v14.52Z"/><path class="cls-12" d="M485.29,424.94H468.48a10.7,10.7,0,0,0,2.29,6.6,6.63,6.63,0,0,0,5.33,2.33,6.48,6.48,0,0,0,4.79-1.94,6.11,6.11,0,0,0,1.68-3.12h2.29a8.22,8.22,0,0,1-2.47,4.62A8.8,8.8,0,0,1,476.1,436a9,9,0,0,1-7-3.12,14.53,14.53,0,0,1-.66-16.2,9,9,0,0,1,7.48-3.83c5.94,0,9.42,5.11,9.42,10.65C485.34,424,485.29,424.41,485.29,424.94Zm-9.37-10c-4.53,0-7.39,3.65-7.39,8h14.56C483,418.73,480.41,414.9,475.92,414.9Z"/></g><g id="icons"><g class="cls-13"><path class="cls-11" d="M188.24,116.26A41.73,41.73,0,1,0,230,158,41.72,41.72,0,0,0,188.24,116.26Zm0,78.48A36.76,36.76,0,1,1,225,158,36.8,36.8,0,0,1,188.24,194.74Z"/><circle class="cls-11" cx="202.03" cy="137.71" r="8.49" transform="translate(-38.21 183.19) rotate(-45)"/><path class="cls-11" d="M174.83,153.29a8.49,8.49,0,1,0-8.49-8.49A8.49,8.49,0,0,0,174.83,153.29Z"/><path class="cls-11" d="M218.93,154a10.58,10.58,0,0,0-9.38-5.67h-15a10.58,10.58,0,0,0-9.38,5.67l-1.3,2.77a9.62,9.62,0,0,0-4.25-1h-9.51a9.63,9.63,0,0,0-8.54,5.18l-3.82,12.21a34.54,34.54,0,0,0,4.27,6.43l3.43-10a.23.23,0,0,1,.44.13l-3,10.93a34.55,34.55,0,0,0,12.06,8.55l3.92-8.51a6.79,6.79,0,0,1,6-3.64h6.86a6.79,6.79,0,0,1,6,3.64l3.92,8.52A34.63,34.63,0,0,0,214.26,180l-.07-17.81a.25.25,0,0,1,.48-.15l4,11.59a34.72,34.72,0,0,0,3.46-10ZM188.3,175.27a6,6,0,1,1,6-6A6,6,0,0,1,188.3,175.27Z"/><path class="cls-11" d="M195.17,191.26h0l-1,.16C194.52,191.36,194.85,191.32,195.17,191.26Z"/><path class="cls-11" d="M197.72,190.68l.35-.11c-.11,0-.24.06-.35.09Z"/><path class="cls-11" d="M195.17,191v.24c.86-.16,1.71-.36,2.55-.59l-2.24-3.94C195.41,186.52,195.12,186.61,195.17,191Z"/><path class="cls-11" d="M182,186.72l-2.23,3.95c.83.22,1.68.43,2.54.59V191C182.41,186.61,182.11,186.52,182,186.72Z"/><path class="cls-11" d="M179.8,190.68h0l-.79-.22Z"/></g><path class="cls-14" d="M621.25,535.6a41.4,41.4,0,1,0,41.5,41.4A41.5,41.5,0,0,0,621.25,535.6ZM658.44,577a36.81,36.81,0,0,1-6.87,21.46q0-.33,0-.66c-.07-2.86-5.48-4.63-10.75-4.43.3-3-1.25-6.43-3.59-9.13,4.46-.59,10.48-9.12,8.72-13.18-1.59-3.66-6.36-7.67-10.32-7.89,1.48-1.69,2.15-3.41,1.18-4.74-2.83-3.9-11.9-8-15.58-5.36s-.29,15.9,2.5,16.62a28.94,28.94,0,0,0-4.86,1.09l.49-.24c4-2.16-.6-15.25-7-17.66a3.57,3.57,0,0,0-3.13.59c0-4.64-1.38-9.84-3.07-10a7.29,7.29,0,0,0-.93,0A37.19,37.19,0,0,1,658.44,577Zm-18.69,23.67c-.1-1.7,4.09-4.76,5.77-3.93a3.24,3.24,0,0,1,1.65,4.26C646.4,602.51,639.89,603.06,639.75,600.67Zm-23-29.11c-2.92,1.22-5.27,2.88-5.83,4.72a17.46,17.46,0,0,0-1.56-4.45A16.75,16.75,0,0,0,616.74,571.56Zm-5.28-10.26c1.44-.86,6.08,1.51,6.08,3.37a3.24,3.24,0,0,1-3,3.4C612.83,568.07,609.38,562.5,611.46,561.3Zm-.08,17.76c1.24,2.17,4.27,4.27,7.32,5.37a22.36,22.36,0,0,0-7.74,2.73A21.46,21.46,0,0,0,611.38,579.06Zm.9,12.18c.38-1.63,6.58-3.76,7.29-1.46.51,1.63-2.84,5.6-4.66,5.19A3.22,3.22,0,0,1,612.28,591.24ZM618.33,578c-.69-1.53,2.18-5.89,4-5.67a3.22,3.22,0,0,1,3,3.4C625.22,577.38,619.29,580.18,618.33,578Zm5.27-13.66c-.67-1.54,2.17-5.87,4-5.68a3.24,3.24,0,0,1,3,3.4C630.49,563.72,624.55,566.52,623.6,564.32Zm1.72,20.27a10.44,10.44,0,0,0,1.46-1.13,20.69,20.69,0,0,0-4.06,8c-.31-2.75-1-5.29-2-6.42A6.4,6.4,0,0,0,625.32,584.59Zm-.19-15a21.51,21.51,0,0,0,6.25-2.86,19.11,19.11,0,0,0-.45,4.49,2,2,0,0,0-.11-.2C630.06,569.79,627.83,569.38,625.13,569.56Zm6.22,6.26a20.7,20.7,0,0,0,1.41,4.86l-.24-.11c-1.26-.58-2.85.09-4.4,1.49A15.37,15.37,0,0,0,631.35,575.82Zm-2.44,9.72a3.25,3.25,0,0,1,4.55.39c1,1.34-1.37,7.44-3.59,6.51C628.33,591.79,627.42,586.67,628.91,585.54Zm4.4-13.45a3.22,3.22,0,0,1,3.83-2.46c1.63.43,3.5,6.72,1.15,7.35C636.69,577.41,632.83,573.91,633.31,572.09Zm-34.7-21.75c.38-1.63,6.58-3.76,7.3-1.46.53,1.63-2.83,5.62-4.67,5.19A3.23,3.23,0,0,1,598.61,550.34Zm5.6,26c1.6-.43,5.46,3.06,5,4.88a3.23,3.23,0,0,1-3.83,2.47C603.73,583.25,601.86,577,604.21,576.33Zm-20.15.67a36.85,36.85,0,0,1,8.3-23.33,18.91,18.91,0,0,0,11.11,7.14c-1,2.3-1.49,4.6-1,6.14a5.92,5.92,0,0,0,1.58,2.43c-4.26,1.72-9.13,9.14-7.52,12.84S603,590,607,590.11c-1.29,1.36-1.88,2.78-1.16,4,2.37,4.16,10.89,9.33,14.86,7.08,1.13-.63,1.78-2.24,2.06-4.24.9,2.24,5.07,2.94,9.13,2.5.48,3.5,3.42,8.26,6.39,10.5a37.19,37.19,0,0,1-54.17-33Z"/><g id="two0FE.tif" class="cls-13"><path class="cls-11" d="M712.27,422.21a41.5,41.5,0,1,1,40.54-41.49A41.56,41.56,0,0,1,712.27,422.21Zm33.57-41.55a34.54,34.54,0,1,0-34.27,34.6A34.58,34.58,0,0,0,745.84,380.66Z"/><path class="cls-11" d="M721.71,375.64a9.15,9.15,0,0,1-1.79-4.93A8.75,8.75,0,0,1,722,364.4a3.38,3.38,0,0,1,4.49-.51,3.32,3.32,0,0,1,1,4.45,3.08,3.08,0,0,0,.17,3.82,6.42,6.42,0,0,1-1.87,9.18c-2,1.32-4.05,1.13-5.25-.5A3.59,3.59,0,0,1,721.71,375.64Z"/><path class="cls-11" d="M710.68,390.83a9,9,0,0,1-8.79-7,3.45,3.45,0,0,1,6.42-2.41c.1.2.19.42.28.63.74,1.76,1.57,2.11,3.44,1.62a5.78,5.78,0,0,1,2.4-.22,3.22,3.22,0,0,1,2.62,3,3.17,3.17,0,0,1-1.84,3.35,44.59,44.59,0,0,1-4.46,1.26Z"/><path class="cls-11" d="M693.18,400.8a10.12,10.12,0,0,1,1.19-4.74,3.45,3.45,0,0,1,4.57-1.62,3.37,3.37,0,0,1,1.72,4.44c-.87,2-.85,3,1.57,4.21a3.41,3.41,0,0,1,1.63,4.48,3.34,3.34,0,0,1-4.32,1.86C696.23,408.18,693.08,405,693.18,400.8Z"/><path class="cls-11" d="M713.65,361.76a11.16,11.16,0,0,1-1.28,5.51,3.45,3.45,0,0,1-6.37-2.51,7.56,7.56,0,0,1,.37-1c.61-1.53.35-2.36-1-3.24-.24-.15-.5-.27-.75-.4a3.45,3.45,0,0,1,2.61-6.37C710.07,354.72,713.7,357.78,713.65,361.76Z"/><path class="cls-11" d="M687.89,372.79a3.48,3.48,0,1,1,3.51,3.41A3.46,3.46,0,0,1,687.89,372.79Z"/><path class="cls-11" d="M721.8,397.45a3.35,3.35,0,0,1,3.39,3.5,3.45,3.45,0,0,1-6.89-.13A3.34,3.34,0,0,1,721.8,397.45Z"/></g><g class="cls-13"><path class="cls-11" d="M654.5,187.6c-2.31.12-4.63,0-7.08,0v-6.17c0-6.11,0-12.21,0-18.32,0-2.31-1.38-3.66-3.46-3.52-1.76.12-2.86,1.47-2.87,3.61q0,11.25,0,22.49v1.8H628v-2.08q0-14.5,0-29a11,11,0,0,0-.13-2,2.9,2.9,0,0,0-3.05-2.49c-1.87,0-3.07,1.35-3.07,3.53q0,15,0,30v2h-13.3c0-5.23,0-10.34,0-15.45,0-2.13-1.27-3.5-3.16-3.5s-3.15,1.37-3.16,3.51c0,3.94,0,7.88,0,11.83v3.61h-12V125.56a11.48,11.48,0,0,0,0-1.66,3.13,3.13,0,0,0-2.5-2.79,3,3,0,0,0-3.28,1.41c-.19.26-.35.54-.53.81V194h75v-4C658,188.11,656.5,187.5,654.5,187.6Z"/><path class="cls-11" d="M607.38,163.88a9.86,9.86,0,0,0,5.87-15.21c2.72-3.37,5.46-6.79,8.25-10.16.22-.27.85-.26,1.29-.27,1.48-.07,3-.15,4.45-.1a3.5,3.5,0,0,1,2,.56c1.73,1.47,3.32,3.12,5,4.65a1.88,1.88,0,0,1,.62,2.16,9.64,9.64,0,0,0,4.23,10.4,9.68,9.68,0,1,0,1.18-17c-.48.19-1.34.3-1.58,0-1.74-1.85-3.37-3.8-5.18-5.89,1.86-4.33,1.11-8.42-2.39-11.58a11.64,11.64,0,0,0-6-2.47h-.66a1.4,1.4,0,0,1-.46.19c-6.37.19-11.2,7.68-7.62,14.32a1.72,1.72,0,0,1-.2,1.53c-2.14,2.76-4.42,5.42-6.53,8.2-1,1.31-2,2.11-3.71,1.56a5.26,5.26,0,0,0-2.14.15,9.62,9.62,0,0,0-8,11.05A9.76,9.76,0,0,0,607.38,163.88Zm36.94-19.52a3.57,3.57,0,0,1,3.42,3.58,3.5,3.5,0,0,1-7,0A3.56,3.56,0,0,1,644.32,144.36ZM624.7,125.3a3.7,3.7,0,0,1,3.68,3.53,3.64,3.64,0,0,1-3.52,3.5,3.52,3.52,0,0,1-3.54-3.45A3.46,3.46,0,0,1,624.7,125.3Zm-19.45,25.63a3.43,3.43,0,0,1,3.49,3.46,3.5,3.5,0,1,1-7,0A3.43,3.43,0,0,1,605.25,150.93Z"/></g><g class="cls-13"><path class="cls-11" d="M152.57,559.38h0l0,0a1.84,1.84,0,0,0,1,.52,1.79,1.79,0,0,0,1.31-.29,8.53,8.53,0,0,0,.74-.73c.18-.19.36-.39.57-.6l.07,6-.09,6.13a1.34,1.34,0,0,0,.63,1.21,1.93,1.93,0,0,0,1,.27,2.07,2.07,0,0,0,1.08-.3,1.38,1.38,0,0,0,.72-1.23l-.2-16.38a2,2,0,0,0-.41-.92,3.19,3.19,0,0,0-.73-.62,2.07,2.07,0,0,0-1.13-.28A1.31,1.31,0,0,0,156,553h0c-.19.36-.39.7-.59,1s-.45.68-.7,1a10.44,10.44,0,0,1-.84,1l-.35.37-.73.69a1.71,1.71,0,0,0-.63,1.26,1.57,1.57,0,0,0,.39,1Z"/><path class="cls-11" d="M177.72,558.39a11,11,0,0,0-1-2.15,7.93,7.93,0,0,0-1.53-1.87,7.06,7.06,0,0,0-2.14-1.32,8.08,8.08,0,0,0-5.59,0,7.19,7.19,0,0,0-2.13,1.36,8.64,8.64,0,0,0-1.52,1.92,11.43,11.43,0,0,0-1,2.18,12.22,12.22,0,0,0-.53,2.23,15.31,15.31,0,0,0-.16,2,11.78,11.78,0,0,0,.43,3.07,9,9,0,0,0,1.39,2.92,7.66,7.66,0,0,0,2.48,2.21,7.5,7.5,0,0,0,3.72.87,8.05,8.05,0,0,0,3.69-.82,8,8,0,0,0,2.59-2.13A8.84,8.84,0,0,0,178,566a11.12,11.12,0,0,0,.49-3.21,15,15,0,0,0-.17-2.14A13.32,13.32,0,0,0,177.72,558.39Zm-2.92,6.75a5,5,0,0,1-.88,1.8,4.06,4.06,0,0,1-1.5,1.16,5.76,5.76,0,0,1-4.39,0,3.82,3.82,0,0,1-1.4-1.17,5,5,0,0,1-.81-1.79,10,10,0,0,1-.27-2.35,12.79,12.79,0,0,1,.28-2.61,7,7,0,0,1,.85-2.22,4.52,4.52,0,0,1,1.47-1.51,3.93,3.93,0,0,1,2.17-.55,4,4,0,0,1,2.14.54,4.37,4.37,0,0,1,1.47,1.46,7.15,7.15,0,0,1,.88,2.21,12.43,12.43,0,0,1,.29,2.68A8.9,8.9,0,0,1,174.8,565.14Z"/><path class="cls-11" d="M180.54,568.78A7.59,7.59,0,0,0,183,571a7.43,7.43,0,0,0,3.71.87,7.67,7.67,0,0,0,6.28-3,8.66,8.66,0,0,0,1.5-2.91,10.79,10.79,0,0,0,.49-3.21,15,15,0,0,0-.17-2.14,14.3,14.3,0,0,0-.55-2.26,12.29,12.29,0,0,0-1-2.15,8.13,8.13,0,0,0-1.53-1.87,7.11,7.11,0,0,0-2.15-1.32,8.05,8.05,0,0,0-5.58,0,6.92,6.92,0,0,0-2.14,1.36,8.32,8.32,0,0,0-1.51,1.92,10.88,10.88,0,0,0-1,2.18,13.1,13.1,0,0,0-.53,2.23,15.2,15.2,0,0,0-.15,2,11.37,11.37,0,0,0,.43,3.07A9,9,0,0,0,180.54,568.78Zm1.85-8.6a7,7,0,0,1,.85-2.22,4.61,4.61,0,0,1,1.47-1.51,3.93,3.93,0,0,1,2.17-.55,4,4,0,0,1,2.14.54,4.28,4.28,0,0,1,1.47,1.46,7.05,7.05,0,0,1,.88,2.21,12.43,12.43,0,0,1,.29,2.68,9.34,9.34,0,0,1-.29,2.35,5,5,0,0,1-.89,1.8,4.06,4.06,0,0,1-1.5,1.16,5.76,5.76,0,0,1-4.39,0,3.9,3.9,0,0,1-1.4-1.17,4.8,4.8,0,0,1-.8-1.79,10,10,0,0,1-.27-2.35A12.78,12.78,0,0,1,182.39,560.18Z"/><path class="cls-11" d="M164.26,591.21a8.8,8.8,0,0,0,1.5-2.92,10.79,10.79,0,0,0,.49-3.21,15.1,15.1,0,0,0-.17-2.14,14.3,14.3,0,0,0-.55-2.26,12.34,12.34,0,0,0-1-2.15,8.09,8.09,0,0,0-1.52-1.87,7.24,7.24,0,0,0-2.15-1.32,8.08,8.08,0,0,0-5.59,0,7.19,7.19,0,0,0-2.13,1.36,8.32,8.32,0,0,0-1.51,1.92,11.41,11.41,0,0,0-1,2.18,13.33,13.33,0,0,0-.53,2.23,15.31,15.31,0,0,0-.16,2,11.39,11.39,0,0,0,.44,3.07,9,9,0,0,0,1.38,2.92,7.28,7.28,0,0,0,6.2,3.08,7.87,7.87,0,0,0,3.69-.82A8.07,8.07,0,0,0,164.26,591.21Zm-1.66-3.78a4.81,4.81,0,0,1-.88,1.8,4.06,4.06,0,0,1-1.5,1.16,5.71,5.71,0,0,1-4.39,0,3.73,3.73,0,0,1-1.4-1.17,4.8,4.8,0,0,1-.8-1.79,9.89,9.89,0,0,1-.27-2.35,12.78,12.78,0,0,1,.27-2.61,7.12,7.12,0,0,1,.85-2.22,4.52,4.52,0,0,1,1.47-1.51,4.53,4.53,0,0,1,4.31,0,4.28,4.28,0,0,1,1.47,1.46,7.15,7.15,0,0,1,.88,2.21,12.43,12.43,0,0,1,.29,2.68A8.79,8.79,0,0,1,162.6,587.43Z"/><path class="cls-11" d="M171.3,577.28c-.25.33-.53.67-.84,1l-.3.32-.78.74a1.73,1.73,0,0,0-.63,1.26,1.52,1.52,0,0,0,.39,1h0l0,0a1.75,1.75,0,0,0,2.28.23,10.23,10.23,0,0,0,.74-.73c.18-.2.36-.39.57-.6l.06,6-.09,6.13a1.36,1.36,0,0,0,.63,1.21,1.93,1.93,0,0,0,1,.27,2.13,2.13,0,0,0,1.09-.3,1.37,1.37,0,0,0,.71-1.23L176,576.3a2,2,0,0,0-.42-.92,2.81,2.81,0,0,0-.73-.62,1.86,1.86,0,0,0-1.12-.28,1.3,1.3,0,0,0-1.14.76h0c-.2.35-.4.69-.6,1S171.55,576.94,171.3,577.28Z"/><path class="cls-11" d="M199.83,559.38h0l0,0a1.74,1.74,0,0,0,2.27.23,8.53,8.53,0,0,0,.74-.73c.18-.2.36-.39.57-.6l.06,6-.09,6.13a1.36,1.36,0,0,0,.63,1.21,2,2,0,0,0,1,.27,2.12,2.12,0,0,0,1.08-.3,1.38,1.38,0,0,0,.71-1.23L206.68,554a2,2,0,0,0-.41-.92,3.22,3.22,0,0,0-.73-.62,2.07,2.07,0,0,0-1.13-.28,1.3,1.3,0,0,0-1.13.77h0c-.19.36-.39.7-.59,1s-.45.68-.7,1a12.13,12.13,0,0,1-.84,1l-.35.37-.73.69a1.71,1.71,0,0,0-.63,1.26,1.57,1.57,0,0,0,.39,1Z"/><path class="cls-11" d="M211.24,568.78a7.24,7.24,0,0,0,6.19,3.08,7.67,7.67,0,0,0,6.29-3,8.85,8.85,0,0,0,1.5-2.91,11.1,11.1,0,0,0,.48-3.21,13.66,13.66,0,0,0-.17-2.14,12.81,12.81,0,0,0-.55-2.26,11.6,11.6,0,0,0-1-2.15,7.93,7.93,0,0,0-1.53-1.87,7.06,7.06,0,0,0-2.14-1.32,8.08,8.08,0,0,0-5.59,0,7.06,7.06,0,0,0-2.13,1.36,8.41,8.41,0,0,0-1.52,1.92,12.24,12.24,0,0,0-1,2.17,12.77,12.77,0,0,0-.53,2.24,13.6,13.6,0,0,0-.16,2,11.83,11.83,0,0,0,.43,3.07A9,9,0,0,0,211.24,568.78Zm1.85-8.6a6.71,6.71,0,0,1,.85-2.22,4.59,4.59,0,0,1,1.46-1.51,4,4,0,0,1,2.17-.55,4,4,0,0,1,2.15.54,4.37,4.37,0,0,1,1.47,1.46,7,7,0,0,1,.87,2.21,12,12,0,0,1,.3,2.68,8.79,8.79,0,0,1-.3,2.35,5,5,0,0,1-.88,1.8,4.15,4.15,0,0,1-1.5,1.16,5.78,5.78,0,0,1-4.4,0,3.87,3.87,0,0,1-1.39-1.17,5,5,0,0,1-.81-1.8,9.69,9.69,0,0,1-.27-2.34A12,12,0,0,1,213.09,560.18Z"/><path class="cls-11" d="M159,598.86a3.19,3.19,0,0,0-.73-.62,2,2,0,0,0-1.13-.28,1.31,1.31,0,0,0-1.13.77h0c-.19.36-.39.7-.59,1s-.45.68-.7,1a10.44,10.44,0,0,1-.84,1l-.29.31-.79.74a1.74,1.74,0,0,0-.63,1.26,1.59,1.59,0,0,0,.39,1.06h0l0,0a1.76,1.76,0,0,0,2.27.22,7.23,7.23,0,0,0,.74-.72c.18-.2.36-.39.57-.6l.07,6-.09,6.13a1.35,1.35,0,0,0,.63,1.21,1.93,1.93,0,0,0,1,.27,2.07,2.07,0,0,0,1.08-.3,1.38,1.38,0,0,0,.72-1.24l-.2-16.37A2,2,0,0,0,159,598.86Z"/><path class="cls-11" d="M177.72,604.17a11.31,11.31,0,0,0-1-2.15,8,8,0,0,0-1.53-1.88,7.26,7.26,0,0,0-2.14-1.32,8.08,8.08,0,0,0-5.59,0,7,7,0,0,0-2.13,1.36,8.64,8.64,0,0,0-1.52,1.92,11.43,11.43,0,0,0-1,2.18,12,12,0,0,0-.53,2.23,15.3,15.3,0,0,0-.16,2,11.79,11.79,0,0,0,.43,3.08,9.14,9.14,0,0,0,1.39,2.92,7.24,7.24,0,0,0,6.2,3.08,7.67,7.67,0,0,0,6.28-2.95,8.79,8.79,0,0,0,1.5-2.92,11,11,0,0,0,.49-3.21,14.85,14.85,0,0,0-.17-2.13A13.82,13.82,0,0,0,177.72,604.17Zm-2.92,6.75a4.84,4.84,0,0,1-.88,1.79,4.09,4.09,0,0,1-1.5,1.17,5.76,5.76,0,0,1-4.39,0,3.82,3.82,0,0,1-1.4-1.17,5,5,0,0,1-.81-1.8,9.83,9.83,0,0,1-.27-2.35,12.77,12.77,0,0,1,.28-2.6,7,7,0,0,1,.85-2.22,4.43,4.43,0,0,1,1.47-1.51,3.93,3.93,0,0,1,2.17-.55,4.09,4.09,0,0,1,2.14.53,4.46,4.46,0,0,1,1.47,1.46,7.21,7.21,0,0,1,.88,2.22,12.41,12.41,0,0,1,.29,2.67A8.92,8.92,0,0,1,174.8,610.92Z"/><path class="cls-11" d="M220.61,593.93a1.93,1.93,0,0,0,1,.27,2.13,2.13,0,0,0,1.09-.3,1.37,1.37,0,0,0,.71-1.23l-.2-16.37a1.87,1.87,0,0,0-.41-.92,2.76,2.76,0,0,0-.73-.62,1.86,1.86,0,0,0-1.12-.28,1.3,1.3,0,0,0-1.14.76h0c-.19.35-.39.69-.59,1s-.44.68-.7,1a11.93,11.93,0,0,1-.83,1,3.83,3.83,0,0,1-.28.29l-.81.77a1.73,1.73,0,0,0-.63,1.26,1.58,1.58,0,0,0,.39,1h0l0,0a1.74,1.74,0,0,0,1,.52,1.78,1.78,0,0,0,1.32-.29,10.23,10.23,0,0,0,.74-.73c.17-.2.36-.39.56-.6l.07,6-.09,6.13A1.34,1.34,0,0,0,220.61,593.93Z"/><path class="cls-11" d="M196.38,598.43a5.65,5.65,0,0,1-5.64-5.65,2,2,0,0,0-4,0,9.68,9.68,0,0,0,9.66,9.67,2,2,0,0,0,0-4Z"/><path class="cls-11" d="M214.76,603.36l-1,1L212,602.58a18.22,18.22,0,1,0-30.55-1.84,7.28,7.28,0,0,0-1.09,1.38,10.88,10.88,0,0,0-1,2.18,12.88,12.88,0,0,0-.53,2.23,15.18,15.18,0,0,0-.15,2,11.38,11.38,0,0,0,.43,3.08,9.12,9.12,0,0,0,1.38,2.92,7.28,7.28,0,0,0,6.2,3.08,7.67,7.67,0,0,0,6.28-2.95,8.61,8.61,0,0,0,1.5-2.92,10.62,10.62,0,0,0,.39-1.91,17.85,17.85,0,0,0,2.44.18,18.1,18.1,0,0,0,10.76-3.55l1.76,1.76-1,1L220.66,621l1-1,3.92-3.91,1-1Zm-23.39,7.56a4.85,4.85,0,0,1-.89,1.79,4,4,0,0,1-1.5,1.17,5.76,5.76,0,0,1-4.39,0,3.9,3.9,0,0,1-1.4-1.17,4.85,4.85,0,0,1-.8-1.8,9.83,9.83,0,0,1-.27-2.35,12.75,12.75,0,0,1,.27-2.6,7,7,0,0,1,.85-2.22c0-.08.12-.14.17-.21a18.23,18.23,0,0,0,8.18,5.56A8.82,8.82,0,0,1,191.37,610.92Zm6-5.51a13.36,13.36,0,0,1-2.84-.31,13.53,13.53,0,0,1-4.28-1.76,14,14,0,0,1-1.85-1.39,13.34,13.34,0,0,1-1.51-1.59l-.07-.08a12.88,12.88,0,0,1-1.24-1.84,13.44,13.44,0,0,1-1.8-6.62,13.6,13.6,0,1,1,13.59,13.59Z"/></g><g id="HWi1vo.tif" class="cls-13"><path class="cls-11" d="M57,371.21v-4a5.25,5.25,0,0,0,.13-.69,23.05,23.05,0,0,1,1.72-7.26,14,14,0,0,1,5.85-7c4.67-2.67,9.36-5.29,14-7.92a.86.86,0,0,0,.51-.88c0-4.15,0-8.31,0-12.46a7,7,0,0,1,.55-2.59,4.9,4.9,0,0,1,3.66-2.72H117.2a12.83,12.83,0,0,1,2.16,1,4.94,4.94,0,0,1,2,4.42c0,5.79,0,11.57,0,17.35v.91c.66,0,1.25,0,1.83,0a3.87,3.87,0,0,1,3.73,3.81c.1,2.3-1.25,4.16-3.41,4.26-3.06.14-6.13.07-9.19,0a3.49,3.49,0,0,1-1.8-.73,4.1,4.1,0,0,1-1.31-4.71,3.84,3.84,0,0,1,3.66-2.62c1,0,2,0,3,0V333.57H82.72v8.56l.69-.37c2.21-1.21,4.41-2.46,6.64-3.63a10.73,10.73,0,0,1,2.55-1,3.36,3.36,0,0,1,4.29,2.45,4.19,4.19,0,0,1-.68,3.64,13.75,13.75,0,0,1-1.83,2,97.51,97.51,0,0,1-11.14,8.36,1.12,1.12,0,0,0-.59,1.08q0,16.85,0,33.7v.74h35.28v-2.62c-1.17,0-2.3.06-3.42,0a4.07,4.07,0,0,1,.18-8.07q4.27-.09,8.57,0a4.06,4.06,0,0,1,.12,8.08c-.63.05-1.26,0-2,0v.87c0,1.84.06,3.69,0,5.52a7.77,7.77,0,0,1-.57,2.66,5,5,0,0,1-3.61,2.68H83.49a2.77,2.77,0,0,0-.26-.1,4.94,4.94,0,0,1-4-5.06c0-1.51,0-3,0-4.53,0-.25,0-.5,0-.78-1.57,0-3,0-4.53,0a18.3,18.3,0,0,1-5.93-.83A15.44,15.44,0,0,1,57.7,375.3C57.36,374,57.23,372.57,57,371.21Zm40.9,22.16a2.43,2.43,0,1,0,2.41-2.45A2.45,2.45,0,0,0,97.9,393.37Zm2.41-62.93h4.87c.42,0,.87,0,.88-.56s-.46-.61-.91-.61H95.54c-.44,0-.94,0-1,.57s.53.6,1,.6Z"/><path class="cls-11" d="M119,367.24h-3.89a3.9,3.9,0,0,1-4.07-4.05,3.85,3.85,0,0,1,3.91-4.12q4.06-.1,8.13,0a3.88,3.88,0,0,1,3.9,4.28,3.93,3.93,0,0,1-4.09,3.89Z"/><path class="cls-11" d="M119,376.89c-1.39,0-2.78,0-4.17,0a3.79,3.79,0,0,1-3.69-3.35c-.26-2.32.78-4.07,2.78-4.63a5.31,5.31,0,0,1,1.26-.16c2.59,0,5.19,0,7.78,0a3.85,3.85,0,0,1,3.85,2.65,4.08,4.08,0,0,1-1.35,4.69,4.62,4.62,0,0,1-2.14.77c-1.43.12-2.88,0-4.32,0Z"/></g><g class="cls-13"><path class="cls-11" d="M425.59,57.5c-.7-2.64-2.39-3.79-5.14-3.43-1.53.19-3,.47-4.55.75-6.69,1.25-13.28,2.81-20.25,1.45-5.1-1-10.37-1.09-15.57-1.57-7.23-.66-12.51,2.62-12.88,9-.51,8.6-.13,17.26-.13,26h22.77c.44-6.89.88-13.7,1.31-20.56,4.06,0,7.9.09,11.74,0a18.58,18.58,0,0,0,5.76-.88c4.73-1.72,9.35-3.73,14-5.63C425.4,61.52,426.26,60,425.59,57.5Z"/><path class="cls-11" d="M429.52,57.41c.61,5.26-1.64,7.86-6.08,9.12a82.11,82.11,0,0,0-8.09,3.23c-6,2.41-6,2.41-6,8.78V89.69h22.39c.43-7.89.87-15.58,1.26-23.27C433.21,63.22,432.19,60.39,429.52,57.41Z"/><path class="cls-11" d="M381.7,50.51a11.62,11.62,0,0,0,11.7-11.42,11.63,11.63,0,1,0-23.26-.47A11.71,11.71,0,0,0,381.7,50.51Z"/><path class="cls-11" d="M410.86,52.52a10.73,10.73,0,1,0-10.79-10.79A10.91,10.91,0,0,0,410.86,52.52Z"/></g><path class="cls-14" d="M419.23,659.23A20.77,20.77,0,0,0,400,672.13,20.78,20.78,0,0,0,360,680a19.76,19.76,0,0,0,4.85,13.33c8.43,9.29,35.15,35.82,35.15,35.82s2.89-2.86,7.06-7l-10.58-10.58a4.31,4.31,0,0,1-5.69-.34l-14.56-15.56a1.05,1.05,0,0,1,0-1.46l.34-.34a1.08,1.08,0,0,1,.75-.31,1,1,0,0,1,.74.31l11.11,11.1a1.05,1.05,0,0,0,1.5,0,1.06,1.06,0,0,0,0-1.51L379.9,692a1,1,0,0,1-.28-.74,1.07,1.07,0,0,1,.3-.73l.37-.36a1,1,0,0,1,.73-.31,1.06,1.06,0,0,1,.73.29l11.46,10.8a1.07,1.07,0,1,0,1.51-1.51l-11.11-11.11a1,1,0,0,1,0-1.48l.35-.35a1.06,1.06,0,0,1,.72-.31,1.07,1.07,0,0,1,.74.29L401,701a4.29,4.29,0,0,1,.34,5.69l10.58,10.58c2.53-2.54,5.24-5.28,7.93-8l-5.45-5.46-.41.41a2.12,2.12,0,0,1-3,0l-16.8-16.79a7.88,7.88,0,0,1,0-11.14l.1-.1a1.53,1.53,0,0,1,2.17,0L419.2,699l5.42,5.41c4.29-4.4,8.15-8.42,10.53-11A19.71,19.71,0,0,0,440,680,20.78,20.78,0,0,0,419.23,659.23Z"/></g></g></svg>