<?xml version="1.0" encoding="utf-8"?>
<!-- Generator: Adobe Illustrator 22.1.0, SVG Export Plug-In . SVG Version: 6.00 Build 0)  -->
<svg version="1.1" id="Layer_1_2_" xmlns="http://www.w3.org/2000/svg" xmlns:xlink="http://www.w3.org/1999/xlink" x="0px" y="0px"
	 viewBox="0 0 758 766" style="enable-background:new 0 0 758 766;" xml:space="preserve">
<style type="text/css">
	.st0{fill:#5091CD;}
	.st1{opacity:0.5;}
	.st2{fill:#FFFFFF;}
	.st3{fill:#007FA4;}
	.st4{enable-background:new    ;}
	.st5{fill:#008656;}
	.st6{fill:#E5AA17;}
	.st7{opacity:0.5;fill:#FFFFFF;enable-background:new    ;}
	.st8{fill:#D85820;}
	.st9{fill:#7365AD;}
	.st10{fill:#3F3884;}
	.st11{fill:url(#SVGID_1_);}
	.st12{fill:none;stroke:url(#SVGID_2_);stroke-miterlimit:10;}
	.st13{fill:#514689;}
</style>
<g id="Layer_1">
	<title>prev-med-ring-7-circles copy 2</title>
	<g id="Layer_1_1_">
		<g>
			<g id="Icons">
				<g id="Behavioral_Medicine">
					<path class="st0" d="M445.2,169.6c16.3-16.6,25.6-38.8,25.8-62.1c0.5-49.3-39.4-90.3-88.7-91c-49.7-0.7-90.6,39-91.3,88.7
						c-0.3,23.6,8.6,46.4,25,63.5c1.5,1.6,1.5,4.1-0.1,5.7c-0.5,0.5-1,0.8-1.7,1c-20.6,6.1-40.3,15.1-58.4,26.7
						c12.3,96.3,62.7,168.4,123.1,168.4s110.8-72.1,123.1-168.4c-17.2-11.1-35.8-19.7-55.3-25.8c-2.1-0.6-3.3-2.9-2.7-5
						C444.4,170.6,444.7,170.1,445.2,169.6z"/>
					<g id="Behavioral_Medicine_Icon" class="st1">
						<path class="st2" d="M410.6,67.5c-0.7-2.6-2.4-3.8-5.1-3.4c-1.5,0.2-3,0.5-4.5,0.8c-6.7,1.2-13.3,2.8-20.2,1.4
							c-5.1-1-10.4-1.1-15.6-1.6c-7.2-0.7-12.5,2.6-12.9,9c-0.5,8.6-0.1,17.3-0.1,26h22.8c0.4-6.9,0.9-13.7,1.3-20.6
							c4.1,0,7.9,0.1,11.7,0c2,0,3.9-0.3,5.8-0.9c4.7-1.7,9.4-3.7,14-5.6C410.4,71.5,411.3,70,410.6,67.5z"/>
						<path class="st2" d="M414.5,67.4c0.6,5.3-1.6,7.9-6.1,9.1c-2.8,0.9-5.5,2-8.1,3.2c-6,2.4-6,2.4-6,8.8v11.1h22.4
							c0.4-7.9,0.9-15.6,1.3-23.3C418.2,73.2,417.2,70.4,414.5,67.4z"/>
						<path class="st2" d="M366.7,60.5c6.4,0,11.6-5,11.7-11.4c0.1-6.4-5-11.7-11.4-11.9c-6.4-0.1-11.7,5-11.9,11.4
							C355,55.1,360.2,60.4,366.7,60.5C366.7,60.5,366.7,60.5,366.7,60.5z"/>
						<path class="st2" d="M395.9,62.5c5.9,0,10.7-4.9,10.7-10.8s-4.9-10.7-10.8-10.7c-5.9,0-10.6,4.8-10.7,10.7
							C385.1,57.7,389.9,62.5,395.9,62.5z"/>
					</g>
					<g id="Behavioral_Medicine_Text">
						<path class="st2" d="M350,139.1c-1,0.7-2.2,1-3.4,0.9h-5.1v-12.8h5.1c1-0.1,2.1,0.2,3,0.7c0.9,0.6,1.5,1.7,1.5,2.8
							c0.1,1.1-0.6,2.2-1.6,2.7c1.1,0.5,1.9,1.6,1.8,2.9C351.4,137.4,350.9,138.4,350,139.1z M346.7,129.2h-2.9v3.2h2.9
							c1,0,1.9-0.4,1.9-1.6S347.7,129.2,346.7,129.2L346.7,129.2z M346.8,134.3h-2.9v3.6h2.9c1.1,0,2.2-0.4,2.2-1.7
							S347.9,134.3,346.8,134.3L346.8,134.3z"/>
						<path class="st2" d="M361.2,136H355c0,0.7,0.2,1.3,0.7,1.8c0.4,0.4,0.9,0.6,1.4,0.6c0.8,0.1,1.6-0.4,1.8-1.2h2.1
							c-0.1,0.6-0.4,1.2-0.8,1.7c-0.8,0.9-2,1.4-3.1,1.3c-1.1,0-2.2-0.4-3-1.2c-1-1-1.5-2.3-1.4-3.7c-0.1-1.4,0.4-2.7,1.4-3.8
							c0.8-0.8,1.9-1.2,3-1.2c1.4-0.1,2.7,0.6,3.4,1.7c0.6,1,0.9,2.1,0.8,3.3C361.2,135.4,361.2,135.8,361.2,136z M358.4,132.7
							c-0.4-0.4-0.9-0.6-1.4-0.5c-0.6,0-1.2,0.2-1.6,0.7c-0.3,0.4-0.5,0.9-0.5,1.4h4C359,133.8,358.8,133.2,358.4,132.7L358.4,132.7
							z"/>
						<path class="st2" d="M369,140v-5.8c0-1.1-0.4-1.7-1.5-1.7c-1.4,0-1.9,1.4-1.9,2.6v4.9h-2.2v-13h2.2v4.6
							c0.6-0.8,1.6-1.2,2.5-1.2c1.7-0.1,3.1,1.3,3.2,3c0,0.1,0,0.3,0,0.4v6.2H369z"/>
						<path class="st2" d="M380.9,140.1c-0.8,0.1-1.5-0.5-1.6-1.3c-0.6,0.9-1.7,1.5-2.8,1.4c-2.2,0-3.4-1.4-3.4-2.9
							c0-1.8,1.4-2.8,3.2-2.9l2.8-0.2v-0.6c0-0.9-0.3-1.5-1.6-1.5c-1,0-1.7,0.5-1.7,1.3h-2.2c0.1-2.1,1.8-3,3.9-3
							c1.6,0,3,0.5,3.5,1.9c0.2,0.6,0.3,1.2,0.3,1.9v3.5c0,0.4,0.1,0.6,0.5,0.6c0.1,0,0.2,0,0.3,0v1.6
							C381.6,140.1,381.2,140.1,380.9,140.1z M379,135.8l-2.4,0.2c-0.7,0-1.3,0.5-1.4,1.2c0,0.7,0.6,1.2,1.3,1.2c0,0,0,0,0,0
							c1.2,0.1,2.2-0.7,2.4-1.8c0-0.1,0-0.2,0-0.3V135.8z"/>
						<path class="st2" d="M388,140h-2.4l-3.5-9.4h2.4l2.3,6.6l2.2-6.6h2.3L388,140z"/>
						<path class="st2" d="M392.8,129.3V127h2.4v2.3L392.8,129.3z M392.9,140v-9.4h2.3v9.4L392.9,140z"/>
						<path class="st2" d="M404.8,138.7c-1.6,1.8-4.4,2-6.2,0.3c-0.1-0.1-0.2-0.2-0.3-0.3c-1.5-2.1-1.5-4.8,0-6.9
							c1.6-1.8,4.4-1.9,6.2-0.3c0.1,0.1,0.2,0.2,0.3,0.3C406.3,133.9,406.3,136.7,404.8,138.7z M403,132.9c-0.4-0.4-0.9-0.6-1.4-0.6
							c-0.5,0-1,0.2-1.4,0.6c-0.9,1.4-0.9,3.3,0,4.7c0.4,0.4,0.9,0.6,1.4,0.6c0.5,0,1.1-0.2,1.4-0.6
							C403.9,136.2,403.9,134.4,403,132.9z"/>
						<path class="st2" d="M412.6,132.6c-1.3,0-2.4,1-2.4,2.3c0,0.1,0,0.2,0,0.3v4.8h-2.3v-9.4h1.9l0.2,1.4c0.5-1,1.5-1.6,2.6-1.5
							c0.2,0,0.5,0,0.7,0.1v2.2C413.1,132.6,412.9,132.6,412.6,132.6z"/>
						<path class="st2" d="M422.1,140.1c-0.8,0.1-1.5-0.5-1.6-1.3c-0.6,0.9-1.7,1.5-2.9,1.4c-2.2,0-3.4-1.4-3.4-2.9
							c0-1.8,1.4-2.8,3.2-2.9l2.8-0.2v-0.6c0-0.9-0.3-1.5-1.6-1.5c-1,0-1.7,0.5-1.7,1.3h-2.2c0.1-2.1,1.8-3,3.9-3
							c1.6,0,3,0.5,3.5,1.9c0.2,0.6,0.3,1.2,0.3,1.9v3.5c0,0.4,0.1,0.6,0.5,0.6c0.1,0,0.2,0,0.3,0v1.6
							C422.9,140.1,422.5,140.1,422.1,140.1z M420.2,135.8l-2.4,0.2c-0.7,0-1.3,0.5-1.4,1.2c0,0.7,0.6,1.2,1.3,1.2c0,0,0,0,0.1,0
							c1.2,0.1,2.2-0.7,2.4-1.8c0-0.1,0-0.2,0-0.3L420.2,135.8z"/>
						<path class="st2" d="M427.5,140.1c-1.2,0.2-2.4-0.7-2.6-1.9c0-0.2,0-0.4,0-0.6v-10.6h2.3v10.2c0,0.5,0.1,0.9,0.9,0.9
							c0.2,0,0.2,0,0.4,0v1.9C428.2,140,427.8,140.1,427.5,140.1z"/>
						<path class="st2" d="M358.5,159v-9.1l-3.3,8.9h-1.7l-3.3-9v9.2H348v-12.8h3.1l3.4,9.1l3.4-9.1h3V159H358.5z"/>
						<path class="st2" d="M371.4,155h-6.3c0,0.7,0.2,1.3,0.7,1.8c0.4,0.4,0.9,0.6,1.4,0.6c0.8,0.1,1.6-0.4,1.8-1.2h2.2
							c-0.1,0.6-0.4,1.2-0.8,1.7c-0.8,0.9-2,1.4-3.1,1.3c-1.1,0-2.2-0.4-3-1.2c-1-1-1.5-2.3-1.4-3.7c-0.1-1.4,0.4-2.7,1.4-3.8
							c0.8-0.8,1.9-1.2,3-1.2c1.4-0.1,2.7,0.6,3.4,1.7c0.6,1,0.9,2.1,0.8,3.3C371.4,154.4,371.4,154.8,371.4,155z M368.6,151.7
							c-0.4-0.4-0.9-0.6-1.4-0.5c-0.6,0-1.2,0.2-1.6,0.7c-0.3,0.4-0.5,0.9-0.5,1.4h4C369.2,152.8,369,152.2,368.6,151.7L368.6,151.7
							z"/>
						<path class="st2" d="M379.6,159l-0.1-1c-0.6,0.8-1.6,1.3-2.6,1.2c-0.8,0-1.6-0.3-2.3-0.8c-1.1-1-1.8-2.5-1.6-4.1
							c-0.1-1.6,0.5-3.1,1.7-4.2c0.7-0.5,1.5-0.8,2.3-0.8c0.9-0.1,1.8,0.2,2.5,0.9V146h2.2v13H379.6z M377.3,151.3
							c-0.6,0-1.2,0.3-1.5,0.7c-0.4,0.7-0.6,1.5-0.6,2.3c0,0.8,0.2,1.6,0.6,2.3c0.4,0.5,0.9,0.7,1.5,0.7c1.8,0,2.1-1.7,2.1-3
							S379,151.3,377.3,151.3L377.3,151.3z"/>
						<path class="st2" d="M384,148.3V146h2.4v2.3L384,148.3z M384.1,159v-9.4h2.3v9.4L384.1,159z"/>
						<path class="st2" d="M395.9,157.7c-0.8,1-2,1.5-3.2,1.5c-1.3,0-2.4-0.5-3.3-1.5c-1.4-2.1-1.4-4.8,0-6.8c0.8-0.9,2-1.5,3.3-1.5
							c1.2,0,2.4,0.5,3.2,1.5c0.4,0.6,0.7,1.3,0.7,2h-2.2c0-0.3-0.1-0.6-0.3-0.9c-0.3-0.5-0.9-0.7-1.4-0.7c-0.5,0-1,0.2-1.4,0.6
							c-0.8,1.5-0.8,3.3,0,4.7c0.4,0.4,0.9,0.6,1.4,0.6c0.6,0,1.1-0.2,1.4-0.7c0.2-0.3,0.3-0.6,0.3-0.9h2.2
							C396.6,156.4,396.3,157.1,395.9,157.7z"/>
						<path class="st2" d="M398.5,148.3V146h2.4v2.3L398.5,148.3z M398.5,159v-9.4h2.3v9.4L398.5,159z"/>
						<path class="st2" d="M409.1,159v-5.7c0-1.1-0.4-1.8-1.5-1.8c-0.7,0-1.4,0.5-1.6,1.2c-0.3,0.8-0.4,1.7-0.3,2.5v3.8h-2.2v-9.4
							h1.9l0.2,1.2c1-1.5,3-1.9,4.5-0.9c0.9,0.6,1.5,1.7,1.4,2.8v6.3H409.1z"/>
						<path class="st2" d="M421.8,155h-6.3c0,0.7,0.2,1.3,0.7,1.8c0.4,0.4,0.9,0.6,1.4,0.6c0.5,0.1,1-0.1,1.4-0.4
							c0.2-0.2,0.4-0.5,0.5-0.8h2.2c-0.1,0.6-0.4,1.2-0.8,1.7c-0.8,0.9-2,1.4-3.1,1.3c-1.1,0-2.2-0.4-3-1.2c-1-1-1.5-2.3-1.4-3.7
							c-0.1-1.4,0.4-2.7,1.4-3.8c0.8-0.8,1.9-1.2,3-1.2c1.4-0.1,2.7,0.6,3.4,1.7c0.6,1,0.9,2.1,0.8,3.3
							C421.8,154.4,421.8,154.8,421.8,155z M419,151.7c-0.9-0.8-2.2-0.7-3,0.1c0,0,0,0,0,0c-0.3,0.4-0.5,0.9-0.5,1.4h4
							C419.6,152.8,419.4,152.2,419,151.7L419,151.7z"/>
					</g>
				</g>
				<g id="Biostatistics">
					<path class="st3" d="M596.6,306.4c23.1,2.5,46.3-4.1,64.7-18.4c39-30.3,46.2-87,16-126.1c-30.4-39.3-86.9-46.6-126.2-16.2
						c-18.7,14.4-31,35.7-34.2,59.1c-0.3,2.2-2.3,3.7-4.5,3.4c-0.6-0.1-1.2-0.3-1.8-0.7c-17.6-12.3-36.9-22.1-57.3-29
						c-67.7,69.6-92.7,154-55.1,201.2s125.5,41.8,208.5-8.5c-2.1-20.3-6.8-40.3-14.2-59.4c-0.8-2,0.2-4.4,2.2-5.2
						C595.2,306.5,595.9,306.4,596.6,306.4z"/>
					<g id="Biostatistics_Icon" class="st1">
						<path class="st2" d="M641.5,225.6c-2.3,0.1-4.6,0-7.1,0v-6.2c0-6.1,0-12.2,0-18.3c0-2.3-1.4-3.7-3.5-3.5
							c-1.8,0.1-2.9,1.5-2.9,3.6c0,7.5,0,15,0,22.5v1.8H615v-2.1c0-9.7,0-19.3,0-29c0-0.7,0-1.3-0.1-2c-0.2-1.5-1.5-2.6-3-2.5
							c-1.9,0-3.1,1.4-3.1,3.5c0,10,0,20,0,30v2h-13.3c0-5.2,0-10.3,0-15.4c0-2.1-1.3-3.5-3.2-3.5s-3.2,1.4-3.2,3.5
							c0,3.9,0,7.9,0,11.8v3.6h-12v-61.9c0-0.6,0-1.1,0-1.7c-0.1-1.4-1.1-2.5-2.5-2.8c-1.3-0.3-2.6,0.3-3.3,1.4
							c-0.2,0.3-0.3,0.5-0.5,0.8V232h75v-4C645,226.1,643.5,225.5,641.5,225.6z"/>
						<path class="st2" d="M594.4,201.9c5.3-1.2,8.6-6.5,7.4-11.8c-0.3-1.2-0.8-2.3-1.5-3.4c2.7-3.4,5.5-6.8,8.2-10.2
							c0.2-0.3,0.8-0.3,1.3-0.3c1.5-0.1,3-0.1,4.5-0.1c0.7,0,1.4,0.2,2,0.6c1.7,1.5,3.3,3.1,5,4.6c0.7,0.5,0.9,1.4,0.6,2.2
							c-1,4,0.7,8.2,4.2,10.4c4.5,2.9,10.5,1.5,13.4-3c2.9-4.5,1.5-10.5-3-13.4c-2.8-1.7-6.2-2-9.2-0.6c-0.5,0.2-1.3,0.3-1.6,0
							c-1.7-1.9-3.4-3.8-5.2-5.9c1.9-4.3,1.1-8.4-2.4-11.6c-1.7-1.4-3.8-2.2-6-2.5h-0.7c-0.1,0.1-0.3,0.2-0.5,0.2
							c-6.4,0.2-11.2,7.7-7.6,14.3c0.2,0.5,0.1,1.1-0.2,1.5c-2.1,2.8-4.4,5.4-6.5,8.2c-1,1.3-2,2.1-3.7,1.6c-0.7-0.1-1.4,0-2.1,0.1
							c-5.2,0.8-8.8,5.7-8,11c0,0,0,0,0,0.1c0.9,5.3,6,8.9,11.3,8C594.2,201.9,594.3,201.9,594.4,201.9z M631.3,182.4
							c1.9,0.1,3.4,1.7,3.4,3.6c0,1.9-1.6,3.5-3.5,3.5s-3.5-1.6-3.5-3.5C627.7,184,629.3,182.4,631.3,182.4
							C631.3,182.4,631.3,182.4,631.3,182.4z M611.7,163.3c2,0,3.6,1.6,3.7,3.5c-0.1,1.9-1.6,3.4-3.5,3.5c-1.9,0-3.5-1.5-3.5-3.4
							C608.3,165,609.7,163.4,611.7,163.3C611.7,163.3,611.7,163.3,611.7,163.3z M592.2,188.9c1.9,0,3.5,1.5,3.5,3.4
							c0,0,0,0.1,0,0.1c0,1.9-1.6,3.5-3.5,3.5s-3.5-1.6-3.5-3.5l0,0c0-1.9,1.5-3.4,3.4-3.5C592.2,188.9,592.2,188.9,592.2,188.9
							L592.2,188.9z"/>
					</g>
					<g id="Biostatistics_Text">
						<g class="st4">
							<path class="st2" d="M556.4,251.1h5.2c1,0,1.8,0,2.3,0.1c0.5,0.1,0.9,0.3,1.3,0.5s0.7,0.6,1,1.1c0.3,0.4,0.4,1,0.4,1.5
								c0,0.6-0.2,1.2-0.5,1.7s-0.8,0.9-1.3,1.1c0.8,0.2,1.4,0.6,1.8,1.2s0.6,1.2,0.6,1.9c0,0.6-0.1,1.2-0.4,1.7
								c-0.3,0.6-0.6,1-1.1,1.3c-0.5,0.3-1.1,0.5-1.7,0.6c-0.4,0-1.5,0.1-3.1,0.1h-4.4V251.1z M559,253.2v3h1.7c1,0,1.6,0,1.9,0
								c0.4-0.1,0.8-0.2,1-0.5c0.3-0.3,0.4-0.6,0.4-1c0-0.4-0.1-0.7-0.3-1c-0.2-0.2-0.5-0.4-1-0.5c-0.3,0-1,0-2.2,0H559z M559,258.3
								v3.4h2.4c0.9,0,1.5,0,1.8-0.1c0.4-0.1,0.7-0.2,0.9-0.5c0.2-0.3,0.4-0.6,0.4-1.1c0-0.4-0.1-0.7-0.3-1s-0.5-0.5-0.8-0.6
								s-1.1-0.2-2.3-0.2H559z"/>
						</g>
						<g class="st4">
							<path class="st2" d="M568.2,253.4v-2.3h2.5v2.3H568.2z M568.2,264v-9.3h2.5v9.3H568.2z"/>
						</g>
						<g class="st4">
							<path class="st2" d="M572.6,259.2c0-0.8,0.2-1.6,0.6-2.4s1-1.4,1.7-1.8s1.6-0.6,2.5-0.6c1.4,0,2.6,0.5,3.5,1.4
								c0.9,0.9,1.4,2.1,1.4,3.5c0,1.4-0.5,2.6-1.4,3.5s-2.1,1.4-3.4,1.4c-0.9,0-1.7-0.2-2.4-0.6s-1.4-1-1.8-1.7
								C572.8,261.1,572.6,260.2,572.6,259.2z M575.1,259.3c0,0.9,0.2,1.6,0.7,2.1s1,0.7,1.6,0.7s1.2-0.2,1.6-0.7s0.7-1.2,0.7-2.1
								c0-0.9-0.2-1.6-0.7-2.1s-1-0.7-1.6-0.7s-1.2,0.2-1.6,0.7S575.1,258.4,575.1,259.3z"/>
						</g>
						<g class="st4">
							<path class="st2" d="M582.5,261.3l2.5-0.4c0.1,0.5,0.3,0.8,0.6,1.1c0.3,0.2,0.8,0.4,1.4,0.4c0.6,0,1.1-0.1,1.4-0.4
								c0.2-0.2,0.3-0.4,0.3-0.7c0-0.2-0.1-0.3-0.2-0.5c-0.1-0.1-0.4-0.2-0.8-0.3c-2-0.4-3.3-0.8-3.8-1.2c-0.7-0.5-1.1-1.2-1.1-2.1
								c0-0.8,0.3-1.5,1-2s1.6-0.8,3-0.8c1.3,0,2.2,0.2,2.8,0.6s1,1,1.3,1.8l-2.3,0.4c-0.1-0.4-0.3-0.6-0.6-0.8s-0.7-0.3-1.2-0.3
								c-0.7,0-1.1,0.1-1.4,0.3c-0.2,0.1-0.3,0.3-0.3,0.5c0,0.2,0.1,0.3,0.2,0.4c0.2,0.2,1,0.4,2.3,0.7s2.2,0.7,2.8,1.1
								c0.5,0.4,0.8,1.1,0.8,1.8c0,0.9-0.4,1.6-1.1,2.2s-1.8,0.9-3.2,0.9c-1.3,0-2.3-0.3-3-0.8S582.7,262.2,582.5,261.3z"/>
						</g>
						<g class="st4">
							<path class="st2" d="M597.1,254.6v2h-1.7v3.8c0,0.8,0,1.2,0,1.3s0.1,0.2,0.2,0.3s0.3,0.1,0.4,0.1c0.2,0,0.6-0.1,1-0.2
								l0.2,1.9c-0.6,0.2-1.2,0.4-2,0.4c-0.4,0-0.8-0.1-1.2-0.2c-0.4-0.1-0.6-0.3-0.8-0.6c-0.2-0.2-0.3-0.6-0.3-1
								c-0.1-0.3-0.1-0.9-0.1-1.7v-4.1h-1.1v-2h1.1v-1.9l2.5-1.4v3.3H597.1z"/>
						</g>
						<g class="st4">
							<path class="st2" d="M602,257.5l-2.2-0.4c0.3-0.9,0.7-1.6,1.3-2s1.5-0.7,2.7-0.7c1.1,0,1.9,0.1,2.5,0.4
								c0.5,0.3,0.9,0.6,1.1,1s0.3,1.1,0.3,2.2l0,2.9c0,0.8,0,1.4,0.1,1.8s0.2,0.8,0.4,1.3h-2.4c-0.1-0.2-0.1-0.4-0.2-0.7
								c0-0.1-0.1-0.2-0.1-0.3c-0.4,0.4-0.9,0.7-1.4,0.9s-1,0.3-1.5,0.3c-1,0-1.7-0.3-2.3-0.8s-0.8-1.2-0.8-2c0-0.5,0.1-1,0.4-1.4
								c0.3-0.4,0.6-0.7,1.1-0.9c0.5-0.2,1.1-0.4,2-0.6c1.2-0.2,2-0.4,2.4-0.6v-0.2c0-0.5-0.1-0.8-0.4-1c-0.2-0.2-0.7-0.3-1.3-0.3
								c-0.4,0-0.8,0.1-1,0.3C602.4,256.7,602.2,257,602,257.5z M605.3,259.5c-0.3,0.1-0.8,0.2-1.5,0.4s-1.1,0.3-1.3,0.4
								c-0.3,0.2-0.5,0.5-0.5,0.9c0,0.3,0.1,0.6,0.4,0.9s0.6,0.4,1,0.4c0.4,0,0.9-0.1,1.3-0.4c0.3-0.2,0.5-0.5,0.6-0.8
								c0.1-0.2,0.1-0.6,0.1-1.2V259.5z"/>
						</g>
						<g class="st4">
							<path class="st2" d="M614.4,254.6v2h-1.7v3.8c0,0.8,0,1.2,0,1.3s0.1,0.2,0.2,0.3s0.3,0.1,0.4,0.1c0.2,0,0.6-0.1,1-0.2
								l0.2,1.9c-0.6,0.2-1.2,0.4-2,0.4c-0.4,0-0.8-0.1-1.2-0.2c-0.4-0.1-0.6-0.3-0.8-0.6c-0.2-0.2-0.3-0.6-0.3-1
								c-0.1-0.3-0.1-0.9-0.1-1.7v-4.1h-1.1v-2h1.1v-1.9l2.5-1.4v3.3H614.4z"/>
						</g>
						<g class="st4">
							<path class="st2" d="M617.2,253.4v-2.3h2.5v2.3H617.2z M617.2,264v-9.3h2.5v9.3H617.2z"/>
						</g>
						<g class="st4">
							<path class="st2" d="M621.3,261.3l2.5-0.4c0.1,0.5,0.3,0.8,0.6,1.1c0.3,0.2,0.8,0.4,1.4,0.4c0.6,0,1.1-0.1,1.4-0.4
								c0.2-0.2,0.3-0.4,0.3-0.7c0-0.2-0.1-0.3-0.2-0.5c-0.1-0.1-0.4-0.2-0.8-0.3c-2-0.4-3.3-0.8-3.8-1.2c-0.7-0.5-1.1-1.2-1.1-2.1
								c0-0.8,0.3-1.5,1-2s1.6-0.8,3-0.8c1.3,0,2.2,0.2,2.8,0.6s1,1,1.3,1.8l-2.3,0.4c-0.1-0.4-0.3-0.6-0.6-0.8s-0.7-0.3-1.2-0.3
								c-0.7,0-1.1,0.1-1.4,0.3c-0.2,0.1-0.3,0.3-0.3,0.5c0,0.2,0.1,0.3,0.2,0.4c0.2,0.2,1,0.4,2.3,0.7s2.2,0.7,2.8,1.1
								c0.5,0.4,0.8,1.1,0.8,1.8c0,0.9-0.4,1.6-1.1,2.2s-1.8,0.9-3.2,0.9c-1.3,0-2.3-0.3-3-0.8S621.6,262.2,621.3,261.3z"/>
						</g>
						<g class="st4">
							<path class="st2" d="M636,254.6v2h-1.7v3.8c0,0.8,0,1.2,0,1.3s0.1,0.2,0.2,0.3s0.3,0.1,0.4,0.1c0.2,0,0.6-0.1,1-0.2l0.2,1.9
								c-0.6,0.2-1.2,0.4-2,0.4c-0.4,0-0.8-0.1-1.2-0.2c-0.4-0.1-0.6-0.3-0.8-0.6c-0.2-0.2-0.3-0.6-0.3-1c-0.1-0.3-0.1-0.9-0.1-1.7
								v-4.1h-1.1v-2h1.1v-1.9l2.5-1.4v3.3H636z"/>
						</g>
						<g class="st4">
							<path class="st2" d="M638.7,253.4v-2.3h2.5v2.3H638.7z M638.7,264v-9.3h2.5v9.3H638.7z"/>
						</g>
						<g class="st4">
							<path class="st2" d="M651.9,257.4l-2.4,0.4c-0.1-0.5-0.3-0.9-0.6-1.1s-0.7-0.4-1.1-0.4c-0.6,0-1.1,0.2-1.5,0.6
								s-0.5,1.1-0.5,2.1c0,1.1,0.2,1.9,0.6,2.3s0.9,0.7,1.5,0.7c0.5,0,0.9-0.1,1.2-0.4s0.5-0.7,0.6-1.4l2.4,0.4
								c-0.3,1.1-0.7,2-1.5,2.5s-1.7,0.9-2.9,0.9c-1.4,0-2.5-0.4-3.3-1.3s-1.2-2.1-1.2-3.6c0-1.5,0.4-2.7,1.2-3.6
								c0.8-0.9,1.9-1.3,3.3-1.3c1.1,0,2,0.2,2.7,0.7S651.6,256.4,651.9,257.4z"/>
						</g>
						<g class="st4">
							<path class="st2" d="M652.5,261.3l2.5-0.4c0.1,0.5,0.3,0.8,0.6,1.1c0.3,0.2,0.8,0.4,1.4,0.4c0.6,0,1.1-0.1,1.4-0.4
								c0.2-0.2,0.3-0.4,0.3-0.7c0-0.2-0.1-0.3-0.2-0.5c-0.1-0.1-0.4-0.2-0.8-0.3c-2-0.4-3.3-0.8-3.8-1.2c-0.7-0.5-1.1-1.2-1.1-2.1
								c0-0.8,0.3-1.5,1-2s1.6-0.8,3-0.8c1.3,0,2.2,0.2,2.8,0.6s1,1,1.3,1.8l-2.3,0.4c-0.1-0.4-0.3-0.6-0.6-0.8s-0.7-0.3-1.2-0.3
								c-0.7,0-1.1,0.1-1.4,0.3c-0.2,0.1-0.3,0.3-0.3,0.5c0,0.2,0.1,0.3,0.2,0.4c0.2,0.2,1,0.4,2.3,0.7s2.2,0.7,2.8,1.1
								c0.5,0.4,0.8,1.1,0.8,1.8c0,0.9-0.4,1.6-1.1,2.2s-1.8,0.9-3.2,0.9c-1.3,0-2.3-0.3-3-0.8S652.7,262.2,652.5,261.3z"/>
						</g>
					</g>
				</g>
				<g id="Epidemiology">
					<path class="st5" d="M583.8,510.1c12.5,19.6,32.1,33.7,54.7,39.1c48,11.6,96.8-18.1,108.6-66c11.9-48.3-17.7-97-65.9-108.9
						c-22.9-5.6-47.2-2-67.5,10c-1.9,1.1-4.3,0.5-5.5-1.3c-0.3-0.6-0.5-1.2-0.6-1.8c-1.3-21.5-5.7-42.6-12.9-62.9
						c-96.6-9.7-178.2,23.3-191.8,82.1s45.4,124.2,136.5,157.8c14.6-14.3,27.3-30.4,37.6-48.1c1.1-1.9,3.6-2.6,5.5-1.5
						C582.9,509.1,583.4,509.6,583.8,510.1z"/>
					<g id="Epidemiology_Icon" class="st1">
						<path class="st2" d="M667.3,479.2c-22.9,0.5-41.9-17.6-42.4-40.5c-0.5-22.9,17.6-41.9,40.5-42.4s41.9,17.6,42.4,40.5
							c0,0.3,0,0.6,0,1C707.8,460.3,689.8,478.7,667.3,479.2z M700.8,437.7c0-19.1-15.5-34.5-34.6-34.5c-19.1,0-34.5,15.5-34.5,34.6
							c0,19.1,15.5,34.5,34.6,34.5c0.1,0,0.2,0,0.2,0C685.6,472.1,700.9,456.6,700.8,437.7z"/>
						<path class="st2" d="M676.7,432.6c-1.1-1.4-1.7-3.1-1.8-4.9c-0.2-2.3,0.6-4.6,2.1-6.3c1.2-1.3,3.1-1.5,4.5-0.5
							c1.5,1,1.9,2.9,1,4.5c-0.8,1.2-0.8,2.7,0.2,3.8c2.1,2.9,1.4,6.9-1.5,9c-0.1,0.1-0.2,0.2-0.3,0.2c-2,1.3-4,1.1-5.2-0.5
							c-1.1-1.6-0.8-3.8,0.8-5C676.5,432.8,676.6,432.7,676.7,432.6z"/>
						<path class="st2" d="M665.7,447.8c-4.2,0-7.9-2.9-8.8-7c-0.5-1.7,0.4-3.5,2.1-4.1c1.7-0.6,3.6,0.1,4.3,1.7
							c0.1,0.2,0.2,0.4,0.3,0.6c0.7,1.8,1.6,2.1,3.4,1.6c0.8-0.2,1.6-0.3,2.4-0.2c1.5,0.3,2.5,1.5,2.6,3c0.2,1.4-0.5,2.8-1.8,3.4
							c-1.5,0.5-3,0.9-4.5,1.3L665.7,447.8z"/>
						<path class="st2" d="M648.2,457.8c0-1.7,0.4-3.3,1.2-4.7c0.8-1.7,2.9-2.4,4.6-1.6c1.7,0.7,2.5,2.7,1.7,4.4c0,0,0,0,0,0
							c-0.9,2-0.8,3,1.6,4.2c1.7,0.8,2.4,2.8,1.6,4.5c-0.7,1.7-2.6,2.5-4.3,1.9C651.2,465.2,648.1,462,648.2,457.8z"/>
						<path class="st2" d="M668.7,418.8c0.1,1.9-0.4,3.8-1.3,5.5c-0.9,1.7-3,2.3-4.7,1.4c-1.4-0.8-2.1-2.4-1.7-3.9
							c0.1-0.3,0.2-0.7,0.4-1c0.6-1.5,0.3-2.4-1-3.2c-0.2-0.1-0.5-0.3-0.8-0.4c-1.7-0.8-2.4-2.9-1.6-4.6c0.8-1.5,2.5-2.3,4.2-1.8
							C665.1,411.7,668.7,414.8,668.7,418.8z"/>
						<path class="st2" d="M642.9,429.8c0-1.9,1.5-3.5,3.4-3.5s3.5,1.5,3.5,3.4c0,1.9-1.5,3.5-3.4,3.5c0,0,0,0,0,0
							C644.5,433.2,642.9,431.7,642.9,429.8C642.9,429.8,642.9,429.8,642.9,429.8z"/>
						<path class="st2" d="M676.8,454.5c1.8,0,3.4,1.5,3.4,3.3c0,0.1,0,0.1,0,0.2c-0.1,1.9-1.8,3.3-3.7,3.2
							c-1.8-0.1-3.2-1.6-3.2-3.3c0-1.8,1.5-3.4,3.3-3.4C676.7,454.4,676.7,454.4,676.8,454.5z"/>
					</g>
					<g id="Epidemiology_Text">
						<g class="st4">
							<path class="st2" d="M610.9,507.4v-12.9h9.6v2.2h-7v2.9h6.5v2.2h-6.5v3.5h7.2v2.2H610.9z"/>
						</g>
						<g class="st4">
							<path class="st2" d="M621.9,498h2.3v1.4c0.3-0.5,0.7-0.8,1.2-1.1s1.1-0.4,1.7-0.4c1.1,0,2,0.4,2.8,1.3s1.1,2,1.1,3.6
								c0,1.6-0.4,2.8-1.1,3.6c-0.8,0.9-1.7,1.3-2.8,1.3c-0.5,0-1-0.1-1.4-0.3s-0.9-0.6-1.3-1.1v4.7h-2.5V498z M624.3,502.6
								c0,1,0.2,1.8,0.6,2.3c0.4,0.5,0.9,0.8,1.5,0.8c0.6,0,1.1-0.2,1.4-0.7c0.4-0.5,0.6-1.2,0.6-2.3c0-1-0.2-1.7-0.6-2.2
								s-0.9-0.7-1.5-0.7c-0.6,0-1.1,0.2-1.5,0.7C624.5,501,624.3,501.6,624.3,502.6z"/>
						</g>
						<path class="st2" d="M632.6,496.8v-2.3h2.5v2.3H632.6z M632.6,507.4V498h2.5v9.3H632.6z"/>
						<path class="st2" d="M646,507.4h-2.3V506c-0.4,0.5-0.8,0.9-1.3,1.2c-0.5,0.3-1,0.4-1.6,0.4c-1.1,0-2-0.4-2.8-1.3
							c-0.8-0.9-1.1-2.1-1.1-3.6c0-1.6,0.4-2.8,1.1-3.6c0.7-0.8,1.7-1.2,2.8-1.2c1,0,1.9,0.4,2.7,1.3v-4.6h2.5V507.4z M639.4,502.5
							c0,1,0.1,1.7,0.4,2.2c0.4,0.6,1,1,1.7,1c0.6,0,1.1-0.2,1.5-0.7c0.4-0.5,0.6-1.2,0.6-2.2c0-1.1-0.2-1.8-0.6-2.3
							s-0.9-0.7-1.5-0.7c-0.6,0-1.1,0.2-1.5,0.7C639.6,500.9,639.4,501.6,639.4,502.5z"/>
						<g class="st4">
							<path class="st2" d="M653.7,504.4l2.5,0.4c-0.3,0.9-0.8,1.6-1.5,2.1s-1.5,0.7-2.6,0.7c-1.6,0-2.8-0.5-3.6-1.6
								c-0.6-0.8-0.9-1.9-0.9-3.2c0-1.5,0.4-2.8,1.2-3.6s1.8-1.3,3.1-1.3c1.4,0,2.5,0.5,3.3,1.4c0.8,0.9,1.2,2.3,1.2,4.2h-6.2
								c0,0.7,0.2,1.3,0.6,1.7c0.4,0.4,0.9,0.6,1.4,0.6c0.4,0,0.7-0.1,1-0.3S653.5,504.9,653.7,504.4z M653.8,501.9
								c0-0.7-0.2-1.3-0.6-1.6c-0.4-0.4-0.8-0.6-1.3-0.6c-0.5,0-1,0.2-1.3,0.6s-0.5,0.9-0.5,1.6H653.8z"/>
						</g>
						<g class="st4">
							<path class="st2" d="M658,498h2.3v1.3c0.8-1,1.8-1.5,2.9-1.5c0.6,0,1.1,0.1,1.6,0.4s0.8,0.6,1.1,1.1c0.4-0.5,0.9-0.9,1.3-1.1
								s1-0.4,1.5-0.4c0.7,0,1.3,0.1,1.7,0.4s0.8,0.7,1.1,1.2c0.2,0.4,0.3,1,0.3,1.9v6h-2.5V502c0-0.9-0.1-1.5-0.3-1.8
								c-0.2-0.4-0.6-0.5-1.1-0.5c-0.3,0-0.7,0.1-1,0.3s-0.5,0.5-0.7,0.9c-0.1,0.4-0.2,1.1-0.2,1.9v4.5h-2.5v-5.1
								c0-0.9,0-1.5-0.1-1.8s-0.2-0.5-0.4-0.6s-0.4-0.2-0.8-0.2c-0.4,0-0.7,0.1-1,0.3s-0.5,0.5-0.7,0.9s-0.2,1-0.2,1.9v4.5H658V498z
								"/>
						</g>
						<g class="st4">
							<path class="st2" d="M673.9,496.8v-2.3h2.5v2.3H673.9z M673.9,507.4V498h2.5v9.3H673.9z"/>
						</g>
						<g class="st4">
							<path class="st2" d="M678.3,502.6c0-0.8,0.2-1.6,0.6-2.4s1-1.4,1.7-1.8s1.6-0.6,2.5-0.6c1.4,0,2.6,0.5,3.5,1.4
								c0.9,0.9,1.4,2.1,1.4,3.5c0,1.4-0.5,2.6-1.4,3.5s-2.1,1.4-3.4,1.4c-0.9,0-1.7-0.2-2.4-0.6s-1.4-1-1.8-1.7
								C678.5,504.6,678.3,503.7,678.3,502.6z M680.8,502.7c0,0.9,0.2,1.6,0.7,2.1s1,0.7,1.6,0.7s1.2-0.2,1.6-0.7s0.7-1.2,0.7-2.1
								c0-0.9-0.2-1.6-0.7-2.1s-1-0.7-1.6-0.7s-1.2,0.2-1.6,0.7S680.8,501.8,680.8,502.7z"/>
						</g>
						<g class="st4">
							<path class="st2" d="M689,507.4v-12.9h2.5v12.9H689z"/>
						</g>
						<g class="st4">
							<path class="st2" d="M693.7,502.6c0-0.8,0.2-1.6,0.6-2.4s1-1.4,1.7-1.8c0.7-0.4,1.6-0.6,2.5-0.6c1.4,0,2.6,0.5,3.5,1.4
								c0.9,0.9,1.4,2.1,1.4,3.5c0,1.4-0.5,2.6-1.4,3.5c-0.9,0.9-2.1,1.4-3.4,1.4c-0.9,0-1.7-0.2-2.4-0.6c-0.8-0.4-1.4-1-1.8-1.7
								C693.9,504.6,693.7,503.7,693.7,502.6z M696.2,502.7c0,0.9,0.2,1.6,0.7,2.1s1,0.7,1.6,0.7s1.2-0.2,1.6-0.7
								c0.4-0.5,0.7-1.2,0.7-2.1c0-0.9-0.2-1.6-0.7-2.1c-0.4-0.5-1-0.7-1.6-0.7s-1.2,0.2-1.6,0.7S696.2,501.8,696.2,502.7z"/>
						</g>
						<g class="st4">
							<path class="st2" d="M704.2,508l2.8,0.3c0,0.3,0.2,0.6,0.3,0.7c0.2,0.2,0.6,0.3,1.1,0.3c0.6,0,1.1-0.1,1.5-0.3
								c0.2-0.1,0.4-0.3,0.5-0.6c0.1-0.2,0.1-0.6,0.1-1.1v-1.4c-0.7,1-1.7,1.5-2.8,1.5c-1.3,0-2.2-0.5-3-1.6
								c-0.6-0.8-0.9-1.9-0.9-3.1c0-1.6,0.4-2.8,1.1-3.6s1.7-1.2,2.8-1.2c1.2,0,2.1,0.5,2.9,1.5V498h2.3v8.4c0,1.1-0.1,1.9-0.3,2.5
								s-0.4,1-0.8,1.3s-0.8,0.6-1.3,0.7s-1.2,0.3-2.1,0.3c-1.6,0-2.7-0.3-3.4-0.8s-1-1.2-1-2.1C704.2,508.2,704.2,508.1,704.2,508z
								 M706.4,502.5c0,1,0.2,1.7,0.6,2.2c0.4,0.5,0.9,0.7,1.4,0.7c0.6,0,1.1-0.2,1.5-0.7c0.4-0.5,0.6-1.2,0.6-2.1
								c0-1-0.2-1.7-0.6-2.2s-0.9-0.7-1.5-0.7c-0.6,0-1.1,0.2-1.5,0.7S706.4,501.6,706.4,502.5z"/>
						</g>
						<g class="st4">
							<path class="st2" d="M713.7,498h2.6l2.2,6.6l2.2-6.6h2.6l-3.3,9l-0.6,1.6c-0.2,0.5-0.4,1-0.6,1.2s-0.4,0.5-0.7,0.7
								s-0.6,0.3-0.9,0.4s-0.8,0.1-1.3,0.1c-0.5,0-0.9,0-1.4-0.1l-0.2-1.9c0.4,0.1,0.7,0.1,1,0.1c0.6,0,1-0.2,1.3-0.5
								c0.3-0.3,0.5-0.8,0.6-1.3L713.7,498z"/>
						</g>
					</g>
				</g>
				<g id="Cancer_Epidemiology_and_Prevention">
					<path class="st6" d="M416.4,626.9c-7.6,22-6.4,46.1,3.4,67.2c20.8,44.8,74.4,64.5,119.3,43.9c45.2-20.8,64.9-74.2,44.1-119.4
						c-9.9-21.5-27.8-38.2-49.9-46.5c-2.1-0.8-3.1-3.1-2.4-5.1c0.2-0.6,0.6-1.2,1.1-1.6c16-14.4,29.8-31,41.1-49.3
						c-52.6-81.6-129.2-125-183.7-99S320.6,530,351,622.2c20.3,2.6,40.8,2.4,61-0.5c2.2-0.3,4.2,1.1,4.6,3.3
						C416.7,625.6,416.6,626.3,416.4,626.9z"/>
					<path id="Cancer_Epidemiology_and_Prevention_Icon" class="st7" d="M502.2,579.6c-22.9,0.1-41.4,18.6-41.3,41.5
						c0.1,22.9,18.6,41.4,41.5,41.3c22.8-0.1,41.3-18.6,41.3-41.4C543.7,598.1,525.1,579.6,502.2,579.6z M539.4,621
						c0,7.7-2.4,15.2-6.9,21.5c0-0.2,0-0.4,0-0.7c-0.1-2.9-5.5-4.6-10.8-4.4c0.3-3-1.2-6.4-3.6-9.1c4.5-0.6,10.5-9.1,8.7-13.2
						c-1.6-3.7-6.4-7.7-10.3-7.9c1.5-1.7,2.2-3.4,1.2-4.7c-2.8-3.9-11.9-8-15.6-5.4s-0.3,15.9,2.5,16.6c-1.6,0.2-3.3,0.6-4.9,1.1
						l0.5-0.2c4-2.2-0.6-15.2-7-17.7c-1.1-0.3-2.2-0.1-3.1,0.6c0-4.6-1.4-9.8-3.1-10c-0.3,0-0.6,0-0.9,0c18.5-8.8,40.7-1,49.6,17.5
						C538.2,610,539.4,615.5,539.4,621z M520.8,644.7c-0.1-1.7,4.1-4.8,5.8-3.9c1.6,0.7,2.4,2.6,1.7,4.3
						C527.4,646.5,520.9,647.1,520.8,644.7z M497.8,615.6c-2.9,1.2-5.3,2.9-5.8,4.7c-0.3-1.5-0.8-3-1.6-4.5
						C492.8,616.3,495.3,616.2,497.8,615.6L497.8,615.6z M492.5,605.3c1.4-0.9,6.1,1.5,6.1,3.4c0.1,1.8-1.2,3.3-3,3.4
						C493.8,612.1,490.4,606.5,492.5,605.3L492.5,605.3z M492.4,623.1c1.2,2.2,4.3,4.3,7.3,5.4c-2.7,0.4-5.4,1.4-7.7,2.7
						C492.6,628.5,492.8,625.8,492.4,623.1L492.4,623.1z M493.3,635.2c0.4-1.6,6.6-3.8,7.3-1.5c0.5,1.6-2.8,5.6-4.7,5.2
						C494.2,638.7,493,637,493.3,635.2C493.3,635.3,493.3,635.2,493.3,635.2L493.3,635.2z M499.3,622c-0.7-1.5,2.2-5.9,4-5.7
						c1.8,0.1,3.1,1.6,3,3.4C506.2,621.4,500.3,624.2,499.3,622z M504.6,608.3c-0.7-1.5,2.2-5.9,4-5.7c1.8,0.1,3.1,1.6,3,3.4
						C511.5,607.7,505.5,610.5,504.6,608.3L504.6,608.3z M506.3,628.6c0.5-0.3,1-0.7,1.5-1.1c-1.9,2.3-3.3,5.1-4.1,8
						c-0.3-2.8-1-5.3-2-6.4C503.3,629.5,504.9,629.3,506.3,628.6L506.3,628.6z M506.1,613.6c2.2-0.6,4.3-1.6,6.3-2.9
						c-0.3,1.5-0.5,3-0.5,4.5c0-0.1-0.1-0.1-0.1-0.2C511.1,613.8,508.8,613.4,506.1,613.6L506.1,613.6z M512.3,619.9
						c0.3,1.7,0.7,3.3,1.4,4.9l-0.2-0.1c-1.3-0.6-2.9,0.1-4.4,1.5C510.7,624.3,511.8,622.1,512.3,619.9L512.3,619.9z M509.9,629.6
						c1.4-1.1,3.4-1,4.5,0.4c1,1.3-1.4,7.4-3.6,6.5C509.3,635.8,508.4,630.7,509.9,629.6L509.9,629.6z M514.3,616.1
						c0.4-1.7,2.1-2.8,3.8-2.5c1.6,0.4,3.5,6.7,1.2,7.3C517.7,621.4,513.8,617.9,514.3,616.1L514.3,616.1z M479.6,594.4
						c0.4-1.6,6.6-3.8,7.3-1.5c0.5,1.6-2.8,5.6-4.7,5.2C480.5,597.8,479.3,596.2,479.6,594.4C479.6,594.4,479.6,594.4,479.6,594.4
						L479.6,594.4z M485.2,620.4c1.6-0.4,5.5,3.1,5,4.9c-0.4,1.7-2.1,2.8-3.8,2.5C484.7,627.2,482.9,621,485.2,620.4L485.2,620.4z
						 M465.1,621.1c0-8.5,2.9-16.7,8.3-23.3c2.7,3.6,6.7,6.2,11.1,7.1c-1,2.3-1.5,4.6-1,6.1c0.3,0.9,0.9,1.8,1.6,2.4
						c-4.3,1.7-9.1,9.1-7.5,12.8s6.5,7.7,10.5,7.8c-1.3,1.4-1.9,2.8-1.2,4c2.4,4.2,10.9,9.3,14.9,7.1c1.1-0.6,1.8-2.2,2.1-4.2
						c0.9,2.2,5.1,2.9,9.1,2.5c0.5,3.5,3.4,8.3,6.4,10.5c-18.3,9.4-40.7,2.2-50.1-16.1c-2.7-5.2-4.1-11-4.1-16.9L465.1,621.1z"/>
					<g id="Cancer_Epidemiology_and_Prevention_Text">
						<path class="st2" d="M482.5,681.1c-1,1-2.3,1.5-3.6,1.5c-1.4,0-2.7-0.5-3.6-1.4c-1.4-1.4-1.6-3.1-1.6-5.2s0.2-3.8,1.6-5.2
							c2-1.9,5.2-1.9,7.3,0c0.7,0.8,1.1,1.7,1.2,2.8h-2.4c0-0.5-0.2-1-0.6-1.3c-0.5-0.5-1.2-0.8-1.9-0.8c-0.8,0-1.5,0.3-2,0.8
							c-0.9,0.9-0.9,2.5-0.9,3.7s0,2.8,0.9,3.7c0.5,0.5,1.2,0.9,2,0.8c0.7,0,1.4-0.3,1.9-0.8c0.3-0.4,0.5-0.9,0.6-1.4h2.4
							C483.7,679.3,483.3,680.3,482.5,681.1z"/>
						<path class="st2" d="M492.8,682.5c-0.8,0.1-1.5-0.5-1.6-1.3c-0.6,0.9-1.7,1.5-2.8,1.4c-2.2,0-3.4-1.4-3.4-2.9
							c0-1.8,1.4-2.8,3.2-2.9l2.8-0.2V676c0-0.9-0.3-1.5-1.6-1.5c-1,0-1.6,0.5-1.7,1.3h-2.2c0.1-2.1,1.8-3,3.9-3
							c1.6,0,3,0.5,3.5,1.9c0.2,0.6,0.3,1.2,0.3,1.9v3.5c0,0.4,0.1,0.6,0.5,0.6c0.1,0,0.2,0,0.3,0v1.7
							C493.6,682.5,493.2,682.6,492.8,682.5z M490.9,678.2l-2.4,0.2c-0.7,0-1.3,0.5-1.4,1.2c0,0.7,0.6,1.2,1.3,1.2c0,0,0,0,0,0
							c1.2,0.2,2.2-0.7,2.4-1.8c0-0.1,0-0.2,0-0.3L490.9,678.2z"/>
						<path class="st2" d="M501.5,682.4v-5.7c0-1.1-0.4-1.8-1.5-1.8c-0.7,0-1.4,0.5-1.6,1.2c-0.3,0.8-0.4,1.7-0.3,2.5v3.8h-2.2V673
							h1.9l0.2,1.2c0.6-0.9,1.6-1.5,2.8-1.4c1.7-0.1,3.1,1.3,3.2,3c0,0.1,0,0.3,0,0.4v6.2L501.5,682.4z"/>
						<path class="st2" d="M513.2,681.1c-0.8,1-2,1.5-3.2,1.5c-1.3,0-2.4-0.5-3.3-1.5c-1.4-2.1-1.4-4.8,0-6.8c0.8-0.9,2-1.5,3.3-1.5
							c1.2,0,2.4,0.5,3.2,1.5c0.4,0.6,0.7,1.3,0.7,2h-2.2c0-0.3-0.1-0.6-0.3-0.9c-0.3-0.5-0.9-0.7-1.4-0.7c-0.5,0-1,0.2-1.4,0.6
							c-0.5,0.7-0.7,1.5-0.6,2.4c-0.1,0.8,0.1,1.7,0.6,2.4c0.3,0.4,0.8,0.6,1.4,0.6c0.6,0,1.1-0.2,1.4-0.7c0.2-0.3,0.3-0.6,0.3-0.9
							h2.2C513.9,679.8,513.6,680.5,513.2,681.1z"/>
						<path class="st2" d="M523.8,678.4h-6.3c0,0.7,0.2,1.3,0.7,1.8c0.4,0.4,0.9,0.6,1.4,0.6c0.5,0.1,1-0.1,1.4-0.5
							c0.2-0.2,0.4-0.5,0.5-0.8h2.2c-0.1,0.6-0.4,1.2-0.8,1.7c-1.7,1.7-4.4,1.8-6.1,0.2c-1-1-1.5-2.3-1.4-3.7
							c-0.1-1.4,0.4-2.7,1.3-3.8c0.8-0.8,1.9-1.2,3-1.2c1.4,0,2.6,0.6,3.4,1.7c0.6,1,0.9,2.1,0.8,3.3
							C523.8,677.8,523.8,678.2,523.8,678.4z M521,675.1c-0.9-0.8-2.2-0.7-3,0.1c0,0,0,0,0,0c-0.3,0.4-0.5,0.9-0.5,1.5h4
							C521.6,676.2,521.4,675.6,521,675.1z"/>
						<path class="st2" d="M530.5,675c-1.3,0-2.4,1-2.4,2.3c0,0.1,0,0.2,0,0.3v4.7h-2.3V673h1.9l0.2,1.4c0.5-1,1.5-1.6,2.6-1.5
							c0.2,0,0.5,0,0.7,0.1v2.2C531,675,530.8,675,530.5,675z"/>
						<path class="st2" d="M438.4,701.4v-12.8h9.1v2.1h-6.8v3h6v2.1h-6v3.5h6.8v2.1L438.4,701.4z"/>
						<path class="st2" d="M456.4,700.9c-0.7,0.5-1.5,0.8-2.3,0.8c-0.9,0.1-1.8-0.3-2.5-0.9v4.3h-2.2v-13h1.9l0.1,1
							c0.6-0.8,1.6-1.3,2.6-1.2c0.8,0,1.6,0.3,2.3,0.8c1.2,1,1.8,2.5,1.7,4.1C458.2,698.2,457.6,699.8,456.4,700.9z M455.2,694.4
							c-0.4-0.5-0.9-0.7-1.5-0.7c-1.8,0-2.1,1.7-2.1,3s0.4,3,2.1,3c0.6,0,1.2-0.3,1.5-0.7c0.4-0.7,0.6-1.5,0.6-2.3
							C455.9,695.9,455.7,695.1,455.2,694.4z"/>
						<path class="st2" d="M460,690.7v-2.3h2.4v2.3L460,690.7z M460.1,701.4V692h2.3v9.4L460.1,701.4z"/>
						<path class="st2" d="M471.1,701.4l-0.1-1c-0.6,0.8-1.6,1.3-2.6,1.2c-0.8,0-1.6-0.3-2.3-0.8c-1.2-1-1.8-2.5-1.7-4.1
							c-0.1-1.6,0.5-3.1,1.7-4.2c0.7-0.5,1.5-0.8,2.3-0.8c0.9-0.1,1.8,0.3,2.5,0.9v-4.3h2.2v13L471.1,701.4z M468.8,693.7
							c-0.6,0-1.2,0.3-1.5,0.7c-0.4,0.7-0.6,1.5-0.6,2.3c0,0.8,0.2,1.6,0.6,2.3c0.4,0.5,0.9,0.7,1.5,0.7c1.8,0,2.1-1.7,2.1-3
							S470.6,693.7,468.8,693.7z"/>
						<path class="st2" d="M483.7,697.4h-6.3c0,0.7,0.2,1.3,0.7,1.8c0.4,0.4,0.9,0.6,1.4,0.6c0.5,0.1,1-0.1,1.4-0.5
							c0.2-0.2,0.4-0.5,0.5-0.8h2.2c-0.1,0.6-0.4,1.2-0.8,1.7c-0.8,0.9-2,1.4-3.1,1.3c-1.1,0-2.2-0.4-3-1.2c-1-1-1.5-2.3-1.4-3.7
							c-0.1-1.4,0.4-2.7,1.4-3.8c0.8-0.8,1.9-1.2,3-1.2c1.4,0,2.6,0.6,3.4,1.7c0.6,1,0.9,2.1,0.8,3.3
							C483.6,696.8,483.7,697.2,483.7,697.4z M480.9,694.1c-0.9-0.8-2.2-0.7-3,0.1c0,0,0,0,0,0c-0.3,0.4-0.5,0.9-0.5,1.5h4
							C481.4,695.2,481.2,694.6,480.9,694.1z"/>
						<path class="st2" d="M496.7,701.4v-5.8c0-1.2-0.3-1.8-1.4-1.8s-1.8,1.3-1.8,2.5v5.1h-2.2v-5.8c0-1.2-0.3-1.8-1.4-1.8
							s-1.9,1.3-1.9,2.5v5.1h-2.2V692h1.9l0.2,1.2c0.6-0.9,1.6-1.5,2.7-1.5c1.1-0.1,2.2,0.5,2.7,1.5c0.6-1,1.7-1.6,2.8-1.5
							c2,0,3,1.3,3,3.3v6.3L496.7,701.4z"/>
						<path class="st2" d="M501.4,690.7v-2.3h2.4v2.3L501.4,690.7z M501.4,701.4V692h2.3v9.4L501.4,701.4z"/>
						<path class="st2" d="M513.4,700.2c-1.6,1.8-4.4,2-6.2,0.3c-0.1-0.1-0.2-0.2-0.3-0.3c-1.5-2.1-1.5-4.8,0-6.9
							c1.6-1.8,4.4-2,6.2-0.3c0.1,0.1,0.2,0.2,0.3,0.3C514.8,695.3,514.8,698.1,513.4,700.2z M511.5,694.3c-0.8-0.8-2-0.8-2.8,0
							c0,0,0,0,0,0c-0.9,1.4-0.9,3.3,0,4.7c0.8,0.8,2,0.8,2.8,0c0,0,0,0,0,0C512.4,697.6,512.4,695.8,511.5,694.3z"/>
						<path class="st2" d="M519,701.5c-1.2,0.2-2.4-0.7-2.5-2c0-0.2,0-0.4,0-0.6v-10.6h2.3v10.2c0,0.5,0.1,0.9,0.9,0.9
							c0.2,0,0.2,0,0.4,0v1.9C519.7,701.5,519.3,701.5,519,701.5z"/>
						<path class="st2" d="M528.7,700.2c-1.6,1.8-4.4,2-6.2,0.3c-0.1-0.1-0.2-0.2-0.3-0.3c-1.5-2.1-1.5-4.8,0-6.9
							c1.6-1.8,4.4-2,6.2-0.3c0.1,0.1,0.2,0.2,0.3,0.3C530.2,695.3,530.2,698.1,528.7,700.2z M526.9,694.3c-0.8-0.8-2-0.8-2.8,0
							c0,0,0,0,0,0c-0.9,1.5-0.9,3.3,0,4.7c0.8,0.8,2,0.8,2.8,0c0,0,0,0,0,0C527.8,697.6,527.8,695.8,526.9,694.3z"/>
						<path class="st2" d="M535.6,705.8c-1.2,0.1-2.3-0.2-3.3-0.8c-0.7-0.4-1.1-1.2-1.1-2c0-0.8,0.4-1.5,1.1-1.9
							c-0.6-0.3-0.9-0.9-0.9-1.6c0-0.8,0.4-1.5,1.1-1.9c-0.6-0.6-1-1.4-0.9-2.3c0-2.2,1.7-3.4,3.8-3.4c0.7,0,1.5,0.2,2.1,0.6
							c0.3-0.7,1.1-1.2,1.9-1.2c0.2,0,0.4,0,0.6,0v1.8h-0.2c-0.5,0-1,0.2-1.1,0.6c0.3,0.5,0.5,1.1,0.5,1.7c0,2.1-1.8,3.4-3.8,3.4
							c-0.5,0-1-0.1-1.5-0.2c-0.3,0.1-0.4,0.4-0.5,0.7c0,0.6,0.6,0.7,1,0.7h1.5c1-0.1,2.1,0.1,3,0.6c0.7,0.5,1.2,1.4,1.1,2.2
							C540.1,705.1,537.7,705.8,535.6,705.8z M535.8,701.5H534c-0.5,0.1-0.9,0.6-0.8,1.2c0,1.2,1.5,1.3,2.4,1.3s2.5,0,2.5-1.3
							S536.6,701.5,535.8,701.5L535.8,701.5z M535.3,693.5c-1,0-1.8,0.7-1.8,1.6c0,1,0.7,1.8,1.6,1.8c1,0,1.8-0.7,1.8-1.6
							c0,0,0-0.1,0-0.1c0.1-0.9-0.5-1.7-1.4-1.8C535.5,693.5,535.4,693.5,535.3,693.5L535.3,693.5z"/>
						<path class="st2" d="M546.3,703c-0.5,1.2-1.2,2.3-2.9,2.3c-0.6,0-1.2-0.1-1.7-0.2v-1.9c0.4,0.1,0.8,0.2,1.3,0.2
							c0.5,0,0.9-0.3,1.1-0.7l0.5-1.3l-3.7-9.4h2.5l2.5,6.8l2.3-6.8h2.3L546.3,703z"/>
						<path class="st2" d="M564.2,701.4l-0.9-1c-1,0.9-2.3,1.3-3.6,1.3c-2.2,0.2-4.1-1.5-4.2-3.6c0-0.1,0-0.2,0-0.2
							c0.1-1.5,0.9-2.8,2.3-3.5c-0.8-0.7-1.3-1.7-1.4-2.8c0.2-1.9,2-3.3,3.9-3.1c1.6,0.2,2.8,1.4,3.1,3c0,1.7-1,2.6-2.4,3.4l2.2,2.4
							c0.2-0.5,0.3-1,0.3-1.6c0-0.6,0-1.2,0-1.6h3.3v1.8h-1.5c0,1-0.3,2-0.8,2.9c0.8,0.9,1.6,1.7,2.3,2.6L564.2,701.4z M559,695.8
							c-0.8,0.5-1.5,0.9-1.5,2c0,1.1,1,2,2.1,2c0.1,0,0.1,0,0.2,0c0.8,0,1.6-0.2,2.1-0.8C560.9,697.9,560,696.8,559,695.8z
							 M559.8,690.2c-0.7-0.1-1.4,0.5-1.4,1.2c0,0,0,0.1,0,0.1c0,0.8,0.7,1.4,1.2,2c0.8-0.4,1.6-0.8,1.6-1.9
							c0.1-0.7-0.5-1.4-1.2-1.4C560,690.2,559.9,690.2,559.8,690.2L559.8,690.2z"/>
						<path class="st2" d="M463.5,715.8h-2.7v4.6h-2.3v-12.8h5c2.9,0,4.5,1.6,4.5,4.1S466.5,715.8,463.5,715.8z M463.5,709.7h-2.6
							v4.1h2.6c1.5,0,2.2-0.8,2.2-2c0.1-1.1-0.8-2.1-1.9-2.1C463.7,709.6,463.6,709.6,463.5,709.7z"/>
						<path class="st2" d="M474.3,713c-1.3,0-2.4,1-2.4,2.3c0,0.1,0,0.2,0,0.3v4.7h-2.3V711h1.9l0.2,1.4c0.5-1,1.5-1.6,2.6-1.5
							c0.2,0,0.5,0,0.7,0.1v2.2C474.8,713,474.5,713,474.3,713z"/>
						<path class="st2" d="M484.6,716.4h-6.3c0,0.7,0.2,1.3,0.7,1.8c0.4,0.4,0.9,0.6,1.4,0.6c0.8,0.1,1.6-0.4,1.8-1.2h2.2
							c-0.1,0.6-0.4,1.2-0.8,1.7c-0.8,0.9-2,1.4-3.1,1.3c-1.1,0-2.2-0.4-3-1.2c-1-1-1.5-2.3-1.4-3.7c0-1.4,0.5-2.7,1.4-3.7
							c0.8-0.8,1.9-1.2,3-1.2c1.4,0,2.6,0.6,3.4,1.7c0.6,1,0.9,2.1,0.8,3.3C484.6,715.8,484.6,716.2,484.6,716.4z M481.8,713.1
							c-0.4-0.4-0.9-0.6-1.4-0.5c-0.6,0-1.2,0.2-1.6,0.7c-0.3,0.4-0.5,0.9-0.5,1.5h4C482.4,714.2,482.2,713.6,481.8,713.1z"/>
						<path class="st2" d="M491,720.4h-2.4l-3.5-9.4h2.4l2.3,6.6l2.2-6.6h2.3L491,720.4z"/>
						<path class="st2" d="M503.5,716.4h-6.3c0,0.7,0.2,1.3,0.7,1.8c0.4,0.4,0.9,0.6,1.4,0.6c0.5,0.1,1-0.1,1.4-0.5
							c0.2-0.2,0.4-0.5,0.5-0.8h2.2c-0.1,0.6-0.4,1.2-0.8,1.7c-0.8,0.9-2,1.4-3.1,1.3c-1.1,0-2.2-0.4-3-1.2c-1-1-1.5-2.3-1.4-3.7
							c-0.1-1.4,0.4-2.7,1.4-3.8c0.8-0.8,1.9-1.2,3-1.2c1.4,0,2.6,0.6,3.4,1.7c0.6,1,0.9,2.1,0.8,3.3
							C503.5,715.8,503.5,716.2,503.5,716.4z M500.7,713.1c-0.4-0.4-0.9-0.6-1.4-0.5c-0.6,0-1.2,0.2-1.6,0.7
							c-0.3,0.4-0.5,0.9-0.5,1.5h4C501.3,714.2,501.1,713.6,500.7,713.1z"/>
						<path class="st2" d="M511.2,720.4v-5.7c0-1.1-0.4-1.8-1.5-1.8c-0.7,0-1.4,0.5-1.6,1.2c-0.3,0.8-0.4,1.7-0.3,2.5v3.8h-2.2V711
							h1.9l0.2,1.2c1-1.5,3-1.9,4.5-0.9c0.9,0.6,1.5,1.7,1.4,2.8v6.2L511.2,720.4z"/>
						<path class="st2" d="M519.4,720.5c-1.4,0.2-2.7-0.9-2.8-2.3c0-0.2,0-0.4,0-0.6v-4.8h-1.7V711h1.7v-2.4l2.2-0.6v2.9h2.4v1.8
							h-2.4v4.6c0,0.7,0.3,1,1,1c0.5,0,1,0,1.5-0.1v1.9C520.7,720.4,520.1,720.5,519.4,720.5z"/>
						<path class="st2" d="M523.1,709.7v-2.3h2.4v2.3L523.1,709.7z M523.2,720.4V711h2.3v9.4L523.2,720.4z"/>
						<path class="st2" d="M535.1,719.2c-1.6,1.8-4.4,2-6.2,0.3c-0.1-0.1-0.2-0.2-0.3-0.3c-1.5-2.1-1.5-4.8,0-6.9
							c1.6-1.8,4.4-2,6.2-0.3c0.1,0.1,0.2,0.2,0.3,0.3C536.5,714.3,536.5,717.1,535.1,719.2z M533.2,713.3c-0.8-0.8-2-0.8-2.8,0
							c0,0,0,0,0,0c-0.9,1.5-0.9,3.3,0,4.7c0.8,0.8,2,0.8,2.8,0c0,0,0,0,0,0C534.1,716.6,534.1,714.8,533.2,713.3z"/>
						<path class="st2" d="M543.9,720.4v-5.7c0-1.1-0.4-1.8-1.5-1.8c-0.7,0-1.4,0.5-1.6,1.2c-0.3,0.8-0.4,1.7-0.3,2.5v3.8h-2.2V711
							h1.9l0.2,1.2c1-1.5,3-1.9,4.5-0.9c0.9,0.6,1.5,1.7,1.4,2.8v6.2L543.9,720.4z"/>
					</g>
				</g>
				<g id="Nutrition">
					<path class="st8" d="M220.8,568.7c-21.9,7.7-40,23.7-50.4,44.5c-22.1,44.1-4.2,98.4,39.9,120.7c44.4,22.4,98.5,4.6,120.9-39.8
						c10.7-21.1,12.6-45.6,5.4-68.1c-0.7-2.1,0.4-4.4,2.5-5.1c0.6-0.2,1.3-0.3,1.9-0.1c21.2,3.5,42.8,4.1,64.2,1.5
						c31.1-92,17.4-178.9-36.9-205.3s-131.2,16.3-184.4,97.5c10.6,17.5,23.5,33.5,38.4,47.5c1.6,1.5,1.6,4.1,0.1,5.7
						C221.9,568.1,221.4,568.4,220.8,568.7z"/>
					<path id="Nutrition_Icon" class="st7" d="M272.2,601.2c-8.4,0-16,5.1-19.2,12.9c-4.4-10.6-16.5-15.7-27.1-11.3
						C218.1,606,213,613.6,213,622c-0.1,4.9,1.6,9.6,4.9,13.3c8.4,9.3,35.1,35.8,35.1,35.8s2.9-2.9,7.1-7l-10.6-10.6
						c-1.7,1.3-4.1,1.2-5.7-0.3l-14.6-15.6c-0.4-0.4-0.4-1.1,0-1.5l0.3-0.3c0.2-0.2,0.5-0.3,0.8-0.3c0.3,0,0.5,0.1,0.7,0.3
						l11.1,11.1c0.4,0.4,1.1,0.4,1.5,0c0,0,0,0,0,0c0.4-0.4,0.4-1.1,0-1.5c0,0,0,0,0,0L232.9,634c-0.2-0.2-0.3-0.5-0.3-0.7
						c0-0.3,0.1-0.5,0.3-0.7l0.4-0.4c0.2-0.2,0.5-0.3,0.7-0.3c0.3,0,0.5,0.1,0.7,0.3l11.5,10.8c0.4,0.4,1.1,0.3,1.5-0.1
						c0.4-0.4,0.4-1,0-1.4l-11.1-11.1c-0.4-0.4-0.4-1-0.1-1.4c0,0,0,0,0.1-0.1l0.4-0.3c0.2-0.2,0.4-0.3,0.7-0.3
						c0.3,0,0.5,0.1,0.7,0.3L254,643c1.5,1.5,1.7,4,0.3,5.7l10.6,10.6c2.5-2.5,5.2-5.3,7.9-8l-5.5-5.5l-0.4,0.4
						c-0.8,0.8-2.2,0.8-3,0c0,0,0,0,0,0l-16.8-16.8c-3.1-3.1-3.1-8.1,0-11.1l0.1-0.1c0.6-0.6,1.6-0.6,2.2,0c0,0,0,0,0,0l22.7,22.8
						l5.4,5.4c4.3-4.4,8.1-8.4,10.5-11c3.2-3.7,5-8.5,4.8-13.4C293,610.5,283.7,601.2,272.2,601.2z"/>
					<g id="Nutrition_Text">
						<g class="st4">
							<path class="st2" d="M216.6,705v-12.9h2.5l5.3,8.6v-8.6h2.4V705h-2.6l-5.2-8.4v8.4H216.6z"/>
						</g>
						<path class="st2" d="M235.7,705v-1.4c-0.3,0.5-0.8,0.9-1.3,1.2s-1.1,0.4-1.8,0.4c-0.6,0-1.2-0.1-1.7-0.4s-0.9-0.7-1.1-1.2
							s-0.3-1.2-0.3-2.1v-5.9h2.5v4.3c0,1.3,0,2.1,0.1,2.4c0.1,0.3,0.3,0.5,0.5,0.7c0.2,0.2,0.5,0.3,0.9,0.3c0.4,0,0.8-0.1,1.1-0.3
							c0.3-0.2,0.6-0.5,0.7-0.9c0.1-0.3,0.2-1.2,0.2-2.5v-3.9h2.5v9.3H235.7z"/>
						<path class="st2" d="M244.7,695.6v2H243v3.8c0,0.8,0,1.2,0,1.3s0.1,0.2,0.2,0.3s0.3,0.1,0.4,0.1c0.2,0,0.6-0.1,1-0.2l0.2,1.9
							c-0.6,0.2-1.2,0.4-2,0.4c-0.4,0-0.8-0.1-1.2-0.2c-0.4-0.1-0.6-0.3-0.8-0.6c-0.2-0.2-0.3-0.6-0.3-1c-0.1-0.3-0.1-0.9-0.1-1.7
							v-4.1h-1.1v-2h1.1v-1.9l2.5-1.4v3.3H244.7z"/>
						<g class="st4">
							<path class="st2" d="M249.6,705h-2.5v-9.3h2.3v1.3c0.4-0.6,0.7-1,1.1-1.2s0.7-0.3,1.1-0.3c0.6,0,1.1,0.2,1.6,0.5l-0.8,2.2
								c-0.4-0.3-0.8-0.4-1.2-0.4c-0.3,0-0.6,0.1-0.9,0.3c-0.2,0.2-0.4,0.5-0.6,1s-0.2,1.5-0.2,3.1V705z"/>
						</g>
						<g class="st4">
							<path class="st2" d="M254.2,694.4v-2.3h2.5v2.3H254.2z M254.2,705v-9.3h2.5v9.3H254.2z"/>
						</g>
						<g class="st4">
							<path class="st2" d="M263.5,695.6v2h-1.7v3.8c0,0.8,0,1.2,0,1.3s0.1,0.2,0.2,0.3s0.3,0.1,0.4,0.1c0.2,0,0.6-0.1,1-0.2
								l0.2,1.9c-0.6,0.2-1.2,0.4-2,0.4c-0.4,0-0.8-0.1-1.2-0.2c-0.4-0.1-0.6-0.3-0.8-0.6c-0.2-0.2-0.3-0.6-0.3-1
								c-0.1-0.3-0.1-0.9-0.1-1.7v-4.1h-1.1v-2h1.1v-1.9l2.5-1.4v3.3H263.5z"/>
						</g>
						<g class="st4">
							<path class="st2" d="M266.2,694.4v-2.3h2.5v2.3H266.2z M266.2,705v-9.3h2.5v9.3H266.2z"/>
						</g>
						<g class="st4">
							<path class="st2" d="M270.6,700.2c0-0.8,0.2-1.6,0.6-2.4s1-1.4,1.7-1.8s1.6-0.6,2.5-0.6c1.4,0,2.6,0.5,3.5,1.4
								c0.9,0.9,1.4,2.1,1.4,3.5c0,1.4-0.5,2.6-1.4,3.5s-2.1,1.4-3.4,1.4c-0.9,0-1.7-0.2-2.4-0.6s-1.4-1-1.8-1.7
								C270.8,702.1,270.6,701.2,270.6,700.2z M273.2,700.3c0,0.9,0.2,1.6,0.7,2.1s1,0.7,1.6,0.7s1.2-0.2,1.6-0.7s0.7-1.2,0.7-2.1
								c0-0.9-0.2-1.6-0.7-2.1s-1-0.7-1.6-0.7s-1.2,0.2-1.6,0.7S273.2,699.4,273.2,700.3z"/>
						</g>
						<g class="st4">
							<path class="st2" d="M289.8,705h-2.5v-4.8c0-1-0.1-1.7-0.2-2s-0.3-0.5-0.5-0.7s-0.5-0.2-0.9-0.2c-0.4,0-0.8,0.1-1.2,0.4
								s-0.6,0.5-0.7,0.9s-0.2,1.1-0.2,2.1v4.2h-2.5v-9.3h2.3v1.4c0.8-1.1,1.8-1.6,3.1-1.6c0.5,0,1,0.1,1.5,0.3s0.8,0.4,1,0.8
								s0.4,0.7,0.5,1s0.1,0.9,0.1,1.7V705z"/>
						</g>
					</g>
				</g>
				<g id="Health_and_Biomedical_Informatics">
					<path class="st9" d="M144.6,379.3c-19.7-12.4-43.5-16.6-66.2-11.7c-48.3,10.2-79.6,58-69.6,106.3
						c10.1,48.7,57.7,79.9,106.4,69.8c25.5-5.3,47.4-21.3,60.1-44c10.9,21.2,25.1,40.5,42,57.3c91.3-32.9,150.8-97.8,137.7-156.7
						s-94.4-92.5-191.1-83.6c-7.1,19.2-11.5,39.2-13.2,59.6c-0.2,2.2-2.1,3.9-4.3,3.7C145.8,379.9,145.2,379.7,144.6,379.3z"/>
					<g id="Health_and_Biomedical_Informatics_Icon" class="st1">
						<path class="st2" d="M59.6,394.4L59.6,394.4L59.6,394.4c0.3,0.3,0.6,0.5,1,0.5c0.5,0.1,0.9,0,1.3-0.3c0.3-0.2,0.5-0.5,0.7-0.7
							c0.2-0.2,0.4-0.4,0.6-0.6l0.1,6l-0.1,6.1c0,0.5,0.2,1,0.6,1.2c0.3,0.2,0.6,0.3,1,0.3c0.4,0,0.8-0.1,1.1-0.3
							c0.4-0.2,0.7-0.7,0.7-1.2L66.4,389c-0.1-0.3-0.2-0.7-0.4-0.9c-0.2-0.2-0.5-0.5-0.7-0.6c-0.3-0.2-0.7-0.3-1.1-0.3
							c-0.5,0-1,0.3-1.1,0.8l0,0c-0.2,0.4-0.4,0.7-0.6,1s-0.5,0.7-0.7,1c-0.3,0.4-0.5,0.7-0.8,1l-0.3,0.4l-0.7,0.7
							c-0.4,0.3-0.6,0.8-0.6,1.3C59.2,393.7,59.3,394.1,59.6,394.4L59.6,394.4z"/>
						<path class="st2" d="M84.7,393.4c-0.3-0.8-0.6-1.5-1-2.1c-0.4-0.7-0.9-1.3-1.5-1.9c-0.6-0.6-1.4-1-2.1-1.3
							c-1.8-0.7-3.8-0.7-5.6,0c-0.8,0.3-1.5,0.8-2.1,1.4c-0.6,0.6-1.1,1.2-1.5,1.9c-0.4,0.7-0.7,1.4-1,2.2c-0.2,0.7-0.4,1.5-0.5,2.2
							c-0.1,0.7-0.2,1.3-0.2,2c0,1,0.2,2.1,0.4,3.1c0.3,1.1,0.8,2.1,1.4,3c0.6,0.9,1.5,1.7,2.5,2.2c1.1,0.6,2.4,0.9,3.7,0.9
							c1.3,0,2.5-0.3,3.7-0.8c1-0.5,1.9-1.2,2.6-2.1c0.7-0.9,1.2-1.9,1.5-2.9c0.3-1,0.5-2.1,0.5-3.2c0-0.7-0.1-1.4-0.2-2.1
							C85.2,394.9,85,394.1,84.7,393.4z M81.8,400.1c-0.2,0.7-0.5,1.3-0.9,1.8c-0.4,0.5-0.9,0.9-1.5,1.2c-1.4,0.6-3,0.6-4.4,0
							c-0.6-0.3-1-0.7-1.4-1.2c-0.4-0.5-0.7-1.1-0.8-1.8c-0.2-0.8-0.3-1.6-0.3-2.4c0-0.9,0.1-1.8,0.3-2.6c0.2-0.8,0.4-1.5,0.8-2.2
							c0.4-0.6,0.9-1.1,1.5-1.5c0.7-0.4,1.4-0.6,2.2-0.5c0.7,0,1.5,0.2,2.1,0.5c0.6,0.4,1.1,0.9,1.5,1.5c0.4,0.7,0.7,1.4,0.9,2.2
							c0.2,0.9,0.3,1.8,0.3,2.7C82.1,398.6,82,399.4,81.8,400.1z"/>
						<path class="st2" d="M87.5,403.8c0.6,0.9,1.5,1.7,2.5,2.2c1.1,0.6,2.4,0.9,3.7,0.9c2.4,0.1,4.8-1,6.3-3
							c0.7-0.9,1.2-1.9,1.5-2.9c0.3-1,0.5-2.1,0.5-3.2c0-0.7-0.1-1.4-0.2-2.1c-0.1-0.8-0.3-1.5-0.6-2.3c-0.3-0.7-0.6-1.5-1-2.1
							c-0.4-0.7-0.9-1.3-1.5-1.9c-0.6-0.6-1.4-1-2.2-1.3c-1.8-0.7-3.8-0.7-5.6,0c-0.8,0.3-1.5,0.8-2.1,1.4c-0.6,0.6-1.1,1.2-1.5,1.9
							c-0.4,0.7-0.7,1.4-1,2.2c-0.2,0.7-0.4,1.5-0.5,2.2c-0.1,0.7-0.1,1.3-0.2,2c0,1,0.1,2.1,0.4,3.1
							C86.4,401.9,86.9,402.9,87.5,403.8z M89.4,395.2c0.2-0.8,0.4-1.5,0.8-2.2c0.4-0.6,0.9-1.1,1.5-1.5c0.7-0.4,1.4-0.6,2.2-0.5
							c0.7,0,1.5,0.2,2.1,0.5c0.6,0.4,1.1,0.9,1.5,1.5c0.4,0.7,0.7,1.4,0.9,2.2c0.2,0.9,0.3,1.8,0.3,2.7c0,0.8-0.1,1.6-0.3,2.4
							c-0.2,0.7-0.5,1.3-0.9,1.8c-0.4,0.5-0.9,0.9-1.5,1.2c-1.4,0.6-3,0.6-4.4,0c-0.6-0.3-1-0.7-1.4-1.2c-0.4-0.5-0.7-1.1-0.8-1.8
							c-0.2-0.8-0.3-1.6-0.3-2.4C89.1,396.9,89.2,396,89.4,395.2z"/>
						<path class="st2" d="M71.3,426.2c0.7-0.9,1.2-1.9,1.5-2.9c0.3-1,0.5-2.1,0.5-3.2c0-0.7-0.1-1.4-0.2-2.1
							c-0.1-0.8-0.3-1.5-0.6-2.3c-0.3-0.7-0.6-1.5-1-2.1c-0.4-0.7-0.9-1.3-1.5-1.9c-0.6-0.6-1.4-1-2.2-1.3c-1.8-0.7-3.8-0.7-5.6,0
							c-0.8,0.3-1.5,0.8-2.1,1.4c-0.6,0.6-1.1,1.2-1.5,1.9c-0.4,0.7-0.7,1.4-1,2.2c-0.2,0.7-0.4,1.5-0.5,2.2c-0.1,0.7-0.2,1.3-0.2,2
							c0,1,0.2,2.1,0.4,3.1c0.3,1,0.7,2,1.4,2.9c1.4,2,3.7,3.2,6.2,3.1c1.3,0,2.5-0.3,3.7-0.8C69.6,427.8,70.5,427.1,71.3,426.2z
							 M69.6,422.4c-0.2,0.7-0.5,1.3-0.9,1.8c-0.4,0.5-0.9,0.9-1.5,1.2c-1.4,0.6-3,0.6-4.4,0c-0.6-0.3-1-0.7-1.4-1.2
							c-0.4-0.5-0.7-1.1-0.8-1.8c-0.2-0.8-0.3-1.6-0.3-2.4c0-0.9,0.1-1.8,0.3-2.6c0.2-0.8,0.4-1.5,0.8-2.2c0.4-0.6,0.9-1.1,1.5-1.5
							c1.3-0.7,3-0.7,4.3,0c0.6,0.4,1.1,0.9,1.5,1.5c0.4,0.7,0.7,1.4,0.9,2.2c0.2,0.9,0.3,1.8,0.3,2.7
							C69.9,420.9,69.8,421.7,69.6,422.4z"/>
						<path class="st2" d="M78.3,412.3c-0.2,0.3-0.5,0.7-0.8,1l-0.3,0.3l-0.8,0.7c-0.4,0.3-0.6,0.8-0.6,1.3c0,0.4,0.1,0.8,0.4,1l0,0
							l0,0c0.6,0.6,1.6,0.7,2.3,0.2c0.3-0.2,0.5-0.5,0.7-0.7c0.2-0.2,0.4-0.4,0.6-0.6l0.1,6l-0.1,6.1c0,0.5,0.2,0.9,0.6,1.2
							c0.3,0.2,0.6,0.3,1,0.3c0.4,0,0.8-0.1,1.1-0.3c0.4-0.2,0.7-0.7,0.7-1.2L83,411.3c-0.1-0.3-0.2-0.7-0.4-0.9
							c-0.2-0.2-0.5-0.5-0.7-0.6c-0.3-0.2-0.7-0.3-1.1-0.3c-0.5,0-0.9,0.3-1.1,0.8l0,0c-0.2,0.4-0.4,0.7-0.6,1
							S78.6,411.9,78.3,412.3z"/>
						<path class="st2" d="M106.8,394.4L106.8,394.4L106.8,394.4c0.6,0.6,1.6,0.7,2.3,0.2c0.3-0.2,0.5-0.5,0.7-0.7
							c0.2-0.2,0.4-0.4,0.6-0.6l0.1,6l-0.1,6.1c0,0.5,0.2,0.9,0.6,1.2c0.3,0.2,0.6,0.3,1,0.3c0.4,0,0.8-0.1,1.1-0.3
							c0.4-0.2,0.7-0.7,0.7-1.2l-0.1-16.4c-0.1-0.3-0.2-0.7-0.4-0.9c-0.2-0.2-0.5-0.5-0.7-0.6c-0.3-0.2-0.7-0.3-1.1-0.3
							c-0.5,0-0.9,0.3-1.1,0.8l0,0c-0.2,0.4-0.4,0.7-0.6,1s-0.4,0.7-0.7,1c-0.3,0.3-0.5,0.7-0.8,1l-0.3,0.4l-0.7,0.7
							c-0.4,0.3-0.6,0.8-0.6,1.3C106.4,393.7,106.6,394,106.8,394.4L106.8,394.4z"/>
						<path class="st2" d="M118.2,403.8c1.4,2,3.7,3.2,6.2,3.1c2.4,0.1,4.8-1,6.3-3c0.7-0.9,1.2-1.9,1.5-2.9c0.3-1,0.5-2.1,0.5-3.2
							c0-0.7-0.1-1.4-0.2-2.1c-0.1-0.8-0.3-1.5-0.6-2.3c-0.3-0.7-0.6-1.5-1-2.1c-0.4-0.7-0.9-1.3-1.5-1.9c-0.6-0.6-1.4-1-2.1-1.3
							c-1.8-0.7-3.8-0.7-5.6,0c-0.8,0.3-1.5,0.8-2.1,1.4c-0.6,0.6-1.1,1.2-1.5,1.9c-0.4,0.7-0.7,1.4-1,2.2c-0.2,0.7-0.4,1.5-0.5,2.2
							c-0.1,0.7-0.2,1.3-0.2,2c0,1,0.2,2.1,0.4,3.1C117.1,401.9,117.6,402.9,118.2,403.8z M120.1,395.2c0.1-0.8,0.4-1.5,0.8-2.2
							c0.4-0.6,0.9-1.1,1.5-1.5c0.7-0.4,1.4-0.6,2.2-0.5c0.8,0,1.5,0.2,2.2,0.5c0.6,0.4,1.1,0.9,1.5,1.5c0.4,0.7,0.7,1.4,0.9,2.2
							c0.2,0.9,0.3,1.8,0.3,2.7c0,0.8-0.1,1.6-0.3,2.4c-0.2,0.7-0.5,1.3-0.9,1.8c-0.4,0.5-0.9,0.9-1.5,1.2c-1.4,0.6-3,0.6-4.4,0
							c-0.5-0.3-1-0.7-1.4-1.2c-0.4-0.5-0.7-1.2-0.8-1.8c-0.2-0.8-0.3-1.6-0.3-2.3C119.8,396.9,119.9,396,120.1,395.2z"/>
						<path class="st2" d="M66,433.9c-0.2-0.2-0.5-0.5-0.7-0.6c-0.3-0.2-0.7-0.3-1.1-0.3c-0.5,0-0.9,0.3-1.1,0.8l0,0
							c-0.2,0.4-0.4,0.7-0.6,1s-0.5,0.7-0.7,1c-0.3,0.4-0.5,0.7-0.8,1l-0.3,0.3l-0.8,0.7c-0.4,0.3-0.6,0.8-0.6,1.3
							c0,0.4,0.1,0.8,0.4,1.1l0,0l0,0c0.6,0.6,1.6,0.7,2.3,0.2c0.3-0.2,0.5-0.5,0.7-0.7c0.2-0.2,0.4-0.4,0.6-0.6l0.1,6l-0.1,6.1
							c0,0.5,0.2,1,0.6,1.2c0.3,0.2,0.6,0.3,1,0.3c0.4,0,0.8-0.1,1.1-0.3c0.5-0.2,0.7-0.7,0.7-1.2l-0.2-16.4
							C66.3,434.4,66.2,434.1,66,433.9z"/>
						<path class="st2" d="M84.7,439.2c-0.3-0.7-0.6-1.5-1-2.1c-0.4-0.7-0.9-1.3-1.5-1.9c-0.6-0.6-1.4-1-2.1-1.3
							c-1.8-0.7-3.8-0.7-5.6,0c-0.8,0.3-1.5,0.8-2.1,1.4c-0.6,0.6-1.1,1.2-1.5,1.9c-0.4,0.7-0.7,1.4-1,2.2c-0.2,0.7-0.4,1.5-0.5,2.2
							c-0.1,0.7-0.2,1.3-0.2,2c0,1,0.2,2.1,0.4,3.1c0.3,1.1,0.8,2.1,1.4,3c1.4,2,3.7,3.2,6.2,3.1c2.4,0.1,4.8-1,6.3-3
							c0.7-0.9,1.2-1.9,1.5-2.9c0.3-1,0.5-2.1,0.5-3.2c0-0.7-0.1-1.4-0.2-2.1C85.2,440.7,85,439.9,84.7,439.2z M81.8,445.9
							c-0.2,0.7-0.5,1.3-0.9,1.8c-0.4,0.5-0.9,0.9-1.5,1.2c-1.4,0.6-3,0.6-4.4,0c-0.6-0.3-1-0.7-1.4-1.2c-0.4-0.5-0.7-1.2-0.8-1.8
							c-0.2-0.8-0.3-1.6-0.3-2.4c0-0.9,0.1-1.7,0.3-2.6c0.2-0.8,0.4-1.5,0.8-2.2c0.4-0.6,0.9-1.1,1.5-1.5c0.7-0.4,1.4-0.6,2.2-0.5
							c0.7,0,1.5,0.2,2.1,0.5c0.6,0.4,1.1,0.9,1.5,1.5c0.4,0.7,0.7,1.4,0.9,2.2c0.2,0.9,0.3,1.8,0.3,2.7
							C82.1,444.4,82,445.2,81.8,445.9z"/>
						<path class="st2" d="M127.6,428.9c0.3,0.2,0.6,0.3,1,0.3c0.4,0,0.8-0.1,1.1-0.3c0.4-0.2,0.7-0.7,0.7-1.2l-0.2-16.4
							c0-0.3-0.2-0.7-0.4-0.9c-0.2-0.2-0.5-0.5-0.7-0.6c-0.3-0.2-0.7-0.3-1.1-0.3c-0.5,0-0.9,0.3-1.1,0.8l0,0
							c-0.2,0.4-0.4,0.7-0.6,1s-0.4,0.7-0.7,1c-0.3,0.3-0.5,0.7-0.8,1c-0.1,0.1-0.2,0.2-0.3,0.3l-0.8,0.8c-0.4,0.3-0.6,0.8-0.6,1.3
							c0,0.4,0.1,0.8,0.4,1l0,0l0,0c0.3,0.3,0.6,0.5,1,0.5c0.5,0.1,0.9,0,1.3-0.3c0.3-0.2,0.5-0.5,0.7-0.7c0.2-0.2,0.4-0.4,0.6-0.6
							l0.1,6l-0.1,6.1C126.9,428.2,127.2,428.7,127.6,428.9z"/>
						<path class="st2" d="M103.4,433.4c-3.1,0-5.6-2.5-5.6-5.6c0-1.1-0.9-2-2-2s-2,0.9-2,2c0,5.3,4.3,9.7,9.7,9.7c1.1,0,2-0.9,2-2
							S104.5,433.5,103.4,433.4L103.4,433.4z"/>
						<path class="st2" d="M121.8,438.4l-1,1l-1.8-1.8c6-8.1,4.2-19.5-3.9-25.5s-19.5-4.2-25.5,3.9c-4.2,5.8-4.7,13.5-1.2,19.7
							c-0.4,0.4-0.8,0.9-1.1,1.4c-0.4,0.7-0.7,1.4-1,2.2c-0.2,0.7-0.4,1.5-0.5,2.2c-0.1,0.7-0.1,1.3-0.2,2c0,1,0.1,2.1,0.4,3.1
							c0.3,1,0.7,2,1.4,2.9c1.4,2,3.7,3.2,6.2,3.1c2.4,0.1,4.8-1,6.3-3c0.7-0.9,1.2-1.9,1.5-2.9c0.2-0.6,0.3-1.3,0.4-1.9
							c0.8,0.1,1.6,0.2,2.4,0.2c3.9,0,7.6-1.2,10.8-3.5l1.8,1.8l-1,1l11.8,11.8l1-1l3.9-3.9l1-1L121.8,438.4z M98.4,445.9
							c-0.2,0.7-0.5,1.3-0.9,1.8c-0.4,0.5-0.9,0.9-1.5,1.2c-1.4,0.6-3,0.6-4.4,0c-0.6-0.3-1-0.7-1.4-1.2c-0.4-0.5-0.7-1.2-0.8-1.8
							c-0.2-0.8-0.3-1.6-0.3-2.4c0-0.9,0.1-1.7,0.3-2.6c0.2-0.8,0.4-1.5,0.8-2.2c0.1-0.1,0.1-0.1,0.2-0.2c2.2,2.6,5,4.5,8.2,5.6
							C98.6,444.7,98.5,445.3,98.4,445.9L98.4,445.9z M104.4,440.4c-1,0-1.9-0.1-2.8-0.3c-1.5-0.3-3-0.9-4.3-1.8
							c-0.7-0.4-1.3-0.8-1.9-1.3c-0.5-0.5-1.1-1-1.5-1.6l-0.1-0.1c-0.5-0.6-0.9-1.2-1.2-1.8c-1.2-2-1.8-4.3-1.8-6.6
							c0-7.5,6.1-13.6,13.6-13.6s13.6,6.1,13.6,13.6C118,434.4,111.9,440.5,104.4,440.4C104.4,440.5,104.4,440.5,104.4,440.4
							L104.4,440.4z"/>
					</g>
					<g id="Health_and_Biomedical_Informatics_Text">
						<path class="st2" d="M68,477.4v-5.6h-5.2v5.6h-2.3v-12.8h2.3v5H68v-5h2.3v12.8H68z"/>
						<path class="st2" d="M81,473.4h-6.3c0,0.7,0.2,1.3,0.7,1.8c0.4,0.4,0.9,0.6,1.4,0.6c0.5,0.1,1-0.1,1.4-0.5
							c0.2-0.2,0.4-0.5,0.4-0.8h2.2c-0.1,0.6-0.3,1.2-0.7,1.7c-0.8,0.9-2,1.4-3.2,1.3c-1.1,0-2.2-0.4-3-1.2c-1-1-1.5-2.3-1.4-3.7
							c-0.1-1.4,0.4-2.7,1.4-3.7c0.8-0.8,1.9-1.2,3-1.2c1.4,0,2.6,0.6,3.4,1.7c0.6,1,0.9,2.1,0.8,3.3C81,472.8,81,473.2,81,473.4z
							 M78.2,470.1c-0.4-0.4-0.9-0.6-1.4-0.5c-0.6,0-1.2,0.2-1.6,0.7c-0.3,0.4-0.5,0.9-0.5,1.5h4C78.7,471.2,78.5,470.6,78.2,470.1
							L78.2,470.1z"/>
						<path class="st2" d="M90.1,477.5c-0.8,0.1-1.5-0.5-1.6-1.3c-0.6,0.9-1.7,1.5-2.8,1.4c-2.2,0-3.4-1.4-3.4-2.9
							c0-1.8,1.4-2.8,3.2-2.9l2.8-0.2V471c0-0.9-0.3-1.5-1.6-1.5c-1,0-1.7,0.5-1.7,1.3h-2.2c0.1-2.1,1.8-3,3.9-3
							c1.6,0,3,0.5,3.5,1.9c0.2,0.6,0.3,1.2,0.3,1.9v3.5c0,0.4,0.2,0.6,0.5,0.6c0.1,0,0.2,0,0.3,0v1.6
							C90.9,477.5,90.5,477.6,90.1,477.5z M88.2,473.2l-2.4,0.2c-0.7,0-1.3,0.5-1.3,1.2c0,0.7,0.6,1.2,1.3,1.2c0,0,0,0,0,0
							c1.2,0.2,2.2-0.7,2.4-1.8c0-0.1,0-0.2,0-0.3L88.2,473.2z"/>
						<path class="st2" d="M95.5,477.5c-1.2,0.2-2.4-0.7-2.5-2c0-0.2,0-0.4,0-0.5v-10.6h2.3v10.2c0,0.5,0.1,0.9,0.9,0.9
							c0.2,0,0.2,0,0.4,0v1.9C96.1,477.5,95.8,477.5,95.5,477.5z"/>
						<path class="st2" d="M101.4,477.5c-1.4,0.2-2.7-0.9-2.8-2.3c0-0.2,0-0.4,0-0.6v-4.8h-1.7V468h1.7v-2.4l2.2-0.6v2.9h2.4v1.9
							h-2.4v4.6c0,0.7,0.3,1,1,1c0.5,0,1,0,1.5-0.1v1.9C102.7,477.4,102.1,477.5,101.4,477.5z"/>
						<path class="st2" d="M110.9,477.4v-5.8c0-1.1-0.4-1.8-1.6-1.8c-1.3,0-1.9,1.4-1.9,2.6v4.9h-2.3v-13h2.3v4.6
							c0.6-0.8,1.6-1.2,2.6-1.2c1.7-0.1,3.1,1.3,3.2,3c0,0.1,0,0.2,0,0.4v6.2L110.9,477.4z"/>
						<path class="st2" d="M128.1,477.4l-0.9-1c-1,0.9-2.3,1.3-3.6,1.3c-2.2,0.2-4.1-1.5-4.2-3.6c0-0.1,0-0.2,0-0.2
							c0.1-1.5,0.9-2.8,2.3-3.5c-0.8-0.7-1.3-1.7-1.4-2.8c0.2-1.9,2-3.3,3.9-3.1c1.6,0.2,2.8,1.4,3.1,3c0,1.6-1,2.6-2.4,3.4l2.2,2.4
							c0.2-0.5,0.3-1,0.3-1.6c0-0.6,0-1.2,0-1.6h3.3v1.8h-1.5c0,1-0.3,2-0.8,2.9c0.8,0.9,1.6,1.7,2.4,2.6L128.1,477.4z M122.9,471.8
							c-0.8,0.5-1.5,0.9-1.5,2c0,1.1,1,2,2.1,2c0.1,0,0.1,0,0.2,0c0.8,0,1.6-0.2,2.2-0.8C124.9,473.9,123.9,472.8,122.9,471.8z
							 M123.8,466.2c-0.7-0.1-1.4,0.5-1.4,1.2c0,0,0,0.1,0,0.1c0,0.8,0.7,1.4,1.2,2c0.8-0.4,1.6-0.8,1.6-1.9
							c0.1-0.7-0.5-1.4-1.2-1.4C123.9,466.2,123.8,466.2,123.8,466.2z"/>
						<path class="st2" d="M58.5,495.5c-1,0.7-2.2,1-3.4,0.9h-5.1v-12.8h5.1c1-0.1,2.1,0.2,3,0.7c0.9,0.6,1.5,1.7,1.5,2.8
							c0,1.1-0.6,2.2-1.6,2.7c1.1,0.5,1.9,1.6,1.8,2.9C59.9,493.8,59.4,494.9,58.5,495.5z M55.2,485.6h-2.9v3.2h2.9
							c1,0,1.9-0.4,1.9-1.6S56.3,485.6,55.2,485.6L55.2,485.6z M55.3,490.8h-2.9v3.5h2.9c1.1,0,2.2-0.4,2.2-1.7
							S56.5,490.8,55.3,490.8z"/>
						<path class="st2" d="M61.8,485.7v-2.3h2.4v2.3H61.8z M61.8,496.4V487h2.3v9.4L61.8,496.4z"/>
						<path class="st2" d="M73.8,495.2c-1.6,1.8-4.4,2-6.2,0.3c-0.1-0.1-0.2-0.2-0.3-0.3c-1.5-2.1-1.5-4.8,0-6.9
							c1.6-1.8,4.4-2,6.2-0.3c0.1,0.1,0.2,0.2,0.3,0.3C75.2,490.3,75.2,493.1,73.8,495.2z M71.9,489.3c-0.8-0.8-2-0.8-2.8,0
							c0,0,0,0,0,0c-0.9,1.4-0.9,3.3,0,4.7c0.8,0.8,2,0.8,2.8,0c0,0,0,0,0,0C72.8,492.6,72.8,490.8,71.9,489.3z"/>
						<path class="st2" d="M88,496.4v-5.8c0-1.1-0.3-1.8-1.4-1.8s-1.8,1.4-1.8,2.5v5.1h-2.3v-5.8c0-1.1-0.3-1.8-1.4-1.8
							s-1.8,1.4-1.8,2.5v5.1h-2.2V487h1.9l0.2,1.2c0.6-0.9,1.6-1.5,2.7-1.5c1.1-0.1,2.2,0.5,2.7,1.5c0.6-1,1.7-1.6,2.8-1.5
							c2,0,3.1,1.3,3.1,3.3v6.3L88,496.4z"/>
						<path class="st2" d="M100.7,492.4h-6.3c0,0.7,0.2,1.3,0.7,1.8c0.4,0.4,0.9,0.6,1.4,0.6c0.5,0.1,1-0.1,1.4-0.5
							c0.2-0.2,0.4-0.5,0.4-0.8h2.2c-0.1,0.6-0.4,1.2-0.8,1.7c-1.7,1.7-4.4,1.8-6.1,0.2c-1-1-1.5-2.3-1.4-3.7
							c-0.1-1.4,0.4-2.7,1.3-3.7c0.8-0.8,1.9-1.2,3-1.2c1.4,0,2.6,0.6,3.4,1.7c0.6,1,0.9,2.1,0.8,3.3
							C100.7,491.8,100.7,492.2,100.7,492.4z M97.8,489.1c-0.9-0.8-2.2-0.7-3,0.1c0,0,0,0,0,0c-0.3,0.4-0.5,0.9-0.5,1.5h4
							C98.4,490.2,98.2,489.6,97.8,489.1z"/>
						<path class="st2" d="M108.8,496.4l-0.1-1c-0.6,0.8-1.6,1.3-2.6,1.2c-0.8,0-1.6-0.3-2.3-0.8c-1.2-1-1.8-2.5-1.7-4.1
							c-0.1-1.6,0.5-3.1,1.7-4.2c0.6-0.5,1.5-0.8,2.3-0.8c0.9-0.1,1.8,0.3,2.4,0.9v-4.3h2.2v13L108.8,496.4z M106.5,488.7
							c-0.6,0-1.2,0.3-1.5,0.7c-0.4,0.7-0.6,1.5-0.6,2.3c-0.1,0.8,0.1,1.6,0.6,2.3c0.4,0.5,0.9,0.7,1.5,0.7c1.8,0,2.1-1.7,2.1-3
							S108.3,488.7,106.5,488.7z"/>
						<path class="st2" d="M113.3,485.7v-2.3h2.4v2.3H113.3z M113.4,496.4V487h2.3v9.4L113.4,496.4z"/>
						<path class="st2" d="M125.1,495.1c-0.8,1-2,1.5-3.2,1.5c-1.3,0-2.4-0.5-3.3-1.5c-1.4-2.1-1.4-4.8,0-6.8c0.8-0.9,2-1.5,3.3-1.5
							c1.2,0,2.4,0.5,3.2,1.5c0.4,0.6,0.7,1.3,0.7,2h-2.2c0-0.3-0.1-0.6-0.3-0.9c-0.3-0.5-0.9-0.7-1.4-0.7c-0.5,0-1,0.2-1.4,0.6
							c-0.5,0.7-0.7,1.5-0.6,2.4c-0.1,0.8,0.1,1.7,0.6,2.4c0.4,0.4,0.9,0.6,1.4,0.6c0.6,0,1.1-0.2,1.4-0.7c0.2-0.3,0.3-0.6,0.3-0.9
							h2.2C125.8,493.8,125.6,494.5,125.1,495.1z"/>
						<path class="st2" d="M135,496.5c-0.8,0.1-1.5-0.5-1.6-1.3c-0.6,0.9-1.7,1.5-2.9,1.4c-2.2,0-3.4-1.4-3.4-2.9
							c0-1.8,1.4-2.8,3.2-2.9l2.8-0.2V490c0-0.9-0.3-1.5-1.6-1.5c-1,0-1.7,0.5-1.7,1.3h-2.2c0.1-2.1,1.8-3,3.9-3
							c1.6,0,3,0.5,3.5,1.9c0.2,0.6,0.3,1.2,0.3,1.9v3.5c0,0.4,0.1,0.6,0.5,0.6c0.1,0,0.2,0,0.3,0v1.6
							C135.8,496.5,135.4,496.6,135,496.5z M133.1,492.2l-2.4,0.2c-0.7,0-1.3,0.5-1.4,1.2c0,0.7,0.6,1.2,1.3,1.2c0,0,0,0,0,0
							c1.2,0.2,2.2-0.7,2.4-1.8c0-0.1,0-0.2,0-0.3L133.1,492.2z"/>
						<path class="st2" d="M140.4,496.5c-1.2,0.2-2.4-0.7-2.5-2c0-0.2,0-0.4,0-0.6v-10.6h2.3v10.2c0,0.5,0.1,0.9,0.9,0.9
							c0.2,0,0.2,0,0.4,0v1.9C141.1,496.5,140.7,496.5,140.4,496.5z"/>
						<path class="st2" d="M48.5,515.4v-12.8h2.4v12.8H48.5z"/>
						<path class="st2" d="M59.2,515.4v-5.7c0-1.1-0.4-1.8-1.5-1.8c-0.7,0-1.4,0.5-1.6,1.2c-0.3,0.8-0.4,1.7-0.3,2.5v3.8h-2.2V506
							h1.9l0.2,1.2c1-1.5,3-1.9,4.5-0.9c0.9,0.6,1.5,1.7,1.4,2.8v6.2L59.2,515.4z"/>
						<path class="st2" d="M67.9,504c-0.6-0.1-1.1,0.3-1.2,0.9c0,0.1,0,0.1,0,0.2v0.9h2.5v1.9h-2.5v7.5h-2.2v-7.5h-1.6V506h1.6v-0.9
							c-0.1-1.6,1.2-2.9,2.8-3c0.1,0,0.3,0,0.4,0c0.6,0,1.2,0.1,1.8,0.2v1.8C68.9,504,68.4,504,67.9,504z"/>
						<path class="st2" d="M77.8,514.2c-1.6,1.8-4.4,2-6.2,0.3c-0.1-0.1-0.2-0.2-0.3-0.3c-1.5-2.1-1.5-4.8,0-6.9
							c1.6-1.8,4.4-2,6.2-0.3c0.1,0.1,0.2,0.2,0.3,0.3C79.3,509.3,79.3,512.1,77.8,514.2z M76,508.3c-0.4-0.4-0.9-0.6-1.4-0.6
							c-0.5,0-1,0.2-1.4,0.6c-0.9,1.5-0.9,3.3,0,4.7c0.4,0.4,0.9,0.6,1.4,0.6c0.5,0,1-0.2,1.4-0.6C76.9,511.6,76.9,509.8,76,508.3z"
							/>
						<path class="st2" d="M85.6,508c-1.3,0-2.4,1-2.4,2.3c0,0.1,0,0.2,0,0.3v4.7H81V506h1.9l0.2,1.4c0.5-1,1.5-1.6,2.7-1.5
							c0.2,0,0.5,0,0.7,0.1v2.2C86.2,508,85.9,508,85.6,508z"/>
						<path class="st2" d="M99,515.4v-5.8c0-1.1-0.3-1.8-1.4-1.8s-1.8,1.4-1.8,2.5v5.1h-2.3v-5.8c0-1.1-0.3-1.8-1.4-1.8
							s-1.8,1.4-1.8,2.5v5.1H88V506h1.9l0.2,1.2c0.6-0.9,1.6-1.5,2.7-1.5c1.1-0.1,2.2,0.5,2.7,1.5c0.6-1,1.7-1.6,2.8-1.5
							c2,0,3,1.3,3,3.3v6.3L99,515.4z"/>
						<path class="st2" d="M110.9,515.5c-0.8,0.1-1.5-0.5-1.6-1.3c-0.6,0.9-1.7,1.5-2.8,1.4c-2.2,0-3.4-1.4-3.4-2.9
							c0-1.8,1.4-2.8,3.2-2.9l2.8-0.2V509c0-0.9-0.3-1.5-1.6-1.5c-1,0-1.7,0.5-1.7,1.3h-2.2c0.1-2.1,1.8-3,3.9-3
							c1.6,0,3,0.5,3.5,1.9c0.2,0.6,0.3,1.2,0.3,1.9v3.5c0,0.4,0.2,0.6,0.5,0.6c0.1,0,0.2,0,0.3,0v1.7
							C111.7,515.5,111.3,515.6,110.9,515.5z M109,511.2l-2.4,0.2c-0.7,0-1.3,0.5-1.3,1.2c0,0.7,0.6,1.2,1.3,1.2c0,0,0,0,0,0
							c1.2,0.2,2.2-0.7,2.4-1.8c0-0.1,0-0.2,0-0.3L109,511.2z"/>
						<path class="st2" d="M117.2,515.5c-1.4,0.2-2.7-0.9-2.8-2.3c0-0.2,0-0.4,0-0.6v-4.8h-1.7V506h1.7v-2.4l2.2-0.6v2.9h2.4v1.9
							h-2.4v4.6c0,0.7,0.3,1,1,1c0.5,0,1,0,1.5-0.1v1.9C118.5,515.4,117.8,515.5,117.2,515.5z"/>
						<path class="st2" d="M120.8,504.7v-2.3h2.4v2.3H120.8z M120.9,515.4V506h2.3v9.4L120.9,515.4z"/>
						<path class="st2" d="M132.7,514.1c-0.8,1-2,1.5-3.2,1.5c-1.3,0-2.4-0.5-3.3-1.5c-1.4-2.1-1.4-4.8,0-6.8c0.8-0.9,2-1.5,3.3-1.5
							c1.2,0,2.4,0.5,3.2,1.5c0.4,0.6,0.7,1.3,0.7,2h-2.2c0-0.3-0.1-0.6-0.3-0.9c-0.3-0.5-0.9-0.7-1.4-0.7c-0.5,0-1,0.2-1.4,0.6
							c-0.5,0.7-0.7,1.5-0.6,2.4c-0.1,0.8,0.1,1.7,0.6,2.4c0.3,0.4,0.8,0.6,1.4,0.6c0.6,0,1.1-0.2,1.4-0.7c0.2-0.3,0.3-0.6,0.3-0.9
							h2.2C133.4,512.8,133.1,513.5,132.7,514.1z"/>
						<path class="st2" d="M142,514.5c-0.9,0.8-2,1.1-3.2,1.1c-1.1,0-2.2-0.4-3-1.1c-0.6-0.6-1-1.3-1-2.2h2.1c0,0.4,0.2,0.8,0.5,1.1
							c0.4,0.3,0.9,0.5,1.4,0.4c0.8,0,1.9-0.2,1.9-1.2c0-0.5-0.4-1-0.9-1c-0.8-0.1-1.8-0.2-2.6-0.4c-1.2-0.2-2.1-1.3-2.1-2.5
							c0-0.8,0.3-1.6,0.9-2.1c0.8-0.6,1.8-1,2.9-0.9c1.1,0,2.1,0.4,2.9,1.1c0.5,0.5,0.8,1.2,0.8,1.9h-2.1c0-0.3-0.1-0.6-0.4-0.9
							c-0.3-0.3-0.8-0.4-1.2-0.4c-0.3,0-0.7,0-1,0.1c-0.4,0.1-0.7,0.5-0.7,1c0,0.7,0.6,0.9,1.1,0.9c0.9,0.1,1.1,0.1,2,0.3
							c1.4,0.1,2.5,1.2,2.6,2.6C142.8,513.2,142.5,514,142,514.5z"/>
					</g>
				</g>
				<g id="Public_Health">
					<path class="st10" d="M245.3,201.8c-2.6-23.1-14.1-44.3-32.1-59.1c-38-31.4-95-26.2-126.5,11.8c-31.8,38.2-26.6,95,11.6,126.7
						c18.2,15.1,41.5,22.5,65.1,20.5c2.2-0.2,4.1,1.5,4.3,3.7c0,0.6-0.1,1.3-0.3,1.8c-8.2,19.9-13.6,40.8-15.9,62.2
						c82.6,51,170.4,57.1,208.4,10.2s13.6-131.5-53.5-201.6c-19.4,6.4-37.9,15.4-54.9,26.8c-1.8,1.2-4.3,0.7-5.5-1.1
						C245.6,203.1,245.4,202.5,245.3,201.8z"/>
					<g id="Public_Health_Icon" class="st1">
						<path class="st2" d="M155.2,142.3c-23,0-41.7,18.7-41.7,41.8c0,23,18.7,41.7,41.8,41.7c23,0,41.7-18.7,41.7-41.7
							C197,161,178.3,142.3,155.2,142.3C155.3,142.3,155.3,142.3,155.2,142.3z M155.2,220.7c-20.3,0-36.8-16.5-36.8-36.8
							s16.5-36.8,36.8-36.8S192,163.7,192,184c0,0,0,0,0,0C192,204.3,175.5,220.7,155.2,220.7L155.2,220.7z"/>
						<circle class="st2" cx="169" cy="163.7" r="8.5"/>
						<path class="st2" d="M141.8,179.3c4.7,0,8.5-3.8,8.5-8.5s-3.8-8.5-8.5-8.5c-4.7,0-8.5,3.8-8.5,8.5
							C133.3,175.5,137.1,179.3,141.8,179.3L141.8,179.3z"/>
						<path class="st2" d="M185.9,180c-1.8-3.5-5.4-5.7-9.4-5.7h-15c-3.9,0-7.6,2.2-9.4,5.7l-1.3,2.8c-1.3-0.7-2.8-1-4.2-1h-9.5
							c-3.6,0-6.9,2-8.5,5.2l-3.8,12.2c1.2,2.3,2.6,4.5,4.3,6.4l3.4-10c0-0.1,0.2-0.2,0.3-0.1c0.1,0,0.2,0.2,0.1,0.3l-3,10.9
							c3.4,3.7,7.5,6.6,12.1,8.6l3.9-8.5c1.2-2.2,3.5-3.6,6-3.6h6.9c2.5,0,4.8,1.4,6,3.6l3.9,8.5c4.8-2.1,9.2-5.2,12.6-9.2
							l-0.1-17.8c0-0.1,0-0.3,0.2-0.3c0.1,0,0.3,0,0.3,0.2l4,11.6c1.7-3.1,2.8-6.5,3.5-10L185.9,180z M155.3,201.3c-3.3,0-6-2.7-6-6
							s2.7-6,6-6s6,2.7,6,6S158.6,201.3,155.3,201.3z"/>
						<path class="st2" d="M162.2,217.3L162.2,217.3l-1,0.2C161.5,217.4,161.9,217.3,162.2,217.3z"/>
						<path class="st2" d="M164.7,216.7l0.4-0.1C165,216.6,164.8,216.6,164.7,216.7L164.7,216.7z"/>
						<path class="st2" d="M162.2,217v0.2c0.9-0.2,1.7-0.4,2.6-0.6l-2.2-3.9C162.4,212.5,162.1,212.6,162.2,217z"/>
						<path class="st2" d="M149,212.7l-2.2,3.9c0.8,0.2,1.7,0.4,2.5,0.6V217C149.4,212.6,149.1,212.5,149,212.7z"/>
						<path class="st2" d="M146.8,216.7L146.8,216.7l-0.8-0.2L146.8,216.7z"/>
					</g>
					<g class="st4">
						<path class="st2" d="M101,251v-12.9h4.2c1.6,0,2.6,0.1,3.1,0.2c0.7,0.2,1.4,0.6,1.9,1.3s0.7,1.5,0.7,2.5c0,0.8-0.1,1.5-0.4,2
							s-0.7,1-1.1,1.3c-0.4,0.3-0.9,0.5-1.3,0.6c-0.6,0.1-1.5,0.2-2.7,0.2h-1.7v4.9H101z M103.6,240.3v3.7h1.4c1,0,1.7-0.1,2.1-0.2
							s0.6-0.3,0.8-0.6s0.3-0.6,0.3-1c0-0.5-0.1-0.9-0.4-1.2s-0.6-0.5-1-0.6c-0.3-0.1-0.9-0.1-1.9-0.1H103.6z"/>
					</g>
					<g class="st4">
						<path class="st2" d="M118.3,251v-1.4c-0.3,0.5-0.8,0.9-1.3,1.2s-1.1,0.4-1.8,0.4c-0.6,0-1.2-0.1-1.7-0.4s-0.9-0.7-1.1-1.2
							s-0.3-1.2-0.3-2.1v-5.9h2.5v4.3c0,1.3,0,2.1,0.1,2.4c0.1,0.3,0.3,0.5,0.5,0.7c0.2,0.2,0.5,0.3,0.9,0.3c0.4,0,0.8-0.1,1.1-0.3
							c0.3-0.2,0.6-0.5,0.7-0.9c0.1-0.3,0.2-1.2,0.2-2.5v-3.9h2.5v9.3H118.3z"/>
					</g>
					<g class="st4">
						<path class="st2" d="M122.4,251v-12.9h2.5v4.6c0.8-0.9,1.7-1.3,2.7-1.3c1.1,0,2.1,0.4,2.8,1.2c0.7,0.8,1.1,2,1.1,3.5
							c0,1.6-0.4,2.8-1.1,3.7s-1.7,1.3-2.8,1.3c-0.5,0-1.1-0.1-1.6-0.4c-0.5-0.3-1-0.7-1.3-1.2v1.4H122.4z M124.9,246.1
							c0,1,0.2,1.7,0.5,2.1c0.4,0.7,1,1,1.7,1c0.5,0,1-0.2,1.4-0.7c0.4-0.5,0.6-1.2,0.6-2.2c0-1.1-0.2-1.8-0.6-2.3s-0.9-0.7-1.5-0.7
							c-0.6,0-1.1,0.2-1.5,0.7S124.9,245.2,124.9,246.1z"/>
					</g>
					<g class="st4">
						<path class="st2" d="M133.2,251v-12.9h2.5V251H133.2z"/>
					</g>
					<g class="st4">
						<path class="st2" d="M138.4,240.4v-2.3h2.5v2.3H138.4z M138.4,251v-9.3h2.5v9.3H138.4z"/>
					</g>
					<g class="st4">
						<path class="st2" d="M151.5,244.4l-2.4,0.4c-0.1-0.5-0.3-0.9-0.6-1.1s-0.7-0.4-1.1-0.4c-0.6,0-1.1,0.2-1.5,0.6
							s-0.5,1.1-0.5,2.1c0,1.1,0.2,1.9,0.6,2.3s0.9,0.7,1.5,0.7c0.5,0,0.9-0.1,1.2-0.4s0.5-0.7,0.6-1.4l2.4,0.4
							c-0.3,1.1-0.7,2-1.5,2.5s-1.7,0.9-2.9,0.9c-1.4,0-2.5-0.4-3.3-1.3s-1.2-2.1-1.2-3.6c0-1.5,0.4-2.7,1.2-3.6
							c0.8-0.9,1.9-1.3,3.3-1.3c1.1,0,2,0.2,2.7,0.7S151.2,243.4,151.5,244.4z"/>
					</g>
					<g class="st4">
						<path class="st2" d="M156.7,251v-12.9h2.6v5.1h5.1v-5.1h2.6V251h-2.6v-5.6h-5.1v5.6H156.7z"/>
					</g>
					<g class="st4">
						<path class="st2" d="M174.8,248l2.5,0.4c-0.3,0.9-0.8,1.6-1.5,2.1s-1.5,0.7-2.6,0.7c-1.6,0-2.8-0.5-3.6-1.6
							c-0.6-0.8-0.9-1.9-0.9-3.2c0-1.5,0.4-2.8,1.2-3.6s1.8-1.3,3.1-1.3c1.4,0,2.5,0.5,3.3,1.4c0.8,0.9,1.2,2.3,1.2,4.2h-6.2
							c0,0.7,0.2,1.3,0.6,1.7c0.4,0.4,0.9,0.6,1.4,0.6c0.4,0,0.7-0.1,1-0.3S174.7,248.5,174.8,248z M174.9,245.5
							c0-0.7-0.2-1.3-0.6-1.6c-0.4-0.4-0.8-0.6-1.3-0.6c-0.5,0-1,0.2-1.3,0.6s-0.5,0.9-0.5,1.6H174.9z"/>
					</g>
					<g class="st4">
						<path class="st2" d="M181.2,244.5l-2.2-0.4c0.3-0.9,0.7-1.6,1.3-2s1.5-0.7,2.7-0.7c1.1,0,1.9,0.1,2.5,0.4
							c0.5,0.3,0.9,0.6,1.1,1s0.3,1.1,0.3,2.2l0,2.9c0,0.8,0,1.4,0.1,1.8s0.2,0.8,0.4,1.3H185c-0.1-0.2-0.1-0.4-0.2-0.7
							c0-0.1-0.1-0.2-0.1-0.3c-0.4,0.4-0.9,0.7-1.4,0.9s-1,0.3-1.5,0.3c-1,0-1.7-0.3-2.3-0.8s-0.8-1.2-0.8-2c0-0.5,0.1-1,0.4-1.4
							c0.3-0.4,0.6-0.7,1.1-0.9c0.5-0.2,1.1-0.4,2-0.6c1.2-0.2,2-0.4,2.4-0.6v-0.2c0-0.5-0.1-0.8-0.4-1c-0.2-0.2-0.7-0.3-1.3-0.3
							c-0.4,0-0.8,0.1-1,0.3C181.6,243.7,181.4,244,181.2,244.5z M184.5,246.5c-0.3,0.1-0.8,0.2-1.5,0.4s-1.1,0.3-1.3,0.4
							c-0.3,0.2-0.5,0.5-0.5,0.9c0,0.3,0.1,0.6,0.4,0.9s0.6,0.4,1,0.4c0.4,0,0.9-0.1,1.3-0.4c0.3-0.2,0.5-0.5,0.6-0.8
							c0.1-0.2,0.1-0.6,0.1-1.2V246.5z"/>
					</g>
					<g class="st4">
						<path class="st2" d="M189.3,251v-12.9h2.5V251H189.3z"/>
					</g>
					<g class="st4">
						<path class="st2" d="M198.7,241.6v2H197v3.8c0,0.8,0,1.2,0,1.3s0.1,0.2,0.2,0.3s0.3,0.1,0.4,0.1c0.2,0,0.6-0.1,1-0.2l0.2,1.9
							c-0.6,0.2-1.2,0.4-2,0.4c-0.4,0-0.8-0.1-1.2-0.2c-0.4-0.1-0.6-0.3-0.8-0.6c-0.2-0.2-0.3-0.6-0.3-1c-0.1-0.3-0.1-0.9-0.1-1.7
							v-4.1h-1.1v-2h1.1v-1.9l2.5-1.4v3.3H198.7z"/>
					</g>
					<g class="st4">
						<path class="st2" d="M204,238.1v4.7c0.8-0.9,1.7-1.4,2.9-1.4c0.6,0,1.1,0.1,1.5,0.3s0.8,0.5,1,0.8s0.4,0.7,0.5,1.1
							s0.1,1,0.1,1.9v5.5h-2.5V246c0-1,0-1.6-0.1-1.9s-0.3-0.5-0.5-0.6s-0.5-0.2-0.9-0.2c-0.4,0-0.8,0.1-1.1,0.3s-0.6,0.5-0.7,0.9
							s-0.2,1-0.2,1.8v4.7h-2.5v-12.9H204z"/>
					</g>
					<g class="st4">
						<path class="st2" d="M121.8,270v-12.9h4.2c1.6,0,2.6,0.1,3.1,0.2c0.7,0.2,1.4,0.6,1.9,1.3s0.7,1.5,0.7,2.5
							c0,0.8-0.1,1.5-0.4,2s-0.7,1-1.1,1.3c-0.4,0.3-0.9,0.5-1.3,0.6c-0.6,0.1-1.5,0.2-2.7,0.2h-1.7v4.9H121.8z M124.4,259.3v3.7
							h1.4c1,0,1.7-0.1,2.1-0.2s0.6-0.3,0.8-0.6s0.3-0.6,0.3-1c0-0.5-0.1-0.9-0.4-1.2s-0.6-0.5-1-0.6c-0.3-0.1-0.9-0.1-1.9-0.1
							H124.4z"/>
					</g>
					<g class="st4">
						<path class="st2" d="M135.2,270h-2.5v-9.3h2.3v1.3c0.4-0.6,0.7-1,1.1-1.2s0.7-0.3,1.1-0.3c0.6,0,1.1,0.2,1.6,0.5l-0.8,2.2
							c-0.4-0.3-0.8-0.4-1.2-0.4c-0.3,0-0.6,0.1-0.9,0.3c-0.2,0.2-0.4,0.5-0.6,1s-0.2,1.5-0.2,3.1V270z"/>
					</g>
					<g class="st4">
						<path class="st2" d="M141.9,263.5l-2.2-0.4c0.3-0.9,0.7-1.6,1.3-2s1.5-0.7,2.7-0.7c1.1,0,1.9,0.1,2.5,0.4
							c0.5,0.3,0.9,0.6,1.1,1s0.3,1.1,0.3,2.2l0,2.9c0,0.8,0,1.4,0.1,1.8s0.2,0.8,0.4,1.3h-2.4c-0.1-0.2-0.1-0.4-0.2-0.7
							c0-0.1-0.1-0.2-0.1-0.3c-0.4,0.4-0.9,0.7-1.4,0.9s-1,0.3-1.5,0.3c-1,0-1.7-0.3-2.3-0.8s-0.8-1.2-0.8-2c0-0.5,0.1-1,0.4-1.4
							c0.3-0.4,0.6-0.7,1.1-0.9c0.5-0.2,1.1-0.4,2-0.6c1.2-0.2,2-0.4,2.4-0.6v-0.2c0-0.5-0.1-0.8-0.4-1c-0.2-0.2-0.7-0.3-1.3-0.3
							c-0.4,0-0.8,0.1-1,0.3C142.2,262.7,142,263,141.9,263.5z M145.2,265.5c-0.3,0.1-0.8,0.2-1.5,0.4s-1.1,0.3-1.3,0.4
							c-0.3,0.2-0.5,0.5-0.5,0.9c0,0.3,0.1,0.6,0.4,0.9s0.6,0.4,1,0.4c0.4,0,0.9-0.1,1.3-0.4c0.3-0.2,0.5-0.5,0.6-0.8
							c0.1-0.2,0.1-0.6,0.1-1.2V265.5z"/>
					</g>
					<g class="st4">
						<path class="st2" d="M158.1,263.4l-2.4,0.4c-0.1-0.5-0.3-0.9-0.6-1.1s-0.7-0.4-1.1-0.4c-0.6,0-1.1,0.2-1.5,0.6
							s-0.5,1.1-0.5,2.1c0,1.1,0.2,1.9,0.6,2.3s0.9,0.7,1.5,0.7c0.5,0,0.9-0.1,1.2-0.4s0.5-0.7,0.6-1.4l2.4,0.4
							c-0.3,1.1-0.7,2-1.5,2.5s-1.7,0.9-2.9,0.9c-1.4,0-2.5-0.4-3.3-1.3s-1.2-2.1-1.2-3.6c0-1.5,0.4-2.7,1.2-3.6
							c0.8-0.9,1.9-1.3,3.3-1.3c1.1,0,2,0.2,2.7,0.7S157.8,262.4,158.1,263.4z"/>
					</g>
					<g class="st4">
						<path class="st2" d="M164,260.6v2h-1.7v3.8c0,0.8,0,1.2,0,1.3s0.1,0.2,0.2,0.3s0.3,0.1,0.4,0.1c0.2,0,0.6-0.1,1-0.2l0.2,1.9
							c-0.6,0.2-1.2,0.4-2,0.4c-0.4,0-0.8-0.1-1.2-0.2c-0.4-0.1-0.6-0.3-0.8-0.6c-0.2-0.2-0.3-0.6-0.3-1c-0.1-0.3-0.1-0.9-0.1-1.7
							v-4.1h-1.1v-2h1.1v-1.9l2.5-1.4v3.3H164z"/>
					</g>
					<g class="st4">
						<path class="st2" d="M166.8,259.4v-2.3h2.5v2.3H166.8z M166.8,270v-9.3h2.5v9.3H166.8z"/>
					</g>
					<path class="st2" d="M179.9,263.4l-2.4,0.4c-0.1-0.5-0.3-0.9-0.6-1.1s-0.7-0.4-1.1-0.4c-0.6,0-1.1,0.2-1.5,0.6
						s-0.5,1.1-0.5,2.1c0,1.1,0.2,1.9,0.6,2.3s0.9,0.7,1.5,0.7c0.5,0,0.9-0.1,1.2-0.4s0.5-0.7,0.6-1.4l2.4,0.4
						c-0.3,1.1-0.7,2-1.5,2.5s-1.7,0.9-2.9,0.9c-1.4,0-2.5-0.4-3.3-1.3s-1.2-2.1-1.2-3.6c0-1.5,0.4-2.7,1.2-3.6
						c0.8-0.9,1.9-1.3,3.3-1.3c1.1,0,2,0.2,2.7,0.7S179.6,262.4,179.9,263.4z"/>
					<path class="st2" d="M187.2,267l2.5,0.4c-0.3,0.9-0.8,1.6-1.5,2.1s-1.5,0.7-2.6,0.7c-1.6,0-2.8-0.5-3.6-1.6
						c-0.6-0.8-0.9-1.9-0.9-3.2c0-1.5,0.4-2.8,1.2-3.6s1.8-1.3,3.1-1.3c1.4,0,2.5,0.5,3.3,1.4c0.8,0.9,1.2,2.3,1.2,4.2h-6.2
						c0,0.7,0.2,1.3,0.6,1.7c0.4,0.4,0.9,0.6,1.4,0.6c0.4,0,0.7-0.1,1-0.3S187,267.5,187.2,267z M187.3,264.5c0-0.7-0.2-1.3-0.6-1.6
						c-0.4-0.4-0.8-0.6-1.3-0.6c-0.5,0-1,0.2-1.3,0.6s-0.5,0.9-0.5,1.6H187.3z"/>
				</g>
				<g>
					<g>
						
							<radialGradient id="SVGID_1_" cx="379" cy="373" r="228" gradientTransform="matrix(1 0 0 -1 0 768)" gradientUnits="userSpaceOnUse">
							<stop  offset="0.34" style="stop-color:#FFFFFF"/>
							<stop  offset="0.52" style="stop-color:#FFFFFF;stop-opacity:0.9"/>
							<stop  offset="0.57" style="stop-color:#FBFDFE;stop-opacity:0.88"/>
							<stop  offset="0.64" style="stop-color:#F1F6FB;stop-opacity:0.83"/>
							<stop  offset="0.7" style="stop-color:#DFEBF6;stop-opacity:0.74"/>
							<stop  offset="0.77" style="stop-color:#C7DCEF;stop-opacity:0.61"/>
							<stop  offset="0.85" style="stop-color:#A7C8E6;stop-opacity:0.45"/>
							<stop  offset="0.92" style="stop-color:#81B0DB;stop-opacity:0.25"/>
							<stop  offset="0.99" style="stop-color:#5494CE;stop-opacity:2.000000e-02"/>
							<stop  offset="1" style="stop-color:#5091CD;stop-opacity:0"/>
						</radialGradient>
						<circle class="st11" cx="379" cy="395" r="228"/>
						
							<radialGradient id="SVGID_2_" cx="379" cy="373" r="228.5" gradientTransform="matrix(1 0 0 -1 0 768)" gradientUnits="userSpaceOnUse">
							<stop  offset="0.27" style="stop-color:#FFFFFF"/>
							<stop  offset="0.33" style="stop-color:#E1F2FD;stop-opacity:0.84"/>
							<stop  offset="0.45" style="stop-color:#A8D8FA;stop-opacity:0.55"/>
							<stop  offset="0.56" style="stop-color:#7BC4F8;stop-opacity:0.31"/>
							<stop  offset="0.65" style="stop-color:#5AB5F6;stop-opacity:0.14"/>
							<stop  offset="0.72" style="stop-color:#46ACF5;stop-opacity:4.000000e-02"/>
							<stop  offset="0.77" style="stop-color:#3FA9F5;stop-opacity:0"/>
						</radialGradient>
						<circle class="st12" cx="379" cy="395" r="228"/>
					</g>
				</g>
			</g>
			<g id="Center_Text">
				<path class="st13" d="M302.4,370.6h-8.5v12.8h-2.3v-31.2h10.8c6,0,10.4,2.9,10.4,9.2S308.4,370.6,302.4,370.6z M302.4,354.4
					h-8.5v14h8.5c4.6,0,8-2.1,8-7S307,354.4,302.4,354.4z"/>
				<path class="st13" d="M326.3,363.3c-5.5,0-7,4.9-7,9.5v10.6h-2.2v-22h1.9l0.3,4.4c1.1-2.9,3.9-4.8,7-4.7c0.7,0,1.4,0,2.2,0.1
					v2.2C327.7,363.4,327,363.3,326.3,363.3z"/>
				<path class="st13" d="M349.2,372.9h-16.8c0,2.4,0.8,4.7,2.3,6.6c1.3,1.6,3.3,2.4,5.3,2.3c1.8,0,3.5-0.7,4.8-1.9
					c0.9-0.9,1.4-1.9,1.7-3.1h2.3c-0.3,1.8-1.2,3.4-2.5,4.6c-1.7,1.7-3.9,2.6-6.3,2.6c-2.7,0.1-5.2-1.1-7-3.1
					c-3.5-4.8-3.8-11.2-0.7-16.2c1.7-2.4,4.5-3.9,7.5-3.8c5.9,0,9.4,5.1,9.4,10.6C349.3,372,349.2,372.4,349.2,372.9z M339.8,362.9
					c-4.5,0-7.4,3.6-7.4,8H347C346.9,366.7,344.3,362.9,339.8,362.9L339.8,362.9z"/>
				<path class="st13" d="M361.5,383.4h-2.2l-8.7-22h2.5l7.4,18.9l7.1-18.9h2.3L361.5,383.4z"/>
				<path class="st13" d="M390.4,372.9h-16.8c0,2.4,0.8,4.7,2.3,6.6c1.3,1.6,3.3,2.4,5.3,2.3c1.8,0,3.5-0.7,4.8-1.9
					c0.9-0.9,1.4-1.9,1.7-3.1h2.3c-0.3,1.8-1.2,3.4-2.5,4.6c-1.7,1.7-4,2.6-6.3,2.6c-2.7,0.1-5.3-1.1-7-3.1
					c-3.5-4.8-3.8-11.2-0.7-16.2c1.7-2.4,4.5-3.9,7.5-3.8c5.9,0,9.4,5.1,9.4,10.6C390.4,372,390.4,372.4,390.4,372.9z M381,362.9
					c-4.5,0-7.4,3.6-7.4,8h14.6C388.1,366.7,385.5,362.9,381,362.9L381,362.9z"/>
				<path class="st13" d="M410.9,383.4V369c0-3.8-1.7-6-5.7-6c-5.4,0-7.3,4.7-7.3,9.4v11h-2.2v-22h1.9l0.3,4
					c1.4-2.8,4.3-4.6,7.4-4.6c5.1,0,7.8,3.1,7.8,8.1v14.5L410.9,383.4z"/>
				<path class="st13" d="M426.8,383.7c-4.1,0-5.7-2.6-5.7-6.4v-13.9h-4.4v-2h4.4v-6.1l2.2-0.5v6.6h6.8v2h-6.8v13.8
					c0,2.6,0.7,4.5,3.6,4.5c1.2,0,2.3-0.2,3.5-0.4v1.9C429.2,383.5,428,383.7,426.8,383.7z"/>
				<path class="st13" d="M434.8,355.3v-3.1h3.1v3.1H434.8z M435.2,383.4v-22h2.3v22H435.2z"/>
				<path class="st13" d="M452.3,383.4h-2.2l-8.7-22h2.5l7.4,18.9l7.1-18.9h2.3L452.3,383.4z"/>
				<path class="st13" d="M481.2,372.9h-16.8c0,2.4,0.8,4.7,2.3,6.6c1.3,1.6,3.3,2.4,5.3,2.3c1.8,0,3.5-0.7,4.8-1.9
					c0.9-0.9,1.4-1.9,1.7-3.1h2.3c-0.3,1.8-1.2,3.4-2.5,4.6c-1.7,1.7-3.9,2.6-6.3,2.6c-2.7,0.1-5.2-1.1-7-3.1
					c-3.5-4.8-3.8-11.2-0.7-16.2c1.7-2.4,4.5-3.9,7.5-3.8c5.9,0,9.4,5.1,9.4,10.6C481.3,372,481.2,372.4,481.2,372.9z M471.8,362.9
					c-4.5,0-7.4,3.6-7.4,8H479C478.9,366.7,476.3,362.9,471.8,362.9L471.8,362.9z"/>
				<path class="st13" d="M330.1,427.4v-27.9L318.7,427h-2l-11.4-27.2v27.7H303v-31.2h3.2l11.5,27.7l11.3-27.7h3.2v31.2L330.1,427.4
					z"/>
				<path class="st13" d="M357.2,416.9h-16.8c0,2.4,0.8,4.7,2.3,6.6c1.3,1.6,3.3,2.4,5.3,2.3c1.8,0,3.5-0.7,4.8-1.9
					c0.9-0.9,1.4-1.9,1.7-3.1h2.3c-0.3,1.8-1.2,3.4-2.5,4.6c-1.7,1.7-3.9,2.6-6.3,2.5c-2.7,0.1-5.3-1.1-7-3.1
					c-3.5-4.8-3.8-11.2-0.7-16.2c1.7-2.4,4.5-3.9,7.5-3.8c5.9,0,9.4,5.1,9.4,10.6C357.3,416,357.2,416.4,357.2,416.9z M347.9,406.9
					c-4.5,0-7.4,3.6-7.4,8H355C355,410.7,352.4,406.9,347.9,406.9L347.9,406.9z"/>
				<path class="st13" d="M377.6,427.4l-0.3-3.9c-1.4,2.8-4.2,4.5-7.3,4.5c-2.1,0.1-4.2-0.7-5.9-2.1c-2.5-2.1-3.6-5.7-3.6-9.5
					c0-3.6,1.1-7.1,3.4-9.3c3.5-3.2,9-3,12.2,0.5c0.4,0.5,0.8,0.9,1.1,1.5v-13.5h2.2v31.8H377.6z M374.6,408.7
					c-1.2-1.2-2.9-1.8-4.6-1.7c-1.8-0.1-3.5,0.6-4.7,1.9c-1.7,2.1-2.6,4.8-2.5,7.5c0,3.1,0.9,6.1,2.9,7.9c1.2,1,2.8,1.6,4.4,1.5
					c1.7,0,3.3-0.6,4.5-1.8c1.9-2.1,3-4.8,2.8-7.6C377.4,413.1,376.6,410.6,374.6,408.7L374.6,408.7z"/>
				<path class="st13" d="M386.7,399.3v-3.1h3.1v3.1H386.7z M387.1,427.4v-22h2.3v22H387.1z"/>
				<path class="st13" d="M404.7,428c-2.4,0-4.8-0.9-6.5-2.6c-2.3-2.3-3.1-5.2-3.1-9s0.8-6.7,3.1-9c1.7-1.7,4.1-2.6,6.5-2.6
					c4.4-0.2,8.1,3.1,8.5,7.4h-2.3c-0.4-3.1-3.1-5.4-6.2-5.3c-1.8-0.1-3.6,0.6-4.9,1.9c-2,2.1-2.4,4.7-2.4,7.5s0.4,5.5,2.4,7.6
					c1.3,1.3,3.1,1.9,4.9,1.9c3.1,0,5.8-2.3,6.2-5.4h2.3C412.8,424.8,409.1,428.1,404.7,428z"/>
				<path class="st13" d="M418,399.3v-3.1h3.1v3.1H418z M418.4,427.4v-22h2.3v22H418.4z"/>
				<path class="st13" d="M443.5,427.4V413c0-3.8-1.7-6-5.7-6c-5.4,0-7.3,4.7-7.3,9.4v11h-2.2v-22h1.9l0.3,4
					c1.4-2.8,4.3-4.6,7.4-4.6c5.1,0,7.8,3.1,7.8,8.1v14.5L443.5,427.4z"/>
				<path class="st13" d="M469.8,416.9H453c0,2.4,0.8,4.7,2.3,6.6c1.3,1.6,3.3,2.4,5.3,2.3c1.8,0,3.5-0.7,4.8-1.9
					c0.9-0.9,1.4-1.9,1.7-3.1h2.3c-0.3,1.8-1.2,3.4-2.5,4.6c-1.7,1.7-3.9,2.6-6.3,2.6c-2.7,0.1-5.2-1.1-7-3.1
					c-3.5-4.8-3.8-11.2-0.7-16.2c1.7-2.4,4.5-3.9,7.5-3.8c5.9,0,9.4,5.1,9.4,10.6C469.8,416,469.8,416.4,469.8,416.9z M460.4,406.9
					c-4.5,0-7.4,3.6-7.4,8h14.6C467.5,410.7,464.9,406.9,460.4,406.9L460.4,406.9z"/>
			</g>
		</g>
	</g>
</g>
</svg>
